<svg width="16" height="16" viewBox="0 0 16 16" fill="none" xmlns="http://www.w3.org/2000/svg">
<path d="M12.8 10.4281V16H11.2V10.4281L9.5108 9.30198C8.68316 8.75022 8.21038 7.80079 8.26879 6.80782L8.66925 0H10.272L9.86603 6.90177C9.841 7.32733 10.0436 7.73423 10.3983 7.9707L11.2 8.50518V0H12.8V8.50514L13.6017 7.9707C13.9564 7.73423 14.159 7.32733 14.134 6.90177L13.728 0H15.3308L15.7312 6.80782C15.7896 7.80079 15.3169 8.75022 14.4892 9.30198L12.8 10.4281Z" fill="#00BAFF"/>
<path fill-rule="evenodd" clip-rule="evenodd" d="M4.79995 16V11.0887C5.13824 10.9531 5.57504 10.7288 6.0121 10.3646C6.94955 9.58338 7.79995 8.23078 7.79995 6.00001C7.79995 4.49924 7.43662 3.1018 6.80727 2.05288C6.18747 1.01988 5.21979 0.200012 3.99995 0.200012C2.78012 0.200012 1.81244 1.01988 1.19264 2.05288C0.563283 3.1018 0.199951 4.49924 0.199951 6.00001C0.199951 8.23078 1.05035 9.58338 1.9878 10.3646C2.42487 10.7288 2.86166 10.9531 3.19995 11.0887V16H4.79995ZM2.56463 2.87607C2.10819 3.6368 1.79995 4.73936 1.79995 6.00001C1.79995 7.76925 2.44955 8.66664 3.0121 9.13544C3.30703 9.38121 3.60226 9.52866 3.82116 9.61378C3.89014 9.64061 3.95064 9.66089 3.99995 9.67588C4.04926 9.66089 4.10976 9.64061 4.17874 9.61378C4.39764 9.52866 4.69287 9.38121 4.9878 9.13544C5.55035 8.66664 6.19995 7.76925 6.19995 6.00001C6.19995 4.73936 5.89171 3.6368 5.43528 2.87607C4.96929 2.09943 4.43697 1.80001 3.99995 1.80001C3.56293 1.80001 3.03061 2.09943 2.56463 2.87607Z" fill="#00BAFF"/>
</svg>
