<svg width="24" height="24" viewBox="0 0 24 24" fill="none" xmlns="http://www.w3.org/2000/svg">
<path d="M18 15.0542V22H15.9999V15.0542L14.0199 13.8167C12.7507 13.0234 12.0305 11.588 12.1534 10.0964L12.8201 2H14.8269L14.1466 10.2605C14.0852 11.0064 14.4453 11.7241 15.0799 12.1207L16 12.6958V2H18V12.6957L18.9201 12.1207C19.5547 11.7241 19.9147 11.0064 19.8533 10.2605L19.173 2H21.1798L21.8466 10.0964C21.9694 11.588 21.2492 13.0234 19.9801 13.8167L18 15.0542Z" fill="#00BAFF"/>
<path fill-rule="evenodd" clip-rule="evenodd" d="M8 22V15.972C8.41449 15.8594 8.92552 15.661 9.43919 15.31C10.6878 14.4568 11.75 12.8434 11.75 10C11.75 8.12686 11.2974 6.27291 10.5315 4.85524C9.79576 3.49358 8.59727 2.25 7 2.25C5.40273 2.25 4.20424 3.49358 3.46855 4.85524C2.7026 6.27291 2.25 8.12686 2.25 10C2.25 12.791 3.31905 14.394 4.55154 15.2567C5.06968 15.6194 5.58521 15.829 6 15.9506V22H8ZM5.22815 5.80593C4.63687 6.90031 4.25 8.42136 4.25 10C4.25 12.209 5.05595 13.1685 5.69846 13.6183C6.04598 13.8615 6.39687 13.9908 6.66166 14.0585C6.79292 14.092 6.89884 14.1093 6.96639 14.118C6.98677 14.1206 7.00347 14.1225 7.01609 14.1237C7.0283 14.1229 7.04438 14.1216 7.06398 14.1197C7.1303 14.1132 7.23457 14.0993 7.36385 14.0699C7.6247 14.0105 7.96953 13.8919 8.31081 13.6587C8.93718 13.2307 9.75 12.2816 9.75 10C9.75 8.42136 9.36313 6.90031 8.77185 5.80593C8.1503 4.65553 7.47379 4.25 7 4.25C6.52621 4.25 5.8497 4.65553 5.22815 5.80593Z" fill="#00BAFF"/>
</svg>
