<svg width="24" height="24" viewBox="0 0 24 24" fill="none" xmlns="http://www.w3.org/2000/svg">
<path d="M7.49998 18.4286C8.5651 18.4286 9.42855 17.5651 9.42855 16.5C9.42855 15.4349 8.5651 14.5714 7.49998 14.5714C6.43486 14.5714 5.57141 15.4349 5.57141 16.5C5.57141 17.5651 6.43486 18.4286 7.49998 18.4286Z" fill="#00BAFF"/>
<path fill-rule="evenodd" clip-rule="evenodd" d="M2 4.28571C2 3.02335 3.02335 2 4.28571 2H6.84786C7.90116 2 8.81809 2.71979 9.0682 3.74296L10.2601 8.61882L11.9219 9.07204L12.6532 6.87794L14.5506 7.5104L13.8544 9.59908L15.0703 9.9307C15.2757 9.98671 15.4781 10.0512 15.6772 10.1238L16.6956 8.08693L18.4845 8.98135L17.4498 11.0508C17.8046 11.3008 18.1386 11.5816 18.4478 11.8907C18.5487 11.9917 18.6477 12.0942 18.7447 12.1982L20.3571 10.5858L21.7714 12L19.9907 13.7806C21.2916 15.7494 22 18.0714 22 20.4665V22H2V4.28571ZM4.28571 4C4.12792 4 4 4.12792 4 4.28571V20H19.9893C19.8733 17.4836 18.8227 15.0941 17.0336 13.305C16.3436 12.615 15.4855 12.117 14.5441 11.8602L8.59707 10.2383L7.1254 4.21787C7.09414 4.08997 6.97952 4 6.84786 4H4.28571Z" fill="#00BAFF"/>
</svg>
