<svg width="16" height="16" viewBox="0 0 16 16" fill="none" xmlns="http://www.w3.org/2000/svg">
<path d="M4.5 13C5.32843 13 6 12.3284 6 11.5C6 10.6716 5.32843 10 4.5 10C3.67157 10 3 10.6716 3 11.5C3 12.3284 3.67157 13 4.5 13Z" fill="#00BAFF"/>
<path fill-rule="evenodd" clip-rule="evenodd" d="M0.200012 2.00001C0.200012 1.0059 1.0059 0.200012 2.00001 0.200012H4.18021C5.03823 0.200012 5.77698 0.80564 5.94525 1.647L6.68751 5.35829L7.92479 5.69573L8.49401 3.98809L10.0119 4.49405L9.4708 6.11737L10.3939 6.36912C10.5478 6.4111 10.6996 6.45917 10.849 6.51313L11.6422 4.92671L13.0733 5.64225L12.2671 7.25464C12.5383 7.44699 12.7939 7.66248 13.0307 7.89933C13.1039 7.97256 13.1758 8.04687 13.2464 8.12222L14.5 6.86865L15.6313 8.00002L14.2435 9.38783C15.2513 10.9195 15.8 12.724 15.8 14.585V15.8H0.200012V2.00001ZM2.00001 1.80001C1.88956 1.80001 1.80001 1.88956 1.80001 2.00001V14.2H14.1906C14.0953 12.2569 13.2814 10.4128 11.8993 9.0307C11.3654 8.49677 10.7014 8.11142 9.97289 7.91274L5.31251 6.64173L4.37632 1.96079C4.35763 1.8673 4.27554 1.80001 4.18021 1.80001H2.00001Z" fill="#00BAFF"/>
</svg>
