<svg width="16" height="16" viewBox="0 0 16 16" fill="none" xmlns="http://www.w3.org/2000/svg">
<path fill-rule="evenodd" clip-rule="evenodd" d="M13 0.199951C11.4536 0.199951 10.2 1.45355 10.2 2.99995C10.2 3.16526 10.2143 3.32722 10.2418 3.48466L5.04228 6.08443C4.53146 5.54003 3.80545 5.19995 3.00001 5.19995C1.45361 5.19995 0.200012 6.45355 0.200012 7.99995C0.200012 9.54635 1.45361 10.8 3.00001 10.8C3.80541 10.8 4.53138 10.4599 5.04219 9.91556L10.2418 12.5154C10.2143 12.6728 10.2 12.8347 10.2 13C10.2 14.5463 11.4536 15.8 13 15.8C14.5464 15.8 15.8 14.5463 15.8 13C15.8 11.4536 14.5464 10.2 13 10.2C12.1946 10.2 11.4685 10.54 10.9577 11.0845L5.7582 8.48471C5.78568 8.32725 5.80001 8.16528 5.80001 7.99995C5.80001 7.83467 5.78569 7.67273 5.75822 7.51532L10.9578 4.91553C11.4686 5.45989 12.1946 5.79995 13 5.79995C14.5464 5.79995 15.8 4.54635 15.8 2.99995C15.8 1.45355 14.5464 0.199951 13 0.199951ZM11.8 2.99995C11.8 2.33721 12.3373 1.79995 13 1.79995C13.6628 1.79995 14.2 2.33721 14.2 2.99995C14.2 3.66269 13.6628 4.19995 13 4.19995C12.3373 4.19995 11.8 3.66269 11.8 2.99995ZM1.80001 7.99995C1.80001 7.33721 2.33727 6.79995 3.00001 6.79995C3.66275 6.79995 4.20001 7.33721 4.20001 7.99995C4.20001 8.66269 3.66275 9.19995 3.00001 9.19995C2.33727 9.19995 1.80001 8.66269 1.80001 7.99995ZM13 11.8C12.3373 11.8 11.8 12.3372 11.8 13C11.8 13.6627 12.3373 14.2 13 14.2C13.6628 14.2 14.2 13.6627 14.2 13C14.2 12.3372 13.6628 11.8 13 11.8Z" fill="#00BAFF"/>
</svg>
