<svg width="24" height="24" viewBox="0 0 24 24" fill="none" xmlns="http://www.w3.org/2000/svg">
<path fill-rule="evenodd" clip-rule="evenodd" d="M12.7055 4H12.4415L6.71197 7.18144H2V15.5804H5.1244C5.16908 15.6515 5.21822 15.7283 5.27164 15.81C5.56001 16.2509 5.97947 16.8435 6.50055 17.4411C7.01836 18.0348 7.65947 18.6601 8.3961 19.1428C9.13124 19.6245 10.017 20 11.0021 20H11.1673L11.3242 19.9478C13.7174 19.1504 15.4533 17.97 16.5962 16.9806C17.1675 16.4861 17.5916 16.0384 17.8772 15.7083C17.9159 15.6635 17.9522 15.6208 17.9859 15.5804H22V5.90886H18.4686C18.4002 5.86491 18.3203 5.81465 18.2298 5.75949C17.9116 5.56553 17.4585 5.30847 16.9113 5.05124C15.8339 4.54474 14.313 4 12.7055 4ZM16.2394 14.4865L12.6865 11.1137C12.4627 11.1576 12.1777 11.2093 11.843 11.2607C10.9959 11.391 9.81968 11.5219 8.50719 11.5219H7.96092L6.42967 9.21755H4.03716V13.5443H6.30772L6.59715 14.0753L6.60018 14.0808L6.61667 14.1102C6.63208 14.1373 6.6562 14.1793 6.68855 14.234C6.75331 14.3434 6.85066 14.503 6.9768 14.6959C7.23041 15.0836 7.59381 15.5959 8.03626 16.1032C8.48197 16.6143 8.98504 17.094 9.51304 17.44C9.98539 17.7495 10.4337 17.9237 10.8517 17.9577C12.86 17.2608 14.3117 16.2647 15.2625 15.4416C15.6874 15.0737 16.0115 14.7411 16.2394 14.4865ZM13.2937 8.88186L12.7513 9.01738L12.7497 9.01779L12.7372 9.02081C12.7251 9.0237 12.7058 9.02829 12.6794 9.03433C12.6267 9.04642 12.5462 9.06433 12.4407 9.08614C12.2296 9.12979 11.9194 9.18891 11.5332 9.2483C10.8787 9.34894 10.0139 9.44909 9.04808 9.47772L8.43443 8.55424L12.9584 6.04224C14.056 6.09479 15.1594 6.47777 16.0443 6.89373C16.5122 7.11372 16.9001 7.33387 17.1691 7.49782C17.3032 7.57957 17.4067 7.64674 17.4748 7.69208C17.5088 7.71474 17.5339 7.73189 17.5494 7.74263L17.567 7.75489L17.5679 7.75555L17.8326 7.94497H19.9628V13.5443H18.205L13.2937 8.88186Z" fill="#00BAFF"/>
</svg>
