<svg width="16" height="16" viewBox="0 0 16 16" fill="none" xmlns="http://www.w3.org/2000/svg">
<path fill-rule="evenodd" clip-rule="evenodd" d="M8.49997 1.5H8.31112L8.1422 1.58446C7.12246 2.09433 5.98249 2.72787 5.10306 3.23041C4.6621 3.48239 4.28414 3.70286 4.01623 3.86045C3.92372 3.91487 3.84429 3.96181 3.77987 4H0.200012V11.6H2.67795C2.73684 11.6553 2.80549 11.719 2.88288 11.7896C3.15904 12.0414 3.54921 12.3828 4.00575 12.7416C4.89005 13.4364 6.12912 14.2819 7.30598 14.5761L7.56744 14.6415L7.81515 14.5353C9.67588 13.7379 11.0083 12.6731 11.8782 11.8032C12.3133 11.3681 12.6339 10.9805 12.8486 10.6971C12.8743 10.6633 12.8985 10.6308 12.9211 10.6H15.8V3H13.2128C13.1425 2.96078 13.0549 2.91287 12.9524 2.85859C12.6722 2.71025 12.2771 2.51269 11.8151 2.31468C10.9143 1.92861 9.66695 1.5 8.49997 1.5ZM11.4535 9.8849L8.76248 7.19388C8.58186 7.23752 8.35346 7.28748 8.08058 7.3371C7.35131 7.46969 6.3032 7.6 4.99997 7.6H4.50555L3.50555 5.6H1.80001V10H3.33138L3.56548 10.2341L3.57021 10.2388L3.58867 10.257C3.60551 10.2735 3.63126 10.2986 3.6652 10.3311C3.73312 10.3963 3.83362 10.4912 3.96089 10.6073C4.21599 10.8399 4.57582 11.1547 4.99427 11.4834C5.77419 12.0962 6.67198 12.6881 7.44413 12.9499C8.94799 12.2625 10.0322 11.3864 10.7468 10.6718C11.0473 10.3713 11.2817 10.1002 11.4535 9.8849ZM5.49101 5.99322L5.04917 5.10955C5.28444 4.97203 5.57345 4.80442 5.89688 4.61959C6.71538 4.15188 7.74555 3.57899 8.68053 3.1048C9.47512 3.14602 10.3962 3.44732 11.1848 3.78532C11.5978 3.96231 11.9527 4.13974 12.2038 4.27266C12.329 4.33895 12.4276 4.39374 12.4938 4.4313C12.5268 4.45006 12.5517 4.46449 12.5678 4.47385L12.585 4.484L12.5889 4.48629L12.7784 4.6H14.2V9H12.8313L9.21605 5.3847L8.74734 5.54094L8.74161 5.54275C8.73411 5.54512 8.72096 5.54921 8.70226 5.55478C8.66486 5.56592 8.60531 5.58298 8.5246 5.60403C8.36314 5.64615 8.11716 5.70421 7.79437 5.7629C7.23961 5.86377 6.45887 5.96632 5.49101 5.99322Z" fill="#00BAFF"/>
</svg>
