<svg width="24" height="24" viewBox="0 0 24 24" fill="none" xmlns="http://www.w3.org/2000/svg">
<path fill-rule="evenodd" clip-rule="evenodd" d="M11 5C11 6.52631 9.86017 7.78639 8.38529 7.97549L7.09016 14.0194C6.4862 13.7656 5.82638 13.6185 5.13428 13.6016L6.42963 7.55665C5.57188 7.02867 5 6.08112 5 5C5 3.34315 6.34315 2 8 2C9.65685 2 11 3.34315 11 5ZM9 5C9 5.55228 8.55228 6 8 6C7.44772 6 7 5.55228 7 5C7 4.44772 7.44772 4 8 4C8.55228 4 9 4.44772 9 5Z" fill="#37517E"/>
<path fill-rule="evenodd" clip-rule="evenodd" d="M21 6C21 7.65685 19.6569 9 18 9C17.5369 9 17.0983 8.89505 16.7066 8.70765L9.45985 15.9544C9.0804 15.3999 8.60021 14.9197 8.04564 14.5402L15.2924 7.29346C15.105 6.90181 15 6.46316 15 6C15 4.34315 16.3431 3 18 3C19.6569 3 21 4.34315 21 6ZM19 6C19 6.55228 18.5523 7 18 7C17.4477 7 17 6.55228 17 6C17 5.44772 17.4477 5 18 5C18.5523 5 19 5.44772 19 6Z" fill="#37517E"/>
<path fill-rule="evenodd" clip-rule="evenodd" d="M19 19C20.6569 19 22 17.6569 22 16C22 14.3431 20.6569 13 19 13C17.4736 13 16.2135 14.1399 16.0245 15.6149L9.98069 16.91C10.2344 17.514 10.3815 18.1738 10.3984 18.8659L16.4435 17.5705C16.9715 18.4282 17.919 19 19 19ZM19 17C19.5523 17 20 16.5523 20 16C20 15.4477 19.5523 15 19 15C18.4477 15 18 15.4477 18 16C18 16.5523 18.4477 17 19 17Z" fill="#37517E"/>
<path fill-rule="evenodd" clip-rule="evenodd" d="M8 19C8 20.6569 6.65685 22 5 22C3.34315 22 2 20.6569 2 19C2 17.3431 3.34315 16 5 16C6.65685 16 8 17.3431 8 19ZM5 20C5.55228 20 6 19.5523 6 19C6 18.4477 5.55228 18 5 18C4.44772 18 4 18.4477 4 19C4 19.5523 4.44772 20 5 20Z" fill="#37517E"/>
</svg>
