<svg width="16" height="16" viewBox="0 0 16 16" fill="none" xmlns="http://www.w3.org/2000/svg">
<path fill-rule="evenodd" clip-rule="evenodd" d="M4.86327 4.9738C6.07182 4.79787 7 3.75733 7 2.5C7 1.11929 5.88071 0 4.5 0C3.11929 0 2 1.11929 2 2.5C2 3.44139 2.52032 4.26125 3.28906 4.68767L2.505 8.99999C3.05896 9.0006 3.58947 9.1013 4.07942 9.28498L4.86327 4.9738ZM4.5 3.4C4.99706 3.4 5.4 2.99706 5.4 2.5C5.4 2.00294 4.99706 1.6 4.5 1.6C4.00294 1.6 3.6 2.00294 3.6 2.5C3.6 2.99706 4.00294 3.4 4.5 3.4Z" fill="#37517E"/>
<path fill-rule="evenodd" clip-rule="evenodd" d="M2.5 16C3.88071 16 5 14.8807 5 13.5C5 12.1193 3.88071 11 2.5 11C1.11929 11 0 12.1193 0 13.5C0 14.8807 1.11929 16 2.5 16ZM2.5 14.4C2.99706 14.4 3.4 13.9971 3.4 13.5C3.4 13.0029 2.99706 12.6 2.5 12.6C2.00294 12.6 1.6 13.0029 1.6 13.5C1.6 13.9971 2.00294 14.4 2.5 14.4Z" fill="#37517E"/>
<path fill-rule="evenodd" clip-rule="evenodd" d="M13.5 14C14.8807 14 16 12.8807 16 11.5C16 10.1193 14.8807 9 13.5 9C12.2379 9 11.1943 9.93518 11.0243 11.1504C11.0249 11.1458 11.0255 11.1412 11.0262 11.1367L6.71496 11.9205C6.89864 12.4105 6.99934 12.941 6.99995 13.4949L11.3123 12.7109C11.7387 13.4797 12.5586 14 13.5 14ZM13.5 12.4C13.9971 12.4 14.4 11.9971 14.4 11.5C14.4 11.0029 13.9971 10.6 13.5 10.6C13.0029 10.6 12.6 11.0029 12.6 11.5C12.6 11.9971 13.0029 12.4 13.5 12.4Z" fill="#37517E"/>
<path fill-rule="evenodd" clip-rule="evenodd" d="M12.5 6C13.8807 6 15 4.88071 15 3.5C15 2.11929 13.8807 1 12.5 1C11.1193 1 10 2.11929 10 3.5C10 3.89848 10.0932 4.27519 10.2591 4.6095L5.06585 9.80272C5.50694 10.1094 5.89053 10.493 6.19722 10.9341L11.3904 5.74089C11.7247 5.90675 12.1015 6 12.5 6ZM12.5 4.4C12.9971 4.4 13.4 3.99706 13.4 3.5C13.4 3.00294 12.9971 2.6 12.5 2.6C12.0029 2.6 11.6 3.00294 11.6 3.5C11.6 3.99706 12.0029 4.4 12.5 4.4Z" fill="#37517E"/>
</svg>
