<svg width="16" height="16" viewBox="0 0 16 16" fill="none" xmlns="http://www.w3.org/2000/svg">
<path d="M5.70005 6.50005C5.70005 7.16279 5.16279 7.70005 4.50005 7.70005C3.83731 7.70005 3.30005 7.16279 3.30005 6.50005C3.30005 5.83731 3.83731 5.30005 4.50005 5.30005C5.16279 5.30005 5.70005 5.83731 5.70005 6.50005Z" fill="#37517E"/>
<path d="M9.20005 6.50005C9.20005 7.16279 8.66279 7.70005 8.00005 7.70005C7.33731 7.70005 6.80005 7.16279 6.80005 6.50005C6.80005 5.83731 7.33731 5.30005 8.00005 5.30005C8.66279 5.30005 9.20005 5.83731 9.20005 6.50005Z" fill="#37517E"/>
<path d="M11.5 7.70005C12.1628 7.70005 12.7 7.16279 12.7 6.50005C12.7 5.83731 12.1628 5.30005 11.5 5.30005C10.8373 5.30005 10.3 5.83731 10.3 6.50005C10.3 7.16279 10.8373 7.70005 11.5 7.70005Z" fill="#37517E"/>
<path fill-rule="evenodd" clip-rule="evenodd" d="M1.84615 0C0.826552 0 0 0.819022 0 1.82934V10.976C0 11.9863 0.826551 12.8054 1.84615 12.8054H4.10256V16L9.26096 12.8054H14.1538C15.1734 12.8054 16 11.9863 16 10.976V1.82934C16 0.819022 15.1734 0 14.1538 0H1.84615ZM1.64103 1.82934C1.64103 1.71708 1.73286 1.62608 1.84615 1.62608H14.1538C14.2671 1.62608 14.359 1.71708 14.359 1.82934V10.976C14.359 11.0883 14.2671 11.1793 14.1538 11.1793H8.79032L5.74359 13.0662V11.1793H1.84615C1.73286 11.1793 1.64103 11.0883 1.64103 10.976V1.82934Z" fill="#37517E"/>
</svg>
