<svg width="24" height="24" viewBox="0 0 24 24" fill="none" xmlns="http://www.w3.org/2000/svg">
<path d="M12.5548 13.6119L16.0486 5.8757L17.3103 9.34212L19.1896 8.65808L16.7955 2.08023L15.3658 2.60061L15.3387 2.58839L15.3268 2.61481L10.2177 4.47437L10.9017 6.35376L14.1765 5.16183L10.7324 12.7879C11.3917 12.9585 12.0062 13.2402 12.5548 13.6119Z" fill="#37517E"/>
<path fill-rule="evenodd" clip-rule="evenodd" d="M12.75 18.5C12.75 20.433 11.183 22 9.25 22C7.317 22 5.75 20.433 5.75 18.5C5.75 16.567 7.317 15 9.25 15C11.183 15 12.75 16.567 12.75 18.5ZM10.75 18.5C10.75 19.3284 10.0784 20 9.25 20C8.42157 20 7.75 19.3284 7.75 18.5C7.75 17.6716 8.42157 17 9.25 17C10.0784 17 10.75 17.6716 10.75 18.5Z" fill="#37517E"/>
</svg>
