<svg width="16" height="16" viewBox="0 0 16 16" fill="none" xmlns="http://www.w3.org/2000/svg">
<path d="M9.5 11C9.5 10.1716 10.1716 9.5 11 9.5C11.8284 9.5 12.5 10.1716 12.5 11C12.5 11.8284 11.8284 12.5 11 12.5C10.1716 12.5 9.5 11.8284 9.5 11Z" fill="#37517E"/>
<path fill-rule="evenodd" clip-rule="evenodd" d="M12.8 2.19995H15.8V15.8H0.199951V2.19995H2.70005V0H4.30005V2.19995H11.2V0H12.8V2.19995ZM1.79995 14.2V6H14.2V14.2H1.79995ZM11.2 3V4.5H12.8V3H11.2ZM2.70005 3V4.5H4.30005V3H2.70005Z" fill="#37517E"/>
</svg>
