<svg width="24" height="24" viewBox="0 0 24 24" fill="none" xmlns="http://www.w3.org/2000/svg">
<path d="M7 9H17V7H7V9Z" fill="#00BAFF"/>
<path d="M17 13H7V11H17V13Z" fill="#00BAFF"/>
<path fill-rule="evenodd" clip-rule="evenodd" d="M5 2C3.34315 2 2 3.34315 2 5V15C2 16.6569 3.34315 18 5 18H7V22L14.2361 18H19C20.6569 18 22 16.6569 22 15V5C22 3.34315 20.6569 2 19 2H5ZM4 5C4 4.44772 4.44772 4 5 4H19C19.5523 4 20 4.44772 20 5V15C20 15.5523 19.5523 16 19 16H13.7639L9 18.7639V16H5C4.44772 16 4 15.5523 4 15V5Z" fill="#00BAFF"/>
</svg>
