<svg width="16" height="16" viewBox="0 0 16 16" fill="none" xmlns="http://www.w3.org/2000/svg">
<path d="M4 4.20007H12V5.80007H4V4.20007Z" fill="#37517E"/>
<path d="M12 7.20007H4V8.80007H12V7.20007Z" fill="#37517E"/>
<path fill-rule="evenodd" clip-rule="evenodd" d="M1.84615 0C0.826552 0 0 0.819022 0 1.82934V10.976C0 11.9863 0.826551 12.8054 1.84615 12.8054H4.10256V16L9.26096 12.8054H14.1538C15.1734 12.8054 16 11.9863 16 10.976V1.82934C16 0.819022 15.1734 0 14.1538 0H1.84615ZM1.64103 1.82934C1.64103 1.71708 1.73286 1.62608 1.84615 1.62608H14.1538C14.2671 1.62608 14.359 1.71708 14.359 1.82934V10.976C14.359 11.0883 14.2671 11.1793 14.1538 11.1793H8.79032L5.74359 13.0662V11.1793H1.84615C1.73286 11.1793 1.64103 11.0883 1.64103 10.976V1.82934Z" fill="#37517E"/>
</svg>
