<svg width="24" height="24" viewBox="0 0 24 24" fill="none" xmlns="http://www.w3.org/2000/svg">
<path fill-rule="evenodd" clip-rule="evenodd" d="M20.3863 3.6171C18.2347 1.46553 14.7463 1.46552 12.5948 3.6171L9.49859 6.71327C7.34705 8.86481 7.34693 12.3532 9.49839 14.5048C9.86559 14.872 10.2717 15.1764 10.7033 15.4182C10.7274 15.4317 10.7516 15.445 10.7759 15.4582C11.432 15.8127 12.1446 16.0244 12.8683 16.0933L9.9886 18.9731C8.61941 20.3423 6.39952 20.3423 5.03033 18.9731C3.66115 17.6039 3.66115 15.384 5.03033 14.0148L6.37631 12.6688C6.1331 11.8374 6.04047 10.9713 6.0984 10.1134L3.61369 12.5982C1.4621 14.7497 1.4621 18.2381 3.61369 20.3897C5.76527 22.5413 9.25367 22.5413 11.4052 20.3897L14.4535 17.3414C16.6051 15.1898 16.6051 11.7014 14.4535 9.54986C13.8933 8.98959 13.2425 8.57531 12.5485 8.30694C12.0755 8.12398 11.5823 8.00876 11.0839 7.96124L14.0114 5.03375C15.3806 3.66456 17.6005 3.66456 18.9697 5.03375C20.3389 6.40294 20.3389 8.62283 18.9697 9.99202L17.5759 11.3858C17.8191 12.2172 17.9117 13.0834 17.8538 13.9412L20.3863 11.4087C22.5379 9.25709 22.5379 5.76868 20.3863 3.6171ZM9.94249 9.99352C9.7492 11.083 10.0734 12.2464 10.9152 13.0882C11.2905 13.4635 11.7297 13.7359 12.1978 13.9055C12.7792 14.1161 13.4054 14.1682 14.0097 14.061C14.2029 12.9716 13.8786 11.8083 13.0369 10.9665C12.6616 10.5912 12.2225 10.3185 11.7544 10.149C11.1731 9.93838 10.547 9.88636 9.94249 9.99352Z" fill="#37517E"/>
</svg>
