<svg width="16" height="16" viewBox="0 0 16 16" fill="none" xmlns="http://www.w3.org/2000/svg">
<path fill-rule="evenodd" clip-rule="evenodd" d="M1.91126 16C2.62846 14.8082 3.22772 13.429 3.34873 12.0458C3.42644 11.1575 3.31719 10.508 3.13034 9.97221C2.93797 9.42069 2.6554 8.96094 2.32061 8.42245L2.30543 8.39803L2.30542 8.39803C1.98371 7.88065 1.61397 7.28603 1.35894 6.55482C1.09438 5.7963 0.960793 4.9189 1.05739 3.81482C1.17665 2.45162 1.65954 1.14437 2.25483 0H4.08883C3.3716 1.19185 2.77231 2.57112 2.6513 3.95427C2.57358 4.84258 2.68283 5.49216 2.86969 6.0279C3.06205 6.57943 3.34463 7.03918 3.67941 7.57767L3.69459 7.60208C4.01631 8.11946 4.38605 8.71409 4.64108 9.4453C4.90564 10.2038 5.03923 11.0812 4.94264 12.1853C4.82338 13.5485 4.34052 14.8557 3.74525 16H1.91126ZM8.74525 16H6.91126C7.62846 14.8082 8.22772 13.429 8.34873 12.0458C8.42644 11.1575 8.31719 10.508 8.13034 9.97221C7.93797 9.42069 7.6554 8.96094 7.32061 8.42245L7.30543 8.39803C6.98372 7.88066 6.61397 7.28603 6.35894 6.55482C6.09438 5.7963 5.96079 4.9189 6.05739 3.81482C6.17665 2.45162 6.65954 1.14437 7.25483 0H9.08883C8.3716 1.19185 7.77231 2.57112 7.6513 3.95427C7.57358 4.84258 7.68283 5.49216 7.86969 6.0279C8.06205 6.57943 8.34463 7.03918 8.67941 7.57767L8.69459 7.60208C9.01631 8.11946 9.38605 8.71409 9.64108 9.4453C9.90564 10.2038 10.0392 11.0812 9.94264 12.1853C9.82338 13.5485 9.34052 14.8557 8.74525 16ZM13.7452 16H11.9113C12.6285 14.8082 13.2277 13.429 13.3487 12.0458C13.4264 11.1575 13.3172 10.508 13.1303 9.97221C12.938 9.42069 12.6554 8.96094 12.3206 8.42245L12.3054 8.39803L12.3054 8.39803C11.9837 7.88065 11.614 7.28603 11.3589 6.55482C11.0944 5.7963 10.9608 4.9189 11.0574 3.81482C11.1767 2.45162 11.6595 1.14437 12.2548 0H14.0888C13.3716 1.19185 12.7723 2.57112 12.6513 3.95427C12.5736 4.84258 12.6828 5.49216 12.8697 6.0279C13.062 6.57943 13.3446 7.03918 13.6794 7.57767L13.6946 7.60208C14.0163 8.11946 14.3861 8.71409 14.6411 9.4453C14.9056 10.2038 15.0392 11.0812 14.9426 12.1853C14.8234 13.5485 14.3405 14.8557 13.7452 16Z" fill="#00BAFF"/>
</svg>
