<svg width="24" height="24" viewBox="0 0 24 24" fill="none" xmlns="http://www.w3.org/2000/svg">
<path d="M16.9042 17.5409L16.0266 21.271L17.9735 21.729L18.8514 17.9978C18.1576 17.9776 17.4993 17.816 16.9042 17.5409Z" fill="#37517E"/>
<path d="M11.8737 9.52664C12.4671 9.80589 13.1244 9.97188 13.8176 9.99674L10.9717 21.7357L9.02798 21.2645L11.8737 9.52664Z" fill="#37517E"/>
<path d="M4.37817 11.5288C4.97186 11.8074 5.62929 11.9727 6.3226 11.9969L3.97225 21.7347L2.02808 21.2655L4.37817 11.5288Z" fill="#37517E"/>
<path fill-rule="evenodd" clip-rule="evenodd" d="M19 14C19.5523 14 20 13.5523 20 13C20 12.4477 19.5523 12 19 12C18.4477 12 18 12.4477 18 13C18 13.5523 18.4477 14 19 14ZM19 16C20.6569 16 22 14.6569 22 13C22 11.3431 20.6569 10 19 10C17.3431 10 16 11.3431 16 13C16 14.6569 17.3431 16 19 16Z" fill="#37517E"/>
<path fill-rule="evenodd" clip-rule="evenodd" d="M14 6C14.5523 6 15 5.55228 15 5C15 4.44772 14.5523 4 14 4C13.4477 4 13 4.44772 13 5C13 5.55228 13.4477 6 14 6ZM14 8C15.6569 8 17 6.65685 17 5C17 3.34315 15.6569 2 14 2C12.3431 2 11 3.34315 11 5C11 6.65685 12.3431 8 14 8Z" fill="#37517E"/>
<path fill-rule="evenodd" clip-rule="evenodd" d="M6.5 8C7.05228 8 7.5 7.55228 7.5 7C7.5 6.44772 7.05228 6 6.5 6C5.94772 6 5.5 6.44772 5.5 7C5.5 7.55228 5.94772 8 6.5 8ZM6.5 10C8.15685 10 9.5 8.65685 9.5 7C9.5 5.34315 8.15685 4 6.5 4C4.84315 4 3.5 5.34315 3.5 7C3.5 8.65685 4.84315 10 6.5 10Z" fill="#37517E"/>
</svg>
