<svg width="16" height="16" viewBox="0 0 16 16" fill="none" xmlns="http://www.w3.org/2000/svg">
<path fill-rule="evenodd" clip-rule="evenodd" d="M9.5 5C10.8807 5 12 3.88071 12 2.5C12 1.11929 10.8807 0 9.5 0C8.11929 0 7 1.11929 7 2.5C7 3.88071 8.11929 5 9.5 5ZM9.5 3.4C9.99706 3.4 10.4 2.99706 10.4 2.5C10.4 2.00294 9.99706 1.6 9.5 1.6C9.00294 1.6 8.6 2.00294 8.6 2.5C8.6 2.99706 9.00294 3.4 9.5 3.4Z" fill="#37517E"/>
<path fill-rule="evenodd" clip-rule="evenodd" d="M13.5 11C14.8807 11 16 9.88071 16 8.5C16 7.11929 14.8807 6 13.5 6C12.1193 6 11 7.11929 11 8.5C11 9.88071 12.1193 11 13.5 11ZM13.5 9.4C13.9971 9.4 14.4 8.99706 14.4 8.5C14.4 8.00294 13.9971 7.6 13.5 7.6C13.0029 7.6 12.6 8.00294 12.6 8.5C12.6 8.99706 13.0029 9.4 13.5 9.4Z" fill="#37517E"/>
<path fill-rule="evenodd" clip-rule="evenodd" d="M3.5 7C4.88071 7 6 5.88071 6 4.5C6 3.11929 4.88071 2 3.5 2C2.11929 2 1 3.11929 1 4.5C1 5.88071 2.11929 7 3.5 7ZM3.5 5.4C3.99706 5.4 4.4 4.99706 4.4 4.5C4.4 4.00294 3.99706 3.6 3.5 3.6C3.00294 3.6 2.6 4.00294 2.6 4.5C2.6 4.99706 3.00294 5.4 3.5 5.4Z" fill="#37517E"/>
<path d="M7.816 6.23926C8.29403 6.45487 8.82081 6.58152 9.37525 6.5981L7.27937 15.6799L5.72035 15.3201L7.816 6.23926Z" fill="#37517E"/>
<path d="M11.8749 12.2653L11.2177 15.3324L12.7822 15.6676L13.4396 12.5995C12.8843 12.5915 12.3558 12.4731 11.8749 12.2653Z" fill="#37517E"/>
<path d="M3.38891 8.59848C2.83428 8.58372 2.30711 8.45883 1.82847 8.24486L0.219849 15.3228L1.78006 15.6774L3.38891 8.59848Z" fill="#37517E"/>
</svg>
