<svg width="16" height="16" viewBox="0 0 16 16" fill="none" xmlns="http://www.w3.org/2000/svg">
<path fill-rule="evenodd" clip-rule="evenodd" d="M7.77336 1.21203C7.85562 1.2558 7.93129 1.29774 7.99995 1.33702C8.06861 1.29775 8.14428 1.2558 8.22654 1.21203C8.64621 0.988758 9.24552 0.713871 9.96768 0.506992C11.4117 0.0933277 13.4009 -0.0604338 15.3969 1.08315L15.8 1.3141V15.6952L14.603 15.0094C13.099 14.1476 11.5883 14.2445 10.4072 14.5829C9.81688 14.752 9.32244 14.9784 8.97649 15.1625C8.80423 15.2541 8.67079 15.3342 8.58292 15.3896C8.53903 15.4172 8.50667 15.4386 8.48669 15.4521L8.46616 15.4662L8.46402 15.4677L8.4631 15.4683L7.99995 15.8L7.5365 15.4681L7.53546 15.4673L7.53374 15.4662L7.51321 15.4521C7.49323 15.4386 7.46087 15.4173 7.41699 15.3896C7.32911 15.3342 7.19568 15.2541 7.02342 15.1625C6.67746 14.9784 6.18302 14.752 5.59268 14.5829C4.41165 14.2445 2.90091 14.1476 1.39686 15.0094L0.199951 15.6952V1.3141L0.60304 1.08315C2.59899 -0.0604363 4.58825 0.0933259 6.03223 0.506991C6.75438 0.713871 7.3537 0.988757 7.77336 1.21203ZM1.79995 13.0762V2.26749C3.16825 1.63354 4.51718 1.74143 5.59267 2.04953C6.18302 2.21865 6.67746 2.4451 7.02342 2.62916C7.0878 2.66341 7.14676 2.69605 7.19995 2.72639V10.9787H8.79995V2.72639C8.85314 2.69605 8.9121 2.66341 8.97649 2.62916C9.32244 2.4451 9.81688 2.21865 10.4072 2.04953C11.4827 1.74143 12.8316 1.63354 14.2 2.2675V13.0762C12.6242 12.5451 11.1218 12.7097 9.96768 13.0403C9.24552 13.2472 8.64621 13.5221 8.22654 13.7454C8.14428 13.7891 8.06861 13.8311 7.99995 13.8704C7.93129 13.8311 7.85562 13.7891 7.77336 13.7454C7.35369 13.5221 6.75438 13.2472 6.03223 13.0403C4.87813 12.7097 3.37571 12.5451 1.79995 13.0762Z" fill="#00BAFF"/>
</svg>
