<svg width="24" height="24" viewBox="0 0 24 24" fill="none" xmlns="http://www.w3.org/2000/svg">
<path fill-rule="evenodd" clip-rule="evenodd" d="M12 2C10.067 2 8.5 3.567 8.5 5.5C8.5 7.433 10.067 9 12 9C13.474 9 14.7352 8.08883 15.251 6.79902C16.9058 7.66836 18.1699 9.18067 18.7113 11.0039C19.4869 11.0332 20.2213 11.2231 20.8824 11.5412C20.3728 8.41426 18.2518 5.82849 15.3996 4.66408C15.0248 3.13472 13.6449 2 12 2ZM10.5 5.5C10.5 4.67157 11.1716 4 12 4C12.8284 4 13.5 4.67157 13.5 5.5C13.5 6.32843 12.8284 7 12 7C11.1716 7 10.5 6.32843 10.5 5.5Z" fill="#00BAFF"/>
<path fill-rule="evenodd" clip-rule="evenodd" d="M5.5 13C5.33027 13 5.16336 13.0121 5.00009 13.0354L5 12.9999C5 11.0416 5.80411 9.2712 7.10015 8.00075C6.76888 7.35301 6.56229 6.63094 6.512 5.86617C4.37612 7.51176 3 10.0951 3 12.9999C3 13.3366 3.01849 13.669 3.05451 13.9961C2.40389 14.6316 2 15.5186 2 16.5C2 18.433 3.567 20 5.5 20C7.433 20 9 18.433 9 16.5C9 14.567 7.433 13 5.5 13ZM4 16.5C4 15.6716 4.67157 15 5.5 15C6.32843 15 7 15.6716 7 16.5C7 17.3284 6.32843 18 5.5 18C4.67157 18 4 17.3284 4 16.5Z" fill="#00BAFF"/>
<path fill-rule="evenodd" clip-rule="evenodd" d="M15.8835 18.8247C15.3339 18.2065 15 17.3923 15 16.5C15 14.567 16.567 13 18.5 13C20.433 13 22 14.567 22 16.5C22 18.433 20.433 20 18.5 20C18.2441 20 17.9945 19.9725 17.7542 19.9204C16.1943 21.2189 14.1883 21.9999 12 21.9999C10.6917 21.9999 9.44858 21.7207 8.32698 21.2187C8.9738 20.8304 9.53419 20.3128 9.97244 19.7017C10.6142 19.8957 11.2949 19.9999 12 19.9999C13.4367 19.9999 14.7723 19.5671 15.8835 18.8247ZM17 16.5C17 15.6716 17.6716 15 18.5 15C19.3284 15 20 15.6716 20 16.5C20 17.3284 19.3284 18 18.5 18C17.6716 18 17 17.3284 17 16.5Z" fill="#00BAFF"/>
</svg>
