<svg width="16" height="16" viewBox="0 0 16 16" fill="none" xmlns="http://www.w3.org/2000/svg">
<path fill-rule="evenodd" clip-rule="evenodd" d="M11.5 1.20001C11.7683 1.20001 12.03 1.2322 12.281 1.29318C12.4839 1.23943 12.6958 1.2079 12.914 1.20131C12.9425 1.20045 12.9712 1.20001 13 1.20001C14.5463 1.20001 15.8 2.45361 15.8 4.00001C15.8 5.48638 14.6418 6.70224 13.1787 6.7944L11.6777 15.8H3.32233L1.77546 6.51878C0.842702 6.06448 0.199951 5.1073 0.199951 4.00001C0.199951 2.50324 1.37439 1.28077 2.85201 1.20385C3.36492 0.591184 4.13641 0.200012 4.99995 0.200012C5.78318 0.200012 6.49129 0.521594 6.99946 1.03992C7.10981 0.927423 7.23089 0.823122 7.36228 0.72863C7.82279 0.396019 8.38848 0.200012 8.99995 0.200012C9.86987 0.200012 10.6462 0.596813 11.1592 1.21746C11.2714 1.20592 11.385 1.20001 11.5 1.20001ZM2.99995 5.20001H13C13.6627 5.20001 14.2 4.66275 14.2 4.00001C14.2 3.33727 13.6627 2.80001 13 2.80001C12.9875 2.80001 12.975 2.8002 12.9627 2.80057C12.3172 2.82027 11.8 3.34974 11.8 4.00001H10.2C10.2 3.66501 10.2588 3.34375 10.3667 3.046L10.0732 2.46221C9.8749 2.06781 9.46798 1.80001 8.99995 1.80001C8.78135 1.80001 8.5764 1.85847 8.39987 1.9606C8.36341 1.98165 8.32857 2.0045 8.2952 2.02866C8.16184 2.12558 8.04922 2.2493 7.96523 2.3919C7.8758 2.54439 7.82119 2.71483 7.80492 2.89009C7.80163 2.92629 7.79995 2.96296 7.79995 3.00001C7.79976 3.20396 7.85144 3.41068 7.96074 3.60001L6.5751 4.40001C6.31529 3.95 6.19459 3.45785 6.19966 2.97336C6.18548 2.32292 5.65378 1.80001 4.99995 1.80001C4.55274 1.80001 4.16156 2.04427 3.95434 2.41049L3.6894 2.87871L3.15583 2.80996C3.10515 2.80342 3.05314 2.80001 2.99995 2.80001C2.33721 2.80001 1.79995 3.33727 1.79995 4.00001C1.79995 4.66275 2.33721 5.20001 2.99995 5.20001ZM4.67773 14.2L3.4444 6.80001H4.78391L5.60613 14.2H4.67773ZM7.21598 14.2L6.39375 6.80001H8.60613L7.78391 14.2H7.21598ZM9.39375 14.2H10.3223L11.5557 6.80001H10.216L9.39375 14.2Z" fill="#00BAFF"/>
</svg>
