<svg width="24" height="24" viewBox="0 0 24 24" fill="none" xmlns="http://www.w3.org/2000/svg">
<path d="M17.1973 3.96586C17.1472 4.066 17.066 4.1472 16.9659 4.19727L15.286 5.03718C14.9047 5.22787 14.9047 5.77213 15.286 5.96282L16.9659 6.80273C17.066 6.8528 17.1472 6.934 17.1973 7.03414L18.0372 8.71396C18.2279 9.09535 18.7721 9.09535 18.9628 8.71396L19.8027 7.03414C19.8528 6.934 19.934 6.8528 20.0341 6.80273L21.714 5.96282C22.0953 5.77213 22.0953 5.22787 21.714 5.03718L20.0341 4.19727C19.934 4.1472 19.8528 4.066 19.8027 3.96586L18.9628 2.28604C18.7721 1.90465 18.2279 1.90465 18.0372 2.28604L17.1973 3.96586Z" fill="#37517E"/>
<path fill-rule="evenodd" clip-rule="evenodd" d="M10.8944 6.55279C10.725 6.214 10.3788 6 10 6C9.62123 6 9.27496 6.214 9.10557 6.55279L6.92131 10.9213L2.55279 13.1056C2.214 13.275 2 13.6212 2 14C2 14.3788 2.214 14.725 2.55279 14.8944L6.92131 17.0787L9.10557 21.4472C9.27496 21.786 9.62123 22 10 22C10.3788 22 10.725 21.786 10.8944 21.4472L13.0787 17.0787L17.4472 14.8944C17.786 14.725 18 14.3788 18 14C18 13.6212 17.786 13.275 17.4472 13.1056L13.0787 10.9213L10.8944 6.55279ZM8.56109 12.1139L10 9.23607L11.4389 12.1139C11.5357 12.3074 11.6926 12.4643 11.8861 12.5611L14.7639 14L11.8861 15.4389C11.6926 15.5357 11.5357 15.6926 11.4389 15.8861L10 18.7639L8.56109 15.8861C8.46433 15.6926 8.30741 15.5357 8.11388 15.4389L5.23607 14L8.11388 12.5611C8.30741 12.4643 8.46433 12.3074 8.56109 12.1139Z" fill="#37517E"/>
</svg>
