<svg width="16" height="16" viewBox="0 0 16 16" fill="none" xmlns="http://www.w3.org/2000/svg">
<path d="M11.8631 1.63037C11.8128 1.7311 11.7311 1.81278 11.6304 1.86314L10.2877 2.53447C9.9041 2.72628 9.9041 3.27372 10.2877 3.46553L11.6304 4.13686C11.7311 4.18722 11.8128 4.2689 11.8631 4.36963L12.5345 5.71229C12.7263 6.0959 13.2737 6.0959 13.4655 5.71229L14.1369 4.36963C14.1872 4.2689 14.2689 4.18722 14.3696 4.13686L15.7123 3.46553C16.0959 3.27372 16.0959 2.72628 15.7123 2.53447L14.3696 1.86314C14.2689 1.81278 14.1872 1.7311 14.1369 1.63038L13.4655 0.287713C13.2737 -0.0959041 12.7263 -0.0959047 12.5345 0.287713L11.8631 1.63037Z" fill="#00BAFF"/>
<path fill-rule="evenodd" clip-rule="evenodd" d="M7.23826 3.45627C7.09844 3.17664 6.81264 3 6.5 3C6.18736 3 5.90156 3.17664 5.76174 3.45627L3.99325 6.99325L0.456268 8.76174C0.176637 8.90156 0 9.18736 0 9.5C0 9.81264 0.176637 10.0984 0.456268 10.2383L3.99325 12.0067L5.76174 15.5437C5.90156 15.8234 6.18736 16 6.5 16C6.81264 16 7.09844 15.8234 7.23826 15.5437L9.00675 12.0067L12.5437 10.2383C12.8234 10.0984 13 9.81264 13 9.5C13 9.18736 12.8234 8.90156 12.5437 8.76174L9.00675 6.99325L7.23826 3.45627ZM5.34672 7.97759L6.5 5.67104L7.65328 7.97759C7.73315 8.13733 7.86267 8.26686 8.02241 8.34672L10.329 9.5L8.02241 10.6533C7.86267 10.7331 7.73315 10.8627 7.65328 11.0224L6.5 13.329L5.34672 11.0224C5.26685 10.8627 5.13733 10.7331 4.97759 10.6533L2.67104 9.5L4.97759 8.34672C5.13733 8.26686 5.26685 8.13733 5.34672 7.97759Z" fill="#00BAFF"/>
</svg>
