<svg width="24" height="24" viewBox="0 0 24 24" fill="none" xmlns="http://www.w3.org/2000/svg">
<path d="M19.0818 4.94828C15.5691 1.39897 9.9603 1.00628 5.98523 4.03136C2.01015 7.05645 0.906879 12.5571 3.40909 16.8754L2 22L7.28181 20.6213C8.73085 21.4053 10.3517 21.8197 12 21.8277C14.6408 21.8421 17.179 20.8081 19.0549 18.9535C20.9308 17.0989 21.9904 14.5761 22 11.9413C22.0055 9.31438 20.9542 6.79514 19.0818 4.94828ZM12.0454 20.186C10.5656 20.1845 9.11285 19.7901 7.83636 19.0432L7.53636 18.8618L4.4 19.6781L5.23636 16.6487L5.03636 16.3312C2.77353 12.7724 3.5651 8.08389 6.8716 5.46108C10.1781 2.83826 14.9349 3.12566 17.9 6.12739C19.4527 7.66489 20.3235 9.75872 20.3182 11.9413C20.3182 14.1295 19.4463 16.2279 17.8946 17.7744C16.3429 19.3208 14.2387 20.1884 12.0454 20.186ZM16.8909 14.1816L16.5454 14.0002L15.6909 13.583C15.3182 13.4106 14.9636 13.2383 14.8454 13.202C14.7518 13.1578 14.649 13.1361 14.5454 13.1385C14.4356 13.1587 14.3397 13.2247 14.2818 13.3199C14.159 13.5001 14.0254 13.6728 13.8818 13.8369L13.5 14.2904C13.4401 14.3643 13.3567 14.4154 13.2636 14.4356C13.155 14.4377 13.0479 14.4094 12.9545 14.3539C12.8364 14.2904 12.5727 14.1997 12.2182 14.0093C11.7633 13.7565 11.3393 13.4522 10.9545 13.1023C10.6214 12.795 10.3171 12.458 10.0454 12.0955C9.87476 11.8687 9.71694 11.6325 9.57272 11.388C9.52703 11.2935 9.52703 11.1833 9.57272 11.0887C9.60513 11.0094 9.65855 10.9405 9.72726 10.8892L9.90908 10.6806L10.1 10.4538C10.1551 10.3924 10.2039 10.3255 10.2454 10.2543C10.2454 10.1908 10.3091 10.1182 10.3454 10.0366C10.3856 9.96822 10.4016 9.88836 10.3909 9.80983C10.3849 9.7394 10.3632 9.67121 10.3273 9.61029C10.3273 9.5468 10.1545 9.21121 9.99999 8.83027C9.84545 8.44932 9.66363 8.02303 9.56363 7.76907C9.51234 7.61782 9.40936 7.48939 9.27272 7.40627C9.18616 7.38476 9.09564 7.38476 9.00908 7.40627H8.51818C8.41266 7.40521 8.30786 7.42366 8.20908 7.46069C8.07345 7.518 7.95233 7.60476 7.85454 7.71465C7.64997 7.9109 7.47264 8.13358 7.32727 8.37676C7.09496 8.80548 6.97606 9.28623 6.98181 9.77355C7.01385 10.3464 7.17547 10.9045 7.45454 11.4062C7.60999 11.7254 7.79569 12.0292 8.00908 12.3132C8.39233 12.8513 8.81468 13.3606 9.27272 13.8369C10.1175 14.7655 11.1408 15.515 12.2818 16.041L13.0818 16.3584L13.7 16.558C13.9732 16.6471 14.258 16.696 14.5454 16.7031C14.7888 16.7123 15.0324 16.6971 15.2727 16.6577C15.5985 16.5838 15.9071 16.4483 16.1818 16.2586C16.5039 16.0872 16.762 15.8169 16.9182 15.4877C17.0127 15.2399 17.0739 14.9806 17.1 14.7167C17.1363 14.5831 17.1363 14.4422 17.1 14.3086C17.0517 14.2332 16.9773 14.1783 16.8909 14.1544V14.1816Z" fill="#00BAFF"/>
</svg>
