<svg width="24" height="24" viewBox="0 0 24 24" fill="none" xmlns="http://www.w3.org/2000/svg">
<path fill-rule="evenodd" clip-rule="evenodd" d="M11 6C11 4.89543 10.1046 4 9 4V2C10.702 2 12.1558 3.06306 12.7335 4.56143C13.1862 3.8234 13.824 3.18443 14.6265 2.72111C16.0967 1.87228 17.8012 1.79686 19.2689 2.36859C19.0302 3.92553 18.1126 5.36396 16.6424 6.21279C16.3931 6.35675 16.137 6.47847 15.8764 6.57856C18.6625 7.79239 20.4729 10.761 20.0116 13.9899L19.7259 15.99C19.2332 19.4385 16.2798 22 12.7962 22H11.2038C7.72023 22 4.76678 19.4385 4.27413 15.9899L3.98842 13.9899C3.38598 9.77291 6.65822 6 10.9181 6H11ZM5.96832 13.7071C5.53801 10.6949 7.87532 8 10.9181 8H13.0819C16.1247 8 18.462 10.6949 18.0317 13.7071L17.746 15.7071C17.3941 18.1704 15.2845 20 12.7962 20H11.2038C8.71553 20 6.60592 18.1703 6.25403 15.7071L5.96832 13.7071Z" fill="#00BAFF"/>
</svg>
