<svg width="16" height="16" viewBox="0 0 16 16" fill="none" xmlns="http://www.w3.org/2000/svg">
<path fill-rule="evenodd" clip-rule="evenodd" d="M11.1791 3.83534C11.4179 3.6824 11.6439 3.50159 11.8526 3.29289C12.7458 2.39968 13.1283 1.18914 13 0.0241611C11.835 -0.10411 10.6245 0.278359 9.73126 1.17157C9.28892 1.61391 8.97184 2.13408 8.78001 2.688C8.61396 1.30009 7.43262 0.224152 5.99999 0.224152V1.82415C6.66273 1.82415 7.19999 2.36141 7.19999 3.02415V3.22415H7.16792C3.62718 3.22415 0.912741 6.36905 1.43019 9.87177L1.57792 10.8718C1.9982 13.7168 4.43977 15.8242 7.31565 15.8242H8.43439C11.3103 15.8242 13.7518 13.7168 14.1721 10.8718L14.3198 9.87177C14.7001 7.29767 13.335 4.91681 11.1791 3.83534ZM7.16792 4.82415C4.60394 4.82415 2.63831 7.10149 3.01301 9.63794L3.16074 10.6379C3.46508 12.6981 5.23312 14.2242 7.31565 14.2242H8.43439C10.5169 14.2242 12.285 12.6981 12.5893 10.6379L12.737 9.63795C13.1117 7.10149 11.1461 4.82415 8.58212 4.82415H7.16792Z" fill="#00BAFF"/>
</svg>
