<svg width="24" height="24" viewBox="0 0 24 24" fill="none" xmlns="http://www.w3.org/2000/svg">
<path d="M6.68404 10.0083L10.1508 11.2701L6.56091 2.8938L8.3992 2.10596L11.9044 10.2846L13.0926 7.01995L14.972 7.70399L12.5778 14.2818L6 11.8877L6.68404 10.0083Z" fill="#00BAFF"/>
<path fill-rule="evenodd" clip-rule="evenodd" d="M10.9801 18.5C10.9801 20.433 12.5471 22 14.4801 22C16.4131 22 17.9801 20.433 17.9801 18.5C17.9801 16.567 16.4131 15 14.4801 15C12.5471 15 10.9801 16.567 10.9801 18.5ZM12.9801 18.5C12.9801 19.3284 13.6517 20 14.4801 20C15.3085 20 15.9801 19.3284 15.9801 18.5C15.9801 17.6716 15.3085 17 14.4801 17C13.6517 17 12.9801 17.6716 12.9801 18.5Z" fill="#00BAFF"/>
</svg>
