<svg width="16" height="16" viewBox="0 0 16 16" fill="none" xmlns="http://www.w3.org/2000/svg">
<path d="M0.000244141 6.37532L7 0.775517V2.82452L0.999756 7.62471L0.000244141 6.37532Z" fill="#00BAFF"/>
<path d="M8.80005 14.2H11.7V9.00002H13.3V14.2H15V15.8H1V14.2H2.69995V9.00002H4.29995V14.2H7.20005V7.00002H8.80005V14.2Z" fill="#00BAFF"/>
<path d="M14.2 7.00001C14.2 4.12813 11.8719 1.80001 9 1.80001V0.200012C12.7555 0.200012 15.8 3.24448 15.8 7.00001H14.2Z" fill="#00BAFF"/>
<path d="M9 4.80001C10.215 4.80001 11.2 5.78499 11.2 7.00001H12.8C12.8 4.90133 11.0987 3.20001 9 3.20001V4.80001Z" fill="#00BAFF"/>
</svg>
