<?xml version="1.0" encoding="UTF-8" standalone="no"?>
<svg width="24px" height="24px" viewBox="0 0 24 24" version="1.1" xmlns="http://www.w3.org/2000/svg" xmlns:xlink="http://www.w3.org/1999/xlink">
    <!-- Generator: Sketch 47.1 (45422) - http://www.bohemiancoding.com/sketch -->
    <title>batch</title>
    <desc>Created with Sketch.</desc>
    <defs></defs>
    <g id="Page-1" stroke="none" stroke-width="1" fill="none" fill-rule="evenodd" stroke-linejoin="round">
        <g id="batch" stroke="#000000">
            <g>
                <path d="M5.5,21 C5.5,22.381 4.381,23.5 3,23.5 C1.619,23.5 0.5,22.381 0.5,21 C0.5,19.619 1.619,18.5 3,18.5 C4.381,18.5 5.5,19.619 5.5,21 Z" id="Stroke-1" stroke-linecap="round"></path>
                <path d="M12.5,3 C12.5,4.381 11.381,5.5 10,5.5 C8.619,5.5 7.5,4.381 7.5,3 C7.5,1.619 8.619,0.5 10,0.5 C11.381,0.5 12.5,1.619 12.5,3 Z" id="Stroke-3" stroke-linecap="round"></path>
                <path d="M23.5,14 C23.5,15.381 22.381,16.5 21,16.5 C19.619,16.5 18.5,15.381 18.5,14 C18.5,12.619 19.619,11.5 21,11.5 C22.381,11.5 23.5,12.619 23.5,14 Z" id="Stroke-5" stroke-linecap="round"></path>
                <path d="M19.5,7 C19.5,8.381 18.381,9.5 17,9.5 C15.619,9.5 14.5,8.381 14.5,7 C14.5,5.619 15.619,4.5 17,4.5 C18.381,4.5 19.5,5.619 19.5,7 Z" id="Stroke-7" stroke-linecap="round"></path>
                <path d="M6.8945,17.1055 L13.1425,10.8575" id="Stroke-9"></path>
                <path d="M8.1445,18.9971 L16.3935,15.8291" id="Stroke-11"></path>
                <path d="M4.9941,15.8809 L8.2221,7.5839" id="Stroke-13"></path>
            </g>
        </g>
    </g>
</svg>