<svg id="artwork" xmlns="http://www.w3.org/2000/svg" viewBox="0 0 24 24"><title>book</title><polygon points="14.5 21 9.5 21 9.5 20.42 1 18.92 1 6 2 6 2 18.08 10.5 19.58 10.5 20 13.5 20 13.5 19.58 22 18.08 22 6 23 6 23 18.92 14.5 20.42 14.5 21"/><path d="M20.57,3.94a14.15,14.15,0,0,0-4.11,0A13.52,13.52,0,0,0,12,5.4,13.52,13.52,0,0,0,7.54,3.94a14.15,14.15,0,0,0-4.11,0L3,4V17.08L3.56,17a16.53,16.53,0,0,1,3.85,0,16.24,16.24,0,0,1,4.4,1.16l.19.08.19-.08A16.24,16.24,0,0,1,16.59,17a16.53,16.53,0,0,1,3.85,0l.56.07V4ZM5.48,15.9c-.49,0-1,0-1.48.06V4.87a13.26,13.26,0,0,1,3.39.06A12.65,12.65,0,0,1,11.5,6.27V17a17.39,17.39,0,0,0-4-1A17.19,17.19,0,0,0,5.48,15.9ZM20,16a17.32,17.32,0,0,0-7.5,1V6.27a12.65,12.65,0,0,1,4.11-1.34A13.26,13.26,0,0,1,20,4.87Z"/></svg>