<svg id="artwork" xmlns="http://www.w3.org/2000/svg" viewBox="0 0 24 24"><title>chip-pin</title><path d="M0,4V20H24V4ZM1,19V5h9.26A4.4,4.4,0,0,0,8,8.5V9H3v1H8.46a4,4,0,0,1,0,4H3v1H8v.5a3.7,3.7,0,0,0,.51,1.75A5,5,0,0,0,10.24,19Zm22,0H13.76a5,5,0,0,0,1.73-1.75A3.7,3.7,0,0,0,16,15.5V15h5V14H15.54a4,4,0,0,1,0-4H21V9H15l-.15.22a5,5,0,0,0,0,5.56L15,15h0v.5a2.71,2.71,0,0,1-.38,1.25A3.25,3.25,0,0,1,12,18.5a3.25,3.25,0,0,1-2.62-1.75A2.71,2.71,0,0,1,9,15.5V15H9l.15-.22a5,5,0,0,0,0-5.56L9,9H9V8.5a3.36,3.36,0,0,1,3-3,3.06,3.06,0,0,1,2.39,1.4l.81-.59A4.67,4.67,0,0,0,13.77,5H23Z"/><circle cx="12" cy="7" r="0.5"/></svg>