<svg id="artwork" xmlns="http://www.w3.org/2000/svg" viewBox="0 0 24 24"><title>facebook</title><path d="M20.9,2H3.1a1.07,1.07,0,0,0-.43.09,1,1,0,0,0-.58.58A1.07,1.07,0,0,0,2,3.1V20.9a1.07,1.07,0,0,0,.09.43,1,1,0,0,0,.58.58A1.07,1.07,0,0,0,3.1,22h9.58V14.25h-2.6v-3h2.6V9A4.71,4.71,0,0,1,13,7.3a3.3,3.3,0,0,1,2-2A4.62,4.62,0,0,1,16.56,5h.8l.68,0,.53,0,.32,0v2.7H17.3a2.33,2.33,0,0,0-.77.11,1,1,0,0,0-.45.3,1,1,0,0,0-.22.46,2.26,2.26,0,0,0-.06.6v1.93h3l-.1.75-.1.76-.09.75-.1.75H15.8V22h5.1a1.07,1.07,0,0,0,.43-.09,1,1,0,0,0,.58-.58A1.07,1.07,0,0,0,22,20.9V3.1a1.07,1.07,0,0,0-.09-.43,1,1,0,0,0-.58-.58A1.07,1.07,0,0,0,20.9,2Z"/></svg>