<?xml version="1.0" encoding="UTF-8" standalone="no"?>
<svg width="24px" height="24px" viewBox="0 0 24 24" version="1.1" xmlns="http://www.w3.org/2000/svg" xmlns:xlink="http://www.w3.org/1999/xlink">
    <!-- Generator: Sketch 47.1 (45422) - http://www.bohemiancoding.com/sketch -->
    <title>fingerprint</title>
    <desc>Created with Sketch.</desc>
    <defs>
        <polygon id="path-1" points="10.9687 0.435 0.4847 0.435 0.4847 2.6094 10.9687 2.6094 10.9687 0.435"></polygon>
    </defs>
    <g id="Page-1" stroke="none" stroke-width="1" fill="none" fill-rule="evenodd">
        <g id="fingerprint">
            <g transform="translate(4.000000, 0.000000)">
                <path d="M5.5859,22.7265 L4.8869,22.0115 C8.4259,18.5485 8.0129,13.3565 8.0079,13.3035 L9.0039,13.2145 C9.0239,13.4465 9.4709,18.9255 5.5859,22.7265" id="Fill-1" fill="#000000"></path>
                <path d="M8.0078,23.5654 L7.2048,22.9694 C8.4468,21.2974 9.3208,19.7344 9.8758,18.1894 C10.2538,17.1364 10.4708,16.1014 10.5208,15.1134 C10.5768,13.9974 10.5718,12.8534 9.8588,12.1864 C9.4858,11.8364 8.8768,11.5064 8.3128,11.6274 C6.9338,11.9194 6.7128,13.2094 6.5338,15.1444 C6.4648,15.9014 6.3988,16.6164 6.1948,17.2174 C5.4688,19.3484 4.5668,20.7414 3.4338,21.4764 L2.8888,20.6364 C3.8258,20.0294 4.5978,18.8054 5.2468,16.8954 C5.4128,16.4064 5.4748,15.7494 5.5378,15.0524 C5.7008,13.2974 5.9028,11.1144 8.1058,10.6484 C8.9058,10.4794 9.8198,10.7804 10.5418,11.4564 C11.5688,12.4154 11.5838,13.8724 11.5188,15.1634 C11.4648,16.2504 11.2288,17.3824 10.8178,18.5274 C10.2288,20.1664 9.3098,21.8144 8.0078,23.5654" id="Fill-3" fill="#000000"></path>
                <path d="M11.0186,23.5215 L10.1576,23.0135 C10.1706,22.9905 11.5376,20.6635 12.2506,18.3455 C12.6216,17.1405 12.8276,15.7505 12.8626,14.2135 C12.9026,12.4575 12.5356,11.2865 11.7066,10.5275 C10.8656,9.7545 9.6756,9.2935 8.5276,9.2935 C7.2886,9.2935 6.0866,9.8525 5.2326,10.8265 C4.4856,11.6765 4.3986,12.6645 4.2966,13.8075 C4.2626,14.1925 4.2286,14.5815 4.1676,14.9715 C3.8766,16.8545 2.8286,18.4155 1.9466,19.5635 L1.1536,18.9545 C1.9616,17.9005 2.9236,16.4775 3.1796,14.8195 C3.2366,14.4505 3.2686,14.0835 3.3006,13.7195 C3.4086,12.5115 3.5186,11.2625 4.4806,10.1665 C5.5256,8.9765 6.9996,8.2935 8.5276,8.2935 C9.9196,8.2935 11.3616,8.8535 12.3826,9.7905 C13.4246,10.7445 13.9096,12.1995 13.8626,14.2375 C13.8246,15.8655 13.6036,17.3465 13.2066,18.6395 C12.4566,21.0735 11.0776,23.4225 11.0186,23.5215" id="Fill-5" fill="#000000"></path>
                <g id="Group-9" transform="translate(0.000000, 5.565400)" fill="#000000">
                    <path d="M15.5439,13.9775 L14.5639,13.7805 C14.6799,13.2045 14.7829,12.6275 14.8739,12.0465 C15.1299,10.3955 15.2329,9.0375 15.2009,7.7725 C15.1709,6.6285 15.0459,5.6955 14.5289,4.8525 C13.1959,2.6755 10.8969,1.3235 8.5269,1.3235 C8.0929,1.3235 7.6669,1.3605 7.2609,1.4345 C5.9899,1.6655 4.8219,2.2965 3.8849,3.2575 C3.1499,4.0105 2.5909,4.8025 2.2239,5.6115 C1.8639,6.4035 1.8019,7.2685 1.7369,8.1845 L1.7259,8.3455 C1.6469,9.4265 1.5719,10.4475 0.8259,11.5435 L-0.0001,10.9815 C0.5549,10.1655 0.6449,9.4145 0.7279,8.2735 L0.7389,8.1135 C0.8089,7.1495 0.8789,6.1535 1.3139,5.1975 C1.7289,4.2835 2.3539,3.3955 3.1699,2.5585 C4.2519,1.4495 5.6059,0.7205 7.0819,0.4505 C7.5469,0.3665 8.0329,0.3235 8.5269,0.3235 C11.2419,0.3235 13.8689,1.8585 15.3829,4.3315 C16.0519,5.4225 16.1719,6.6185 16.2009,7.7475 C16.2339,9.0725 16.1269,10.4875 15.8619,12.2005 C15.7699,12.7955 15.6619,13.3875 15.5439,13.9775" id="Fill-7"></path>
                </g>
                <path d="M15.998,8.3008 C14.394,5.9178 11.508,4.3778 8.645,4.3778 C5.783,4.3778 2.896,5.9168 1.292,8.2998 L0.462,7.7408 C2.247,5.0908 5.46,3.3778 8.645,3.3778 C11.831,3.3778 15.043,5.0908 16.828,7.7418 L15.998,8.3008 Z" id="Fill-10" fill="#000000"></path>
                <g id="Group-14" transform="translate(3.000000, 0.565400)">
                    <mask id="mask-2" fill="white">
                        <use xlink:href="#path-1"></use>
                    </mask>
                    <g id="Clip-13"></g>
                    <path d="M10.5117,2.6094 C9.0357,1.8514 7.3077,1.4344 5.6457,1.4344 C4.0417,1.4344 2.3657,1.8254 0.9257,2.5354 L0.4847,1.6384 C2.0807,0.8504 3.8657,0.4344 5.6457,0.4344 C7.4637,0.4344 9.3547,0.8914 10.9687,1.7204 L10.5117,2.6094 Z" id="Fill-12" fill="#000000" mask="url(#mask-2)"></path>
                </g>
            </g>
        </g>
    </g>
</svg>