<svg id="artwork" xmlns="http://www.w3.org/2000/svg" viewBox="0 0 24 24"><title>fingerprint</title><path d="M9.17,22.34l-.7-.71C12,18.17,11.6,13,11.59,12.92l1-.09C12.61,13.06,13.06,18.54,9.17,22.34Z"/><path d="M11.59,23.18l-.8-.59a18.74,18.74,0,0,0,2.67-4.78,10.76,10.76,0,0,0,.65-3.08c.05-1.12.05-2.26-.66-2.93a1.89,1.89,0,0,0-1.55-.56c-1.38.3-1.6,1.59-1.78,3.52a9,9,0,0,1-.34,2.07A7.83,7.83,0,0,1,7,21.09l-.54-.84a7,7,0,0,0,2.35-3.74,8.16,8.16,0,0,0,.29-1.84c.17-1.76.37-3.94,2.57-4.41a2.86,2.86,0,0,1,2.44.81c1,1,1,2.42,1,3.71a11.55,11.55,0,0,1-.71,3.36A19,19,0,0,1,11.59,23.18Z"/><path d="M14.61,23.14l-.87-.51A25.24,25.24,0,0,0,15.84,18a15.48,15.48,0,0,0,.61-4.13c0-1.76-.33-2.93-1.16-3.69a4.82,4.82,0,0,0-3.18-1.23,4.41,4.41,0,0,0-3.29,1.53,4.79,4.79,0,0,0-.94,3,11.63,11.63,0,0,1-.13,1.17,10.23,10.23,0,0,1-2.22,4.59l-.79-.61a9.43,9.43,0,0,0,2-4.13c.05-.37.09-.74.12-1.1A5.72,5.72,0,0,1,8.07,9.78a5.39,5.39,0,0,1,4-1.87A5.83,5.83,0,0,1,16,9.41a5.51,5.51,0,0,1,1.48,4.44,16.41,16.41,0,0,1-.66,4.41A27.16,27.16,0,0,1,14.61,23.14Z"/><path d="M19.13,19.16l-1-.2c.12-.57.22-1.15.31-1.73A23.56,23.56,0,0,0,18.79,13,5.71,5.71,0,0,0,18.12,10a7.21,7.21,0,0,0-6-3.53,6.49,6.49,0,0,0-1.26.12A6.3,6.3,0,0,0,7.47,8.44a8.44,8.44,0,0,0-1.66,2.35,7.49,7.49,0,0,0-.49,2.58v.16a5.87,5.87,0,0,1-.9,3.2l-.82-.57a4.92,4.92,0,0,0,.72-2.7l0-.17a8.32,8.32,0,0,1,.57-2.91A9.37,9.37,0,0,1,6.76,7.74a7.26,7.26,0,0,1,3.91-2.11,8.47,8.47,0,0,1,1.44-.13,8.18,8.18,0,0,1,6.86,4,6.64,6.64,0,0,1,.82,3.42,25.52,25.52,0,0,1-.34,4.45C19.36,18,19.25,18.57,19.13,19.16Z"/><path d="M19.58,7.92A9.08,9.08,0,0,0,12.23,4,9.08,9.08,0,0,0,4.88,7.92l-.83-.56A10.13,10.13,0,0,1,12.23,3a10.15,10.15,0,0,1,8.19,4.37Z"/><path d="M17.1,2.79a10.7,10.7,0,0,0-9.59-.07l-.44-.9A11.7,11.7,0,0,1,12.23.62,11.89,11.89,0,0,1,17.56,1.9Z"/><circle cx="18.56" cy="3.5" r="0.5"/><circle cx="17.56" cy="20.5" r="0.5"/><circle cx="2.56" cy="9.5" r="0.5"/></svg>