<svg id="artwork" xmlns="http://www.w3.org/2000/svg" viewBox="0 0 24 24"><title>globe</title><path d="M12,1A11,11,0,1,0,23,12,11,11,0,0,0,12,1ZM7.34,9.25h9.32a14.54,14.54,0,0,1,0,5.5H7.34A14.54,14.54,0,0,1,7.34,9.25Zm10.25,0h4.1a9.89,9.89,0,0,1,0,5.5h-4.1A15.4,15.4,0,0,0,17.59,9.25Zm3.79-.92h-4A15.16,15.16,0,0,0,14.3,2.19,10.08,10.08,0,0,1,21.38,8.33ZM12.86,2a14.41,14.41,0,0,1,3.58,6.37H7.56A14.41,14.41,0,0,1,11.14,2c.28,0,.57,0,.86,0S12.58,1.94,12.86,2ZM9.7,2.19A15.16,15.16,0,0,0,6.62,8.33h-4A10.08,10.08,0,0,1,9.7,2.19ZM2.31,9.25h4.1a15.4,15.4,0,0,0,0,5.5H2.31a9.89,9.89,0,0,1,0-5.5Zm.31,6.42h4A15.16,15.16,0,0,0,9.7,21.81,10.08,10.08,0,0,1,2.62,15.67ZM11.14,22a14.41,14.41,0,0,1-3.58-6.37h8.88A14.41,14.41,0,0,1,12.86,22c-.28,0-.57,0-.86,0S11.42,22.06,11.14,22Zm3.16-.23a15.16,15.16,0,0,0,3.08-6.14h4A10.08,10.08,0,0,1,14.3,21.81Z"/></svg>