<svg id="artwork" xmlns="http://www.w3.org/2000/svg" viewBox="0 0 24 24"><title>help</title><path d="M10.74,15.23A2.63,2.63,0,0,1,11,14.1a4.62,4.62,0,0,1,.59-1,12,12,0,0,1,.85-1c.32-.32.65-.67,1-1s.57-.63.84-.91A5.72,5.72,0,0,0,15,9.27a4.71,4.71,0,0,0,.51-1A3.43,3.43,0,0,0,15.67,7a3.62,3.62,0,0,0-.3-1.52,3,3,0,0,0-.82-1.1,3.61,3.61,0,0,0-1.22-.67,4.79,4.79,0,0,0-1.49-.23A5,5,0,0,0,9.67,4,4.64,4.64,0,0,0,7.9,5.49L6.74,4.56A6,6,0,0,1,9,2.69a6.74,6.74,0,0,1,2.92-.63A6.16,6.16,0,0,1,14,2.4a5,5,0,0,1,1.7,1A4.76,4.76,0,0,1,16.84,4.9a4.83,4.83,0,0,1,.42,2,5.45,5.45,0,0,1-.21,1.56,5.12,5.12,0,0,1-.58,1.28,7.55,7.55,0,0,1-.83,1.12c-.31.34-.64.68-1,1s-.61.6-.91.87a7.17,7.17,0,0,0-.8.87,5.4,5.4,0,0,0-.59,1,2.44,2.44,0,0,0-.24,1.08l0,1H10.77Zm.76,6.83a1.28,1.28,0,0,1-.9-.33,1.09,1.09,0,0,1-.37-.85A1.07,1.07,0,0,1,10.6,20a1.29,1.29,0,0,1,.9-.34,1.31,1.31,0,0,1,.91.34,1.07,1.07,0,0,1,.37.84,1.09,1.09,0,0,1-.37.85A1.31,1.31,0,0,1,11.5,22.06Z"/></svg>