<svg id="artwork" xmlns="http://www.w3.org/2000/svg" viewBox="0 0 24 24"><title>id</title><rect x="12" y="8" width="8.95" height="1"/><rect x="12.04" y="11" width="8.95" height="1"/><rect x="12" y="14" width="5" height="1"/><path d="M24,4,12.5,4V1h-1V4L0,4.05l.07,16L24,20ZM1,19.05,1,5.05,23,5,23,19Z"/><path d="M6.5,12A2.25,2.25,0,1,1,8.75,9.8,2.24,2.24,0,0,1,6.5,12Zm0-3.49A1.25,1.25,0,1,0,7.75,9.8,1.25,1.25,0,0,0,6.5,8.55Z"/><path d="M9.5,15.5l-.08-.79a.9.9,0,0,0-.09-.32.76.76,0,0,0-.18-.25A1,1,0,0,0,8.9,14a.93.93,0,0,0-.29-.05H4.39A.93.93,0,0,0,4.1,14a1,1,0,0,0-.25.17.76.76,0,0,0-.18.25.9.9,0,0,0-.09.32l-.08.79-1-.1.08-.79a2,2,0,0,1,.58-1.2,1.85,1.85,0,0,1,.56-.36,1.7,1.7,0,0,1,.67-.13H8.61a1.7,1.7,0,0,1,.67.13,1.85,1.85,0,0,1,.56.36,2,2,0,0,1,.58,1.2l.08.79Z"/></svg>