<svg id="artwork" xmlns="http://www.w3.org/2000/svg" viewBox="0 0 24 24"><title>inactive-card</title><path d="M8,13H3V9H8ZM4,12H7V10H4Z"/><path d="M20,10a2,2,0,1,1,2-2A2,2,0,0,1,20,10Zm0-3a1,1,0,1,0,1,1A1,1,0,0,0,20,7Z"/><rect x="-3.56" y="11.5" width="31.11" height="1" transform="translate(-4.97 12) rotate(-45)"/><polygon points="2.88 19 1 19 1 5 16.88 5 17.88 4 0 4 0 20 1.88 20 2.88 19"/><path d="M21.12,5H23v8.27a2,2,0,0,0,0,3.46V19H7.12l-1,1H24V16.06l-.33-.12a1,1,0,0,1,0-1.88l.33-.12V4H22.12Z"/><polygon points="6.88 15 3 15 3 16 5.88 16 6.88 15"/><polygon points="10.12 16 20 16 20 15 11.12 15 10.12 16"/></svg>