<svg id="artwork" xmlns="http://www.w3.org/2000/svg" viewBox="0 0 24 24"><title>klarna</title><path d="M19.29,13.22a1.62,1.62,0,0,0-.86-.47l-.83-.18,1.94-9.15a2,2,0,0,0-1.48-2.35,2.24,2.24,0,0,0-2.71,1.49L13.6,8.27,12.21,2.65a2,2,0,0,0-.91-1.28,2.24,2.24,0,0,0-1.62-.29A2.1,2.1,0,0,0,8.15,3.61L9,10a2,2,0,0,0-2.49-.36l-.12.08a2,2,0,0,0-.48,2.78A2,2,0,0,0,4.6,13l-.09.09a2.12,2.12,0,0,0,.36,3.07L5.7,17c.1,3.51,3.07,6,6.61,6h.15c5,0,7.14-2.78,7.51-7A3.4,3.4,0,0,0,19.29,13.22ZM9.87,1.91a1.31,1.31,0,0,1,.93.17,1.18,1.18,0,0,1,.54.75L13.11,10l0,.07,0,.06.06.06.06.06.07,0,.07,0h.23a.47.47,0,0,0,.15-.06h0a.52.52,0,0,0,.1-.11v0a.35.35,0,0,0,.05-.08l2.24-7.27a1.32,1.32,0,0,1,1.6-.9,1.16,1.16,0,0,1,.84,1.36l-1.93,9.13-3.47-.77-.23,0a3,3,0,0,0-1.19,0,1.86,1.86,0,0,0-1.14.7l-.65-.92L9,3.49V3.43A1.27,1.27,0,0,1,9.87,1.91Zm-3,8.49.1-.07c.66-.36,1.22-.08,1.79.71l.47.67,0,.06,1,1.45a1.79,1.79,0,0,0,.46,1.72,1,1,0,0,1-.33.36l-.09.06a1.17,1.17,0,0,1-1.56-.28l-2-2.77C6.27,11.54,6.34,10.73,6.86,10.4Zm-1.7,3.29.09-.09a1.05,1.05,0,0,1,1.33-.09l1.45,2a2,2,0,0,0,1.67.84,1,1,0,0,1,0,1.42l-.09.09a1.18,1.18,0,0,1-1.58,0L5.51,15.57C4.82,14.92,4.72,14.11,5.16,13.69Zm13.92,2.24c-.34,3.84-2.22,6.23-6.67,6.22A5.67,5.67,0,0,1,6.7,17.89l.67.63a2.1,2.1,0,0,0,2.85,0l.09-.09a1.84,1.84,0,0,0,.32-2.23l.2-.1.1-.07a1.8,1.8,0,0,0,.55-.55,6.23,6.23,0,0,0,1.1.41l1.25.26A3.15,3.15,0,0,0,12.25,19a.44.44,0,0,0,.43.45.45.45,0,0,0,.47-.41,2.22,2.22,0,0,1,1.42-2.26A3.32,3.32,0,0,1,16,16.58l.11,0a.43.43,0,1,0,.18-.84L12.8,15a3.75,3.75,0,0,1-1.16-.46.61.61,0,0,0-.16-.12,1.14,1.14,0,0,1-.24-1.35,1,1,0,0,1,.79-.7,2.16,2.16,0,0,1,.84,0l.17,0,5.23,1.16.1,0a.87.87,0,0,1,.26.18A2.66,2.66,0,0,1,19.08,15.93Z"/></svg>