<svg id="artwork" xmlns="http://www.w3.org/2000/svg" viewBox="0 0 24 24"><title>link</title><path d="M6,22.5a4.69,4.69,0,0,1-1.66-.3A4.55,4.55,0,0,1,1.8,19.62a4.73,4.73,0,0,1-.3-1.8A5,5,0,0,1,1.9,16,5,5,0,0,1,3,14.43l3.88-3.88.71.7L3.69,15.13a4,4,0,0,0-.87,1.29,3.75,3.75,0,0,0-.08,2.84,3.26,3.26,0,0,0,.79,1.21,3.39,3.39,0,0,0,1.21.79,3.67,3.67,0,0,0,1.41.24,3.76,3.76,0,0,0,1.43-.32,4,4,0,0,0,1.29-.87l3.88-3.88a4.15,4.15,0,0,0,.87-1.28,4,4,0,0,0,.31-1.44,3.5,3.5,0,0,0-.23-1.4,3.66,3.66,0,0,0-.79-1.22l.7-.7a4.4,4.4,0,0,1,1,1.56,4.53,4.53,0,0,1,.3,1.79,4.85,4.85,0,0,1-.39,1.8,5.11,5.11,0,0,1-1.09,1.6L9.57,21A5,5,0,0,1,8,22.1a4.9,4.9,0,0,1-1.8.4Z"/><path d="M10.39,13.61a4.4,4.4,0,0,1-1-1.56,4.53,4.53,0,0,1-.3-1.79,4.85,4.85,0,0,1,.39-1.8,5.11,5.11,0,0,1,1.09-1.6L14.43,3A5,5,0,0,1,16,1.9a4.9,4.9,0,0,1,1.8-.4,5,5,0,0,1,1.8.3A4.55,4.55,0,0,1,22.2,4.38a4.73,4.73,0,0,1,.3,1.8A5,5,0,0,1,22.1,8,5,5,0,0,1,21,9.57l-3.88,3.88-.71-.7,3.88-3.88a4,4,0,0,0,.87-1.29,3.75,3.75,0,0,0,.08-2.84,3.26,3.26,0,0,0-.79-1.21,3.39,3.39,0,0,0-1.21-.79,3.75,3.75,0,0,0-2.84.08,4,4,0,0,0-1.29.87L11.25,7.57a4.15,4.15,0,0,0-.87,1.28,4,4,0,0,0-.31,1.44,3.5,3.5,0,0,0,.23,1.4,3.66,3.66,0,0,0,.79,1.22Z"/></svg>