<?xml version="1.0" encoding="UTF-8" standalone="no"?>
<svg width="24px" height="24px" viewBox="0 0 24 24" version="1.1" xmlns="http://www.w3.org/2000/svg" xmlns:xlink="http://www.w3.org/1999/xlink">
    <!-- Generator: Sketch 47.1 (45422) - http://www.bohemiancoding.com/sketch -->
    <title>money</title>
    <desc>Created with Sketch.</desc>
    <defs>
        <polygon id="path-1" points="0 24 24.003 24 24.003 0 0 0"></polygon>
    </defs>
    <g id="Page-1" stroke="none" stroke-width="1" fill="none" fill-rule="evenodd">
        <g id="money">
            <g>
                <path d="M13.5,9 C13.5,9.828 12.828,10.5 12,10.5 C11.172,10.5 10.5,9.828 10.5,9 C10.5,8.172 11.172,7.5 12,7.5 C12.828,7.5 13.5,8.172 13.5,9 Z" id="Stroke-1" stroke="#000000" stroke-linecap="round" stroke-linejoin="round"></path>
                <mask id="mask-2" fill="white">
                    <use xlink:href="#path-1"></use>
                </mask>
                <g id="Clip-4"></g>
                <polygon id="Stroke-3" stroke="#000000" stroke-linejoin="round" mask="url(#mask-2)" points="0.5 14.5 23.5 14.5 23.5 3.5 0.5 3.5"></polygon>
                <path d="M24,17.5 L0,17.5" id="Stroke-5" stroke="#000000" stroke-linejoin="round" mask="url(#mask-2)"></path>
                <path d="M24,20.5 L0,20.5" id="Stroke-6" stroke="#000000" stroke-linejoin="round" mask="url(#mask-2)"></path>
                <path d="M20,14.5 C20,12.842 21.342,11.5 23,11.5" id="Stroke-7" stroke="#000000" stroke-linejoin="round" mask="url(#mask-2)"></path>
                <path d="M23,6.5 C21.342,6.5 20,5.158 20,3.5" id="Stroke-8" stroke="#000000" stroke-linejoin="round" mask="url(#mask-2)"></path>
                <path d="M4,3.5 C4,5.158 2.658,6.5 1,6.5" id="Stroke-9" stroke="#000000" stroke-linejoin="round" mask="url(#mask-2)"></path>
                <path d="M1,11.5 C2.658,11.5 4,12.842 4,14.5" id="Stroke-10" stroke="#000000" stroke-linejoin="round" mask="url(#mask-2)"></path>
            </g>
        </g>
    </g>
</svg>