<svg id="artwork" xmlns="http://www.w3.org/2000/svg" viewBox="0 0 24 24"><title>money</title><path d="M12,11a2,2,0,1,1,2-2A2,2,0,0,1,12,11Zm0-3a1,1,0,1,0,1,1A1,1,0,0,0,12,8Z"/><rect y="17" width="24" height="1"/><rect y="20" width="24" height="1"/><path d="M24,3H0V15H24ZM20.05,14H4A3.48,3.48,0,0,0,1,11.05V7A3.48,3.48,0,0,0,4,4h16.1A3.48,3.48,0,0,0,23,7v4.1A3.48,3.48,0,0,0,20.05,14Zm1-10H23V6A2.5,2.5,0,0,1,21.05,4ZM3,4A2.5,2.5,0,0,1,1,6V4ZM1,12.05A2.5,2.5,0,0,1,3,14H1ZM21.05,14A2.5,2.5,0,0,1,23,12.05V14Z"/></svg>