<svg id="artwork" xmlns="http://www.w3.org/2000/svg" viewBox="0 0 24 24"><title>multi-currency</title><path d="M16.8,4.75a.67.67,0,0,0,.3.08.6.6,0,0,0,.3-1.13,10.38,10.38,0,0,0-1.93-.85,3.52,3.52,0,0,0-6.94,0,10.89,10.89,0,0,0-2,.89.61.61,0,0,0,.3,1.13.68.68,0,0,0,.31-.08,8.59,8.59,0,0,1,1.41-.66,3.53,3.53,0,0,0,6.92,0A8.54,8.54,0,0,1,16.8,4.75ZM12,6a2.53,2.53,0,1,1,2.53-2.53A2.53,2.53,0,0,1,12,6Z"/><path d="M21.08,9.79a.61.61,0,0,0,.57.4.52.52,0,0,0,.21,0,.61.61,0,0,0,.36-.78,10.83,10.83,0,0,0-1.91-3.26A.61.61,0,0,0,19.46,6a.59.59,0,0,0-.07.85A9.84,9.84,0,0,1,21.08,9.79Z"/><path d="M2.11,10.24l.21,0a.6.6,0,0,0,.57-.4A9.5,9.5,0,0,1,4.56,7a.61.61,0,0,0-.93-.78A10.84,10.84,0,0,0,1.75,9.46.61.61,0,0,0,2.11,10.24Z"/><path d="M13.69,22.69a9.72,9.72,0,0,1-3.36,0,.6.6,0,1,0-.2,1.19,10.57,10.57,0,0,0,1.87.16,10.91,10.91,0,0,0,1.9-.16.63.63,0,0,0,.5-.71A.62.62,0,0,0,13.69,22.69Z"/><path d="M7.17,21.55a9,9,0,0,1-1.34-.95,3.52,3.52,0,0,0-2.3-6.18,3.62,3.62,0,0,0-1.09.19,9.6,9.6,0,0,1-.12-1.42.62.62,0,0,0-.61-.61h0a.6.6,0,0,0-.6.61,10.6,10.6,0,0,0,.22,2A3.47,3.47,0,0,0,0,18a3.54,3.54,0,0,0,3.53,3.53,3.51,3.51,0,0,0,1.21-.23A10.54,10.54,0,0,0,6.57,22.6a.54.54,0,0,0,.3.08.61.61,0,0,0,.53-.3A.62.62,0,0,0,7.17,21.55ZM1,18a2.53,2.53,0,1,1,2.53,2.53A2.53,2.53,0,0,1,1,18Z"/><path d="M22.67,15.22a10.39,10.39,0,0,0,.22-2.1l-.6,0h.6a.58.58,0,0,0-.6-.58.63.63,0,0,0-.61.64,10,10,0,0,1-.12,1.45,3.62,3.62,0,0,0-1.09-.19,3.52,3.52,0,0,0-2.3,6.18,10.19,10.19,0,0,1-1.32.94.61.61,0,0,0,.3,1.13.58.58,0,0,0,.31-.08,11.22,11.22,0,0,0,1.8-1.34A3.49,3.49,0,0,0,24,18,3.47,3.47,0,0,0,22.67,15.22Zm-2.2,5.26A2.53,2.53,0,1,1,23,18,2.53,2.53,0,0,1,20.47,20.48Z"/></svg>