<svg id="artwork" xmlns="http://www.w3.org/2000/svg" viewBox="0 0 24 24"><title>phone</title><path d="M17.43,21.28a7.59,7.59,0,0,1-2.72-.6,19.83,19.83,0,0,1-6.47-4.47C3.8,11.77,1.38,6.1,3.17,4.32L5.5,2a1.12,1.12,0,0,1,1-.32,1.16,1.16,0,0,1,.84.61L9.55,6.74a1.13,1.13,0,0,1-.22,1.31L8,9.4a.12.12,0,0,0,0,.19l6.17,6.17a.12.12,0,0,0,.19,0l1.35-1.34A1.13,1.13,0,0,1,17,14.2l4.46,2.23a1.16,1.16,0,0,1,.61.83,1.14,1.14,0,0,1-.32,1l-2.33,2.33A2.75,2.75,0,0,1,17.43,21.28ZM6.3,2.65a.12.12,0,0,0-.09,0L3.87,5c-1.06,1.06.64,6,5.08,10.47a18.87,18.87,0,0,0,6.12,4.25c1.68.65,3.08.7,3.65.13l2.34-2.34a.12.12,0,0,0,0-.12.1.1,0,0,0-.07-.09L16.56,15.1a.12.12,0,0,0-.15,0l-1.35,1.35a1.15,1.15,0,0,1-1.61,0L7.28,10.3a1.15,1.15,0,0,1,0-1.61L8.63,7.34a.12.12,0,0,0,0-.15L6.42,2.73a.1.1,0,0,0-.1-.07Z"/></svg>