<?xml version="1.0" encoding="UTF-8" standalone="no"?>
<svg width="24px" height="24px" viewBox="0 0 24 24" version="1.1" xmlns="http://www.w3.org/2000/svg" xmlns:xlink="http://www.w3.org/1999/xlink">
    <!-- Generator: Sketch 47.1 (45422) - http://www.bohemiancoding.com/sketch -->
    <title>recipient</title>
    <desc>Created with Sketch.</desc>
    <defs></defs>
    <g id="Page-1" stroke="none" stroke-width="1" fill="none" fill-rule="evenodd">
        <g id="recipient" stroke="#000000">
            <path d="M11.0693,9.9199 C11.0693,12.4049 13.0843,14.4199 15.5693,14.4199 C18.0543,14.4199 20.0693,12.4049 20.0693,9.9199 C20.0693,7.4349 18.0543,5.4199 15.5693,5.4199 C13.0843,5.4199 11.0693,7.4349 11.0693,9.9199 Z" id="Stroke-1"></path>
            <path d="M7.3853,24 L7.7863,20.186 C7.9473,18.659 9.2353,17.5 10.7703,17.5 L20.3683,17.5 C21.9043,17.5 23.1913,18.659 23.3523,20.186 L23.7543,24" id="Stroke-3"></path>
            <path d="M12.748,2.9755 C12.627,2.8185 12.498,2.6675 12.359,2.5285 C11.952,2.1215 11.467,1.7905 10.928,1.5635 C10.39,1.3355 9.798,1.2095 9.177,1.2095 C8.556,1.2095 7.963,1.3355 7.425,1.5635 C6.887,1.7905 6.402,2.1215 5.995,2.5285 C5.588,2.9355 5.258,3.4195 5.03,3.9575 C4.803,4.4965 4.677,5.0885 4.677,5.7095 C4.677,6.3305 4.803,6.9225 5.03,7.4615 C5.258,7.9995 5.588,8.4845 5.995,8.8915 C6.402,9.2985 6.887,9.6285 7.425,9.8565 C7.634,9.9445 7.853,10.0085 8.077,10.0655" id="Stroke-5"></path>
            <path d="M9,13.5 L4.377,13.5 C2.842,13.5 1.555,14.659 1.394,16.186 L0.677,23" id="Stroke-7"></path>
        </g>
    </g>
</svg>