<svg id="artwork" xmlns="http://www.w3.org/2000/svg" viewBox="0 0 24 24"><title>recipients</title><path d="M15.57,14.92a5,5,0,1,1,5-5A5,5,0,0,1,15.57,14.92Zm0-9a4,4,0,1,0,4,4A4,4,0,0,0,15.57,5.92Z"/><path d="M22.5,24.05l-.38-3.81A2.41,2.41,0,0,0,19.77,18H10.61a2.4,2.4,0,0,0-2.34,2.24l-.39,3.81-1-.1.38-3.81A3.41,3.41,0,0,1,10.61,17h9.16a3.4,3.4,0,0,1,3.34,3.14L23.5,24Z"/><path d="M8,10.55a4.64,4.64,0,0,1-.72-.23A5,5,0,0,1,5.64,2.17,5.18,5.18,0,0,1,7.23,1.1a5,5,0,0,1,5.48,1.07,5,5,0,0,1,.43.5l-.79.61a4.36,4.36,0,0,0-.35-.4A4,4,0,0,0,10.73,2a4,4,0,0,0-4.38.86,4,4,0,0,0,0,5.66,4.08,4.08,0,0,0,1.27.86,4.91,4.91,0,0,0,.58.18Z"/><path d="M1.17,23.05l-1-.1L.9,16.13A3.49,3.49,0,0,1,4.38,13H9v1H4.38a2.5,2.5,0,0,0-2.49,2.24Z"/></svg>