<svg id="artwork" xmlns="http://www.w3.org/2000/svg" viewBox="0 0 24 24"><title>transfer</title><path d="M22,14a2,2,0,1,1,2-2A2,2,0,0,1,22,14Zm0-3a1,1,0,1,0,1,1A1,1,0,0,0,22,11Z"/><rect x="14.67" y="19.25" width="8.13" height="1" transform="translate(-6.63 29.61) rotate(-67.74)"/><path d="M8,9a2,2,0,1,1,2-2A2,2,0,0,1,8,9ZM8,6A1,1,0,1,0,9,7,1,1,0,0,0,8,6Z"/><path d="M18,4a2,2,0,1,1,2-2A2,2,0,0,1,18,4Zm0-3a1,1,0,1,0,1,1A1,1,0,0,0,18,1Z"/><rect x="3.18" y="14.25" width="18.96" height="1" transform="translate(-5.8 20.82) rotate(-67.57)"/><rect x="-3.09" y="16.75" width="13.56" height="1" transform="translate(-13.66 14.06) rotate(-67.54)"/></svg>