<svg id="artwork" xmlns="http://www.w3.org/2000/svg" viewBox="0 0 24 24"><title>verified</title><polygon points="10.32 15.7 7.14 12.6 7.84 11.88 10.32 14.3 16.16 8.64 16.86 9.36 10.32 15.7"/><path d="M15,24a1.56,1.56,0,0,1-.79-.21l-1.88-1.07a.55.55,0,0,0-.58,0L9.83,23.79a1.58,1.58,0,0,1-2.2-.65l-1-1.94a.59.59,0,0,0-.49-.31L4,20.76a1.54,1.54,0,0,1-1.11-.54A1.6,1.6,0,0,1,2.47,19l.19-2.2a.58.58,0,0,0-.24-.53L.65,15A1.55,1.55,0,0,1,0,14a1.59,1.59,0,0,1,.31-1.19L1.67,11a.58.58,0,0,0,.08-.57L1,8.37A1.62,1.62,0,0,1,1,7.13,1.58,1.58,0,0,1,1.9,6.3L4,5.56a.59.59,0,0,0,.38-.44L4.76,3a1.57,1.57,0,0,1,.7-1,1.51,1.51,0,0,1,1.22-.21l2.11.49a.58.58,0,0,0,.56-.16L10.85.49a1.64,1.64,0,0,1,2.3,0h0l1.5,1.57a.59.59,0,0,0,.56.16l2.1-.49A1.59,1.59,0,0,1,19.24,3l.43,2.16a.59.59,0,0,0,.38.44l2.05.74a1.58,1.58,0,0,1,.91.83,1.62,1.62,0,0,1,0,1.24l-.8,2.07a.58.58,0,0,0,.08.57l1.34,1.75A1.59,1.59,0,0,1,24,14,1.55,1.55,0,0,1,23.35,15l-1.77,1.3a.58.58,0,0,0-.24.53l.19,2.2a1.6,1.6,0,0,1-.39,1.18,1.54,1.54,0,0,1-1.11.54l-2.16.13a.59.59,0,0,0-.49.31l-1,1.95a1.61,1.61,0,0,1-1,.79A1.74,1.74,0,0,1,15,24Zm-3-2.36a1.58,1.58,0,0,1,.79.21l1.88,1.07a.59.59,0,0,0,.45.06.57.57,0,0,0,.36-.3l1-1.94a1.61,1.61,0,0,1,1.32-.85L20,19.77a.57.57,0,0,0,.41-.21.6.6,0,0,0,.14-.43l-.19-2.21A1.61,1.61,0,0,1,21,15.5l1.78-1.3a.55.55,0,0,0,.23-.39.54.54,0,0,0-.11-.44l-1.35-1.76a1.61,1.61,0,0,1-.22-1.53L22.11,8a.57.57,0,0,0,0-.46.58.58,0,0,0-.34-.31L19.71,6.5a1.59,1.59,0,0,1-1-1.18l-.43-2.16a.6.6,0,0,0-.72-.46l-2.1.49a1.6,1.6,0,0,1-1.51-.44l-1.5-1.57a.62.62,0,0,0-.86,0l-1.5,1.57a1.6,1.6,0,0,1-1.51.44L6.46,2.7a.6.6,0,0,0-.72.46L5.31,5.32a1.59,1.59,0,0,1-1,1.18l-2,.74a.58.58,0,0,0-.34.31.57.57,0,0,0,0,.46l.8,2.07a1.59,1.59,0,0,1-.23,1.53L1.12,13.37a.54.54,0,0,0-.11.44.55.55,0,0,0,.23.39L3,15.5a1.61,1.61,0,0,1,.64,1.42l-.19,2.21a.6.6,0,0,0,.14.43.57.57,0,0,0,.41.21l2.17.12a1.61,1.61,0,0,1,1.32.85l1,1.94a.57.57,0,0,0,.36.3.59.59,0,0,0,.45-.06l1.88-1.07A1.58,1.58,0,0,1,12,21.64Z"/></svg>