<svg width="16" height="16" viewBox="0 0 16 16" fill="none" xmlns="http://www.w3.org/2000/svg">
<path fill-rule="evenodd" clip-rule="evenodd" d="M5.50007 5.69995C4.22982 5.69995 3.20007 6.7297 3.20007 7.99995C3.20007 9.27021 4.22982 10.3 5.50007 10.3C6.77033 10.3 7.80007 9.27021 7.80007 7.99995C7.80007 6.7297 6.77033 5.69995 5.50007 5.69995ZM4.80007 7.99995C4.80007 7.61335 5.11347 7.29995 5.50007 7.29995C5.88667 7.29995 6.20007 7.61335 6.20007 7.99995C6.20007 8.38655 5.88667 8.69995 5.50007 8.69995C5.11347 8.69995 4.80007 8.38655 4.80007 7.99995Z" fill="#00BAFF"/>
<path d="M13.0001 7.29995H9.00012V5.69995H13.0001V7.29995Z" fill="#00BAFF"/>
<path d="M9.00012 10.3H13.0001V8.69995H9.00012V10.3Z" fill="#00BAFF"/>
<path fill-rule="evenodd" clip-rule="evenodd" d="M15.8001 2.19995H0.200073V13.8H15.8001V2.19995ZM1.80007 12.2V3.79995H14.2001V12.2H1.80007Z" fill="#00BAFF"/>
</svg>
