<svg width="24" height="24" viewBox="0 0 24 24" fill="none" xmlns="http://www.w3.org/2000/svg">
<path fill-rule="evenodd" clip-rule="evenodd" d="M5 10C5 8.34315 6.34315 7 8 7C9.65685 7 11 8.34315 11 10C11 11.6569 9.65685 13 8 13C6.34315 13 5 11.6569 5 10ZM8 9C7.44772 9 7 9.44772 7 10C7 10.5523 7.44772 11 8 11C8.55229 11 9 10.5523 9 10C9 9.44772 8.55229 9 8 9Z" fill="#00BAFF"/>
<path d="M11.1914 14.4726C10.4087 14.2401 9.29047 14 8 14C6.70953 14 5.59133 14.2401 4.80856 14.4726C3.62891 14.8231 3 15.9228 3 17H5C5 16.6499 5.18954 16.4459 5.37813 16.3898C6.02981 16.1962 6.95144 16 8 16C9.04856 16 9.97019 16.1962 10.6219 16.3898C10.8105 16.4459 11 16.6499 11 17H13C13 15.9228 12.3711 14.8231 11.1914 14.4726Z" fill="#00BAFF"/>
<path d="M14 11H20V9H14V11Z" fill="#00BAFF"/>
<path d="M20 15H14V13H20V15Z" fill="#00BAFF"/>
<path fill-rule="evenodd" clip-rule="evenodd" d="M24 3H0V21H24V3ZM2 19V5H22V19H2Z" fill="#00BAFF"/>
</svg>
