<svg width="16" height="16" viewBox="0 0 16 16" fill="none" xmlns="http://www.w3.org/2000/svg">
<path fill-rule="evenodd" clip-rule="evenodd" d="M9.38712 0.639899C8.66398 -0.2133 7.33608 -0.2133 6.61295 0.639899C6.16951 1.16309 5.46083 1.39327 4.79445 1.23055C3.70774 0.965184 2.63344 1.74542 2.5501 2.86056C2.49899 3.54438 2.061 4.14699 1.4262 4.40689C0.391003 4.83073 -0.0193424 6.09317 0.568937 7.04431C0.929678 7.62756 0.929678 8.37244 0.568937 8.95569C-0.0193425 9.90683 0.391003 11.1693 1.4262 11.5931C2.061 11.853 2.49899 12.4556 2.5501 13.1394C2.63344 14.2546 3.70774 15.0348 4.79445 14.7695C5.46083 14.6067 6.16951 14.8369 6.61295 15.3601C7.33608 16.2133 8.66398 16.2133 9.38712 15.3601C9.83055 14.8369 10.5392 14.6067 11.2056 14.7695C12.2923 15.0348 13.3666 14.2546 13.45 13.1394C13.5011 12.4556 13.9391 11.853 14.5739 11.5931C15.6091 11.1693 16.0194 9.90683 15.4311 8.95569C15.0704 8.37244 15.0704 7.62756 15.4311 7.04431C16.0194 6.09317 15.6091 4.83073 14.5739 4.40689C13.9391 4.14699 13.5011 3.54438 13.45 2.86056C13.3666 1.74542 12.2923 0.965184 11.2056 1.23055C10.5392 1.39327 9.83055 1.16309 9.38712 0.639899ZM5.56573 6.93473L4.43436 8.06568L7.50004 11.1302L12.5657 6.06641L11.4344 4.93546L7.50004 8.86832L5.56573 6.93473Z" fill="#00BAFF"/>
</svg>
