<svg width="16" height="16" viewBox="0 0 16 16" fill="none" xmlns="http://www.w3.org/2000/svg">
<path d="M6.0657 6.93723L4.93433 8.06861L7.50001 10.6343L11.5657 6.5686L10.4343 5.43723L7.50001 8.37154L6.0657 6.93723Z" fill="#00BAFF"/>
<path fill-rule="evenodd" clip-rule="evenodd" d="M6.61294 0.639899C7.33608 -0.2133 8.66398 -0.2133 9.38712 0.639899C9.83055 1.16309 10.5392 1.39327 11.2056 1.23055C12.2923 0.965184 13.3666 1.74542 13.45 2.86056C13.5011 3.54438 13.9391 4.14699 14.5739 4.40689C15.6091 4.83073 16.0194 6.09317 15.4311 7.04431C15.0704 7.62756 15.0704 8.37243 15.4311 8.95569C16.0194 9.90683 15.6091 11.1693 14.5739 11.5931C13.9391 11.853 13.5011 12.4556 13.45 13.1394C13.3666 14.2546 12.2923 15.0348 11.2056 14.7695C10.5392 14.6067 9.83055 14.8369 9.38712 15.3601C8.66398 16.2133 7.33608 16.2133 6.61295 15.3601C6.16951 14.8369 5.46083 14.6067 4.79445 14.7695C3.70774 15.0348 2.63344 14.2546 2.5501 13.1394C2.49899 12.4556 2.061 11.853 1.4262 11.5931C0.391003 11.1693 -0.0193424 9.90683 0.568937 8.95569C0.929678 8.37243 0.929678 7.62756 0.568937 7.04431C-0.0193424 6.09317 0.391003 4.83073 1.4262 4.40689C2.061 4.14699 2.49899 3.54438 2.5501 2.86056C2.63344 1.74542 3.70774 0.965184 4.79445 1.23055C5.46083 1.39327 6.16951 1.16309 6.61294 0.639899ZM4.41476 2.78427C5.67007 3.0908 6.99839 2.65936 7.83371 1.6738C7.87368 1.62663 7.92965 1.59941 8.00003 1.59941C8.07041 1.59941 8.12638 1.62663 8.16635 1.6738C9.00167 2.65936 10.33 3.0908 11.5853 2.78427C11.6454 2.7696 11.7067 2.78046 11.7636 2.82181C11.8205 2.86316 11.8498 2.91808 11.8544 2.97972C11.9507 4.26787 12.7716 5.39739 13.9674 5.88697C14.0247 5.9104 14.0679 5.9552 14.0896 6.02211C14.1114 6.08902 14.1027 6.15064 14.0702 6.20322C13.3907 7.30192 13.3907 8.69808 14.0702 9.79678C14.1027 9.84936 14.1114 9.91098 14.0896 9.97789C14.0679 10.0448 14.0247 10.0896 13.9674 10.113C12.7716 10.6026 11.9507 11.7321 11.8544 13.0203C11.8498 13.0819 11.8205 13.1368 11.7636 13.1782C11.7067 13.2195 11.6454 13.2304 11.5853 13.2157C10.33 12.9092 9.00167 13.3406 8.16635 14.3262C8.12638 14.3734 8.07041 14.4006 8.00003 14.4006C7.92965 14.4006 7.87368 14.3734 7.83371 14.3262C6.99839 13.3406 5.67007 12.9092 4.41476 13.2157C4.35469 13.2304 4.2934 13.2195 4.23647 13.1782C4.17953 13.1368 4.15026 13.0819 4.14565 13.0203C4.04938 11.7321 3.22843 10.6026 2.03263 10.113C1.9754 10.0896 1.9322 10.0448 1.91046 9.97789C1.88871 9.91098 1.89731 9.84936 1.92983 9.79678C2.60938 8.69808 2.60938 7.30192 1.92983 6.20322C1.89731 6.15064 1.88871 6.08902 1.91046 6.02211C1.9322 5.9552 1.9754 5.9104 2.03263 5.88697C3.22843 5.39739 4.04938 4.26787 4.14565 2.97972C4.15026 2.91808 4.17953 2.86316 4.23647 2.82181C4.2934 2.78046 4.35469 2.7696 4.41476 2.78427Z" fill="#00BAFF"/>
</svg>
