<svg width="24" height="24" viewBox="0 0 24 24" fill="none" xmlns="http://www.w3.org/2000/svg">
<path d="M11.5333 4.5C7.37667 4.5 4.00702 7.85786 4.00702 12C4.00702 16.1421 7.37667 19.5 11.5333 19.5C14.8103 19.5 17.5982 17.413 18.6314 14.5H20.7331C19.6318 18.5338 15.9302 21.5 11.5333 21.5C6.26822 21.5 2 17.2467 2 12C2 6.75329 6.26822 2.5 11.5333 2.5C14.6912 2.5 17.4904 4.02999 19.2253 6.38665L20.0614 3.27716L22 3.7948L20.271 10.2248L13.8184 8.50191L14.3379 6.57005L17.4867 7.41082C16.11 5.63996 13.9553 4.5 11.5333 4.5Z" fill="#00BAFF"/>
</svg>
