<svg width="16" height="16" viewBox="0 0 16 16" fill="none" xmlns="http://www.w3.org/2000/svg">
<path d="M7.5024 13.9C10.2434 13.9 12.548 12.032 13.2119 9.5H14.8547C14.1596 12.9234 11.132 15.5 7.5024 15.5C3.35894 15.5 0 12.1421 0 8C0 3.85786 3.35894 0.5 7.5024 0.5C10.1538 0.5 12.484 1.87499 13.8184 3.9506L14.423 1.69495L16 2.11738L14.6682 7.08603L9.69798 5.75467L10.1206 4.17815L12.4657 4.80634C11.4152 3.17807 9.58473 2.1 7.5024 2.1C4.24288 2.1 1.60051 4.74152 1.60051 8C1.60051 11.2585 4.24288 13.9 7.5024 13.9Z" fill="#37517E"/>
</svg>
