<svg width="16" height="16" viewBox="0 0 16 16" fill="none" xmlns="http://www.w3.org/2000/svg">
<path d="M9 11C9 11.5523 8.55229 12 8 12C7.44772 12 7 11.5523 7 11C7 10.4477 7.44772 10 8 10C8.55229 10 9 10.4477 9 11Z" fill="#00BAFF"/>
<path d="M10.4428 4.80094C9.80772 3.70087 8.40106 3.32395 7.30099 3.95908L5.13592 5.20908L5.93592 6.59472L8.10099 5.34472C8.43579 5.15142 8.86391 5.26614 9.05721 5.60094C9.25051 5.93575 9.13579 6.36386 8.80099 6.55716L6.63592 7.80716L7.43592 9.1928L9.60099 7.9428C10.7011 7.30767 11.078 5.90101 10.4428 4.80094Z" fill="#00BAFF"/>
<path fill-rule="evenodd" clip-rule="evenodd" d="M8 16C12.4183 16 16 12.4183 16 8C16 3.58172 12.4183 0 8 0C3.58172 0 0 3.58172 0 8C0 12.4183 3.58172 16 8 16ZM8 14.4C11.5346 14.4 14.4 11.5346 14.4 8C14.4 4.46538 11.5346 1.6 8 1.6C4.46538 1.6 1.6 4.46538 1.6 8C1.6 11.5346 4.46538 14.4 8 14.4Z" fill="#00BAFF"/>
</svg>
