<svg width="24" height="24" viewBox="0 0 24 24" fill="none" xmlns="http://www.w3.org/2000/svg">
<path fill-rule="evenodd" clip-rule="evenodd" d="M4.13901 22C5.03554 20.5102 5.78465 18.7861 5.93591 17.0572C6.03306 15.9468 5.8965 15.1348 5.66293 14.4651C5.42248 13.7757 5.06925 13.2011 4.65077 12.5279L4.63179 12.4974C4.22965 11.8507 3.76747 11.1074 3.44868 10.1934C3.11799 9.24525 2.951 8.14851 3.07174 6.76841C3.22082 5.06445 3.8244 3.43043 4.56849 2H6.86098C5.96447 3.48978 5.21539 5.21383 5.06413 6.94272C4.96698 8.05311 5.10355 8.86508 5.33712 9.53476C5.57757 10.2242 5.93079 10.7989 6.34927 11.472L6.36826 11.5025L6.36826 11.5025C6.7704 12.1492 7.23257 12.8925 7.55136 13.8065C7.88206 14.7547 8.04905 15.8514 7.9283 17.2315C7.77922 18.9355 7.17562 20.5695 6.43151 22H4.13901ZM10.723 22C11.7866 20.5149 12.6597 18.8018 12.8095 17.0899C12.9926 14.9974 12.1932 13.9186 11.2013 12.6016L11.1845 12.5794C10.1565 11.2146 8.94682 9.60867 9.19817 6.73572C9.34731 5.03106 10.0306 3.41166 10.8822 2H13.277C12.2134 3.4851 11.3403 5.19817 11.1906 6.91003C11.0075 9.00246 11.8068 10.0813 12.7988 11.3983L12.8155 11.4205C13.8435 12.7853 15.0532 14.3912 14.8019 17.2642C14.6527 18.9689 13.9694 20.5883 13.1178 22H10.723ZM19.4315 22H17.139C18.0355 20.5102 18.7847 18.7861 18.9359 17.0572C19.0331 15.9468 18.8965 15.1348 18.6629 14.4651C18.4225 13.7757 18.0693 13.2011 17.6508 12.5279L17.6318 12.4974L17.6318 12.4974C17.2296 11.8507 16.7675 11.1074 16.4487 10.1934C16.118 9.24525 15.951 8.14851 16.0717 6.76841C16.2208 5.06445 16.8244 3.43043 17.5685 2H19.861C18.9645 3.48978 18.2154 5.21383 18.0641 6.94272C17.967 8.05311 18.1035 8.86508 18.3371 9.53476C18.5776 10.2242 18.9308 10.7989 19.3493 11.472L19.3683 11.5025L19.3683 11.5025L19.3683 11.5025C19.7704 12.1493 20.2326 12.8925 20.5514 13.8065C20.8821 14.7547 21.049 15.8514 20.9283 17.2315C20.7792 18.9355 20.1756 20.5695 19.4315 22Z" fill="#00BAFF"/>
</svg>
