<svg width="16" height="16" viewBox="0 0 16 16" fill="none" xmlns="http://www.w3.org/2000/svg">
<path fill-rule="evenodd" clip-rule="evenodd" d="M3.50007 0.200012C1.67753 0.200012 0.200073 1.67747 0.200073 3.50001C0.200073 5.32255 1.67753 6.80001 3.50007 6.80001C5.32261 6.80001 6.80007 5.32255 6.80007 3.50001C6.80007 1.67747 5.32261 0.200012 3.50007 0.200012ZM1.80007 3.50001C1.80007 2.56113 2.56119 1.80001 3.50007 1.80001C4.43896 1.80001 5.20007 2.56113 5.20007 3.50001C5.20007 4.4389 4.43896 5.20001 3.50007 5.20001C2.56119 5.20001 1.80007 4.4389 1.80007 3.50001Z" fill="#00BAFF"/>
<path fill-rule="evenodd" clip-rule="evenodd" d="M3.50007 9.20001C1.67753 9.20001 0.200073 10.6775 0.200073 12.5C0.200073 14.3226 1.67753 15.8 3.50007 15.8C5.32261 15.8 6.80007 14.3226 6.80007 12.5C6.80007 10.6775 5.32261 9.20001 3.50007 9.20001ZM1.80007 12.5C1.80007 11.5611 2.56119 10.8 3.50007 10.8C4.43896 10.8 5.20007 11.5611 5.20007 12.5C5.20007 13.4389 4.43896 14.2 3.50007 14.2C2.56119 14.2 1.80007 13.4389 1.80007 12.5Z" fill="#00BAFF"/>
<path fill-rule="evenodd" clip-rule="evenodd" d="M9.20007 3.50001C9.20007 1.67747 10.6775 0.200012 12.5001 0.200012C14.3226 0.200012 15.8001 1.67747 15.8001 3.50001C15.8001 5.32255 14.3226 6.80001 12.5001 6.80001C10.6775 6.80001 9.20007 5.32255 9.20007 3.50001ZM12.5001 1.80001C11.5612 1.80001 10.8001 2.56113 10.8001 3.50001C10.8001 4.4389 11.5612 5.20001 12.5001 5.20001C13.439 5.20001 14.2001 4.4389 14.2001 3.50001C14.2001 2.56113 13.439 1.80001 12.5001 1.80001Z" fill="#00BAFF"/>
<path fill-rule="evenodd" clip-rule="evenodd" d="M12.5001 9.20001C10.6775 9.20001 9.20007 10.6775 9.20007 12.5C9.20007 14.3226 10.6775 15.8 12.5001 15.8C14.3226 15.8 15.8001 14.3226 15.8001 12.5C15.8001 10.6775 14.3226 9.20001 12.5001 9.20001ZM10.8001 12.5C10.8001 11.5611 11.5612 10.8 12.5001 10.8C13.439 10.8 14.2001 11.5611 14.2001 12.5C14.2001 13.4389 13.439 14.2 12.5001 14.2C11.5612 14.2 10.8001 13.4389 10.8001 12.5Z" fill="#00BAFF"/>
</svg>
