<svg width="16" height="16" viewBox="0 0 16 16" fill="none" xmlns="http://www.w3.org/2000/svg">
<path d="M5.99999 6.4C6.66273 6.4 7.19999 5.86274 7.19999 5.2C7.19999 4.53726 6.66273 4 5.99999 4C5.33725 4 4.79999 4.53726 4.79999 5.2C4.79999 5.86274 5.33725 6.4 5.99999 6.4Z" fill="#00BAFF"/>
<path d="M11.2 10.8C11.2 11.4627 10.6627 12 9.99999 12C9.33725 12 8.79999 11.4627 8.79999 10.8C8.79999 10.1373 9.33725 9.60001 9.99999 9.60001C10.6627 9.60001 11.2 10.1373 11.2 10.8Z" fill="#00BAFF"/>
<path d="M5.5657 11.5657L11.5657 5.5657L10.4343 4.43433L4.43433 10.4343L5.5657 11.5657Z" fill="#00BAFF"/>
<path fill-rule="evenodd" clip-rule="evenodd" d="M8.00001 0.200012C3.69219 0.200012 0.200012 3.69219 0.200012 8.00001C0.200012 12.3078 3.69219 15.8 8.00001 15.8C12.3078 15.8 15.8 12.3078 15.8 8.00001C15.8 3.69219 12.3078 0.200012 8.00001 0.200012ZM1.80001 8.00001C1.80001 4.57585 4.57585 1.80001 8.00001 1.80001C11.4242 1.80001 14.2 4.57585 14.2 8.00001C14.2 11.4242 11.4242 14.2 8.00001 14.2C4.57585 14.2 1.80001 11.4242 1.80001 8.00001Z" fill="#00BAFF"/>
</svg>
