<svg width="24" height="24" viewBox="0 0 24 24" fill="none" xmlns="http://www.w3.org/2000/svg">
<path d="M9.42857 9.94286C10.2807 9.94286 10.9714 9.2521 10.9714 8.4C10.9714 7.54791 10.2807 6.85715 9.42857 6.85715C8.57647 6.85715 7.88571 7.54791 7.88571 8.4C7.88571 9.2521 8.57647 9.94286 9.42857 9.94286Z" fill="#00BAFF"/>
<path d="M16.1143 15.6C16.1143 16.4521 15.4235 17.1428 14.5714 17.1428C13.7193 17.1428 13.0286 16.4521 13.0286 15.6C13.0286 14.7479 13.7193 14.0571 14.5714 14.0571C15.4235 14.0571 16.1143 14.7479 16.1143 15.6Z" fill="#00BAFF"/>
<path d="M8.84997 16.5642L16.5643 8.84995L15.15 7.43574L7.43576 15.15L8.84997 16.5642Z" fill="#00BAFF"/>
<path fill-rule="evenodd" clip-rule="evenodd" d="M12 2C6.47715 2 2 6.47715 2 12C2 17.5228 6.47715 22 12 22C17.5228 22 22 17.5228 22 12C22 6.47715 17.5228 2 12 2ZM4 12C4 7.58172 7.58172 4 12 4C16.4183 4 20 7.58172 20 12C20 16.4183 16.4183 20 12 20C7.58172 20 4 16.4183 4 12Z" fill="#00BAFF"/>
</svg>
