<svg width="16" height="16" viewBox="0 0 16 16" fill="none" xmlns="http://www.w3.org/2000/svg">
<path fill-rule="evenodd" clip-rule="evenodd" d="M8.00005 1.61355C6.21777 1.61355 4.77296 3.05836 4.77296 4.84064C4.77296 5.80437 5.19439 6.66866 5.86569 7.26116L5.88453 7.27779L8.00005 9.39331L10.1156 7.27779L10.1344 7.26116C10.8057 6.66866 11.2271 5.80437 11.2271 4.84064C11.2271 3.05836 9.78232 1.61355 8.00005 1.61355ZM8.00005 11.6752L12.3248 16L13.4658 14.8591L9.14099 10.5343L11.2218 8.45347C12.214 7.56811 12.8407 6.27706 12.8407 4.84064C12.8407 2.16723 10.6735 0 8.00005 0C5.32664 0 3.15941 2.16723 3.15941 4.84064C3.15941 6.27706 3.78607 7.56811 4.77831 8.45347L6.8591 10.5343L2.5343 14.8591L3.67525 16L8.00005 11.6752Z" fill="#00BAFF"/>
</svg>
