<svg width="24" height="24" viewBox="0 0 24 24" fill="none" xmlns="http://www.w3.org/2000/svg">
<path fill-rule="evenodd" clip-rule="evenodd" d="M12.0089 4.02988C9.80211 4.02988 8.00573 5.82771 8.00573 8.05465C8.00573 9.25818 8.5298 10.3365 9.36287 11.0749L9.38653 11.0959L12.0089 13.7295L14.6312 11.0959L14.6548 11.0749C15.4879 10.3365 16.012 9.25818 16.012 8.05465C16.012 5.82771 14.2156 4.02988 12.0089 4.02988ZM12.0089 16.6064L17.3793 22L18.8177 20.5677L13.4411 15.168L16.026 12.5719C17.2622 11.464 18.0419 9.84964 18.0419 8.05465C18.0419 4.71488 15.3449 2 12.0089 2C8.67281 2 5.97585 4.71488 5.97585 8.05465C5.97585 9.84965 6.75551 11.464 7.9917 12.5719L10.5766 15.168L5.2 20.5677L6.63843 22L12.0089 16.6064Z" fill="#00BAFF"/>
</svg>
