<svg width="16" height="17" viewBox="0 0 16 17" fill="none" xmlns="http://www.w3.org/2000/svg">
<path fill-rule="evenodd" clip-rule="evenodd" d="M8 1.80001C6.23269 1.80001 4.8 3.2327 4.8 5.00001C4.8 5.95565 5.2179 6.81269 5.88356 7.40022L5.90224 7.41671L8 9.51447L10.0978 7.41671L10.1164 7.40022C10.7821 6.81269 11.2 5.95565 11.2 5.00001C11.2 3.2327 9.76731 1.80001 8 1.80001ZM8 11.7772L12.2885 16.0657L13.4199 14.9343L9.13137 10.6458L11.1947 8.58251C12.1786 7.70459 12.8 6.42438 12.8 5.00001C12.8 2.34905 10.651 0.200012 8 0.200012C5.34903 0.200012 3.2 2.34905 3.2 5.00001C3.2 6.42438 3.8214 7.70459 4.80531 8.58252L6.86863 10.6458L2.58014 14.9343L3.71151 16.0657L8 11.7772Z" fill="#00BAFF"/>
</svg>
