<svg width="16" height="16" viewBox="0 0 16 16" fill="none" xmlns="http://www.w3.org/2000/svg">
<path d="M6 1.79995L2 1.79995L2 0.199951H6V1.79995Z" fill="#37517E"/>
<path fill-rule="evenodd" clip-rule="evenodd" d="M8 12.9999C9.933 12.9999 11.5 11.4329 11.5 9.49994C11.5 7.56694 9.933 5.99994 8 5.99994C6.067 5.99994 4.5 7.56694 4.5 9.49994C4.5 11.4329 6.067 12.9999 8 12.9999ZM8 11.3999C9.04934 11.3999 9.9 10.5493 9.9 9.49994C9.9 8.4506 9.04934 7.59994 8 7.59994C6.95066 7.59994 6.1 8.4506 6.1 9.49994C6.1 10.5493 6.95066 11.3999 8 11.3999Z" fill="#37517E"/>
<path fill-rule="evenodd" clip-rule="evenodd" d="M0 15.4999V3.49994H16V15.4999H0ZM1.6 5.09994H14.4V13.8999H1.6V5.09994Z" fill="#37517E"/>
</svg>
