<svg width="24" height="24" viewBox="0 0 24 24" fill="none" xmlns="http://www.w3.org/2000/svg">
<path d="M10.5858 12L7.29288 8.70712L8.70709 7.29291L12 10.5858L15.2929 7.29291L16.7071 8.70712L13.4142 12L16.7071 15.2929L15.2929 16.7071L12 13.4142L8.70712 16.7071L7.29291 15.2929L10.5858 12Z" fill="#00BAFF"/>
<path fill-rule="evenodd" clip-rule="evenodd" d="M12 22C17.5228 22 22 17.5228 22 12C22 6.47715 17.5228 2 12 2C6.47715 2 2 6.47715 2 12C2 17.5228 6.47715 22 12 22ZM12 20C16.4183 20 20 16.4183 20 12C20 7.58172 16.4183 4 12 4C7.58172 4 4 7.58172 4 12C4 16.4183 7.58172 20 12 20Z" fill="#00BAFF"/>
</svg>
