<svg width="16" height="16" viewBox="0 0 16 16" fill="none" xmlns="http://www.w3.org/2000/svg">
<path d="M6.86863 8.00002L4.4343 5.5657L5.56567 4.43433L8 6.86865L10.4343 4.43433L11.5657 5.5657L9.13137 8.00002L11.5657 10.4343L10.4343 11.5657L8 9.13139L5.5657 11.5657L4.43433 10.4343L6.86863 8.00002Z" fill="#00BAFF"/>
<path fill-rule="evenodd" clip-rule="evenodd" d="M8 16C12.4183 16 16 12.4183 16 8C16 3.58172 12.4183 0 8 0C3.58172 0 0 3.58172 0 8C0 12.4183 3.58172 16 8 16ZM8 14.4C11.5346 14.4 14.4 11.5346 14.4 8C14.4 4.46538 11.5346 1.6 8 1.6C4.46538 1.6 1.6 4.46538 1.6 8C1.6 11.5346 4.46538 14.4 8 14.4Z" fill="#00BAFF"/>
</svg>
