<svg width="24" height="24" viewBox="0 0 24 24" fill="none" xmlns="http://www.w3.org/2000/svg">
<path d="M11 17V14H13V17H11Z" fill="#00BAFF"/>
<path fill-rule="evenodd" clip-rule="evenodd" d="M12 1C8.41015 1 5.5 3.91015 5.5 7.5V9H3V19C3 20.6569 4.34315 22 6 22H18C19.6569 22 21 20.6569 21 19V9H18.5V7.5C18.5 3.91015 15.5899 1 12 1ZM16.5 9V7.5C16.5 5.01472 14.4853 3 12 3C9.51472 3 7.5 5.01472 7.5 7.5V9H16.5ZM5 11V19C5 19.5523 5.44772 20 6 20H18C18.5523 20 19 19.5523 19 19V11H5Z" fill="#00BAFF"/>
</svg>
