<svg width="16" height="16" viewBox="0 0 16 16" fill="none" xmlns="http://www.w3.org/2000/svg">
<path d="M7.20005 10L7.20005 12H8.80005V10H7.20005Z" fill="#00BAFF"/>
<path fill-rule="evenodd" clip-rule="evenodd" d="M3.19995 4.99995V6.19995H1.19995V14C1.19995 14.9941 2.00584 15.8 2.99995 15.8H13C13.9941 15.8 14.8 14.9941 14.8 14V6.19995H12.8V4.99995C12.8 2.62507 11.0059 0.199951 7.99995 0.199951C4.99402 0.199951 3.19995 2.62507 3.19995 4.99995ZM7.99995 1.79995C6.00588 1.79995 4.79995 3.37483 4.79995 4.99995V6.19995H11.2V4.99995C11.2 3.37483 9.99402 1.79995 7.99995 1.79995ZM2.79995 7.79995V14C2.79995 14.1104 2.88949 14.2 2.99995 14.2H13C13.1104 14.2 13.2 14.1104 13.2 14V7.79995H2.79995Z" fill="#00BAFF"/>
</svg>
