<svg width="16" height="16" viewBox="0 0 16 16" fill="none" xmlns="http://www.w3.org/2000/svg">
<path fill-rule="evenodd" clip-rule="evenodd" d="M1.84615 1.62608C1.73286 1.62608 1.64103 1.71708 1.64103 1.82934V10.976C1.64103 11.0883 1.73286 11.1793 1.84615 11.1793H5.74359V13.0662L8.79032 11.1793H14.1538C14.2671 11.1793 14.359 11.0883 14.359 10.976V1.82934C14.359 1.71708 14.2671 1.62608 14.1538 1.62608H1.84615ZM0 1.82934C0 0.819022 0.826552 0 1.84615 0H14.1538C15.1734 0 16 0.819022 16 1.82934V10.976C16 11.9863 15.1734 12.8054 14.1538 12.8054H9.26096L4.10256 16V12.8054H1.84615C0.826551 12.8054 0 11.9863 0 10.976V1.82934Z" fill="#37517E"/>
</svg>
