<svg width="24" height="24" viewBox="0 0 24 24" fill="none" xmlns="http://www.w3.org/2000/svg">
<path d="M12 20C16.4127 20 19.991 16.4272 20 12.0166L20.9324 11.7345C21.3135 11.6192 21.6612 11.455 21.9724 11.2517C21.9907 11.4988 22 11.7483 22 12C22 17.5228 17.5228 22 12 22C6.47715 22 2 17.5228 2 12C2 6.47715 6.47715 2 12 2C12.4902 2 12.9722 2.03527 13.4435 2.10341C13.3074 2.31437 13.1881 2.54287 13.0887 2.78847L12.5894 4.02138C12.3948 4.00721 12.1982 4 12 4C7.58172 4 4 7.58172 4 12C4 16.4183 7.58172 20 12 20Z" fill="#00BAFF"/>
<path fill-rule="evenodd" clip-rule="evenodd" d="M18.3401 3.01844C17.3762 1.8481 15.5115 2.13389 14.9424 3.53916L11.2883 12.5626L20.3533 9.82019C21.7196 9.40684 22.2254 7.73635 21.318 6.63445L18.3401 3.01844ZM16.7962 4.28986L19.7741 7.90587L14.7117 9.43739L16.7962 4.28986Z" fill="#00BAFF"/>
</svg>
