<svg width="16" height="16" viewBox="0 0 16 16" fill="none" xmlns="http://www.w3.org/2000/svg">
<path fill-rule="evenodd" clip-rule="evenodd" d="M7.99995 2.69995C6.7297 2.69995 5.69995 3.7297 5.69995 4.99995C5.69995 6.27021 6.7297 7.29995 7.99995 7.29995C9.27021 7.29995 10.3 6.27021 10.3 4.99995C10.3 3.7297 9.27021 2.69995 7.99995 2.69995ZM7.29995 4.99995C7.29995 4.61335 7.61335 4.29995 7.99995 4.29995C8.38655 4.29995 8.69995 4.61335 8.69995 4.99995C8.69995 5.38655 8.38655 5.69995 7.99995 5.69995C7.61335 5.69995 7.29995 5.38655 7.29995 4.99995Z" fill="#37517E"/>
<path fill-rule="evenodd" clip-rule="evenodd" d="M0.199951 0.199951H15.8L15.8 9.79995L0.200049 9.80005L0.199951 0.199951ZM14.2 6.84292C13.5733 7.07544 13.0755 7.57326 12.8429 8.19995H3.15708C2.92454 7.57324 2.42669 7.07541 1.79995 6.84291V3.15716C2.42677 2.92466 2.92469 2.42676 3.15721 1.79995H12.8429C13.0754 2.42668 13.5732 2.92453 14.2 3.15705V6.84292Z" fill="#37517E"/>
<path d="M16 11.2H0V12.8H16V11.2Z" fill="#37517E"/>
<path d="M16 14.2H0V15.8H16V14.2Z" fill="#37517E"/>
</svg>
