<svg width="16" height="16" viewBox="0 0 16 16" fill="none" xmlns="http://www.w3.org/2000/svg">
<path d="M9.29986 0C8.01731 0 6.90564 0.731667 6.3595 1.80037C8.79749 1.83196 10.7679 3.80233 10.7996 6.2403C11.8683 5.69413 12.5999 4.5825 12.5999 3.3C12.5999 1.47746 11.1224 0 9.29986 0Z" fill="#00BAFF"/>
<path d="M15.6 12.8H13.0396C12.6143 12.0858 11.9964 11.4572 11.1511 11.0254C10.4953 10.6904 9.66632 10.3417 8.70783 10.1023C9.46911 9.6192 10.0754 8.91378 10.4354 8.07738C11.6982 8.24845 12.7884 8.67679 13.6051 9.09404C14.9919 9.80245 15.6 11.2685 15.6 12.6519V12.8Z" fill="#00BAFF"/>
<path d="M6.2999 3C4.47736 3 2.9999 4.47746 2.9999 6.3C2.9999 8.12254 4.47736 9.6 6.2999 9.6C8.12244 9.6 9.5999 8.12254 9.5999 6.3C9.5999 4.47746 8.12244 3 6.2999 3Z" fill="#00BAFF"/>
<path d="M10.6052 12.094C9.55241 11.5562 8.0454 11 6.3 11C4.5546 11 3.04759 11.5562 1.99482 12.094C0.608067 12.8025 0 14.2685 0 15.6519V15.8H12.6V15.6519C12.6 14.2685 11.9919 12.8025 10.6052 12.094Z" fill="#00BAFF"/>
</svg>
