<svg width="24" height="24" viewBox="0 0 24 24" fill="none" xmlns="http://www.w3.org/2000/svg">
<path d="M22 4.11981L21.2152 5.99991L21.2112 5.99822L21.1917 5.9901C21.1736 5.98261 21.1454 5.97103 21.1077 5.95579C21.0321 5.92531 20.9183 5.88021 20.7702 5.82387C19.4664 5.32787 15.7088 4.03991 11.9996 4.03991C9.7264 4.03991 7.42359 4.52476 5.66742 5.02191C4.79427 5.26908 4.06726 5.51611 3.56061 5.70051C3.3075 5.79264 3.10996 5.86892 2.97731 5.92149C2.91101 5.94777 2.86097 5.9681 2.82836 5.9815L2.79268 5.99627L2.78494 5.99952L2.78379 6C2.78379 6 2.78406 5.99988 2.3916 5.05986C1.99913 4.11983 2 4.11946 2 4.11946L2.00131 4.11891L2.00526 4.11724L2.01837 4.11175L2.06508 4.0924C2.10519 4.07592 2.16305 4.05243 2.23749 4.02293C2.38633 3.96394 2.60163 3.88085 2.87395 3.78174C3.41818 3.58366 4.19242 3.32071 5.12077 3.05791C6.96759 2.5351 9.46878 2 11.9996 2C16.0864 2 20.1247 3.39808 21.4841 3.91524C21.6456 3.97665 21.772 4.0267 21.8592 4.06193C21.9029 4.07955 21.9368 4.09347 21.9604 4.10326L21.9881 4.1148L21.9961 4.11815L22 4.11981Z" fill="#00BAFF"/>
<path d="M16 6.57907C16.7042 6.70006 17.3768 6.84205 18 6.99092L17.9999 22L5.99999 22L6.00004 6.99091C6.62324 6.84204 7.29577 6.70006 7.99999 6.57907L7.99999 18.1707C8.8524 18.472 9.52799 19.1476 9.82928 20H14.1707C14.472 19.1476 15.1476 18.472 16 18.1707L16 6.57907Z" fill="#00BAFF"/>
<path fill-rule="evenodd" clip-rule="evenodd" d="M15 12C15 10.3431 13.6568 9 12 9C10.3431 9 8.99999 10.3431 8.99999 12C8.99999 13.6569 10.3431 15 12 15C13.6568 15 15 13.6569 15 12ZM12 11C12.5523 11 13 11.4477 13 12C13 12.5523 12.5523 13 12 13C11.4477 13 11 12.5523 11 12C11 11.4477 11.4477 11 12 11Z" fill="#00BAFF"/>
</svg>
