<svg width="16" height="16" viewBox="0 0 16 16" fill="none" xmlns="http://www.w3.org/2000/svg">
<path d="M8 1.5868C4.38828 1.5868 1.89069 2.68655 0.932548 3.19287L0.191162 1.78991C1.31075 1.19827 4.06343 0 8 0C11.9366 0 14.6892 1.19827 15.8088 1.78991L15.0674 3.19287C14.1093 2.68655 11.6117 1.5868 8 1.5868Z" fill="#00BAFF"/>
<path d="M3.23977 16H12.7604L12.7604 4.37545C12.2659 4.22781 11.7323 4.087 11.1736 3.96701V13.0704C10.5522 13.301 10.0585 13.7947 9.82793 14.4162H6.1724C5.94176 13.7946 5.44798 13.3009 4.82639 13.0704L4.82639 3.96702C4.26765 4.08701 3.73406 4.22782 3.2396 4.37546L3.23977 16Z" fill="#00BAFF"/>
<path fill-rule="evenodd" clip-rule="evenodd" d="M10.2812 8.26737C10.2812 7.00759 9.25995 5.98635 8.00018 5.98635C6.74041 5.98635 5.71915 7.00759 5.71915 8.26737C5.71915 9.52715 6.74041 10.5484 8.00018 10.5484C9.25995 10.5484 10.2812 9.52715 10.2812 8.26737ZM8.00018 7.57316C8.38359 7.57316 8.6944 7.88397 8.6944 8.26737C8.6944 8.65077 8.38359 8.96158 8.00018 8.96158C7.61676 8.96158 7.30595 8.65076 7.30595 8.26737C7.30595 7.88397 7.61676 7.57316 8.00018 7.57316Z" fill="#00BAFF"/>
</svg>
