<svg width="24" height="24" viewBox="0 0 24 24" fill="none" xmlns="http://www.w3.org/2000/svg">
<path d="M7.51864 10.2646C8.22814 10.9741 8.22746 10.9748 8.22746 10.9748L8.22641 10.9766L8.22327 10.9789L8.21973 10.9824L8.21664 10.9853L8.22641 10.9766C8.23998 10.9647 8.26747 10.9415 8.30881 10.9105C8.39163 10.8484 8.52877 10.7559 8.71991 10.6604C9.09891 10.4709 9.69877 10.2646 10.5288 10.2646C11.3588 10.2646 11.9587 10.4709 12.3377 10.6604C12.5288 10.7559 12.666 10.8484 12.7488 10.9105C12.7901 10.9415 12.8185 10.9648 12.8321 10.9767L12.8343 10.9789L12.8379 10.9824L12.841 10.9853C12.841 10.9853 12.8388 10.9826 12.8321 10.9767L12.8302 10.9748C12.8302 10.9748 12.8295 10.9741 13.539 10.2646C14.2485 9.5551 14.2478 9.5544 14.2478 9.5544L14.247 9.55367L14.2455 9.55214L14.2421 9.54881L14.2342 9.54105L14.2135 9.52133C14.1975 9.50637 14.1773 9.48787 14.1527 9.46636C14.1035 9.42336 14.037 9.36817 13.9529 9.30511C13.7849 9.17909 13.5457 9.02072 13.2352 8.86544C12.6108 8.55324 11.7056 8.25781 10.5288 8.25781C9.35207 8.25781 8.44685 8.55324 7.82245 8.86544C7.5119 9.02072 7.27277 9.17908 7.10474 9.3051C7.02066 9.36816 6.95408 9.42335 6.90494 9.46635C6.88035 9.48786 6.86009 9.50636 6.84414 9.52131L6.82343 9.54104L6.81548 9.5488L6.81211 9.55213L6.81057 9.55365L6.80984 9.55438C6.80984 9.55438 6.80914 9.55509 7.51864 10.2646Z" fill="#00BAFF"/>
<path fill-rule="evenodd" clip-rule="evenodd" d="M3.34928 3.2133L3.58402 3L4.93361 4.48518L4.69888 4.69848C4.05462 5.28392 3.95251 6.21309 4.3611 6.90981C5.94976 5.55427 8.17746 4.74592 10.5288 4.74592C11.6781 4.74592 12.7787 4.93256 13.7854 5.27391L18.7351 4.56682L18.1565 8.61681C18.3182 8.88259 18.4607 9.1592 18.5819 9.44543L22 10.129L20.8387 13.6129L18.5415 14.1872C18.1398 15.0943 17.5239 15.9006 16.7607 16.5721L15.7037 20.8002H12.0339V18.6848C11.5446 18.7562 11.0416 18.7934 10.5288 18.7934C10.016 18.7934 9.51301 18.7562 9.02375 18.6848V20.8002H5.35395L4.29692 16.572C2.90321 15.3453 2 13.6656 2 11.7697C2 10.5436 2.36535 9.41972 2.99844 8.44743C1.72261 6.9376 1.80797 4.61391 3.34928 3.2133ZM10.5288 6.7527C6.70628 6.7527 4.00678 9.19623 4.00678 11.7697C4.00678 13.0677 4.65926 14.2975 5.82075 15.2322L6.08334 15.4436L6.92079 18.7934H7.01697V16.121L8.29337 16.4819C8.98852 16.6784 9.74093 16.7866 10.5288 16.7866C11.3167 16.7866 12.0691 16.6784 12.7643 16.4819L14.0407 16.121V18.7934H14.1368L14.9743 15.4436L15.2369 15.2322C16.0176 14.6039 16.5687 13.8397 16.8449 13.0192L17.0201 12.499L19.2833 11.9332L19.3773 11.651L17.0521 11.186L16.8758 10.6156C16.7472 10.1996 16.5489 9.79834 16.2861 9.42036L16.0608 9.09635L16.37 6.93183L13.5734 7.33134L13.3351 7.24319C12.4886 6.93013 11.538 6.7527 10.5288 6.7527Z" fill="#00BAFF"/>
</svg>
