<svg width="16" height="16" viewBox="0 0 16 16" fill="none" xmlns="http://www.w3.org/2000/svg">
<path d="M4.91272 7.5661C4.91272 7.5661 4.91313 7.5657 4.34193 7.00001C3.77073 6.43433 3.77116 6.4339 3.77116 6.4339L3.7726 6.43248L3.77486 6.43026L3.78054 6.42474L3.79654 6.40947C3.80924 6.39749 3.82604 6.38194 3.84682 6.36336C3.88833 6.32623 3.94596 6.27673 4.01874 6.21907C4.16381 6.10413 4.37197 5.95447 4.63535 5.80542C5.15876 5.50922 5.92822 5.20001 6.8663 5.20001C7.80438 5.20001 8.57385 5.50922 9.09725 5.80542C9.36064 5.95447 9.56879 6.10413 9.71386 6.21907C9.78665 6.27673 9.84428 6.32623 9.88579 6.36336C9.90656 6.38194 9.92336 6.39749 9.93607 6.40947L9.95206 6.42474L9.95775 6.43026L9.96001 6.43248L9.96099 6.43345C9.96099 6.43345 9.96188 6.43433 9.39068 7.00001C8.81948 7.5657 8.81988 7.5661 8.81988 7.5661L8.82097 7.56718L8.82186 7.56809C8.81904 7.56543 8.81267 7.55949 8.80287 7.55073C8.78324 7.53317 8.75015 7.50454 8.70461 7.46846C8.61302 7.39589 8.47407 7.29556 8.29569 7.19461C7.93557 6.99081 7.44285 6.80001 6.8663 6.80001C6.28976 6.80001 5.79704 6.99081 5.43691 7.19461C5.25853 7.29556 5.11959 7.39589 5.028 7.46846C4.98245 7.50454 4.94936 7.53317 4.92973 7.55073C4.91994 7.55949 4.91357 7.56543 4.91074 7.56809L4.91163 7.56718L4.91272 7.5661Z" fill="#00BAFF"/>
<path fill-rule="evenodd" clip-rule="evenodd" d="M1.01184 1.66656L1.24634 1.43433L2.38874 2.5657L2.15424 2.79793C1.79702 3.1517 1.67967 3.64446 1.78882 4.08984C3.06832 2.91276 4.90522 2.20001 6.86629 2.20001C8.12247 2.20001 9.30681 2.48463 10.3279 2.98786L13.3719 2.5572L12.9708 5.33824C13.1735 5.67014 13.3404 6.02241 13.4658 6.39133L16 6.89327L15.0655 9.66961L13.2628 10.116C12.9085 10.882 12.3715 11.5594 11.7087 12.1157L11.0311 14.8H8.07799V13.7102C7.68411 13.7693 7.27914 13.8 6.86629 13.8C6.45345 13.8 6.04848 13.7693 5.65459 13.7102V14.8H2.70146L2.02384 12.1157C0.796569 11.0852 0 9.63656 0 8.00001C0 7.07988 0.245183 6.22582 0.67691 5.47146C-0.134454 4.32827 -0.0475169 2.71569 1.01184 1.66656ZM4.039 11.6459V13.2H3.96288L3.458 11.2L3.23689 11.0303C2.21024 10.2427 1.6156 9.15935 1.6156 8.00001C1.6156 5.81079 3.82226 3.80001 6.86629 3.80001C7.95889 3.80001 8.96554 4.06777 9.79752 4.51817L10.0333 4.64579L11.4679 4.44282L11.2842 5.71607L11.4625 5.97323C11.7381 6.37072 11.9322 6.80229 12.034 7.25405L12.1485 7.7621L13.8886 8.10675L13.8133 8.33041L12.0563 8.76541L11.9104 9.16718C11.6549 9.87058 11.1676 10.5148 10.4957 11.0303L10.2746 11.2L9.7697 13.2H9.69359V11.6459L8.65756 11.9481C8.10029 12.1107 7.49743 12.2 6.86629 12.2C6.23516 12.2 5.6323 12.1107 5.07503 11.9481L4.039 11.6459Z" fill="#00BAFF"/>
</svg>
