<svg width="16" height="16" viewBox="0 0 16 16" fill="none" xmlns="http://www.w3.org/2000/svg">
<path d="M8.005 1.58801C5.41613 1.58801 3.28344 3.54112 3 6.05424V11.7453C3.53687 13.1926 4.92817 14.2 6.53117 14.2H9.00004V15.8H6.53117C3.94213 15.8 1.74069 13.9557 1.26075 11.4447C0.497634 10.9008 0 10.0085 0 9C0 7.93914 0.550641 7.0069 1.3817 6.47348C1.46224 2.88457 4.39676 0 8.005 0C11.6154 0 14.5513 2.88808 14.6285 6.48003C15.4538 7.0145 16 7.94347 16 9C16 10.6569 14.6569 12 13 12V6L13.0036 6.00001C12.6958 3.51308 10.5752 1.58801 8.005 1.58801Z" fill="#00BAFF"/>
</svg>
