<svg width="16" height="16" viewBox="0 0 16 16" fill="none" xmlns="http://www.w3.org/2000/svg">
<path d="M6 1.80001L2 1.80001L2 0.200012H6V1.80001Z" fill="#00BAFF"/>
<path fill-rule="evenodd" clip-rule="evenodd" d="M8 13C9.933 13 11.5 11.433 11.5 9.5C11.5 7.567 9.933 6 8 6C6.067 6 4.5 7.567 4.5 9.5C4.5 11.433 6.067 13 8 13ZM8 11.4C9.04934 11.4 9.9 10.5493 9.9 9.5C9.9 8.45066 9.04934 7.6 8 7.6C6.95066 7.6 6.1 8.45066 6.1 9.5C6.1 10.5493 6.95066 11.4 8 11.4Z" fill="#00BAFF"/>
<path fill-rule="evenodd" clip-rule="evenodd" d="M0 15.5V3.5H16V15.5H0ZM1.6 5.1H14.4V13.9H1.6V5.1Z" fill="#00BAFF"/>
</svg>
