<svg width="16" height="16" viewBox="0 0 16 16" fill="none" xmlns="http://www.w3.org/2000/svg">
<path fill-rule="evenodd" clip-rule="evenodd" d="M5.49995 5.69995C4.2297 5.69995 3.19995 6.7297 3.19995 7.99995C3.19995 9.27021 4.2297 10.3 5.49995 10.3C6.77021 10.3 7.79995 9.27021 7.79995 7.99995C7.79995 6.7297 6.77021 5.69995 5.49995 5.69995ZM4.79995 7.99995C4.79995 7.61335 5.11335 7.29995 5.49995 7.29995C5.88655 7.29995 6.19995 7.61335 6.19995 7.99995C6.19995 8.38655 5.88655 8.69995 5.49995 8.69995C5.11335 8.69995 4.79995 8.38655 4.79995 7.99995Z" fill="#37517E"/>
<path d="M13 7.29995H9V5.69995H13V7.29995Z" fill="#37517E"/>
<path d="M9 10.3H13V8.69995H9V10.3Z" fill="#37517E"/>
<path fill-rule="evenodd" clip-rule="evenodd" d="M15.8 2.19995H0.199951V13.8H15.8V2.19995ZM1.79995 12.2V3.79995H14.2V12.2H1.79995Z" fill="#37517E"/>
</svg>
