<svg id="artwork" xmlns="http://www.w3.org/2000/svg" viewBox="0 0 24 24"><title>ach</title><polygon points="20 21 20 11 19 11 19 21 15 21 15 11 14 11 14 21 10 21 10 11 9 11 9 21 4.95 21 4.95 11 3.95 11 3.95 21 1 21 1 22 3.95 22 4.95 22 9 22 10 22 14 22 15 22 19 22 20 22 23 22 23 21 20 21"/><path d="M15.49,9H2a.5.5,0,0,1-.48-.35.51.51,0,0,1,.2-.57l9-6,.55.84L3.65,8H15.49Z"/><path d="M22.91,7.51l-1,0A6.42,6.42,0,0,0,15.59,1V0a7.41,7.41,0,0,1,7.31,7.51Z"/><path d="M20.09,7l-1,0a3.38,3.38,0,0,0-1-2.44,3.6,3.6,0,0,0-2.5-1v-1a4.65,4.65,0,0,1,3.2,1.34A4.4,4.4,0,0,1,20.09,7Z"/></svg>