<svg id="artwork" xmlns="http://www.w3.org/2000/svg" viewBox="0 0 24 24"><title>batch</title><path d="M3,24a3,3,0,1,1,3-3A3,3,0,0,1,3,24Zm0-5a2,2,0,1,0,2,2A2,2,0,0,0,3,19Z"/><path d="M10,6a3,3,0,1,1,3-3A3,3,0,0,1,10,6Zm0-5a2,2,0,1,0,2,2A2,2,0,0,0,10,1Z"/><path d="M21,17a3,3,0,1,1,3-3A3,3,0,0,1,21,17Zm0-5a2,2,0,1,0,2,2A2,2,0,0,0,21,12Z"/><path d="M17,10a3,3,0,1,1,3-3A3,3,0,0,1,17,10Zm0-5a2,2,0,1,0,2,2A2,2,0,0,0,17,5Z"/><rect x="5.6" y="13.48" width="8.84" height="1" transform="translate(-6.95 11.18) rotate(-45)"/><rect x="7.85" y="16.91" width="8.84" height="1" transform="translate(-5.44 5.57) rotate(-21.05)"/><rect x="2.16" y="11.23" width="8.9" height="1" transform="translate(-6.72 13.64) rotate(-68.75)"/></svg>