<svg width="24" height="24" viewBox="0 0 24 24" fill="none" xmlns="http://www.w3.org/2000/svg">
<path fill-rule="evenodd" clip-rule="evenodd" d="M11.5132 21.1741L11.5144 21.1746L11.5156 21.1753L11.517 21.1761L12 21.4444L12.483 21.1761L12.4844 21.1753L12.4856 21.1746L12.4868 21.1741L12.5128 21.1603C12.5382 21.1471 12.5797 21.1261 12.636 21.0989C12.7487 21.0447 12.9203 20.9665 13.1423 20.8784C13.5875 20.7017 14.2275 20.4883 14.9946 20.3463C16.5302 20.0619 18.5265 20.0703 20.5143 21.1746L22 22V3.52256L21.4856 3.23681C18.9735 1.84116 16.4698 1.84956 14.6304 2.19019C13.71 2.36063 12.9437 2.61598 12.4046 2.82993C12.2515 2.89069 12.1161 2.94836 12 3.00015C11.8839 2.94836 11.7485 2.89069 11.5954 2.82993C11.0563 2.61599 10.29 2.36064 9.36959 2.1902C7.53019 1.84958 5.02651 1.84119 2.51436 3.23683L2 3.52259V22L3.48564 21.1746C5.47349 20.0703 7.46981 20.0619 9.00541 20.3463C9.77254 20.4883 10.4125 20.7017 10.8577 20.8784C11.0797 20.9665 11.2513 21.0447 11.364 21.0989C11.4203 21.1261 11.4618 21.1471 11.4872 21.1603L11.5132 21.1741ZM11 4.74679C10.9552 4.72811 10.9077 4.70876 10.8577 4.68891C10.4125 4.51223 9.77254 4.29883 9.00541 4.15677C7.60229 3.89693 5.8145 3.88152 4 4.72328V18.7543C5.99161 18.047 7.89427 18.1065 9.36959 18.3797C10.29 18.5501 11.0563 18.8055 11.5954 19.0194C11.7485 19.0802 11.8839 19.1379 12 19.1896C12.1161 19.1379 12.2515 19.0802 12.4046 19.0194C12.9437 18.8055 13.71 18.5501 14.6304 18.3797C16.1057 18.1065 18.0084 18.047 20 18.7543V4.72326C18.1855 3.88149 16.3977 3.89691 14.9946 4.15675C14.2275 4.29882 13.5875 4.51222 13.1423 4.68891C13.0923 4.70876 13.0448 4.7281 13 4.74678V16H11V4.74679Z" fill="#37517E"/>
</svg>
