<svg width="24" height="24" viewBox="0 0 24 24" fill="none" xmlns="http://www.w3.org/2000/svg">
<path d="M9.5 4H3.5V2H9.5V4Z" fill="#37517E"/>
<path fill-rule="evenodd" clip-rule="evenodd" d="M16.5 14C16.5 16.4853 14.4853 18.5 12 18.5C9.51472 18.5 7.5 16.4853 7.5 14C7.5 11.5147 9.51472 9.5 12 9.5C14.4853 9.5 16.5 11.5147 16.5 14ZM14.5 14C14.5 15.3807 13.3807 16.5 12 16.5C10.6193 16.5 9.5 15.3807 9.5 14C9.5 12.6193 10.6193 11.5 12 11.5C13.3807 11.5 14.5 12.6193 14.5 14Z" fill="#37517E"/>
<path fill-rule="evenodd" clip-rule="evenodd" d="M1 6H23V22H1V6ZM3 8V20H21V8H3Z" fill="#37517E"/>
</svg>
