<svg width="16" height="16" viewBox="0 0 16 16" fill="none" xmlns="http://www.w3.org/2000/svg">
<path d="M2.5 1.79995H14C14.1105 1.79995 14.2 1.88949 14.2 1.99995V10.5H15.8V1.99995C15.8 1.00584 14.9941 0.199951 14 0.199951H2.5V1.79995Z" fill="#37517E"/>
<path fill-rule="evenodd" clip-rule="evenodd" d="M1.99995 3.19995C1.00584 3.19995 0.199951 4.00584 0.199951 4.99995V11C0.199951 11.9941 1.00584 12.8 1.99995 12.8H3.69995V15.9433L8.72939 12.8H11C11.9941 12.8 12.8 11.9941 12.8 11V4.99995C12.8 4.00584 11.9941 3.19995 11 3.19995H1.99995ZM1.79995 4.99995C1.79995 4.88949 1.88949 4.79995 1.99995 4.79995H11C11.1104 4.79995 11.2 4.88949 11.2 4.99995V11C11.2 11.1104 11.1104 11.2 11 11.2H8.27051L5.29995 13.0566V11.2H1.99995C1.88949 11.2 1.79995 11.1104 1.79995 11V4.99995Z" fill="#37517E"/>
</svg>
