<svg width="24" height="24" viewBox="0 0 24 24" fill="none" xmlns="http://www.w3.org/2000/svg">
<path d="M6.46334 20.3392C11.0578 23.4019 17.265 22.1612 20.3291 17.5676C21.0466 16.4957 21.5477 15.294 21.8042 14.0299L22.7926 14.23C21.5724 20.1849 15.7558 24.023 9.80098 22.8028C3.84612 21.5826 0.00794174 15.766 1.22817 9.81116C2.44745 3.86508 8.25263 0.0303847 14.2002 1.24228C16.5118 1.719 18.6088 2.92662 20.1814 4.68672L20.1779 0.944824L21.1977 0.944934L21.199 6.61465L15.5234 6.63758L15.5235 5.61777L19.6949 5.62018C19.0819 4.87794 18.3615 4.23139 17.5575 3.70194C16.4856 2.98444 15.2838 2.48332 14.0197 2.22676C8.61095 1.11835 3.32736 4.60306 2.21658 10.0113C1.67427 12.6559 2.22427 15.4075 3.74154 17.6404C4.46433 18.7087 5.38892 19.6255 6.46334 20.3392Z" fill="#37517E"/>
<path d="M11.0002 5.9999V12.7675L15.7228 15.9159L16.2775 15.0839L12.0002 12.2323V5.9999H11.0002Z" fill="#37517E"/>
<path d="M6.46334 20.3392C11.0578 23.4019 17.265 22.1612 20.3291 17.5676C21.0466 16.4957 21.5477 15.294 21.8042 14.0299L22.7926 14.23C21.5724 20.1849 15.7558 24.023 9.80098 22.8028C3.84612 21.5826 0.00794174 15.766 1.22817 9.81116C2.44745 3.86508 8.25263 0.0303847 14.2002 1.24228C16.5118 1.719 18.6088 2.92662 20.1814 4.68672L20.1779 0.944824L21.1977 0.944934L21.199 6.61465L15.5234 6.63758L15.5235 5.61777L19.6949 5.62018C19.0819 4.87794 18.3615 4.23139 17.5575 3.70194C16.4856 2.98444 15.2838 2.48332 14.0197 2.22676C8.61095 1.11835 3.32736 4.60306 2.21658 10.0113C1.67427 12.6559 2.22427 15.4075 3.74154 17.6404C4.46433 18.7087 5.38892 19.6255 6.46334 20.3392Z" stroke="#37517E"/>
<path d="M11.0002 5.9999V12.7675L15.7228 15.9159L16.2775 15.0839L12.0002 12.2323V5.9999H11.0002Z" stroke="#37517E"/>
</svg>
