<svg id="artwork" xmlns="http://www.w3.org/2000/svg" viewBox="0 0 24 24"><title>drivers-licence</title><rect x="12" y="8" width="9" height="1"/><rect x="12" y="11" width="9" height="1"/><rect x="12" y="14" width="5" height="1"/><path d="M0,4V20H24V4ZM23,5V17H1V5ZM1,19V18H23v1Z"/><path d="M6.5,11A2.25,2.25,0,1,1,8.75,8.79,2.25,2.25,0,0,1,6.5,11Zm0-3.49A1.25,1.25,0,1,0,7.75,8.79,1.25,1.25,0,0,0,6.5,7.55Z"/><path d="M9.5,14.49l-.08-.78a.9.9,0,0,0-.09-.33.88.88,0,0,0-.18-.25A.82.82,0,0,0,8.9,13a.72.72,0,0,0-.29-.06H4.39A.72.72,0,0,0,4.1,13a.82.82,0,0,0-.25.16.88.88,0,0,0-.18.25.9.9,0,0,0-.09.33l-.08.78-1-.1.08-.78a1.91,1.91,0,0,1,.19-.67,1.89,1.89,0,0,1,1-.9,2,2,0,0,1,.67-.13H8.61a2,2,0,0,1,.67.13,1.89,1.89,0,0,1,1,.9,1.91,1.91,0,0,1,.19.67l.08.78Z"/></svg>