<svg width="16" height="16" viewBox="0 0 16 16" fill="none" xmlns="http://www.w3.org/2000/svg">
<path fill-rule="evenodd" clip-rule="evenodd" d="M16 8C16 3.58172 12.4183 0 8 0C3.58172 0 0 3.58172 0 8C0 12.4183 3.58172 16 8 16C12.4183 16 16 12.4183 16 8ZM4.51728 8.8C4.6061 10.8448 5.03179 12.6632 5.66569 13.961C3.52337 13.1214 1.94383 11.1603 1.64952 8.8H4.51728ZM6.11892 8.8C6.20004 10.5033 6.53519 11.9738 6.99098 13.0155C7.25489 13.6188 7.52782 14.0065 7.74974 14.221C7.8872 14.3539 7.97029 14.3899 8 14.3987C8.02971 14.3899 8.1128 14.3539 8.25026 14.221C8.47218 14.0065 8.74511 13.6188 9.00902 13.0155C9.46481 11.9738 9.79996 10.5033 9.88108 8.8H6.11892ZM9.88108 7.2L6.11892 7.2C6.20004 5.4967 6.53519 4.02625 6.99098 2.98446C7.25489 2.38124 7.52782 1.99354 7.74974 1.779C7.8872 1.64611 7.97029 1.61006 8 1.60129C8.02971 1.61006 8.1128 1.64611 8.25026 1.779C8.47218 1.99354 8.74511 2.38124 9.00902 2.98446C9.46481 4.02625 9.79996 5.4967 9.88108 7.2ZM11.4827 8.8C11.3939 10.8448 10.9682 12.6632 10.3343 13.961C12.4766 13.1214 14.0562 11.1603 14.3505 8.8H11.4827ZM14.3505 7.2H11.4827C11.3939 5.15517 10.9682 3.33684 10.3343 2.03905C12.4766 2.87862 14.0562 4.83975 14.3505 7.2ZM4.51728 7.2H1.64952C1.94383 4.83975 3.52337 2.87862 5.66569 2.03905C5.03179 3.33684 4.6061 5.15517 4.51728 7.2Z" fill="#37517E"/>
</svg>
