<svg width="16" height="16" viewBox="0 0 16 16" fill="none" xmlns="http://www.w3.org/2000/svg">
<path fill-rule="evenodd" clip-rule="evenodd" d="M3.4694 4.19995C3.29663 3.83625 3.19995 3.42939 3.19995 2.99995C3.19995 1.45355 4.45355 0.199951 5.99995 0.199951C6.78345 0.199951 7.49179 0.521759 8 1.04041C8.50821 0.521759 9.21655 0.199951 10 0.199951C11.5464 0.199951 12.8 1.45355 12.8 2.99995C12.8 3.42939 12.7034 3.83625 12.5306 4.19995H16V5.79995H0V4.19995H3.4694ZM4.79995 2.99995C4.79995 2.33721 5.33721 1.79995 5.99995 1.79995C6.66269 1.79995 7.19995 2.33721 7.19995 2.99995V4.19995H5.99995C5.33721 4.19995 4.79995 3.66269 4.79995 2.99995ZM10 4.19995H8.80005V2.99995C8.80005 2.33721 9.33731 1.79995 10 1.79995C10.6628 1.79995 11.2 2.33721 11.2 2.99995C11.2 3.66269 10.6628 4.19995 10 4.19995Z" fill="#37517E"/>
<path d="M2.79995 14.2V8H1.19995V15.8H14.8V8H13.2V14.2H8.79995V8H7.19995L7.19995 14.2H2.79995Z" fill="#37517E"/>
</svg>
