<svg width="16" height="16" viewBox="0 0 16 16" fill="none" xmlns="http://www.w3.org/2000/svg">
<path fill-rule="evenodd" clip-rule="evenodd" d="M3.19995 2.99995C3.19995 3.42939 3.29663 3.83625 3.4694 4.19995H0V5.79995H16V4.19995H12.5306C12.7034 3.83625 12.8 3.42939 12.8 2.99995C12.8 1.45355 11.5464 0.199951 10 0.199951C9.21655 0.199951 8.50821 0.521759 8 1.04041C7.49179 0.521759 6.78345 0.199951 5.99995 0.199951C4.45355 0.199951 3.19995 1.45355 3.19995 2.99995ZM5.99995 1.79995C5.33721 1.79995 4.79995 2.33721 4.79995 2.99995C4.79995 3.66269 5.33721 4.19995 5.99995 4.19995H7.19995V2.99995C7.19995 2.33721 6.66269 1.79995 5.99995 1.79995ZM8.80005 4.19995H10C10.6628 4.19995 11.2 3.66269 11.2 2.99995C11.2 2.33721 10.6628 1.79995 10 1.79995C9.33731 1.79995 8.80005 2.33721 8.80005 2.99995V4.19995Z" fill="#37517E"/>
<path d="M1.19995 15.8V8H7.20007V15.8H1.19995Z" fill="#37517E"/>
<path d="M8.8 15.8H14.8V8H8.8V15.8Z" fill="#37517E"/>
</svg>
