<svg width="24" height="24" viewBox="0 0 24 24" fill="none" xmlns="http://www.w3.org/2000/svg">
<path d="M20.4232 2H3.49378C2.6639 2 2 2.66946 2 3.42259V20.5774C2 21.4142 2.6639 22 3.49378 22H20.5062C21.3361 22 22 21.3305 22 20.5774V3.42259C21.917 2.66946 21.2531 2 20.4232 2ZM7.89212 19.1548H4.98755V9.53138H7.9751V19.1548H7.89212ZM6.39834 8.19247C5.48548 8.19247 4.6556 7.43933 4.6556 6.43515C4.6556 5.51464 5.40249 4.67782 6.39834 4.67782C7.3112 4.67782 8.14108 5.43096 8.14108 6.43515C8.14108 7.43933 7.39419 8.19247 6.39834 8.19247ZM19.0124 19.1548H16.0249V14.4686C16.0249 13.3808 16.0249 11.9582 14.5311 11.9582C12.9544 11.9582 12.7884 13.1297 12.7884 14.3849V19.1548H9.80083V9.53138H12.6224V10.8703C13.0373 10.1172 13.9502 9.36402 15.444 9.36402C18.4315 9.36402 19.0124 11.3724 19.0124 13.9665V19.1548Z" fill="#37517E"/>
</svg>
