<svg width="16" height="16" viewBox="0 0 16 16" fill="none" xmlns="http://www.w3.org/2000/svg">
<path fill-rule="evenodd" clip-rule="evenodd" d="M14.7538 1.24618C13.0922 -0.415394 10.3982 -0.415393 8.73656 1.24618L5.96317 4.01951C5.62291 4.35976 5.35232 4.74331 5.15141 5.15242C4.37134 6.74109 4.64187 8.71534 5.96317 10.0366C6.65844 10.7319 7.53446 11.1362 8.43997 11.2496L6.09946 13.5901C5.08064 14.6089 3.42881 14.6089 2.40998 13.5901C1.39116 12.5713 1.39116 10.9195 2.40998 9.90067L3.71133 8.59935C3.50554 7.90829 3.43866 7.18467 3.51067 6.47245L1.24618 8.73689C-0.415393 10.3984 -0.415394 13.0923 1.24618 14.7538C2.90775 16.4154 5.60169 16.4154 7.26327 14.7538L10.0366 11.9806C10.0594 11.9578 10.0818 11.9348 10.104 11.9117C11.0218 10.9522 11.4036 9.66882 11.2496 8.43988C11.1361 7.53456 10.7317 6.65878 10.0366 5.96365C9.34127 5.26836 8.46519 4.86403 7.55963 4.75064L9.90036 2.40996C10.9192 1.39112 12.5711 1.39112 13.59 2.40996C14.6089 3.4288 14.6089 5.08066 13.59 6.0995L12.2886 7.40089C12.4943 8.09199 12.5612 8.81563 12.4891 9.52788L14.7538 7.26328C16.4154 5.6017 16.4154 2.90776 14.7538 1.24618ZM6.43144 6.43209C7.28088 6.23344 8.21055 6.46522 8.87277 7.12743C9.53487 7.78951 9.76669 8.71894 9.56823 9.56823C8.71881 9.76682 7.78918 9.53502 7.12697 8.87283C6.46488 8.21076 6.23304 7.28137 6.43144 6.43209Z" fill="#37517E"/>
</svg>
