<svg width="16" height="16" viewBox="0 0 16 16" fill="none" xmlns="http://www.w3.org/2000/svg">
<path fill-rule="evenodd" clip-rule="evenodd" d="M1.58025 9.58017C2.45299 9.58017 3.16049 8.87267 3.16049 7.99992C3.16049 7.12718 2.45299 6.41968 1.58025 6.41968C0.707501 6.41968 0 7.12718 0 7.99992C0 8.87267 0.707501 9.58017 1.58025 9.58017ZM16 7.99992C16 8.87267 15.2925 9.58017 14.4198 9.58017C13.547 9.58017 12.8395 8.87267 12.8395 7.99992C12.8395 7.12718 13.547 6.41968 14.4198 6.41968C15.2925 6.41968 16 7.12718 16 7.99992ZM7.99999 9.58017C8.87273 9.58017 9.58023 8.87267 9.58023 7.99992C9.58023 7.12718 8.87273 6.41968 7.99999 6.41968C7.12724 6.41968 6.41974 7.12718 6.41974 7.99992C6.41974 8.87267 7.12724 9.58017 7.99999 9.58017Z" fill="#37517E"/>
</svg>
