<svg width="16" height="16" viewBox="0 0 16 16" fill="none" xmlns="http://www.w3.org/2000/svg">
<path fill-rule="evenodd" clip-rule="evenodd" d="M7.99995 0.199951C6.45355 0.199951 5.19995 1.45355 5.19995 2.99995C5.19995 4.54635 6.45355 5.79995 7.99995 5.79995C9.03666 5.79995 9.94177 5.23654 10.4258 4.3992C11.6747 5.05909 12.6225 6.21262 13.0094 7.60002C13.616 7.60129 14.1937 7.72531 14.7192 7.94855C14.3618 5.6461 12.8494 3.7256 10.7928 2.79802C10.6893 1.34588 9.47845 0.199951 7.99995 0.199951ZM6.79995 2.99995C6.79995 2.33721 7.33721 1.79995 7.99995 1.79995C8.66269 1.79995 9.19995 2.33721 9.19995 2.99995C9.19995 3.66269 8.66269 4.19995 7.99995 4.19995C7.33721 4.19995 6.79995 3.66269 6.79995 2.99995Z" fill="#37517E"/>
<path fill-rule="evenodd" clip-rule="evenodd" d="M2.79995 8.99987C2.79995 9.06914 2.80131 9.13809 2.80399 9.2067C2.86873 9.20223 2.93407 9.19995 2.99995 9.19995C4.54635 9.19995 5.79995 10.4536 5.79995 12C5.79995 13.5463 4.54635 14.8 2.99995 14.8C1.45355 14.8 0.199951 13.5463 0.199951 12C0.199951 11.1165 0.609143 10.3285 1.24835 9.81536C1.21639 9.54799 1.19995 9.27585 1.19995 8.99987C1.19995 6.89163 2.15937 5.00747 3.6654 3.76019C3.76648 4.34055 3.98126 4.88186 4.28597 5.36032C3.36674 6.29823 2.79995 7.58286 2.79995 8.99987ZM2.99995 10.8C2.33721 10.8 1.79995 11.3372 1.79995 12C1.79995 12.6627 2.33721 13.2 2.99995 13.2C3.66269 13.2 4.19995 12.6627 4.19995 12C4.19995 11.3372 3.66269 10.8 2.99995 10.8Z" fill="#37517E"/>
<path fill-rule="evenodd" clip-rule="evenodd" d="M10.6277 13.488C10.3567 13.0569 10.2 12.5467 10.2 12C10.2 10.4536 11.4536 9.19995 13 9.19995C14.5463 9.19995 15.8 10.4536 15.8 12C15.8 13.5463 14.5463 14.8 13 14.8C12.6079 14.8 12.2347 14.7194 11.8959 14.5739C10.7925 15.3465 9.44919 15.7999 7.99995 15.7999C7.21663 15.7999 6.46425 15.6674 5.76398 15.4237C6.21939 15.0556 6.59987 14.5984 6.87896 14.0787C7.24 14.1581 7.61509 14.1999 7.99995 14.1999C8.95857 14.1999 9.8566 13.9405 10.6277 13.488ZM11.8 12C11.8 11.3372 12.3372 10.8 13 10.8C13.6627 10.8 14.2 11.3372 14.2 12C14.2 12.6627 13.6627 13.2 13 13.2C12.3372 13.2 11.8 12.6627 11.8 12Z" fill="#37517E"/>
</svg>
