<svg xmlns="http://www.w3.org/2000/svg" viewBox="0 0 24 24"><path fill="#fff" d="M12.35 21.87c.22-.88.42-1.72.65-2.56a27.81 27.81 0 00.73-3.85c.1-.8.17-1.6.23-2.41a14.42 14.42 0 00-.09-3.15 2.4 2.4 0 00-.4-1.07 1 1 0 00-1-.45 1 1 0 00-.95.74 3.41 3.41 0 00-.11 1.27c.08.71.16 1.43.26 2.14l.45 3c.08.54.2 1.09.25 1.64s.06 1.41.06 2.11l-.08 2.59zM5.92 7.63h.07a16.71 16.71 0 004.29.41 10.68 10.68 0 005.11-1.44 5.62 5.62 0 002.08-2c.14-.23.23-.47.35-.71h-.05a11 11 0 01-3.67 2.56 15.85 15.85 0 01-6.41 1.24c-.59 0-1.18-.04-1.77-.06zm4.82-2.44c0 .17 0 .34.08.51a1.09 1.09 0 001.18.86 1.06 1.06 0 001-1 3 3 0 00-.07-.66 1.1 1.1 0 00-2.17.25z"/><path d="M12.35 21.87c0-.91.05-1.77.05-2.64 0-.7 0-1.41-.06-2.11s-.17-1.1-.25-1.64l-.45-3c-.1-.71-.18-1.43-.26-2.14a3.41 3.41 0 01.11-1.27 1 1 0 01.95-.74 1 1 0 011 .45 2.4 2.4 0 01.4 1.07 14.42 14.42 0 01.16 3.2c-.06.81-.13 1.61-.23 2.41a27.81 27.81 0 01-.77 3.85c-.23.84-.43 1.69-.65 2.56zM5.92 7.63c.59 0 1.18.06 1.77.06a15.85 15.85 0 006.41-1.24 11 11 0 003.63-2.54h.05c-.12.24-.21.48-.35.71a5.62 5.62 0 01-2.08 2 10.68 10.68 0 01-5.11 1.46A16.71 16.71 0 016 7.65z"/><path d="M10.74 5.19a1.1 1.1 0 012.17-.25 3 3 0 01.09.66 1.06 1.06 0 01-1 1 1.09 1.09 0 01-1.17-.86 7.77 7.77 0 01-.09-.55z"/><path fill="none" d="M0 0h24v24H0z"/></svg>