<svg id="artwork" xmlns="http://www.w3.org/2000/svg" viewBox="0 0 24 24"><title>passport</title><rect x="7" y="20" width="10" height="1"/><rect x="9" y="3" width="6" height="1"/><path d="M20,24H4V0H20ZM5,23H19V1H5Z"/><path d="M12,7a5,5,0,1,0,5,5A5,5,0,0,0,12,7Zm4,5a4.09,4.09,0,0,1-.14,1H12.12L14,8.56A4,4,0,0,1,16,12ZM12,8a3.87,3.87,0,0,1,1.08.17L12.3,10H8.55A4,4,0,0,1,12,8ZM8,12a4.09,4.09,0,0,1,.14-1h3.74L10,15.44A4,4,0,0,1,8,12Zm4,4a3.94,3.94,0,0,1-1.09-.17L11.69,14h3.75A4,4,0,0,1,12,16Z"/></svg>