<svg width="24" height="24" viewBox="0 0 24 24" fill="none" xmlns="http://www.w3.org/2000/svg">
<path fill-rule="evenodd" clip-rule="evenodd" d="M4.85799 2.94653C5.97813 1.54636 8.1606 1.72972 9.0314 3.29717L10.534 6.00185C11.0808 6.98604 10.9089 8.21345 10.1128 9.00956L9.46794 9.65438C9.27099 9.85133 9.27099 10.1707 9.46794 10.3676L13.6324 14.5321C13.8293 14.729 14.1487 14.729 14.3456 14.5321L14.9904 13.8872C15.7866 13.0911 17.014 12.9192 17.9981 13.466L20.7028 14.9686C22.2703 15.8394 22.4536 18.0219 21.0535 19.142L19.5098 20.3769C17.3926 22.0707 14.4008 22.6585 11.9334 21.069C10.5156 20.1556 8.79303 18.8498 6.97163 17.0284C5.15023 15.207 3.84436 13.4844 2.93102 12.0666C1.34153 9.59916 1.92931 6.60739 3.62306 4.49019L4.85799 2.94653ZM7.26794 4.27687C7.09378 3.96338 6.65729 3.92671 6.43326 4.20674L5.19833 5.7504C3.89974 7.37364 3.62232 9.41461 4.62692 10.9741C5.46884 12.281 6.68599 13.8898 8.39809 15.6019C10.1102 17.314 11.719 18.5312 13.0259 19.3731C14.5854 20.3777 16.6264 20.1003 18.2496 18.8017L19.7933 17.5667C20.0733 17.3427 20.0366 16.9062 19.7231 16.7321L17.0184 15.2295C16.8216 15.1201 16.5761 15.1545 16.4169 15.3137L15.7721 15.9585C14.7873 16.9433 13.1907 16.9433 12.2059 15.9585L8.04148 11.7941C7.05671 10.8093 7.05671 9.21268 8.04148 8.22792L8.6863 7.5831C8.84552 7.42387 8.8799 7.17839 8.77055 6.98155L7.26794 4.27687Z" fill="#37517E"/>
</svg>
