<svg id="artwork" xmlns="http://www.w3.org/2000/svg" viewBox="0 0 24 24"><title>pin</title><path d="M12,5a2,2,0,1,1,2-2A2,2,0,0,1,12,5Zm0-3a1,1,0,1,0,1,1A1,1,0,0,0,12,2Z"/><path d="M18,5a2,2,0,1,1,2-2A2,2,0,0,1,18,5Zm0-3a1,1,0,1,0,1,1A1,1,0,0,0,18,2Z"/><path d="M12,11a2,2,0,1,1,2-2A2,2,0,0,1,12,11Zm0-3a1,1,0,1,0,1,1A1,1,0,0,0,12,8Z"/><path d="M18,11a2,2,0,1,1,2-2A2,2,0,0,1,18,11Zm0-3a1,1,0,1,0,1,1A1,1,0,0,0,18,8Z"/><path d="M12,23a2,2,0,1,1,2-2A2,2,0,0,1,12,23Zm0-3a1,1,0,1,0,1,1A1,1,0,0,0,12,20Z"/><path d="M6,5A2,2,0,1,1,8,3,2,2,0,0,1,6,5ZM6,2A1,1,0,1,0,7,3,1,1,0,0,0,6,2Z"/><path d="M6,11A2,2,0,1,1,8,9,2,2,0,0,1,6,11ZM6,8A1,1,0,1,0,7,9,1,1,0,0,0,6,8Z"/><path d="M12,17a2,2,0,1,1,2-2A2,2,0,0,1,12,17Zm0-3a1,1,0,1,0,1,1A1,1,0,0,0,12,14Z"/><path d="M18,17a2,2,0,1,1,2-2A2,2,0,0,1,18,17Zm0-3a1,1,0,1,0,1,1A1,1,0,0,0,18,14Z"/><path d="M6,17a2,2,0,1,1,2-2A2,2,0,0,1,6,17Zm0-3a1,1,0,1,0,1,1A1,1,0,0,0,6,14Z"/></svg>