<svg width="24" height="24" viewBox="0 0 24 24" fill="none" xmlns="http://www.w3.org/2000/svg">
<path d="M15.4999 2C14.0509 2 12.7618 2.68491 11.9387 3.74866C12.5157 4.09437 13.0363 4.52444 13.4836 5.02181C13.9386 4.4022 14.6723 4 15.4999 4C16.8807 4 17.9999 5.11929 17.9999 6.5C17.9999 7.88071 16.8807 9 15.4999 9C15.3916 9 15.2848 8.9931 15.1801 8.97973C15.1932 9.15144 15.2 9.32496 15.2 9.50005C15.2 10.0073 15.1436 10.5014 15.0368 10.9765C15.189 10.992 15.3436 11 15.4999 11C17.9852 11 19.9999 8.98528 19.9999 6.5C19.9999 4.01472 17.9852 2 15.4999 2Z" fill="#37517E"/>
<path d="M15.4999 15C15.299 15 15.1032 15.0036 14.9125 15.0106C14.3695 14.7777 13.7636 14.5619 13.0919 14.379C13.5102 13.9852 13.8779 13.5381 14.1842 13.0486C14.6016 13.0171 15.04 13 15.4999 13C18.9027 13 21.1267 13.9336 22.4122 14.7478C23.5927 15.4956 23.9999 16.8088 23.9999 17.9482V19H21.9999V17.9482C21.9999 17.2161 21.7424 16.6911 21.3419 16.4374C20.3692 15.8212 18.5151 15 15.4999 15Z" fill="#37517E"/>
<path fill-rule="evenodd" clip-rule="evenodd" d="M4 9.5C4 7.01472 6.01472 5 8.5 5C10.9853 5 13 7.01472 13 9.5C13 11.9853 10.9853 14 8.5 14C6.01472 14 4 11.9853 4 9.5ZM8.5 7C7.11929 7 6 8.11929 6 9.5C6 10.8807 7.11929 12 8.5 12C9.88071 12 11 10.8807 11 9.5C11 8.11929 9.88071 7 8.5 7Z" fill="#37517E"/>
<path d="M17 20.9482V22H15V20.9482C15 20.2161 14.7424 19.6911 14.342 19.4374C13.3692 18.8212 11.5151 18 8.5 18C5.48489 18 3.63077 18.8212 2.65803 19.4374C2.25756 19.6911 2 20.2161 2 20.9482V22H0V20.9482C0 19.8088 0.407265 18.4956 1.58779 17.7478C2.87325 16.9336 5.09725 16 8.5 16C11.9027 16 14.1268 16.9336 15.4122 17.7478C16.5927 18.4956 17 19.8088 17 20.9482Z" fill="#37517E"/>
</svg>
