<svg width="16" height="16" viewBox="0 0 16 16" fill="none" xmlns="http://www.w3.org/2000/svg">
<path d="M10.8558 0L13.2973 5.23587L11.8529 5.9094L10.5264 3.06472L7.86842 9.70977C7.42196 9.42975 6.92264 9.22624 6.38883 9.11759L8.98319 2.63168L6.29344 3.88595L5.61991 2.44157L10.8558 0Z" fill="#37517E"/>
<path fill-rule="evenodd" clip-rule="evenodd" d="M7.98031 13.5098C7.98031 14.8851 6.86543 16 5.49016 16C4.11488 16 3 14.8851 3 13.5098C3 12.1346 4.11488 11.0197 5.49016 11.0197C6.86543 11.0197 7.98031 12.1346 7.98031 13.5098ZM6.38661 13.5098C6.38661 14.0049 5.98526 14.4063 5.49016 14.4063C4.99506 14.4063 4.5937 14.0049 4.5937 13.5098C4.5937 13.0147 4.99506 12.6134 5.49016 12.6134C5.98526 12.6134 6.38661 13.0147 6.38661 13.5098Z" fill="#37517E"/>
</svg>
