<svg width="16" height="16" viewBox="0 0 16 16" fill="none" xmlns="http://www.w3.org/2000/svg">
<path fill-rule="evenodd" clip-rule="evenodd" d="M9.49976 0H6.49976L5.60874 2.22756L3.40356 1.28249L1.28224 3.40381L2.22732 5.60898L-0.000244141 6.5V9.5L2.22732 10.391L1.28224 12.5962L3.40356 14.7175L5.60874 13.7724L6.49976 16H9.49976L10.3908 13.7724L12.5959 14.7175L14.7173 12.5962L13.7722 10.391L15.9998 9.5V6.5L13.7722 5.60898L14.7173 3.40381L12.5959 1.28249L10.3908 2.22756L9.49976 0ZM7.99988 9.99997C9.10445 9.99997 9.99988 9.10454 9.99988 7.99997C9.99988 6.8954 9.10445 5.99997 7.99988 5.99997C6.89531 5.99997 5.99988 6.8954 5.99988 7.99997C5.99988 9.10454 6.89531 9.99997 7.99988 9.99997Z" fill="#37517E"/>
</svg>
