<svg id="artwork" xmlns="http://www.w3.org/2000/svg" viewBox="0 0 24 24"><title>settings</title><path d="M12,18.5A6.5,6.5,0,1,1,18.5,12,6.51,6.51,0,0,1,12,18.5Zm0-12A5.5,5.5,0,1,0,17.5,12,5.51,5.51,0,0,0,12,6.5Z"/><path d="M15,23H9V20.74a8.63,8.63,0,0,1-1.17-.51L6.21,21.85,2.15,17.79l1.72-1.72A9.84,9.84,0,0,1,3.46,15H1V9H3.67c.11-.3.25-.59.39-.88L2.15,6.21,6.21,2.15l2,2c.26-.12.52-.22.78-.32V1h6V3.86a8.26,8.26,0,0,1,.77.31l2-2,4.06,4.06L19.93,8.12c.15.29.28.58.4.88H23v6H20.53a9.08,9.08,0,0,1-.4,1.07l1.71,1.72-4.06,4.06-1.61-1.62a8.63,8.63,0,0,1-1.17.51Zm-5-1h4V20l.35-.11A7.55,7.55,0,0,0,16,19.18l.33-.19,1.44,1.44,2.65-2.64-1.52-1.52.17-.32a8.19,8.19,0,0,0,.59-1.57l.09-.38H22V10H19.62l-.12-.34a7.37,7.37,0,0,0-.62-1.37L18.69,8l1.74-1.74L17.78,3.57,16,5.38l-.32-.16a7.5,7.5,0,0,0-1.3-.52L14,4.59V2H10V4.59l-.36.11a7.41,7.41,0,0,0-1.29.52L8,5.38,6.21,3.57,3.57,6.21,5.31,8l-.2.34a7.37,7.37,0,0,0-.62,1.37L4.38,10H2v4H4.23l.1.38A8,8,0,0,0,4.92,16l.16.32L3.57,17.79l2.64,2.64L7.65,19l.34.19a7.28,7.28,0,0,0,1.65.71L10,20Z"/></svg>