<svg width="16" height="16" viewBox="0 0 16 16" fill="none" xmlns="http://www.w3.org/2000/svg">
<path d="M7.20005 12L7.20005 10H8.80005V12H7.20005Z" fill="#37517E"/>
<path fill-rule="evenodd" clip-rule="evenodd" d="M3.19995 6.19995V4.99995C3.19995 2.62507 4.99402 0.199951 7.99995 0.199951C10.4964 0.199951 12.1569 1.87263 12.6482 3.80005H10.9748C10.5388 2.67834 9.48918 1.79995 7.99995 1.79995C6.00588 1.79995 4.79995 3.37483 4.79995 4.99995V6.19995H14.8V13C14.8 14.5463 13.5463 15.8 12 15.8H3.99995C2.45355 15.8 1.19995 14.5463 1.19995 13V6.19995H3.19995ZM2.79995 13V7.79995H13.2V13C13.2 13.6627 12.6627 14.2 12 14.2H3.99995C3.33721 14.2 2.79995 13.6627 2.79995 13Z" fill="#37517E"/>
</svg>
