<svg width="24" height="24" viewBox="0 0 24 24" fill="none" xmlns="http://www.w3.org/2000/svg">
<path d="M9.20697 10.7928L7.79275 12.207L10.9999 15.4142L16.207 10.2071L14.7927 8.79286L10.9999 12.5857L9.20697 10.7928Z" fill="#37517E"/>
<path fill-rule="evenodd" clip-rule="evenodd" d="M10.5052 2.67197C11.3008 1.77601 12.6993 1.77601 13.4949 2.67197L13.8389 3.05942C14.3197 3.60087 15.0552 3.84009 15.762 3.68494L16.2679 3.57392C17.4376 3.31719 18.569 4.14005 18.6866 5.33302L18.7374 5.8489C18.8084 6.56983 19.263 7.19612 19.926 7.48653L20.4004 7.69434C21.4974 8.17491 21.9296 9.50632 21.3242 10.5406L21.0624 10.9879C20.6966 11.6129 20.6966 12.3871 21.0624 13.0121L21.3242 13.4594C21.9296 14.4937 21.4974 15.8251 20.4004 16.3057L19.926 16.5135C19.263 16.8039 18.8084 17.4302 18.7374 18.1511L18.6866 18.667C18.569 19.86 17.4376 20.6828 16.2679 20.4261L15.762 20.3151C15.0552 20.1599 14.3197 20.3991 13.8389 20.9406L13.4949 21.328C12.6993 22.224 11.3008 22.224 10.5052 21.328L10.1612 20.9406C9.6804 20.3991 8.94492 20.1599 8.23803 20.3151L7.7322 20.4261C6.56248 20.6828 5.43109 19.86 5.31353 18.667L5.2627 18.1511C5.19166 17.4302 4.73711 16.8039 4.07413 16.5135L3.59971 16.3057C2.50264 15.8251 2.07049 14.4937 2.67586 13.4594L2.93765 13.0121C3.30349 12.3871 3.30349 11.6129 2.93765 10.9879L2.67586 10.5406C2.07049 9.50632 2.50264 8.17491 3.59971 7.69434L4.07413 7.48653C4.73711 7.19612 5.19166 6.56983 5.2627 5.8489L5.31353 5.33302C5.43109 4.14005 6.56248 3.31719 7.7322 3.57392L8.23803 3.68494C8.94492 3.84009 9.6804 3.60087 10.1612 3.05942L10.5052 2.67197ZM12 4.00208L12.3441 4.38953C13.3057 5.47243 14.7766 5.95087 16.1904 5.64057L16.6962 5.52955L16.747 6.04543C16.8891 7.4873 17.7982 8.73987 19.1242 9.32069L19.5986 9.52851L19.3368 9.97578C18.6051 11.2259 18.6051 12.7741 19.3368 14.0242L19.5986 14.4715L19.1242 14.6793C17.7982 15.2601 16.8891 16.5127 16.747 17.9546L16.6962 18.4704L16.1904 18.3594C14.7766 18.0491 13.3057 18.5276 12.3441 19.6105L12 19.9979L11.656 19.6105C10.6944 18.5276 9.22348 18.0491 7.8097 18.3594L7.30387 18.4704L7.25304 17.9546C7.11096 16.5127 6.20187 15.2601 4.8759 14.6793L4.40148 14.4715L4.66327 14.0242C5.39495 12.7741 5.39495 11.2259 4.66327 9.97578L4.40148 9.52851L4.8759 9.32069C6.20187 8.73987 7.11096 7.4873 7.25304 6.04543L7.30387 5.52955L7.8097 5.64057C9.22348 5.95087 10.6944 5.47243 11.656 4.38953L12 4.00208Z" fill="#37517E"/>
</svg>
