<svg width="16" height="16" viewBox="0 0 16 16" fill="none" xmlns="http://www.w3.org/2000/svg">
<path fill-rule="evenodd" clip-rule="evenodd" d="M9.38708 0.639899C8.66395 -0.2133 7.33605 -0.2133 6.61291 0.639899C6.16948 1.16309 5.4608 1.39327 4.79442 1.23055C3.70771 0.965184 2.63341 1.74542 2.55007 2.86056C2.49896 3.54438 2.06097 4.14699 1.42617 4.40689C0.390973 4.83073 -0.0193729 6.09317 0.568907 7.04431C0.929648 7.62756 0.929648 8.37244 0.568907 8.95569C-0.019373 9.90683 0.390972 11.1693 1.42617 11.5931C2.06097 11.853 2.49896 12.4556 2.55007 13.1394C2.63341 14.2546 3.70771 15.0348 4.79442 14.7695C5.4608 14.6067 6.16948 14.8369 6.61291 15.3601C7.33605 16.2133 8.66395 16.2133 9.38708 15.3601C9.83052 14.8369 10.5392 14.6067 11.2056 14.7695C12.2923 15.0348 13.3666 14.2546 13.4499 13.1394C13.501 12.4556 13.939 11.853 14.5738 11.5931C15.609 11.1693 16.0194 9.90683 15.4311 8.95569C15.0704 8.37244 15.0704 7.62756 15.4311 7.04431C16.0194 6.09317 15.609 4.83073 14.5738 4.40689C13.939 4.14699 13.501 3.54438 13.4499 2.86056C13.3666 1.74542 12.2923 0.965184 11.2056 1.23055C10.5392 1.39327 9.83052 1.16309 9.38708 0.639899ZM5.5657 6.93473L4.43433 8.06568L7.50001 11.1302L12.5657 6.06641L11.4343 4.93546L7.50001 8.86832L5.5657 6.93473Z" fill="#37517E"/>
</svg>
