<svg id="artwork" xmlns="http://www.w3.org/2000/svg" viewBox="0 0 24 24"><title>whatsapp</title><g><path d="M19.79,4.2A10.93,10.93,0,0,0,2.55,17.35L1,23l5.81-1.52A11,11,0,0,0,12,22.81h0a10.94,10.94,0,0,0,11-10.9A10.81,10.81,0,0,0,19.79,4.2ZM12.05,21h0a9.17,9.17,0,0,1-4.63-1.26l-.33-.2-3.45.9.92-3.34-.22-.35A9.09,9.09,0,0,1,18.49,5.5a9,9,0,0,1,2.66,6.41A9.09,9.09,0,0,1,12.05,21Zm5.33-6.62L17,14.18l-.94-.46c-.41-.19-.8-.38-.93-.42a.73.73,0,0,0-.33-.07.43.43,0,0,0-.29.2,6,6,0,0,1-.44.57l-.42.5a.46.46,0,0,1-.26.16.64.64,0,0,1-.34-.09c-.13-.07-.42-.17-.81-.38a7.43,7.43,0,0,1-1.39-1,8.2,8.2,0,0,1-1-1.11,8.38,8.38,0,0,1-.52-.78.38.38,0,0,1,0-.33.52.52,0,0,1,.17-.22l.2-.23.21-.25a1.34,1.34,0,0,0,.16-.22c0-.07.07-.15.11-.24a.39.39,0,0,0,.05-.25.52.52,0,0,0-.07-.22c0-.07-.19-.44-.36-.86s-.37-.89-.48-1.17A.75.75,0,0,0,9,6.91a.6.6,0,0,0-.29,0H8.17a.94.94,0,0,0-.34.06,1.09,1.09,0,0,0-.39.28,3.5,3.5,0,0,0-.58.73,3.16,3.16,0,0,0-.38,1.54A4.19,4.19,0,0,0,7,11.32a6.14,6.14,0,0,0,.61,1A14.86,14.86,0,0,0,9,14a10.31,10.31,0,0,0,3.31,2.43l.88.35.68.22a3.25,3.25,0,0,0,.93.16,4,4,0,0,0,.8-.05,2.88,2.88,0,0,0,1-.44,1.87,1.87,0,0,0,.81-.85,3.3,3.3,0,0,0,.2-.85.86.86,0,0,0,0-.45A.4.4,0,0,0,17.38,14.35Z"/></g></svg>