<svg width="16" height="16" viewBox="0 0 16 16" fill="none" xmlns="http://www.w3.org/2000/svg">
<path fill-rule="evenodd" clip-rule="evenodd" d="M11.3508 12.484C10.1562 13.4331 8.64429 14 7 14C3.13401 14 0 10.866 0 7C0 3.13401 3.13401 0 7 0C10.866 0 14 3.13401 14 7C14 8.64423 13.4331 10.156 12.4841 11.3507L16.0001 14.8592L14.8593 15.9999L11.3508 12.484ZM12.4 7C12.4 9.98234 9.98234 12.4 7 12.4C4.01766 12.4 1.6 9.98234 1.6 7C1.6 4.01766 4.01766 1.6 7 1.6C9.98234 1.6 12.4 4.01766 12.4 7Z" fill="#37517E"/>
</svg>
