<svg width="24" height="24" viewBox="0 0 24 24" fill="none" xmlns="http://www.w3.org/2000/svg">
<path fill-rule="evenodd" clip-rule="evenodd" d="M15.7597 17.1777C14.3127 18.319 12.4859 19 10.5 19C5.80558 19 2 15.1944 2 10.5C2 5.80558 5.80558 2 10.5 2C15.1944 2 19 5.80558 19 10.5C19 12.4859 18.319 14.3127 17.1777 15.7597L22 20.543L20.5429 22L15.7597 17.1777ZM17 10.5C17 14.0899 14.0899 17 10.5 17C6.91015 17 4 14.0899 4 10.5C4 6.91015 6.91015 4 10.5 4C14.0899 4 17 6.91015 17 10.5Z" fill="#00BAFF"/>
</svg>
