<svg width="24" height="24" viewBox="0 0 24 24" fill="none" xmlns="http://www.w3.org/2000/svg">
<path d="M16.8802 6.70547C13.7427 4.25399 9.21998 4.48461 6.34315 7.39734C3.45842 10.3181 3.23731 14.9144 5.6798 18.092L6.793 16.9649L8.20721 18.3967L5.63604 21L4.92893 20.2841C1.02369 16.3301 1.02369 9.91945 4.92893 5.96548C8.83418 2.01151 15.1658 2.01151 19.0711 5.96548C22.9763 9.91945 22.9763 16.3301 19.0711 20.2841L18.364 21L15.7929 18.3969L17.2071 16.965L18.3202 18.092C20.5692 15.1662 20.5599 11.0376 18.2924 8.12166L13.9322 12.4819C13.9764 12.6471 14 12.8208 14 13C14 14.1046 13.1046 15 12 15C10.8954 15 10 14.1046 10 13C10 11.8954 10.8954 11 12 11C12.1791 11 12.3528 11.0235 12.518 11.0677L16.8802 6.70547Z" fill="#00BAFF"/>
</svg>
