<svg width="16" height="16" viewBox="0 0 16 16" fill="none" xmlns="http://www.w3.org/2000/svg">
<path d="M8.00006 9.5C8.82849 9.5 9.50006 8.82843 9.50006 8C9.50006 7.17157 8.82849 6.5 8.00006 6.5C7.17163 6.5 6.50006 7.17157 6.50006 8C6.50006 8.82843 7.17163 9.5 8.00006 9.5Z" fill="#00BAFF"/>
<path fill-rule="evenodd" clip-rule="evenodd" d="M6.49994 0H9.49994L10.391 2.22756L12.5961 1.28249L14.7175 3.40381L13.7724 5.60898L15.9999 6.5V9.5L13.7724 10.391L14.7175 12.5962L12.5961 14.7175L10.391 13.7724L9.49994 16H6.49994L5.60892 13.7724L3.40374 14.7175L1.28242 12.5962L2.2275 10.391L-6.10352e-05 9.5V6.5L2.2275 5.60898L1.28242 3.40381L3.40374 1.28249L5.60892 2.22756L6.49994 0ZM9.5143 4.34402L12.2307 3.17983L12.8201 3.7692L11.6559 6.48565L14.3999 7.58325V8.41675L11.6559 9.51435L12.8201 12.2308L12.2307 12.8202L9.5143 11.656L8.41669 14.4H7.5832L6.48559 11.656L3.76914 12.8202L3.17977 12.2308L4.34396 9.51436L1.59994 8.41675V7.58325L4.34397 6.48565L3.17977 3.7692L3.76914 3.17983L6.48559 4.34403L7.5832 1.6H8.41669L9.5143 4.34402Z" fill="#00BAFF"/>
</svg>
