<svg width="16" height="16" viewBox="0 0 16 16" fill="none" xmlns="http://www.w3.org/2000/svg">
<path d="M0.000244141 6.37526L7 0.775456V2.82446L0.999756 7.62465L0.000244141 6.37526Z" fill="#37517E"/>
<path d="M8.80005 14.2H11.7V8.99995H13.3V14.2H15V15.8H1V14.2H2.69995V8.99995H4.29995V14.2H7.20005V6.99995H8.80005V14.2Z" fill="#37517E"/>
<path d="M14.2 6.99995C14.2 4.12807 11.8719 1.79995 9 1.79995V0.199951C12.7555 0.199951 15.8 3.24442 15.8 6.99995H14.2Z" fill="#37517E"/>
<path d="M9 4.79995C10.215 4.79995 11.2 5.78492 11.2 6.99995H12.8C12.8 4.90127 11.0987 3.19995 9 3.19995V4.79995Z" fill="#37517E"/>
</svg>
