<svg width="24" height="24" viewBox="0 0 24 24" fill="none" xmlns="http://www.w3.org/2000/svg">
<path d="M20 11C20 7.13401 16.866 4 13 4V2C17.9706 2 22 6.02944 22 11H20Z" fill="#00BAFF"/>
<path d="M1.90686 9.69494L11 2.99474V5.47904L3.09326 11.3051L1.90686 9.69494Z" fill="#00BAFF"/>
<path d="M13.0001 20L13.0001 10H11.0001L11.0001 20H7.00006L7.00006 13H5.00006L5.00006 20H3.00006V22H21.0001V20H19.0001V13H17.0001V20H13.0001Z" fill="#00BAFF"/>
<path d="M13 8C14.6569 8 16 9.34315 16 11H18C18 8.23858 15.7614 6 13 6V8Z" fill="#00BAFF"/>
</svg>
