<svg width="16" height="16" viewBox="0 0 16 16" fill="none" xmlns="http://www.w3.org/2000/svg">
<path fill-rule="evenodd" clip-rule="evenodd" d="M2.99995 0.200012C1.45355 0.200012 0.199951 1.45361 0.199951 3.00001V12.2806L2.99995 15.7806L5.79995 12.2806L5.79995 3.00001C5.79995 1.45362 4.54635 0.200012 2.99995 0.200012ZM1.79995 3.00001C1.79995 2.33727 2.33721 1.80001 2.99995 1.80001C3.66269 1.80001 4.19995 2.33727 4.19995 3.00001V3.20001H1.79995V3.00001ZM1.79995 4.80001L1.79995 11.7194L2.99995 13.2194L4.19995 11.7194L4.19995 4.80001H1.79995Z" fill="#00BAFF"/>
<path d="M13.2 11.8C13.2 12.4627 12.6627 13 12 13C11.3373 13 10.8 12.4627 10.8 11.8C10.8 11.1373 11.3373 10.6 12 10.6C12.6627 10.6 13.2 11.1373 13.2 11.8Z" fill="#00BAFF"/>
<path fill-rule="evenodd" clip-rule="evenodd" d="M15.8 0.200012H8.19995V15.8H15.8V0.200012ZM9.79995 14.2V1.80001H14.2V14.2H9.79995Z" fill="#00BAFF"/>
</svg>
