<svg width="24" height="24" viewBox="0 0 24 24" fill="none" xmlns="http://www.w3.org/2000/svg">
<path fill-rule="evenodd" clip-rule="evenodd" d="M2 5.5C2 3.56701 3.567 2 5.5 2C7.433 2 9 3.567 9 5.5V17.337L5.5 21.9403L2 17.337V5.5ZM5.5 4C4.67157 4 4 4.67157 4 5.5V6H7V5.5C7 4.67157 6.32843 4 5.5 4ZM7 8H4L4 16.663L5.5 18.6359L7 16.663V8Z" fill="#00BAFF"/>
<path d="M17.1428 18.4285C17.9949 18.4285 18.6857 17.7378 18.6857 16.8857C18.6857 16.0336 17.9949 15.3428 17.1428 15.3428C16.2907 15.3428 15.6 16.0336 15.6 16.8857C15.6 17.7378 16.2907 18.4285 17.1428 18.4285Z" fill="#00BAFF"/>
<path fill-rule="evenodd" clip-rule="evenodd" d="M12 2H22V22H12V2ZM14 4V20H20V4H14Z" fill="#00BAFF"/>
</svg>
