<svg width="16" height="16" viewBox="0 0 16 16" fill="none" xmlns="http://www.w3.org/2000/svg">
<path d="M15.12 8.08795e-08H0.88C0.761588 -5.13911e-05 0.644453 0.0244654 0.536 0.0720002C0.322099 0.1532 0.1532 0.322099 0.0720002 0.536C0.0244654 0.644453 -5.13911e-05 0.761588 8.08795e-08 0.88V15.12C-5.13911e-05 15.2384 0.0244654 15.3555 0.0720002 15.464C0.1532 15.6779 0.322099 15.8468 0.536 15.928C0.644453 15.9755 0.761588 16.0001 0.88 16H8.544V9.8H6.464V7.4H8.544V5.6C8.54464 5.13475 8.63144 4.67364 8.8 4.24C9.06616 3.49355 9.65355 2.90616 10.4 2.64C10.799 2.48854 11.2213 2.40734 11.648 2.4H12.288H12.832H13.256H13.512V4.56H12.24C12.0312 4.55461 11.823 4.58436 11.624 4.648C11.4842 4.69342 11.3597 4.77645 11.264 4.888C11.1745 4.9934 11.1139 5.12019 11.088 5.256C11.0506 5.41314 11.0345 5.57457 11.04 5.736V7.28H13.44L13.36 7.88L13.28 8.488L13.208 9.088L13.128 9.688H11.04V16H15.12C15.2384 16.0001 15.3555 15.9755 15.464 15.928C15.6779 15.8468 15.8468 15.6779 15.928 15.464C15.9755 15.3555 16.0001 15.2384 16 15.12V0.88C16.0001 0.761588 15.9755 0.644453 15.928 0.536C15.8468 0.322099 15.6779 0.1532 15.464 0.0720002C15.3555 0.0244654 15.2384 -5.13911e-05 15.12 8.08795e-08Z" fill="#00BAFF"/>
</svg>
