<svg width="24" height="24" viewBox="0 0 24 24" fill="none" xmlns="http://www.w3.org/2000/svg">
<path d="M20.9 2H3.1C2.95198 1.99994 2.80557 2.03058 2.67 2.09C2.40262 2.1915 2.1915 2.40262 2.09 2.67C2.03058 2.80557 1.99994 2.95198 2 3.1V20.9C1.99994 21.048 2.03058 21.1944 2.09 21.33C2.1915 21.5974 2.40262 21.8085 2.67 21.91C2.80557 21.9694 2.95198 22.0001 3.1 22H12.68V14.25H10.08V11.25H12.68V9C12.6808 8.41844 12.7893 7.84205 13 7.3C13.3327 6.36694 14.0669 5.6327 15 5.3C15.4988 5.11068 16.0266 5.00918 16.56 5H17.36H18.04H18.57H18.89V7.7H17.3C17.039 7.69326 16.7787 7.73045 16.53 7.81C16.3553 7.86677 16.1996 7.97057 16.08 8.11C15.9681 8.24175 15.8924 8.40023 15.86 8.57C15.8133 8.76642 15.7931 8.96822 15.8 9.17V11.1H18.8L18.7 11.85L18.6 12.61L18.51 13.36L18.41 14.11H15.8V22H20.9C21.048 22.0001 21.1944 21.9694 21.33 21.91C21.5974 21.8085 21.8085 21.5974 21.91 21.33C21.9694 21.1944 22.0001 21.048 22 20.9V3.1C22.0001 2.95198 21.9694 2.80557 21.91 2.67C21.8085 2.40262 21.5974 2.1915 21.33 2.09C21.1944 2.03058 21.048 1.99994 20.9 2Z" fill="#00BAFF"/>
</svg>
