<svg width="16" height="16" viewBox="0 0 16 16" fill="none" xmlns="http://www.w3.org/2000/svg">
<path d="M5.49995 3.69995C4.50584 3.69995 3.69995 4.50584 3.69995 5.49995C3.69995 6.49406 4.50584 7.29995 5.49995 7.29995C6.49406 7.29995 7.29995 6.49406 7.29995 5.49995C7.29995 4.50584 6.49406 3.69995 5.49995 3.69995Z" fill="#37517E"/>
<path fill-rule="evenodd" clip-rule="evenodd" d="M15.8 0.199951H0.199951V15.8H15.8V0.199951ZM1.79995 11.5686V1.79995H14.2V7.94542L11.3752 5.92773L7.80492 10.008L4.84201 8.52658L1.79995 11.5686ZM1.79995 13.8314V14.2H14.2V9.91167L11.6248 8.07225L8.19503 11.9919L5.15794 10.4734L1.79995 13.8314Z" fill="#37517E"/>
</svg>
