<svg width="24" height="24" viewBox="0 0 24 24" fill="none" xmlns="http://www.w3.org/2000/svg">
<path fill-rule="evenodd" clip-rule="evenodd" d="M8.5 6C6.84315 6 5.5 7.34315 5.5 9C5.5 10.6569 6.84315 12 8.5 12C10.1569 12 11.5 10.6569 11.5 9C11.5 7.34315 10.1569 6 8.5 6ZM7.5 9C7.5 8.44772 7.94772 8 8.5 8C9.05228 8 9.5 8.44772 9.5 9C9.5 9.55228 9.05228 10 8.5 10C7.94772 10 7.5 9.55228 7.5 9Z" fill="#37517E"/>
<path fill-rule="evenodd" clip-rule="evenodd" d="M2 3H22V21H2V3ZM4 5V16.6121L7.79952 12.871L11.758 14.7742L16.3421 9.68069L20 12.1818V5H4ZM20 19H4.42541L8.20052 15.283L12.2421 17.226L16.6579 12.3195L20 14.6046V19Z" fill="#37517E"/>
</svg>
