<svg width="16" height="16" viewBox="0 0 16 16" fill="none" xmlns="http://www.w3.org/2000/svg">
<path d="M13.1091 8.88899C12.941 8.71325 12.7226 8.59387 12.4838 8.54725L11.8803 8.41637L13.2909 1.76343C13.4506 0.997073 12.9749 0.241832 12.2148 0.0547563C11.3741 -0.168193 10.5065 0.308797 10.2444 1.13813L8.97196 5.28986L7.96129 1.20357C7.87687 0.816101 7.63786 0.479919 7.29963 0.272885C6.94798 0.0556848 6.5269 -0.0196937 6.12174 0.0620272C5.30895 0.266048 4.81247 1.08702 5.00928 1.90158L5.62731 6.54773C5.16114 6.0443 4.40651 5.9352 3.81684 6.28598L3.72959 6.34415C3.07692 6.80714 2.92096 7.71044 3.38058 8.36548C3.02961 8.36775 2.69131 8.49687 2.42808 8.72903L2.36264 8.79447C2.08837 9.11999 1.96092 9.54444 2.0105 9.9672C2.06007 10.39 2.28226 10.7734 2.6244 11.0267L3.22789 11.6374C3.3006 14.1895 5.46008 16 8.034 16H8.14307C11.7786 16 13.3345 13.9787 13.6036 10.9103C13.7442 10.1966 13.5633 9.45721 13.1091 8.88899ZM6.25989 0.665518C6.49281 0.621114 6.73393 0.665189 6.93609 0.789125C7.13566 0.909955 7.27743 1.10685 7.32872 1.33445L8.61568 6.54773V6.59863V6.64226L8.65931 6.68588L8.70293 6.72951H8.75383H8.80473H8.97196C9.01056 6.72137 9.04746 6.70661 9.08102 6.68588C9.10897 6.66284 9.13345 6.63591 9.15373 6.6059C9.16842 6.58824 9.18065 6.56868 9.19009 6.54773L10.8188 1.26174C10.9666 0.765523 11.4813 0.47598 11.9821 0.60735C12.4166 0.721706 12.6852 1.15653 12.5929 1.5962L11.1896 8.2346L8.66658 7.67474H8.49935C8.21382 7.61696 7.91962 7.61696 7.6341 7.67474C7.30424 7.73572 7.00882 7.91712 6.80521 8.1837L6.33259 7.51477L5.62731 1.81433V1.77071C5.50982 1.29258 5.78811 0.806364 6.25989 0.665518ZM4.07859 6.83857L4.1513 6.78768C4.63119 6.52592 5.03836 6.72951 5.45281 7.30392L5.79454 7.79107V7.8347L6.52164 8.88899C6.4032 9.33567 6.5305 9.81167 6.85611 10.1396C6.79899 10.2453 6.71655 10.3353 6.61616 10.4014L6.55072 10.445C6.17725 10.6825 5.684 10.594 5.41645 10.2414L3.96226 8.22733C3.64233 7.66746 3.69323 7.07852 4.07132 6.83857H4.07859ZM2.84253 9.23072L2.90797 9.16528C3.17336 8.91541 3.57837 8.888 3.87501 9.09985L4.9293 10.554C5.20815 10.9459 5.6627 11.1745 6.14355 11.1648C6.2812 11.3013 6.35862 11.4872 6.35862 11.681C6.35862 11.8749 6.2812 12.0608 6.14355 12.1973L6.07811 12.2627C5.75168 12.5569 5.25573 12.5569 4.9293 12.2627L3.08974 10.5977C2.58804 10.1251 2.51533 9.5361 2.83526 9.23072H2.84253ZM12.9637 10.8594C12.7165 13.6515 11.3496 15.3892 8.11398 15.382C6.17057 15.4598 4.4371 14.1688 3.95499 12.2845L4.44214 12.7426C5.02717 13.2831 5.92934 13.2831 6.51437 12.7426L6.57981 12.6772C7.01784 12.2529 7.11353 11.5861 6.81248 11.0557L6.9579 10.983L7.03061 10.9321C7.19146 10.8296 7.32795 10.6931 7.43051 10.5322C7.68714 10.6566 7.95493 10.7564 8.23032 10.8303L9.13919 11.0194C8.40096 11.443 7.95853 12.2411 7.99038 13.0916C7.98843 13.1765 8.02028 13.2586 8.07891 13.32C8.13755 13.3813 8.21817 13.4169 8.30303 13.4188C8.4785 13.4273 8.62935 13.2957 8.64476 13.1207C8.58447 12.4041 9.00547 11.7341 9.67724 11.4775C10.009 11.3533 10.3639 11.3036 10.717 11.332H10.797C10.9083 11.3614 11.0268 11.3271 11.1054 11.2429C11.1839 11.1586 11.2097 11.038 11.1726 10.929C11.1355 10.8199 11.0415 10.7401 10.9278 10.7213L8.39028 10.1832C8.09243 10.1196 7.80734 10.0066 7.54685 9.84876C7.51313 9.81347 7.47383 9.78399 7.43051 9.7615C7.16008 9.50977 7.08891 9.10944 7.25601 8.77992C7.33506 8.51481 7.55771 8.31752 7.83042 8.27096C8.03204 8.23099 8.23955 8.23099 8.44118 8.27096H8.56478L12.3675 9.11439H12.4402C12.5107 9.1461 12.5748 9.19046 12.6293 9.24527C12.9734 9.70768 13.0934 10.2995 12.9565 10.8594H12.9637Z" fill="#00BAFF"/>
</svg>
