<svg width="24" height="24" viewBox="0 0 24 24" fill="none" xmlns="http://www.w3.org/2000/svg">
<path d="M19.2788 13.2253C19.0475 12.9836 18.7471 12.8194 18.4188 12.7553L17.5888 12.5753L19.5288 3.42531C19.7484 2.37131 19.0942 1.3326 18.0488 1.07531C16.8925 0.768679 15.6993 1.4247 15.3388 2.56531L13.5888 8.27531L12.1988 2.65531C12.0826 2.12241 11.7539 1.66005 11.2888 1.37531C10.8051 1.07659 10.226 0.972915 9.66876 1.08531C8.5509 1.3659 7.86808 2.49501 8.13876 3.61531L8.98876 10.0053C8.34762 9.31292 7.30975 9.16286 6.49876 9.64531L6.37876 9.72531C5.48113 10.3621 5.26662 11.6044 5.89876 12.5053C5.41606 12.5084 4.95078 12.686 4.58876 13.0053L4.49876 13.0953C4.12154 13.543 3.94625 14.1268 4.01444 14.7082C4.08262 15.2897 4.3882 15.817 4.85876 16.1653L5.68876 17.0053C5.78876 20.5153 8.75876 23.0053 12.2988 23.0053H12.4488C17.4488 23.0053 19.5888 20.2253 19.9588 16.0053C20.1521 15.0237 19.9034 14.0068 19.2788 13.2253ZM9.85876 1.91531C10.1791 1.85424 10.5107 1.91486 10.7888 2.08531C11.0632 2.25149 11.2582 2.52229 11.3288 2.83531L13.0988 10.0053V10.0753V10.1353L13.1588 10.1953L13.2188 10.2553H13.2888H13.3588H13.5888C13.6418 10.2441 13.6926 10.2238 13.7388 10.1953C13.7772 10.1636 13.8109 10.1266 13.8388 10.0853C13.859 10.061 13.8758 10.0341 13.8888 10.0053L16.1288 2.73531C16.332 2.05285 17.04 1.65463 17.7288 1.83531C18.3263 1.99259 18.6956 2.59061 18.5688 3.19531L16.6388 12.3253L13.1688 11.5553H12.9388C12.5461 11.4758 12.1414 11.4758 11.7488 11.5553C11.2951 11.6392 10.8888 11.8887 10.6088 12.2553L9.95876 11.3353L8.98876 3.49531V3.43531C8.82716 2.77773 9.20991 2.10902 9.85876 1.91531ZM6.85876 10.4053L6.95876 10.3353C7.61876 9.97531 8.17876 10.2553 8.74876 11.0453L9.21876 11.7153V11.7753L10.2188 13.2253C10.0559 13.8396 10.2309 14.4943 10.6788 14.9453C10.6002 15.0907 10.4868 15.2144 10.3488 15.3053L10.2588 15.3653C9.7451 15.692 9.06673 15.5703 8.69876 15.0853L6.69876 12.3153C6.25876 11.5453 6.32876 10.7353 6.84876 10.4053H6.85876ZM5.15876 13.6953L5.24876 13.6053C5.61376 13.2616 6.17078 13.224 6.57876 13.5153L8.02876 15.5153C8.41227 16.0542 9.03743 16.3687 9.69876 16.3553C9.88807 16.5431 9.99455 16.7987 9.99455 17.0653C9.99455 17.3319 9.88807 17.5875 9.69876 17.7753L9.60876 17.8653C9.15981 18.2699 8.47771 18.2699 8.02876 17.8653L5.49876 15.5753C4.80876 14.9253 4.70876 14.1153 5.14876 13.6953H5.15876ZM19.0788 15.9353C18.7388 19.7753 16.8588 22.1653 12.4088 22.1553C9.73591 22.2624 7.35182 20.4868 6.68876 17.8953L7.35876 18.5253C8.16336 19.2686 9.40415 19.2686 10.2088 18.5253L10.2988 18.4353C10.9012 17.8518 11.0328 16.9347 10.6188 16.2053L10.8188 16.1053L10.9188 16.0353C11.14 15.8943 11.3277 15.7065 11.4688 15.4853C11.8217 15.6563 12.19 15.7936 12.5688 15.8953L13.8188 16.1553C12.8034 16.7379 12.195 17.8355 12.2388 19.0053C12.2361 19.122 12.2799 19.235 12.3605 19.3194C12.4412 19.4038 12.5521 19.4527 12.6688 19.4553C12.9101 19.467 13.1176 19.286 13.1388 19.0453C13.0558 18.0598 13.6348 17.1382 14.5588 16.7853C15.015 16.6145 15.5032 16.5463 15.9888 16.5853H16.0988C16.2519 16.6257 16.4149 16.5785 16.5229 16.4627C16.6309 16.3468 16.6664 16.1809 16.6154 16.031C16.5644 15.881 16.435 15.7713 16.2788 15.7453L12.7888 15.0053C12.3791 14.9178 11.987 14.7624 11.6288 14.5453C11.5824 14.4968 11.5283 14.4562 11.4688 14.4253C11.0968 14.0791 10.9989 13.5285 11.2288 13.0753C11.3375 12.7107 11.6437 12.4393 12.0188 12.3753C12.2961 12.3203 12.5815 12.3203 12.8588 12.3753H13.0288L18.2588 13.5353H18.3588C18.4557 13.5789 18.5438 13.6399 18.6188 13.7153C19.0921 14.3513 19.2571 15.1652 19.0688 15.9353H19.0788Z" fill="#37517E"/>
</svg>
