<svg width="24" height="24" viewBox="0 0 24 24" fill="none" xmlns="http://www.w3.org/2000/svg">
<path fill-rule="evenodd" clip-rule="evenodd" d="M12 20C16.4183 20 20 16.4183 20 12C20 7.58172 16.4183 4 12 4C7.58172 4 4 7.58172 4 12C4 16.4183 7.58172 20 12 20ZM12 22C17.5228 22 22 17.5228 22 12C22 6.47715 17.5228 2 12 2C6.47715 2 2 6.47715 2 12C2 17.5228 6.47715 22 12 22Z" fill="#37517E"/>
<path fill-rule="evenodd" clip-rule="evenodd" d="M13.3581 18.2503C14.0317 16.7536 14.5 14.5456 14.5 12C14.5 9.45441 14.0317 7.24638 13.3581 5.74966C13.0204 4.99913 12.6701 4.51413 12.3818 4.24316C12.2431 4.11273 12.1393 4.05118 12.079 4.02377C12.0261 3.99968 12.0033 3.99996 12 4C11.9967 3.99996 11.9739 3.99968 11.921 4.02377C11.8607 4.05118 11.7569 4.11273 11.6182 4.24316C11.3299 4.51413 10.9796 4.99913 10.6419 5.74966C9.96834 7.24638 9.5 9.45441 9.5 12C9.5 14.5456 9.96834 16.7536 10.6419 18.2503C10.9796 19.0009 11.3299 19.4859 11.6182 19.7568C11.7569 19.8873 11.8607 19.9488 11.921 19.9762C11.9739 20.0003 11.9967 20 12 20C12.0033 20 12.0261 20.0003 12.079 19.9762C12.1393 19.9488 12.2431 19.8873 12.3818 19.7568C12.6701 19.4859 13.0204 19.0009 13.3581 18.2503ZM12 22C14.4853 22 16.5 17.5228 16.5 12C16.5 6.47715 14.4853 2 12 2C9.51472 2 7.5 6.47715 7.5 12C7.5 17.5228 9.51472 22 12 22Z" fill="#37517E"/>
<path fill-rule="evenodd" clip-rule="evenodd" d="M4 11H20V13H4V11Z" fill="#37517E"/>
</svg>
