<svg width="16" height="16" viewBox="0 0 16 16" fill="none" xmlns="http://www.w3.org/2000/svg">
<path fill-rule="evenodd" clip-rule="evenodd" d="M16.0001 8C16.0001 3.58172 12.4184 0 8.00012 0C3.58184 0 0.00012207 3.58172 0.00012207 8C0.00012207 12.4183 3.58184 16 8.00012 16C12.4184 16 16.0001 12.4183 16.0001 8ZM4.5174 8.8C4.60623 10.8448 5.03191 12.6632 5.66581 13.961C3.52349 13.1214 1.94396 11.1603 1.64964 8.8H4.5174ZM6.11904 8.8C6.20016 10.5033 6.53532 11.9738 6.9911 13.0155C7.25501 13.6188 7.52795 14.0065 7.74986 14.221C7.88732 14.3539 7.97041 14.3899 8.00012 14.3987C8.02983 14.3899 8.11292 14.3539 8.25038 14.221C8.4723 14.0065 8.74524 13.6188 9.00914 13.0155C9.46493 11.9738 9.80009 10.5033 9.88121 8.8H6.11904ZM9.88121 7.2L6.11904 7.2C6.20016 5.4967 6.53532 4.02625 6.9911 2.98446C7.25501 2.38124 7.52795 1.99354 7.74986 1.779C7.88732 1.64611 7.97042 1.61006 8.00012 1.60129C8.02983 1.61006 8.11292 1.64611 8.25038 1.779C8.4723 1.99354 8.74524 2.38124 9.00914 2.98446C9.46493 4.02625 9.80009 5.4967 9.88121 7.2ZM11.4828 8.8C11.394 10.8448 10.9683 12.6632 10.3344 13.961C12.4768 13.1214 14.0563 11.1603 14.3506 8.8H11.4828ZM14.3506 7.2H11.4828C11.394 5.15517 10.9683 3.33684 10.3344 2.03905C12.4768 2.87862 14.0563 4.83975 14.3506 7.2ZM4.5174 7.2H1.64964C1.94396 4.83975 3.52349 2.87862 5.66581 2.03905C5.03191 3.33684 4.60623 5.15517 4.5174 7.2Z" fill="#00BAFF"/>
</svg>
