<svg width="16" height="16" viewBox="0 0 16 16" fill="none" xmlns="http://www.w3.org/2000/svg">
<path d="M14.8 0.200012H0.200012V12.8H2.59998V12.6199C2.59998 12.124 2.67942 11.6467 2.82627 11.2H1.80001V1.80001H13.2V6.14728C13.7799 6.59301 14.264 7.15703 14.6167 7.80325C14.6786 7.8329 14.7397 7.86381 14.8 7.89594V0.200012Z" fill="#00BAFF"/>
<path fill-rule="evenodd" clip-rule="evenodd" d="M6.38294 9.77612C6.64506 8.01364 8.16468 6.66156 10.0001 6.66156C11.5771 6.66156 12.9197 7.6591 13.4336 9.05726C14.8017 9.46017 15.8 10.7246 15.8 12.2231V12.5001C15.8 14.3226 14.3226 15.8001 12.5 15.8001L12.4692 15.7999H7.18118L7.14286 15.8001C5.51757 15.8001 4.20001 14.4826 4.20001 12.8573V12.6199C4.20001 11.2574 5.12597 10.1111 6.38294 9.77612ZM10.0001 8.26156C8.86397 8.26156 7.94296 9.18257 7.94296 10.3187V11.2771H7.14296C6.40133 11.2771 5.80001 11.8783 5.80001 12.6199V12.8573C5.80001 13.5989 6.40123 14.2001 7.14286 14.2001L7.16364 14.2L7.17564 14.1998L12.4788 14.1999L12.5 14.2001C13.4389 14.2001 14.2 13.439 14.2 12.5001V12.2231C14.2 11.3536 13.5464 10.6355 12.7042 10.5352L12.1312 10.467L12.0151 9.90178C11.8228 8.96544 10.9927 8.26156 10.0001 8.26156Z" fill="#00BAFF"/>
<path d="M4.2 5.4C4.86274 5.4 5.4 4.86274 5.4 4.2C5.4 3.53726 4.86274 3 4.2 3C3.53726 3 3 3.53726 3 4.2C3 4.86274 3.53726 5.4 4.2 5.4Z" fill="#00BAFF"/>
</svg>
