<svg width="24" height="24" viewBox="0 0 24 24" fill="none" xmlns="http://www.w3.org/2000/svg">
<path fill-rule="evenodd" clip-rule="evenodd" d="M21 2H2V18L5.80005 18C5.80005 17.3001 5.91593 16.6274 6.12957 16H4V4H19V9.90459C19.8026 10.4325 20.4856 11.1274 21 11.9399V2ZM15.3002 13C14.0275 13 12.9716 13.9359 12.7863 15.1568L12.6657 15.9511L11.8641 16.0045C10.8234 16.0738 10 16.9412 10 18C10 19.1046 10.8954 20 12 20H19C20.1046 20 21 19.1046 21 18C21 16.8954 20.1046 16 19 16C18.9554 16 18.9112 16.0014 18.8675 16.0043L17.9518 16.0637L17.814 15.1566C17.6286 13.9358 16.5727 13 15.3002 13ZM10.9812 14.1311C11.5752 12.3131 13.2836 11 15.3002 11C17.284 11 18.9697 12.2709 19.5894 14.0431C21.5191 14.3281 23 15.9911 23 18C23 20.2091 21.2091 22 19 22H12C9.79086 22 8 20.2091 8 18C8 16.1428 9.26522 14.5818 10.9812 14.1311ZM7.6 9.2C8.48366 9.2 9.2 8.48366 9.2 7.6C9.2 6.71634 8.48366 6 7.6 6C6.71634 6 6 6.71634 6 7.6C6 8.48366 6.71634 9.2 7.6 9.2Z" fill="#00BAFF"/>
</svg>
