<svg width="24" height="24" viewBox="0 0 24 24" fill="none" xmlns="http://www.w3.org/2000/svg">
<path fill-rule="evenodd" clip-rule="evenodd" d="M16 6V4C16 2.89543 15.1046 2 14 2H10C8.89543 2 8 2.89543 8 4V6H5C3.34315 6 2 7.34315 2 9V18C2 19.0847 2.57566 20.0349 3.43814 20.5619C3.96508 21.4243 4.91531 22 6 22C6.8885 22 7.68679 21.6137 8.23611 21H15.7639C16.3132 21.6137 17.1115 22 18 22C19.0847 22 20.0349 21.4243 20.5619 20.5619C21.4243 20.0349 22 19.0847 22 18L22 9C22 7.34315 20.6569 6 19 6H16ZM10 6H14V4H10V6ZM20 16.7639L20 9C20 8.44771 19.5523 8 19 8H5C4.44772 8 4 8.44772 4 9V16.7639C4.53076 16.2889 5.23165 16 6 16C7.65685 16 9 17.3431 9 19H15C15 17.3431 16.3431 16 18 16C18.7684 16 19.4692 16.2889 20 16.7639ZM6 18C5.44772 18 5 18.4477 5 19C5 19.5523 5.44772 20 6 20C6.55228 20 7 19.5523 7 19C7 18.4477 6.55228 18 6 18ZM17 19C17 18.4477 17.4477 18 18 18C18.5523 18 19 18.4477 19 19C19 19.5523 18.5523 20 18 20C17.4477 20 17 19.5523 17 19Z" fill="#00BAFF"/>
</svg>
