<svg width="16" height="16" viewBox="0 0 16 16" fill="none" xmlns="http://www.w3.org/2000/svg">
<path fill-rule="evenodd" clip-rule="evenodd" d="M4.70001 3.20001H3.00001C1.45361 3.20001 0.200012 4.45361 0.200012 6.00001V12C0.200012 12.9171 0.640908 13.7312 1.3223 14.2419C1.63095 15.1481 2.48935 15.8 3.50001 15.8C4.28783 15.8 4.98313 15.4039 5.39764 14.8H10.6024C11.0169 15.4039 11.7122 15.8 12.5 15.8C13.5107 15.8 14.3691 15.1481 14.6777 14.2419C15.3591 13.7312 15.8 12.9171 15.8 12L15.8 6.00001C15.8 4.45361 14.5464 3.20001 13 3.20001H11.3V2.00001C11.3 1.0059 10.4941 0.200012 9.50001 0.200012H6.50001C5.5059 0.200012 4.70001 1.0059 4.70001 2.00001V3.20001ZM14.2 11.9508L14.2 6.00001C14.2 5.33726 13.6628 4.80001 13 4.80001H10.5033L10.5 4.80001H5.50001L5.49671 4.80001H3.00001C2.33727 4.80001 1.80001 5.33726 1.80001 6.00001V11.9508C2.22065 11.4895 2.82653 11.2 3.50001 11.2C4.66859 11.2 5.63362 12.0715 5.78062 13.2H10.2194C10.3664 12.0715 11.3314 11.2 12.5 11.2C13.1735 11.2 13.7794 11.4895 14.2 11.9508ZM9.70001 3.20001L6.30001 3.20001V2.00001C6.30001 1.88956 6.38956 1.80001 6.50001 1.80001H9.50001C9.61047 1.80001 9.70001 1.88956 9.70001 2.00001V3.20001ZM3.50001 12.8C3.11341 12.8 2.80001 13.1134 2.80001 13.5C2.80001 13.8866 3.11341 14.2 3.50001 14.2C3.88661 14.2 4.20001 13.8866 4.20001 13.5C4.20001 13.1134 3.88661 12.8 3.50001 12.8ZM11.8 13.5C11.8 13.1134 12.1134 12.8 12.5 12.8C12.8866 12.8 13.2 13.1134 13.2 13.5C13.2 13.8866 12.8866 14.2 12.5 14.2C12.1134 14.2 11.8 13.8866 11.8 13.5Z" fill="#00BAFF"/>
</svg>
