<svg width="16" height="16" viewBox="0 0 16 16" fill="none" xmlns="http://www.w3.org/2000/svg">
<path d="M8.8 4.00007L8.8 7.66871L11.5657 10.4344L10.4343 11.5658L7.2 8.33145L7.2 4.00007L8.8 4.00007Z" fill="#00BAFF"/>
<path fill-rule="evenodd" clip-rule="evenodd" d="M16 8C16 12.4183 12.4183 16 8 16C3.58172 16 0 12.4183 0 8C0 3.58172 3.58172 0 8 0C12.4183 0 16 3.58172 16 8ZM14.4 8C14.4 11.5346 11.5346 14.4 8 14.4C4.46538 14.4 1.6 11.5346 1.6 8C1.6 4.46538 4.46538 1.6 8 1.6C11.5346 1.6 14.4 4.46538 14.4 8Z" fill="#00BAFF"/>
</svg>
