<svg width="16" height="16" viewBox="0 0 16 16" fill="none" xmlns="http://www.w3.org/2000/svg">
<path d="M8.25 15.1554H1.14286C0.511905 15.1554 0 14.6274 0 13.9766V2.02338C0 1.37262 0.511905 0.844635 1.14286 0.844635H8.25C14.994 0.844635 16 5.32019 16 7.98465C16 12.6076 13.244 15.1554 8.25 15.1554ZM1.14286 1.23755C0.720238 1.23755 0.380952 1.58749 0.380952 2.02338V13.9766C0.380952 14.4125 0.720238 14.7624 1.14286 14.7624H8.25C13 14.7624 15.619 12.3558 15.619 7.98465C15.619 2.11547 11 1.23755 8.25 1.23755H1.14286Z" fill="#00BAFF"/>
<path d="M5.86905 8.61086C5.94644 8.61086 6.01786 8.59858 6.09525 8.57402C6.16667 8.54946 6.23215 8.50649 6.28572 8.44509C6.33929 8.3837 6.38691 8.31003 6.42263 8.2118C6.45834 8.11357 6.4762 8.00306 6.4762 7.86186C6.4762 7.73907 6.46429 7.62243 6.44048 7.5242C6.41667 7.42597 6.37501 7.33388 6.32144 7.26635C6.26786 7.19882 6.19644 7.13742 6.10715 7.10059C6.01786 7.06375 5.91072 7.04533 5.77977 7.04533H5.39882V8.617H5.86905V8.61086Z" fill="#00BAFF"/>
<path d="M11.006 8.10744L10.7024 7.19268H10.6964L10.381 8.10744H11.006Z" fill="#00BAFF"/>
<path fill-rule="evenodd" clip-rule="evenodd" d="M4.35716 3.17757V13.6021H8.75597C12.75 13.6021 14.4822 11.2753 14.4822 7.98465C14.4822 4.83518 12.75 2.39174 8.75597 2.39174H5.11906C4.69644 2.39174 4.35716 2.74782 4.35716 3.17757ZM5.90477 6.57875C6.05953 6.57875 6.20239 6.6033 6.33929 6.65242C6.4762 6.70153 6.58929 6.78134 6.69048 6.87957C6.78572 6.98394 6.8631 7.11287 6.92263 7.26021C6.9762 7.41369 7.00596 7.59173 7.00596 7.80047C7.00596 7.98465 6.98215 8.15041 6.94048 8.30389C6.89286 8.45737 6.82739 8.59244 6.7381 8.70294C6.64882 8.81345 6.53572 8.8994 6.39882 8.96694C6.26191 9.02833 6.1012 9.06516 5.91667 9.06516H4.87501V6.57261H5.90477V6.57875ZM9.15476 7.0392V6.57261H7.35119V9.06516H9.18453V8.60472H7.88096V7.99692H9.05357V7.57331H7.88096V7.0392H9.15476ZM10.9762 6.57875L11.881 9.0713H11.3274L11.1429 8.51877H10.2381L10.0476 9.0713H9.5119L10.4226 6.57875H10.9762ZM12.744 8.61086V6.57875H12.2143V9.0713H13.9226V8.61086H12.744Z" fill="#00BAFF"/>
<path d="M2.36907 8.97307C2.98381 8.97307 3.48216 8.45907 3.48216 7.82502C3.48216 7.19097 2.98381 6.67697 2.36907 6.67697C1.75432 6.67697 1.25597 7.19097 1.25597 7.82502C1.25597 8.45907 1.75432 8.97307 2.36907 8.97307Z" fill="#00BAFF"/>
<path d="M3.20834 13.6021C2.27381 13.6021 1.52381 12.8224 1.52381 11.8647V10.5079C1.52381 10.029 1.89881 9.63612 2.36905 9.63612C2.83334 9.63612 3.21429 10.0229 3.21429 10.5079V13.6021H3.20834Z" fill="#00BAFF"/>
</svg>
