<svg width="24" height="24" viewBox="0 0 24 24" fill="none" xmlns="http://www.w3.org/2000/svg">
<path d="M13.3438 21.8386H3.57143C2.70387 21.8386 2 21.1127 2 20.2178V3.78215C2 2.88734 2.70387 2.16137 3.57143 2.16137H13.3438C22.6168 2.16137 24 8.31526 24 11.9789C24 18.3354 20.2106 21.8386 13.3438 21.8386ZM3.57143 2.70163C2.99033 2.70163 2.52381 3.1828 2.52381 3.78215V20.2178C2.52381 20.8172 2.99033 21.2984 3.57143 21.2984H13.3438C19.875 21.2984 23.4762 17.9893 23.4762 11.9789C23.4762 3.90877 17.125 2.70163 13.3438 2.70163H3.57143Z" fill="#00BAFF"/>
<path d="M10.07 12.8399C10.1763 12.8399 10.2746 12.823 10.381 12.7893C10.4792 12.7555 10.5692 12.6964 10.6429 12.612C10.7165 12.5276 10.782 12.4263 10.8311 12.2912C10.8802 12.1562 10.9048 12.0042 10.9048 11.8101C10.9048 11.6412 10.8884 11.4808 10.8557 11.3458C10.8229 11.2107 10.7656 11.0841 10.692 10.9912C10.6183 10.8984 10.5201 10.814 10.3973 10.7633C10.2746 10.7127 10.1272 10.6873 9.94718 10.6873H9.42337V12.8484H10.07V12.8399Z" fill="#00BAFF"/>
<path d="M17.1332 12.1477L16.7158 10.8899H16.7076L16.2738 12.1477H17.1332Z" fill="#00BAFF"/>
<path fill-rule="evenodd" clip-rule="evenodd" d="M7.99109 5.36915V19.7029H14.0395C19.5313 19.7029 21.913 16.5036 21.913 11.9789C21.913 7.64837 19.5313 4.28863 14.0395 4.28863H9.03871C8.45761 4.28863 7.99109 4.77824 7.99109 5.36915ZM10.1191 10.0458C10.3319 10.0458 10.5283 10.0795 10.7165 10.1471C10.9048 10.2146 11.0603 10.3243 11.1994 10.4594C11.3304 10.6029 11.4368 10.7802 11.5186 10.9828C11.5923 11.1938 11.6332 11.4386 11.6332 11.7256C11.6332 11.9789 11.6005 12.2068 11.5432 12.4178C11.4777 12.6289 11.3877 12.8146 11.2649 12.9665C11.1421 13.1185 10.9866 13.2367 10.7984 13.3295C10.6101 13.4139 10.3891 13.4646 10.1354 13.4646H8.70313V10.0373H10.1191V10.0458ZM14.5878 10.6789V10.0373H12.1079V13.4646H14.6287V12.8315H12.8363V11.9958H14.4487V11.4133H12.8363V10.6789H14.5878ZM17.0923 10.0458L18.3363 13.473H17.5752L17.3214 12.7133H16.0774L15.8155 13.473H15.0789L16.3311 10.0458H17.0923ZM19.523 12.8399V10.0458H18.7946V13.473H21.1436V12.8399H19.523Z" fill="#00BAFF"/>
<path d="M5.25747 13.338C6.10274 13.338 6.78797 12.6312 6.78797 11.7594C6.78797 10.8876 6.10274 10.1808 5.25747 10.1808C4.41219 10.1808 3.72696 10.8876 3.72696 11.7594C3.72696 12.6312 4.41219 13.338 5.25747 13.338Z" fill="#00BAFF"/>
<path d="M6.41146 19.7029C5.12649 19.7029 4.09524 18.6308 4.09524 17.3139V15.4484C4.09524 14.7899 4.61087 14.2497 5.25744 14.2497C5.89584 14.2497 6.41965 14.7815 6.41965 15.4484V19.7029H6.41146Z" fill="#00BAFF"/>
</svg>
