<svg width="24" height="24" viewBox="0 0 24 24" fill="none" xmlns="http://www.w3.org/2000/svg">
<path d="M18.7101 14C17.8496 16.8915 15.171 19 12 19C9.2076 19 6.79709 17.3649 5.67363 15H9.00024V13H2.0003L2.00001 19.9999L4.00001 20L4.00017 16.1275C5.49645 19.0217 8.5172 21 12 21C16.2832 21 19.8675 18.008 20.777 14H18.7101Z" fill="#00BAFF"/>
<path d="M5.28988 10C6.15043 7.10851 8.82899 5 12 5C14.7924 5 17.2029 6.63506 18.3264 9.00002L15 9.00002V11H21.9999L22.0002 4.00008L20.0002 4L20.0001 7.87293C18.5039 4.9785 15.483 3 12 3C7.71683 3 4.13248 5.99202 3.22302 10H5.28988Z" fill="#00BAFF"/>
</svg>
