<svg width="16" height="16" viewBox="0 0 16 16" fill="none" xmlns="http://www.w3.org/2000/svg">
<path d="M8 1.46667H4.8C4 1.53333 3.53333 1.66667 3.26667 1.73333C2.93333 1.93333 2.66667 2.06667 2.33333 2.33333C2.06667 2.6 1.86667 2.86667 1.73333 3.26667C1.66667 3.53333 1.53333 4 1.53333 4.8C1.46667 5.6 1.46667 5.86667 1.46667 8C1.46667 10.1333 1.46667 10.3333 1.53333 11.2C1.53333 11.9333 1.66667 12.4 1.8 12.6667C1.93333 13.0667 2.13333 13.3333 2.4 13.6C2.66667 13.8667 2.93333 14.0667 3.33333 14.2C3.6 14.3333 4 14.4 4.8 14.4667C5.6 14.5333 5.86667 14.5333 8 14.5333C10.1333 14.5333 10.3333 14.5333 11.2 14.4667C11.9333 14.4667 12.4 14.3333 12.6667 14.2C13.0667 14.0667 13.3333 13.8667 13.6 13.6C13.8667 13.3333 14.0667 13.0667 14.2 12.6667C14.3333 12.4 14.4 12 14.4667 11.2C14.5333 10.4 14.5333 10.1333 14.5333 8C14.5333 5.86667 14.5333 5.66667 14.4667 4.8C14.4667 4.06667 14.3333 3.6 14.2 3.33333C14.0667 2.93333 13.8667 2.66667 13.6 2.4C13.3333 2.13333 13.0667 1.93333 12.6667 1.8C12.4 1.66667 12 1.6 11.2 1.53333C10.4 1.46667 10.1333 1.46667 8 1.46667ZM8 0H11.3333C12.2 0.0666667 12.7333 0.2 13.2667 0.4C13.8 0.6 14.2 0.866667 14.6667 1.33333C15.1333 1.8 15.4 2.26667 15.5333 2.8C15.7333 3.33333 15.8667 3.86667 15.9333 4.73333C16 5.53333 16 5.8 16 8C16 10.2 16 10.4667 15.9333 11.2667C15.8667 12.1333 15.7333 12.6667 15.5333 13.2C15.3333 13.7333 15.0667 14.1333 14.6 14.6C14.2 15.0667 13.7333 15.3333 13.2 15.5333C12.6667 15.7333 12.1333 15.8667 11.2667 15.9333C10.4667 16 10.2 16 8 16H4.66667C3.8 15.9333 3.26667 15.8 2.73333 15.6C2.2 15.4 1.8 15.1333 1.33333 14.6667C0.866667 14.2 0.6 13.7333 0.466667 13.2C0.266667 12.6667 0.133333 12.1333 0.0666667 11.2667C0 10.4667 0 10.2 0 8C0 5.8 0 5.53333 0.0666667 4.73333C0.0666667 3.86667 0.2 3.26667 0.4 2.73333C0.6 2.26667 0.866667 1.8 1.33333 1.33333C1.8 0.866667 2.26667 0.6 2.73333 0.4C3.26667 0.2 3.86667 0.0666667 4.73333 0.0666667C5.53333 0 5.8 0 8 0ZM8 3.86667C10.2667 3.86667 12.1333 5.73333 12.1333 8C12.1333 10.2667 10.2667 12.1333 8 12.1333C5.73333 12.1333 3.86667 10.2667 3.86667 8C3.86667 5.73333 5.73333 3.86667 8 3.86667ZM8 10.6667C9.46667 10.6667 10.6667 9.46667 10.6667 8C10.6667 6.53333 9.46667 5.33333 8 5.33333C6.53333 5.33333 5.33333 6.53333 5.33333 8C5.33333 9.46667 6.53333 10.6667 8 10.6667ZM12.2667 4.66667C11.7512 4.66667 11.3333 4.2488 11.3333 3.73333C11.3333 3.21787 11.7512 2.8 12.2667 2.8C12.7821 2.8 13.2 3.21787 13.2 3.73333C13.2 4.2488 12.7821 4.66667 12.2667 4.66667Z" fill="#00BAFF"/>
</svg>
