<svg width="16" height="16" viewBox="0 0 16 16" fill="none" xmlns="http://www.w3.org/2000/svg">
<path d="M8.80949 3.01873L11.0353 1.25336L10.024 0L8.00002 1.60526L5.9761 0L4.96476 1.25336L7.19055 3.01873V6.61003L4.05368 4.81447L3.62452 2.02069L2.02404 2.26236L2.41427 4.80275L0.000111108 5.73788L0.58926 7.23291L3.24421 6.2045L6.38105 8.00005L3.2441 9.79566L0.589149 8.76725L0 10.2623L2.41416 11.1974L2.02393 13.7378L3.62441 13.9795L4.05357 11.1857L7.19055 9.39007V12.9813L4.96476 14.7466L5.9761 16L8.00002 14.3947L10.0239 16L11.0353 14.7466L8.80949 12.9813V9.39011L11.9465 11.1858L12.3757 13.9796L13.9762 13.7379L13.5859 11.1975L16.0001 10.2624L15.411 8.76733L12.756 9.79573L9.61893 8.00005L12.7559 6.20444L15.4109 7.23284L16 5.73781L13.5858 4.80268L13.9761 2.26229L12.3756 2.02061L11.9464 4.8144L8.80949 6.60999V3.01873Z" fill="#37517E"/>
</svg>
