<svg width="24" height="24" viewBox="0 0 24 24" fill="none" xmlns="http://www.w3.org/2000/svg">
<path d="M13.0021 5.64268L15.6 3.56473L14.348 2L12 3.87805L9.65204 2L8.40001 3.56473L10.9979 5.64268V10.2643L6.99549 7.95348L6.49488 4.66466L4.51377 4.96658L4.96622 7.93901L2.1658 9.03339L2.89488 10.9L5.99338 9.68917L9.99582 12L5.99336 14.3108L2.89485 13.0999L2.16577 14.9666L4.9662 16.061L4.51375 19.0334L6.49485 19.3353L6.99546 16.0465L10.9979 13.7357V18.3573L8.40002 20.4353L9.65203 22L12 20.122L14.348 22L15.6 20.4353L13.0021 18.3573V13.7357L17.0046 16.0465L17.5052 19.3353L19.4863 19.0334L19.0339 16.061L21.8343 14.9666L21.1052 13.0999L18.0067 14.3108L14.0042 12L18.0067 9.68916L21.1052 10.9L21.8343 9.03339L19.0338 7.939L19.4863 4.96657L17.5052 4.66466L17.0046 7.95347L13.0021 10.2643V5.64268Z" fill="#37517E"/>
</svg>
