<svg width="16" height="16" viewBox="0 0 16 16" fill="none" xmlns="http://www.w3.org/2000/svg">
<path d="M2.5 1.80001H14C14.1105 1.80001 14.2 1.88955 14.2 2.00001V10.5H15.8V2.00001C15.8 1.0059 14.9941 0.200012 14 0.200012H2.5V1.80001Z" fill="#00BAFF"/>
<path fill-rule="evenodd" clip-rule="evenodd" d="M1.99995 3.20001C1.00584 3.20001 0.199951 4.0059 0.199951 5.00001V11C0.199951 11.9941 1.00584 12.8 1.99995 12.8H3.69995V15.9434L8.72939 12.8H11C11.9941 12.8 12.8 11.9941 12.8 11V5.00001C12.8 4.0059 11.9941 3.20001 11 3.20001H1.99995ZM1.79995 5.00001C1.79995 4.88956 1.88949 4.80001 1.99995 4.80001H11C11.1104 4.80001 11.2 4.88955 11.2 5.00001V11C11.2 11.1105 11.1104 11.2 11 11.2H8.27051L5.29995 13.0566V11.2H1.99995C1.88949 11.2 1.79995 11.1105 1.79995 11V5.00001Z" fill="#00BAFF"/>
</svg>
