<svg width="16" height="16" viewBox="0 0 16 16" fill="none" xmlns="http://www.w3.org/2000/svg">
<path d="M0.0500488 1.99999C0.0500488 2.88365 0.766393 3.59999 1.65005 3.59999C2.5337 3.59999 3.25005 2.88365 3.25005 1.99999C3.25005 1.11634 2.5337 0.399994 1.65005 0.399994C0.766393 0.399994 0.0500489 1.11634 0.0500488 1.99999Z" fill="#00BAFF"/>
<path d="M0.0500488 7.99999C0.0500488 8.88365 0.766393 9.59999 1.65005 9.59999C2.5337 9.59999 3.25005 8.88365 3.25005 7.99999C3.25005 7.11634 2.5337 6.39999 1.65005 6.39999C0.766393 6.39999 0.0500489 7.11634 0.0500488 7.99999Z" fill="#00BAFF"/>
<path d="M1.6 15.6C0.716344 15.6 0 14.8836 0 14C0 13.1163 0.716345 12.4 1.6 12.4C2.48366 12.4 3.2 13.1163 3.2 14C3.2 14.8836 2.48366 15.6 1.6 15.6Z" fill="#00BAFF"/>
<path d="M6 2.8H16V1.2H6V2.8Z" fill="#00BAFF"/>
<path d="M16 8.8L6 8.8V7.2L16 7.2V8.8Z" fill="#00BAFF"/>
<path d="M6 14.8H16V13.2H6V14.8Z" fill="#00BAFF"/>
</svg>
