<svg width="16" height="16" viewBox="0 0 16 16" fill="none" xmlns="http://www.w3.org/2000/svg">
<path d="M3.62397 2.88002C4.41926 2.88002 5.06398 2.2353 5.06398 1.44001C5.06398 0.644714 4.41926 0 3.62397 0C2.82867 0 2.18396 0.644714 2.18396 1.44001C2.18396 2.2353 2.82867 2.88002 3.62397 2.88002Z" fill="#00BAFF"/>
<path d="M12.376 2.88002C13.1713 2.88002 13.816 2.2353 13.816 1.44001C13.816 0.644714 13.1713 0 12.376 0C11.5807 0 10.936 0.644714 10.936 1.44001C10.936 2.2353 11.5807 2.88002 12.376 2.88002Z" fill="#00BAFF"/>
<path d="M12.376 7.25339C13.1713 7.25339 13.816 6.60867 13.816 5.81338C13.816 5.01808 13.1713 4.37337 12.376 4.37337C11.5807 4.37337 10.936 5.01808 10.936 5.81338C10.936 6.60867 11.5807 7.25339 12.376 7.25339Z" fill="#00BAFF"/>
<path d="M13.816 10.1867C13.816 10.982 13.1713 11.6268 12.376 11.6268C11.5807 11.6268 10.936 10.982 10.936 10.1867C10.936 9.39145 11.5807 8.74674 12.376 8.74674C13.1713 8.74674 13.816 9.39145 13.816 10.1867Z" fill="#00BAFF"/>
<path d="M5.06398 5.81338C5.06398 6.60867 4.41926 7.25339 3.62397 7.25339C2.82867 7.25339 2.18396 6.60867 2.18396 5.81338C2.18396 5.01808 2.82867 4.37337 3.62397 4.37337C4.41926 4.37337 5.06398 5.01808 5.06398 5.81338Z" fill="#00BAFF"/>
<path d="M3.62397 11.6268C4.41926 11.6268 5.06398 10.982 5.06398 10.1867C5.06398 9.39145 4.41926 8.74674 3.62397 8.74674C2.82867 8.74674 2.18396 9.39145 2.18396 10.1867C2.18396 10.982 2.82867 11.6268 3.62397 11.6268Z" fill="#00BAFF"/>
<path d="M9.44001 10.1867C9.44001 10.982 8.79529 11.6268 8 11.6268C7.2047 11.6268 6.55999 10.982 6.55999 10.1867C6.55999 9.39145 7.2047 8.74674 8 8.74674C8.79529 8.74674 9.44001 9.39145 9.44001 10.1867Z" fill="#00BAFF"/>
<path d="M8 7.25339C8.79529 7.25339 9.44001 6.60867 9.44001 5.81338C9.44001 5.01808 8.79529 4.37337 8 4.37337C7.2047 4.37337 6.55999 5.01808 6.55999 5.81338C6.55999 6.60867 7.2047 7.25339 8 7.25339Z" fill="#00BAFF"/>
<path d="M9.44001 1.44001C9.44001 2.2353 8.79529 2.88002 8 2.88002C7.2047 2.88002 6.55999 2.2353 6.55999 1.44001C6.55999 0.644714 7.2047 0 8 0C8.79529 0 9.44001 0.644714 9.44001 1.44001Z" fill="#00BAFF"/>
<path d="M8 16.0001C8.79529 16.0001 9.44001 15.3554 9.44001 14.5601C9.44001 13.7648 8.79529 13.1201 8 13.1201C7.2047 13.1201 6.55999 13.7648 6.55999 14.5601C6.55999 15.3554 7.2047 16.0001 8 16.0001Z" fill="#00BAFF"/>
</svg>
