<svg width="16" height="16" viewBox="0 0 16 16" fill="none" xmlns="http://www.w3.org/2000/svg">
<path fill-rule="evenodd" clip-rule="evenodd" d="M1 2C0.447715 2 0 2.44772 0 3V13C0 13.5523 0.447715 14 1 14H15C15.5523 14 16 13.5523 16 13V10.95C14.8589 10.7184 14 9.70948 14 8.5C14 7.29052 14.8589 6.28164 16 6.05001V3C16 2.44772 15.5523 2 15 2H1ZM3 7C3 6.44772 3.44772 6 4 6H5C5.55228 6 6 6.44772 6 7C6 7.55228 5.55228 8 5 8H4C3.44772 8 3 7.55228 3 7ZM3 10.8H10V9.19995H3V10.8Z" fill="#00BAFF"/>
</svg>
