<svg width="16" height="16" viewBox="0 0 16 16" fill="none" xmlns="http://www.w3.org/2000/svg">
<path d="M3 7C3 6.44772 3.44772 6 4 6H5C5.55228 6 6 6.44772 6 7C6 7.55228 5.55228 8 5 8H4C3.44772 8 3 7.55228 3 7Z" fill="#37517E"/>
<path d="M3 10.8H10V9.2H3V10.8Z" fill="#37517E"/>
<path fill-rule="evenodd" clip-rule="evenodd" d="M0 3C0 2.44772 0.447715 2 1 2H15C15.5523 2 16 2.44772 16 3V13C16 13.5523 15.5523 14 15 14H1C0.447715 14 0 13.5523 0 13V3ZM1.6 12.4V3.6H14.4V6.07246C14.0266 6.16445 13.6862 6.34033 13.4 6.57898C12.85 7.03757 12.5 7.72791 12.5 8.5C12.5 9.27209 12.85 9.96243 13.4 10.421C13.6862 10.6597 14.0266 10.8356 14.4 10.9275V12.4H1.6Z" fill="#37517E"/>
</svg>
