<svg width="16" height="16" viewBox="0 0 16 16" fill="none" xmlns="http://www.w3.org/2000/svg">
<path d="M8.79867 5.41476V9.40919H7.2013L7.2013 5.41476H8.79867Z" fill="#00BAFF"/>
<path d="M7.99997 13.0042C8.55135 13.0042 8.99832 12.5571 8.99832 12.0056C8.99832 11.454 8.55135 11.007 7.99997 11.007C7.4486 11.007 7.00162 11.454 7.00162 12.0056C7.00162 12.5571 7.4486 13.0042 7.99997 13.0042Z" fill="#00BAFF"/>
<path fill-rule="evenodd" clip-rule="evenodd" d="M9.42872 0.883229C8.84006 -0.294408 7.15994 -0.29441 6.57128 0.883227L0.170699 13.6877C-0.360345 14.75 0.411974 16 1.59942 16H14.4006C15.588 16 16.3603 14.75 15.8293 13.6877L9.42872 0.883229ZM8 1.59777L1.59942 14.4022H14.4006L8 1.59777Z" fill="#00BAFF"/>
</svg>
