<svg width="24" height="24" viewBox="0 0 24 24" fill="none" xmlns="http://www.w3.org/2000/svg">
<path d="M6.50002 5.2C7.38368 5.2 8.10002 4.48366 8.10002 3.6C8.10002 2.71634 7.38368 2 6.50002 2C5.61637 2 4.90002 2.71634 4.90002 3.6C4.90002 4.48366 5.61637 5.2 6.50002 5.2Z" fill="#37517E"/>
<path d="M12.1 5.2C12.9837 5.2 13.7 4.48366 13.7 3.6C13.7 2.71634 12.9837 2 12.1 2C11.2163 2 10.5 2.71634 10.5 3.6C10.5 4.48366 11.2163 5.2 12.1 5.2Z" fill="#37517E"/>
<path d="M12.1 22C12.9837 22 13.7 21.2837 13.7 20.4C13.7 19.5164 12.9837 18.8 12.1 18.8C11.2163 18.8 10.5 19.5164 10.5 20.4C10.5 21.2837 11.2163 22 12.1 22Z" fill="#37517E"/>
<path d="M12.1 10.8001C12.9837 10.8001 13.7 10.0838 13.7 9.2001C13.7 8.31644 12.9837 7.6001 12.1 7.6001C11.2163 7.6001 10.5 8.31644 10.5 9.2001C10.5 10.0838 11.2163 10.8001 12.1 10.8001Z" fill="#37517E"/>
<path d="M12.1 16.4C12.9837 16.4 13.7 15.6836 13.7 14.8C13.7 13.9163 12.9837 13.2 12.1 13.2C11.2163 13.2 10.5 13.9163 10.5 14.8C10.5 15.6836 11.2163 16.4 12.1 16.4Z" fill="#37517E"/>
<path d="M19.3 3.6C19.3 4.48366 18.5836 5.2 17.7 5.2C16.8163 5.2 16.1 4.48366 16.1 3.6C16.1 2.71634 16.8163 2 17.7 2C18.5836 2 19.3 2.71634 19.3 3.6Z" fill="#37517E"/>
<path d="M19.3 9.2001C19.3 10.0838 18.5836 10.8001 17.7 10.8001C16.8163 10.8001 16.1 10.0838 16.1 9.2001C16.1 8.31644 16.8163 7.6001 17.7 7.6001C18.5836 7.6001 19.3 8.31644 19.3 9.2001Z" fill="#37517E"/>
<path d="M17.7001 16.4C18.5838 16.4 19.3001 15.6836 19.3001 14.8C19.3001 13.9163 18.5838 13.2 17.7001 13.2C16.8164 13.2 16.1001 13.9163 16.1001 14.8C16.1001 15.6836 16.8164 16.4 17.7001 16.4Z" fill="#37517E"/>
<path d="M8.10002 9.2001C8.10002 10.0838 7.38368 10.8001 6.50002 10.8001C5.61637 10.8001 4.90002 10.0838 4.90002 9.2001C4.90002 8.31644 5.61637 7.6001 6.50002 7.6001C7.38368 7.6001 8.10002 8.31644 8.10002 9.2001Z" fill="#37517E"/>
<path d="M6.4999 16.4C7.38356 16.4 8.0999 15.6836 8.0999 14.8C8.0999 13.9163 7.38356 13.2 6.4999 13.2C5.61625 13.2 4.8999 13.9163 4.8999 14.8C4.8999 15.6836 5.61625 16.4 6.4999 16.4Z" fill="#37517E"/>
</svg>
