<svg width="24" height="24" viewBox="0 0 24 24" fill="none" xmlns="http://www.w3.org/2000/svg">
<path d="M6.53 5.6C7.52411 5.6 8.33 4.79411 8.33 3.8C8.33 2.80589 7.52411 2 6.53 2C5.53588 2 4.73 2.80589 4.73 3.8C4.73 4.79411 5.53588 5.6 6.53 5.6Z" fill="#00BAFF"/>
<path d="M17.47 5.6C18.4641 5.6 19.27 4.79411 19.27 3.8C19.27 2.80589 18.4641 2 17.47 2C16.4759 2 15.67 2.80589 15.67 3.8C15.67 4.79411 16.4759 5.6 17.47 5.6Z" fill="#00BAFF"/>
<path d="M17.47 11.0667C18.4641 11.0667 19.27 10.2608 19.27 9.26667C19.27 8.27256 18.4641 7.46667 17.47 7.46667C16.4759 7.46667 15.67 8.27256 15.67 9.26667C15.67 10.2608 16.4759 11.0667 17.47 11.0667Z" fill="#00BAFF"/>
<path d="M19.27 14.7333C19.27 15.7275 18.4641 16.5333 17.47 16.5333C16.4759 16.5333 15.67 15.7275 15.67 14.7333C15.67 13.7392 16.4759 12.9333 17.47 12.9333C18.4641 12.9333 19.27 13.7392 19.27 14.7333Z" fill="#00BAFF"/>
<path d="M8.33 9.26667C8.33 10.2608 7.52411 11.0667 6.53 11.0667C5.53588 11.0667 4.73 10.2608 4.73 9.26667C4.73 8.27256 5.53588 7.46667 6.53 7.46667C7.52411 7.46667 8.33 8.27256 8.33 9.26667Z" fill="#00BAFF"/>
<path d="M6.53 16.5333C7.52411 16.5333 8.33 15.7275 8.33 14.7333C8.33 13.7392 7.52411 12.9333 6.53 12.9333C5.53588 12.9333 4.73 13.7392 4.73 14.7333C4.73 15.7275 5.53588 16.5333 6.53 16.5333Z" fill="#00BAFF"/>
<path d="M13.8 14.7333C13.8 15.7275 12.9941 16.5333 12 16.5333C11.0059 16.5333 10.2 15.7275 10.2 14.7333C10.2 13.7392 11.0059 12.9333 12 12.9333C12.9941 12.9333 13.8 13.7392 13.8 14.7333Z" fill="#00BAFF"/>
<path d="M12 11.0667C12.9941 11.0667 13.8 10.2608 13.8 9.26667C13.8 8.27256 12.9941 7.46667 12 7.46667C11.0059 7.46667 10.2 8.27256 10.2 9.26667C10.2 10.2608 11.0059 11.0667 12 11.0667Z" fill="#00BAFF"/>
<path d="M13.8 3.8C13.8 4.79411 12.9941 5.6 12 5.6C11.0059 5.6 10.2 4.79411 10.2 3.8C10.2 2.80589 11.0059 2 12 2C12.9941 2 13.8 2.80589 13.8 3.8Z" fill="#00BAFF"/>
<path d="M12 22C12.9941 22 13.8 21.1941 13.8 20.2C13.8 19.2059 12.9941 18.4 12 18.4C11.0059 18.4 10.2 19.2059 10.2 20.2C10.2 21.1941 11.0059 22 12 22Z" fill="#00BAFF"/>
</svg>
