<svg width="16" height="16" viewBox="0 0 16 16" fill="none" xmlns="http://www.w3.org/2000/svg">
<path d="M3.2 2.4C3.86274 2.4 4.4 1.86274 4.4 1.2C4.4 0.537258 3.86274 0 3.2 0C2.53726 0 2 0.537258 2 1.2C2 1.86274 2.53726 2.4 3.2 2.4Z" fill="#37517E"/>
<path d="M8.00005 2.4C8.66279 2.4 9.20005 1.86274 9.20005 1.2C9.20005 0.537258 8.66279 0 8.00005 0C7.33731 0 6.80005 0.537258 6.80005 1.2C6.80005 1.86274 7.33731 2.4 8.00005 2.4Z" fill="#37517E"/>
<path d="M4.4 5.5999C4.4 6.26264 3.86274 6.7999 3.2 6.7999C2.53726 6.7999 2 6.26264 2 5.5999C2 4.93716 2.53726 4.3999 3.2 4.3999C3.86274 4.3999 4.4 4.93716 4.4 5.5999Z" fill="#37517E"/>
<path d="M3.2 11.6C3.86274 11.6 4.4 11.0627 4.4 10.4C4.4 9.73721 3.86274 9.19995 3.2 9.19995C2.53726 9.19995 2 9.73721 2 10.4C2 11.0627 2.53726 11.6 3.2 11.6Z" fill="#37517E"/>
<path d="M14 1.2C14 1.86274 13.4627 2.4 12.8 2.4C12.1372 2.4 11.6 1.86274 11.6 1.2C11.6 0.537258 12.1372 0 12.8 0C13.4627 0 14 0.537258 14 1.2Z" fill="#37517E"/>
<path d="M12.8001 6.7999C13.4628 6.7999 14.0001 6.26264 14.0001 5.5999C14.0001 4.93716 13.4628 4.3999 12.8001 4.3999C12.1374 4.3999 11.6001 4.93716 11.6001 5.5999C11.6001 6.26264 12.1374 6.7999 12.8001 6.7999Z" fill="#37517E"/>
<path d="M14.0001 10.4C14.0001 11.0627 13.4628 11.6 12.8001 11.6C12.1374 11.6 11.6001 11.0627 11.6001 10.4C11.6001 9.73721 12.1374 9.19995 12.8001 9.19995C13.4628 9.19995 14.0001 9.73721 14.0001 10.4Z" fill="#37517E"/>
<path d="M8.00005 6.7999C8.66279 6.7999 9.20005 6.26264 9.20005 5.5999C9.20005 4.93716 8.66279 4.3999 8.00005 4.3999C7.33731 4.3999 6.80005 4.93716 6.80005 5.5999C6.80005 6.26264 7.33731 6.7999 8.00005 6.7999Z" fill="#37517E"/>
<path d="M9.20005 10.4C9.20005 11.0627 8.66279 11.6 8.00005 11.6C7.33731 11.6 6.80005 11.0627 6.80005 10.4C6.80005 9.73721 7.33731 9.19995 8.00005 9.19995C8.66279 9.19995 9.20005 9.73721 9.20005 10.4Z" fill="#37517E"/>
<path d="M8.00005 16.0001C8.66279 16.0001 9.20005 15.4628 9.20005 14.8001C9.20005 14.1374 8.66279 13.6001 8.00005 13.6001C7.33731 13.6001 6.80005 14.1374 6.80005 14.8001C6.80005 15.4628 7.33731 16.0001 8.00005 16.0001Z" fill="#37517E"/>
</svg>
