<svg width="16" height="16" viewBox="0 0 16 16" fill="none" xmlns="http://www.w3.org/2000/svg">
<path d="M14.7386 0H1.19502C0.53112 0 0 0.535565 0 1.13808V14.8619C0 15.5314 0.53112 16 1.19502 16H14.805C15.4689 16 16 15.4644 16 14.8619V1.13808C15.9336 0.535565 15.4025 0 14.7386 0ZM4.71369 13.7238H2.39004V6.0251H4.78008V13.7238H4.71369ZM3.51867 4.95397C2.78838 4.95397 2.12448 4.35146 2.12448 3.54812C2.12448 2.81172 2.72199 2.14226 3.51867 2.14226C4.24896 2.14226 4.91286 2.74477 4.91286 3.54812C4.91286 4.35146 4.31535 4.95397 3.51867 4.95397ZM13.61 13.7238H11.2199V9.9749C11.2199 9.1046 11.2199 7.96653 10.0249 7.96653C8.76349 7.96653 8.6307 8.90377 8.6307 9.90795V13.7238H6.24066V6.0251H8.49792V7.09623C8.82988 6.49372 9.56017 5.89121 10.7552 5.89121C13.1452 5.89121 13.61 7.49791 13.61 9.57322V13.7238Z" fill="#00BAFF"/>
</svg>
