<svg width="16" height="16" viewBox="0 0 16 16" fill="none" xmlns="http://www.w3.org/2000/svg">
<path d="M16 3.04623C15.4015 3.31159 14.7665 3.48565 14.1164 3.5626C14.8068 3.1543 15.3241 2.50764 15.5709 1.74442C14.9273 2.12573 14.2242 2.39617 13.4909 2.54442C12.5717 1.55764 11.1421 1.23407 9.88758 1.72883C8.63302 2.22358 7.80914 3.43582 7.81091 4.78442C7.81271 5.02893 7.83951 5.27263 7.89091 5.51169C5.25294 5.37944 2.79485 4.13454 1.12727 2.08623C0.834102 2.58683 0.680878 3.15702 0.683636 3.73714C0.682908 4.83202 1.22853 5.85507 2.13818 6.46442C1.61561 6.45106 1.10406 6.31131 0.647273 6.05714V6.11532C0.646392 7.67643 1.74358 9.02285 3.27273 9.33714C2.99334 9.4159 2.7048 9.45747 2.41455 9.46078C2.20713 9.46047 2.00019 9.44099 1.79636 9.4026C2.23598 10.725 3.46476 11.624 4.85818 11.6426C3.70462 12.5749 2.26862 13.0877 0.785455 13.0971C0.522605 13.0903 0.260361 13.0684 0 13.0317C1.50358 13.9887 3.25044 14.4936 5.03273 14.4862C7.51032 14.5018 9.89125 13.5259 11.6453 11.776C13.3993 10.0261 14.3807 7.64749 14.3709 5.16987C14.3709 5.02442 14.3709 4.88623 14.3709 4.74078C15.0094 4.27615 15.5609 3.7025 16 3.04623Z" fill="#00BAFF"/>
</svg>
