<svg width="24" height="24" viewBox="0 0 24 24" fill="none" xmlns="http://www.w3.org/2000/svg">
<path d="M22 5.93279C21.2519 6.26449 20.4582 6.48206 19.6455 6.57825C20.5085 6.06787 21.1552 5.25955 21.4636 4.30552C20.6591 4.78217 19.7802 5.12021 18.8636 5.30552C17.7146 4.07205 15.9277 3.66759 14.3595 4.28603C12.7913 4.90448 11.7614 6.41978 11.7636 8.10552C11.7659 8.41117 11.7994 8.71578 11.8636 9.01461C8.56618 8.84931 5.49356 7.29317 3.40909 4.73279C3.04263 5.35854 2.8511 6.07128 2.85455 6.79643C2.85364 8.16503 3.53567 9.44384 4.67273 10.2055C4.01952 10.1888 3.38007 10.0141 2.80909 9.69643V9.76916C2.80799 11.7205 4.17948 13.4036 6.09091 13.7964C5.74168 13.8949 5.381 13.9468 5.01818 13.951C4.75892 13.9506 4.50024 13.9262 4.24545 13.8782C4.79497 15.5312 6.33095 16.6549 8.07273 16.6782C6.63077 17.8436 4.83577 18.4847 2.98182 18.4964C2.65326 18.4878 2.32545 18.4605 2 18.4146C3.87948 19.6108 6.06306 20.2419 8.29091 20.2328C11.3879 20.2522 14.3641 19.0324 16.5566 16.845C18.7491 14.6577 19.9758 11.6844 19.9636 8.58734C19.9636 8.40552 19.9636 8.23279 19.9636 8.05097C20.7617 7.47018 21.4511 6.75313 22 5.93279Z" fill="#37517E"/>
</svg>
