<svg width="24" height="24" viewBox="0 0 24 24" fill="none" xmlns="http://www.w3.org/2000/svg">
<path fill-rule="evenodd" clip-rule="evenodd" d="M4.12283 9.83686C2.87218 9.28122 2 8.02818 2 6.57143C2 4.59898 3.59898 3 5.57143 3C5.60212 3 5.63274 3.00039 5.66327 3.00116C6.30483 2.3823 7.17925 2 8.14286 2C9.15237 2 10.0641 2.41885 10.7136 3.09224C10.8656 2.93469 11.0339 2.78946 11.2179 2.65919C11.8014 2.2441 12.5151 2 13.2857 2C14.4008 2 15.3954 2.51115 16.0496 3.30959C16.1978 3.2938 16.348 3.28571 16.5 3.28571C16.6814 3.28571 16.8606 3.29724 17.0366 3.31967C17.4541 3.12725 17.916 3.01463 18.4026 3.00134C18.435 3.00045 18.4674 3 18.5 3C20.433 3 22 4.567 22 6.5C22 8.3137 20.6205 9.80518 18.8534 9.98238L16.9006 22H6.09934L4.12283 9.83686ZM6.87604 4.64132C7.16383 4.25043 7.62401 4 8.14286 4C8.99826 4 9.69402 4.68347 9.71385 5.5341C9.7068 6.15315 9.86071 6.78212 10.1927 7.35714L11.9247 6.35714C11.7816 6.10921 11.714 5.8385 11.7143 5.57143C11.7143 5.50638 11.7182 5.44225 11.7259 5.37928C11.7504 5.182 11.812 4.99032 11.9078 4.81531C12.0246 4.60304 12.1889 4.42065 12.3865 4.28253C12.423 4.25717 12.4607 4.23294 12.4998 4.21033C12.731 4.07656 12.9994 4 13.2857 4C13.8987 4 14.4315 4.35078 14.6911 4.86713L15.1169 5.59971C15.0406 5.88698 15 6.18874 15 6.5H17C17 5.69339 17.6367 5.03547 18.4349 5.00137C18.4565 5.00046 18.4782 5 18.5 5C19.3284 5 20 5.67157 20 6.5C20 7.32843 19.3284 8 18.5 8C13.9722 8 9.44386 8 4.91586 8C4.37532 7.75154 4 7.20531 4 6.57143C4 5.70355 4.70355 5 5.57143 5C5.67711 5 5.7794 5.01029 5.87767 5.02963L6.5 5.15209L6.87604 4.64132ZM7.80057 20L6.17558 10H8.07983L8.91316 20H7.80057ZM10.9201 20H12.0798L12.9132 10H10.0868L10.9201 20ZM15.1993 20H14.0868L14.9201 10H16.8243L15.1993 20Z" fill="#00BAFF"/>
</svg>
