<svg width="16" height="16" viewBox="0 0 16 16" fill="none" xmlns="http://www.w3.org/2000/svg">
<path d="M9.04584 0.30312C8.70773 0.235451 8.358 0.199951 8 0.199951C5.07288 0.199951 2.69998 2.57284 2.69998 5.49995V8.84589L1.31836 12.3H14.6816L13.3 8.84589V6.78401C12.8924 6.92401 12.4551 7 12 7C11.8991 7 11.799 6.99626 11.7 6.98892V9.15402L12.3184 10.7H3.68161L4.29999 9.15402V5.49995C4.29999 3.4565 5.95654 1.79995 8 1.79995C8.06094 1.79995 8.12155 1.80143 8.18176 1.80434C8.35834 1.23991 8.65659 0.729258 9.04584 0.30312Z" fill="#37517E"/>
<path d="M11.1104 1.20822C10.6154 1.45443 10.2369 1.89972 10.0797 2.4393C10.0278 2.6172 10 2.80536 10 3C10 3.98956 10.7187 4.81126 11.6625 4.97165C11.7722 4.99029 11.885 5 12 5C12.4598 5 12.8833 4.84485 13.2211 4.58405C13.6949 4.21831 14 3.64479 14 3C14 1.89543 13.1046 1 12 1C11.6805 1 11.3784 1.07494 11.1104 1.20822Z" fill="#37517E"/>
<path d="M10 14C10 15.1046 9.10458 16 8 16C6.89542 16 6 15.1046 6 14H10Z" fill="#37517E"/>
</svg>
