<svg width="24" height="24" viewBox="0 0 24 24" fill="none" xmlns="http://www.w3.org/2000/svg">
<path d="M12 2C12.6361 2 13.2525 2.08487 13.8383 2.2439C13.3755 2.76393 13.0219 3.38321 12.8132 4.06581C12.5486 4.02251 12.2769 4 12 4C9.23854 4 6.99996 6.23857 6.99996 9V13.7375L6.39812 15.5H17.6018L17 13.7375V10.3749C17.1644 10.3916 17.3312 10.4001 17.5 10.4001C18.0232 10.4001 18.5272 10.3181 19 10.1663V13.4054L20.3981 17.5H3.60181L4.99996 13.4054V9C4.99996 5.134 8.13397 2 12 2Z" fill="#37517E"/>
<path d="M18.8596 7.59833C19.546 7.15267 20 6.37935 20 5.5C20 4.11929 18.8807 3 17.5 3C16.3969 3 15.4607 3.71444 15.1288 4.70584C15.0933 4.81183 15.0647 4.92099 15.0436 5.03278C15.015 5.18414 15 5.34032 15 5.5C15 6.66806 15.8011 7.64902 16.8838 7.92348C16.8838 7.92344 16.8838 7.92352 16.8838 7.92348C17.0809 7.97344 17.2873 8.0001 17.5 8.0001C18.0014 8.0001 18.4682 7.85243 18.8596 7.59833C18.8596 7.59835 18.8596 7.5983 18.8596 7.59833Z" fill="#37517E"/>
<path d="M12.0001 22.0001C10.6746 22.0001 9.6001 20.9256 9.6001 19.6001H14.4001C14.4001 20.9256 13.3256 22.0001 12.0001 22.0001Z" fill="#37517E"/>
</svg>
