<svg width="24" height="24" viewBox="0 0 24 24" fill="none" xmlns="http://www.w3.org/2000/svg">
<path d="M13 9.00008L13 14.0001L11 14.0001L11 9.00008L13 9.00008Z" fill="#00BAFF"/>
<path d="M12 18.2001C12.6627 18.2001 13.2 17.6629 13.2 17.0001C13.2 16.3374 12.6627 15.8001 12 15.8001C11.3372 15.8001 10.8 16.3374 10.8 17.0001C10.8 17.6629 11.3372 18.2001 12 18.2001Z" fill="#00BAFF"/>
<path fill-rule="evenodd" clip-rule="evenodd" d="M13.7389 3.06056C12.9723 1.71126 11.0277 1.71126 10.2611 3.06057L1.19774 19.0121C0.440193 20.3453 1.40319 22.0001 2.93666 22.0001H21.0634C22.5968 22.0001 23.5598 20.3453 22.8023 19.0121L13.7389 3.06056ZM12 4.04858L2.93666 20.0001H21.0634L12 4.04858Z" fill="#00BAFF"/>
</svg>
