<svg width="24" height="24" viewBox="0 0 24 24" fill="none" xmlns="http://www.w3.org/2000/svg">
<path fill-rule="evenodd" clip-rule="evenodd" d="M13.4949 2.67197C12.6993 1.77601 11.3008 1.77601 10.5052 2.67197L10.1612 3.05942C9.6804 3.60087 8.94492 3.84009 8.23803 3.68494L7.7322 3.57392C6.56248 3.31719 5.43109 4.14005 5.31353 5.33302L5.2627 5.8489C5.19166 6.56983 4.73711 7.19612 4.07413 7.48653L3.59971 7.69434C2.50264 8.17491 2.07049 9.50632 2.67586 10.5406L2.93765 10.9879C3.30349 11.6129 3.30349 12.3871 2.93765 13.0121L2.67586 13.4594C2.07049 14.4937 2.50264 15.8251 3.59971 16.3057L4.07413 16.5135C4.73711 16.8039 5.19166 17.4302 5.2627 18.1511L5.31353 18.667C5.43109 19.86 6.56248 20.6828 7.7322 20.4261L8.23803 20.3151C8.94492 20.1599 9.6804 20.3991 10.1612 20.9406L10.5052 21.328C11.3008 22.224 12.6993 22.224 13.4949 21.328L13.8389 20.9406C14.3197 20.3991 15.0552 20.1599 15.762 20.3151L16.2679 20.4261C17.4376 20.6828 18.569 19.86 18.6865 18.667L18.7374 18.1511C18.8084 17.4302 19.263 16.8039 19.926 16.5135L20.4004 16.3057C21.4974 15.8251 21.9296 14.4937 21.3242 13.4594L21.0624 13.0121C20.6966 12.3871 20.6966 11.6129 21.0624 10.9879L21.3242 10.5406C21.9296 9.50632 21.4974 8.17491 20.4004 7.69434L19.926 7.48653C19.263 7.19612 18.8084 6.56983 18.7374 5.8489L18.6865 5.33302C18.569 4.14005 17.4376 3.31719 16.2679 3.57392L15.762 3.68494C15.0552 3.84009 14.3197 3.60087 13.8389 3.05942L13.4949 2.67197ZM8.70721 10.7916L7.29296 12.2073L11 15.9183L17.7071 9.20411L16.2929 7.78844L11 13.0869L8.70721 10.7916Z" fill="#00BAFF"/>
</svg>
