<svg width="16" height="16" viewBox="0 0 16 16" fill="none" xmlns="http://www.w3.org/2000/svg">
<path d="M6.06567 6.93723L4.9343 8.06861L7.49998 10.6343L11.5657 6.5686L10.4343 5.43723L7.49998 8.37154L6.06567 6.93723Z" fill="#37517E"/>
<path fill-rule="evenodd" clip-rule="evenodd" d="M6.61291 0.639899C7.33605 -0.2133 8.66395 -0.2133 9.38708 0.639899C9.83052 1.16309 10.5392 1.39327 11.2056 1.23055C12.2923 0.965184 13.3666 1.74542 13.4499 2.86056C13.501 3.54438 13.939 4.14699 14.5738 4.40689C15.609 4.83073 16.0194 6.09317 15.4311 7.04431C15.0704 7.62756 15.0704 8.37243 15.4311 8.95569C16.0194 9.90683 15.609 11.1693 14.5738 11.5931C13.939 11.853 13.501 12.4556 13.4499 13.1394C13.3666 14.2546 12.2923 15.0348 11.2056 14.7695C10.5392 14.6067 9.83052 14.8369 9.38708 15.3601C8.66395 16.2133 7.33605 16.2133 6.61291 15.3601C6.16948 14.8369 5.4608 14.6067 4.79442 14.7695C3.70771 15.0348 2.63341 14.2546 2.55007 13.1394C2.49896 12.4556 2.06097 11.853 1.42617 11.5931C0.390972 11.1693 -0.0193729 9.90683 0.568907 8.95569C0.929648 8.37243 0.929648 7.62756 0.568906 7.04431C-0.0193729 6.09317 0.390973 4.83073 1.42617 4.40689C2.06097 4.14699 2.49896 3.54438 2.55007 2.86056C2.63341 1.74542 3.70771 0.965184 4.79442 1.23055C5.4608 1.39327 6.16948 1.16309 6.61291 0.639899ZM4.41473 2.78427C5.67004 3.0908 6.99836 2.65936 7.83368 1.6738C7.87365 1.62663 7.92962 1.59941 8 1.59941C8.07037 1.59941 8.12635 1.62663 8.16632 1.6738C9.00164 2.65936 10.33 3.0908 11.5853 2.78427C11.6453 2.7696 11.7066 2.78046 11.7636 2.82181C11.8205 2.86316 11.8498 2.91808 11.8544 2.97972C11.9507 4.26787 12.7716 5.39739 13.9674 5.88697C14.0246 5.9104 14.0678 5.9552 14.0896 6.02211C14.1113 6.08902 14.1027 6.15064 14.0702 6.20322C13.3907 7.30192 13.3907 8.69808 14.0702 9.79678C14.1027 9.84936 14.1113 9.91098 14.0896 9.97789C14.0678 10.0448 14.0246 10.0896 13.9674 10.113C12.7716 10.6026 11.9507 11.7321 11.8544 13.0203C11.8498 13.0819 11.8205 13.1368 11.7636 13.1782C11.7066 13.2195 11.6453 13.2304 11.5853 13.2157C10.33 12.9092 9.00164 13.3406 8.16632 14.3262C8.12635 14.3734 8.07037 14.4006 8 14.4006C7.92962 14.4006 7.87365 14.3734 7.83368 14.3262C6.99836 13.3406 5.67004 12.9092 4.41473 13.2157C4.35466 13.2304 4.29337 13.2195 4.23644 13.1782C4.1795 13.1368 4.15023 13.0819 4.14562 13.0203C4.04935 11.7321 3.2284 10.6026 2.0326 10.113C1.97537 10.0896 1.93217 10.0448 1.91043 9.97789C1.88868 9.91098 1.89728 9.84936 1.9298 9.79678C2.60935 8.69808 2.60935 7.30192 1.9298 6.20322C1.89728 6.15064 1.88868 6.08902 1.91043 6.02211C1.93217 5.9552 1.97537 5.9104 2.0326 5.88697C3.2284 5.39739 4.04935 4.26787 4.14562 2.97972C4.15023 2.91808 4.1795 2.86316 4.23644 2.82181C4.29337 2.78046 4.35466 2.7696 4.41473 2.78427Z" fill="#37517E"/>
</svg>
