<svg width="24" height="24" viewBox="0 0 24 24" fill="none" xmlns="http://www.w3.org/2000/svg">
<path fill-rule="evenodd" clip-rule="evenodd" d="M12 4.65707C9.68527 2.41822 6.00604 2.44804 3.72764 4.7465C1.42412 7.07031 1.42412 10.8343 3.72764 13.1582L3.73149 13.162L12 21.4127L20.2685 13.162L20.2724 13.1582C22.5759 10.8344 22.5759 7.07032 20.2724 4.74651C17.994 2.44804 14.3147 2.41823 12 4.65707ZM10.6701 6.1545C9.14425 4.61517 6.67394 4.61516 5.14804 6.1545C3.61793 7.69809 3.61732 10.204 5.14621 11.7483L12 18.5873L18.852 11.7502L18.8537 11.7484C20.3827 10.204 20.3821 7.69811 18.852 6.15451C17.3261 4.61517 14.8558 4.61517 13.3299 6.15451L12 7.49608L10.6701 6.1545Z" fill="#00BAFF"/>
</svg>
