<svg width="16" height="16" viewBox="0 0 16 16" fill="none" xmlns="http://www.w3.org/2000/svg">
<path fill-rule="evenodd" clip-rule="evenodd" d="M8.00002 2.28216C9.8093 0.559034 12.6719 0.586393 14.4477 2.36424C16.2508 4.16937 16.2508 7.09569 14.4477 8.90082L14.4443 8.90421L7.95463 15.3238L1.55233 8.90081V8.90081C-0.250518 7.09566 -0.250676 4.16928 1.55233 2.36423C3.32816 0.586386 6.19074 0.55903 8.00002 2.28216ZM6.95205 3.49496C5.77345 2.31503 3.86294 2.31503 2.68434 3.49496C1.50524 4.6754 1.50524 6.58964 2.68434 7.77008L7.96258 13.0654L13.3157 7.77009L13.3173 7.76851C14.4948 6.58794 14.4943 4.67488 13.3157 3.49497C12.1371 2.31503 10.2266 2.31503 9.04798 3.49497L8.00002 4.54412L6.95205 3.49496Z" fill="#00BAFF"/>
</svg>
