<svg width="16" height="16" viewBox="0 0 16 16" fill="none" xmlns="http://www.w3.org/2000/svg">
<path fill-rule="evenodd" clip-rule="evenodd" d="M15.8 1.70001H0.199951V14.3H15.8V1.70001ZM1.79995 5.20001V3.30001H14.2V5.20001H10.5868C10.5425 5.09772 10.4876 4.99586 10.4201 4.89564C9.99485 4.26424 9.23121 3.70001 8.00002 3.70001C6.76892 3.70001 6.00528 4.26417 5.58 4.89552C5.51246 4.99578 5.45752 5.09768 5.41327 5.20001H1.79995ZM5.35629 6.80001H1.79995V9.20001H5.35629C5.40289 9.00661 5.45766 8.82652 5.50374 8.67499L5.52029 8.62052C5.58508 8.40658 5.62502 8.19252 5.62502 8.00001C5.62502 7.8075 5.58508 7.59345 5.52029 7.3795L5.50374 7.32503C5.45766 7.17351 5.40289 6.99341 5.35629 6.80001ZM5.41327 10.8H1.79995V12.7H14.2V10.8H10.5868C10.5425 10.9023 10.4876 11.0042 10.4201 11.1044C9.99485 11.7358 9.23121 12.3 8.00002 12.3C6.76892 12.3 6.00528 11.7359 5.58 11.1045C5.51246 11.0042 5.45752 10.9023 5.41327 10.8ZM10.6437 9.20001H14.2V6.80001H10.6437C10.5971 6.99339 10.5424 7.17346 10.4963 7.32497L10.4798 7.37941C10.415 7.59338 10.375 7.80747 10.375 8.00001C10.375 8.19255 10.415 8.40664 10.4798 8.62061L10.4963 8.67505C10.5424 8.82655 10.5972 9.00664 10.6437 9.20001ZM6.90701 5.78941C6.99149 5.664 7.1044 5.54826 7.26121 5.46168C7.41621 5.3761 7.64821 5.30001 8.00002 5.30001C8.35185 5.30001 8.58386 5.37611 8.73885 5.46169C8.89566 5.54828 9.00857 5.66403 9.09303 5.78944C9.13018 5.84459 9.16254 5.93381 9.14201 6.13225C9.11954 6.34946 9.04734 6.58914 8.94846 6.91564C8.85473 7.22511 8.77502 7.60179 8.77502 8.00001C8.77502 8.39824 8.85473 8.77491 8.94846 9.08438C9.04734 9.41089 9.11954 9.65056 9.14201 9.86777C9.16254 10.0662 9.13018 10.1554 9.09303 10.2106C9.00857 10.336 8.89566 10.4517 8.73885 10.5383C8.58386 10.6239 8.35185 10.7 8.00002 10.7C7.64821 10.7 7.41621 10.6239 7.26121 10.5383C7.1044 10.4518 6.99149 10.336 6.90701 10.2106C6.86986 10.1555 6.83749 10.0662 6.85802 9.86778C6.8805 9.65054 6.9527 9.41084 7.0516 9.08429C7.14532 8.77484 7.22502 8.3982 7.22502 8.00001C7.22502 7.60182 7.14532 7.22518 7.0516 6.91573C6.9527 6.58919 6.88049 6.34948 6.85802 6.13225C6.83749 5.93378 6.86986 5.84456 6.90701 5.78941Z" fill="#00BAFF"/>
</svg>
