<svg width="24" height="24" viewBox="0 0 24 24" fill="none" xmlns="http://www.w3.org/2000/svg">
<path d="M15.5001 2C14.0511 2 12.762 2.68487 11.939 3.74857C13.8926 4.91913 15.2002 7.05685 15.2002 9.49999C15.2002 10.0073 15.1439 10.5014 15.037 10.9765C15.1893 10.992 15.3437 11 15.5001 11C17.9854 11 20.0001 8.98528 20.0001 6.5C20.0001 4.01472 17.9854 2 15.5001 2Z" fill="#37517E"/>
<path d="M24.0001 19H18.9146C18.5689 17.8571 17.8673 16.6987 16.5896 15.8893C15.7194 15.3381 14.5635 14.7797 13.0921 14.3791C13.5104 13.9852 13.8781 13.5381 14.1844 13.0486C14.6018 13.0171 15.0402 13 15.5001 13C18.9028 13 21.1268 13.9336 22.4123 14.7478C23.5928 15.4956 24.0001 16.8088 24.0001 17.9482V19Z" fill="#37517E"/>
<path d="M4 9.5C4 7.01472 6.01472 5 8.5 5C10.9853 5 13 7.01472 13 9.5C13 11.9853 10.9853 14 8.5 14C6.01472 14 4 11.9853 4 9.5Z" fill="#37517E"/>
<path d="M17 20.9482V22H0V20.9482C0 19.8088 0.407265 18.4956 1.58779 17.7478C2.87325 16.9336 5.09725 16 8.5 16C11.9027 16 14.1268 16.9336 15.4122 17.7478C16.5927 18.4956 17 19.8088 17 20.9482Z" fill="#37517E"/>
</svg>
