<svg width="16" height="16" viewBox="0 0 16 16" fill="none" xmlns="http://www.w3.org/2000/svg">
<path d="M9.49997 0.199951C8.21739 0.199951 7.1057 0.931647 6.55957 2.00039C7.15722 2.00814 7.72676 2.1324 8.24654 2.3515C8.55732 2.01249 9.00382 1.79995 9.49997 1.79995C10.4389 1.79995 11.2 2.56107 11.2 3.49995C11.2 3.99608 10.9874 4.44258 10.6485 4.75335C10.8676 5.27312 10.9918 5.84267 10.9996 6.44031C12.0683 5.89416 12.8 4.7825 12.8 3.49995C12.8 1.67741 11.3225 0.199951 9.49997 0.199951Z" fill="#00BAFF"/>
<path d="M13.0774 10.7188C12.177 10.2589 10.9461 9.81261 9.5592 9.80022C10.0164 9.37621 10.3853 8.85837 10.6354 8.27732C11.8982 8.44838 12.9884 8.87673 13.8052 9.29399C15.192 10.0024 15.8001 11.4685 15.8001 12.8519V13H14.2001V12.8519C14.2001 11.8858 13.7828 11.0792 13.0774 10.7188Z" fill="#00BAFF"/>
<path fill-rule="evenodd" clip-rule="evenodd" d="M3.19998 6.49995C3.19998 4.67741 4.67744 3.19995 6.49998 3.19995C8.32252 3.19995 9.79998 4.67741 9.79998 6.49995C9.79998 8.32249 8.32252 9.79995 6.49998 9.79995C4.67744 9.79995 3.19998 8.32249 3.19998 6.49995ZM6.49998 4.79995C5.56109 4.79995 4.79998 5.56107 4.79998 6.49995C4.79998 7.43884 5.56109 8.19995 6.49998 8.19995C7.43886 8.19995 8.19998 7.43884 8.19998 6.49995C8.19998 5.56107 7.43886 4.79995 6.49998 4.79995Z" fill="#00BAFF"/>
<path d="M10.8053 12.294C9.75248 11.7562 8.24548 11.2 6.50007 11.2C4.75467 11.2 3.24767 11.7562 2.19489 12.294C0.80814 13.0024 0.200073 14.4685 0.200073 15.8519V16H1.80007V15.8519C1.80007 14.8858 2.2173 14.0792 2.92277 13.7188C3.83593 13.2524 5.08908 12.8 6.50007 12.8C7.91107 12.8 9.16421 13.2524 10.0774 13.7188C10.7829 14.0792 11.2001 14.8858 11.2001 15.8519V16H12.8001V15.8519C12.8001 14.4685 12.192 13.0024 10.8053 12.294Z" fill="#00BAFF"/>
</svg>
