<svg width="24" height="24" viewBox="0 0 24 24" fill="none" xmlns="http://www.w3.org/2000/svg">
<g clip-path="url(#clip0)">
<path fill-rule="evenodd" clip-rule="evenodd" d="M22 20C23.1046 20 24 19.1046 24 18L24 6C24 4.89543 23.1046 4 22 4H2C0.895431 4 0 4.89543 0 6V8.03822C1.55755 8.27873 2.75 9.62511 2.75 11.25C2.75 12.8749 1.55755 14.2213 0 14.4618V18C0 19.1046 0.895432 20 2 20L22 20ZM5 10.5C5 9.67157 5.67157 9 6.5 9H7.5C8.32843 9 9 9.67157 9 10.5C9 11.3284 8.32843 12 7.5 12H6.5C5.67157 12 5 11.3284 5 10.5ZM5 16H17V14H5V16Z" fill="#00B9FF"/>
</g>
<defs>
<clipPath id="clip0">
<rect width="24" height="24" fill="white"/>
</clipPath>
</defs>
</svg>
