<svg width="16" height="16" viewBox="0 0 16 16" fill="none" xmlns="http://www.w3.org/2000/svg">
<path fill-rule="evenodd" clip-rule="evenodd" d="M16 13C16 13.5523 15.5523 14 15 14L1 14C0.447716 14 0 13.5523 0 13V9.94999C1.14112 9.71836 2 8.70948 2 7.5C2 6.29052 1.14112 5.28164 0 5.05001V3C0 2.44772 0.447717 2 1 2H15C15.5523 2 16 2.44772 16 3L16 13ZM5 6C4.44772 6 4 6.44772 4 7C4 7.55229 4.44772 8 5 8H6C6.55228 8 7 7.55229 7 7C7 6.44772 6.55228 6 6 6H5ZM11 10.8H4V9.19995H11V10.8Z" fill="#00B9FF"/>
</svg>
