<svg width="16" height="16" viewBox="0 0 16 16" fill="none" xmlns="http://www.w3.org/2000/svg">
<path fill-rule="evenodd" clip-rule="evenodd" d="M15 14C15.5523 14 16 13.5523 16 13L16 3C16 2.44772 15.5523 2 15 2H1C0.447716 2 0 2.44771 0 3V13C0 13.5523 0.447715 14 1 14L15 14ZM14.4 12.4V3.6L1.6 3.6L1.6 5.07246C1.9734 5.16445 2.31378 5.34033 2.6 5.57898C3.15 6.03757 3.5 6.72791 3.5 7.5C3.5 8.27209 3.15 8.96243 2.6 9.42102C2.31378 9.65967 1.9734 9.83555 1.6 9.92753L1.6 12.4L14.4 12.4ZM6 6C5.44772 6 5 6.44772 5 7C5 7.55229 5.44772 8 6 8H7C7.55228 8 8 7.55229 8 7C8 6.44772 7.55228 6 7 6H6ZM12 10.8H5V9.2H12V10.8Z" fill="#00B9FF"/>
</svg>
