<svg width="24" height="24" viewBox="0 0 24 24" fill="none" xmlns="http://www.w3.org/2000/svg">
<path d="M7.40005 11.5999C8.2837 11.5999 9.00005 10.8836 9.00005 9.9999C9.00005 9.11625 8.2837 8.3999 7.40005 8.3999C6.51639 8.3999 5.80005 9.11625 5.80005 9.9999C5.80005 10.8836 6.51639 11.5999 7.40005 11.5999Z" fill="#00BAFF"/>
<path d="M12 11.5999C12.8836 11.5999 13.6 10.8836 13.6 9.9999C13.6 9.11625 12.8836 8.3999 12 8.3999C11.1163 8.3999 10.4 9.11625 10.4 9.9999C10.4 10.8836 11.1163 11.5999 12 11.5999Z" fill="#00BAFF"/>
<path d="M16.6 11.5999C17.4837 11.5999 18.2 10.8836 18.2 9.9999C18.2 9.11625 17.4837 8.3999 16.6 8.3999C15.7164 8.3999 15 9.11625 15 9.9999C15 10.8836 15.7164 11.5999 16.6 11.5999Z" fill="#00BAFF"/>
<path fill-rule="evenodd" clip-rule="evenodd" d="M5 2C3.34315 2 2 3.34315 2 5V15C2 16.6569 3.34315 18 5 18H7V22L14.2361 18H19C20.6569 18 22 16.6569 22 15V5C22 3.34315 20.6569 2 19 2H5ZM4 5C4 4.44772 4.44772 4 5 4H19C19.5523 4 20 4.44772 20 5V15C20 15.5523 19.5523 16 19 16H13.7639L9 18.7639V16H5C4.44772 16 4 15.5523 4 15V5Z" fill="#00BAFF"/>
</svg>
