<svg width="24" height="24" viewBox="0 0 24 24" fill="none" xmlns="http://www.w3.org/2000/svg">
<path d="M19.4185 15C18.2317 17.9318 15.3574 20 12 20C7.58172 20 4 16.4183 4 12C4 7.58172 7.58172 4 12 4C14.7141 4 17.1125 5.35153 18.5589 7.41828L15.2589 6.53404L14.7412 8.4659L21.1712 10.1888L21.4898 9H21.5422C21.5366 8.98221 21.531 8.96444 21.5253 8.9467C21.5215 8.9347 21.5176 8.92272 21.5137 8.91075L22.8942 3.75879L20.9623 3.24115L20.1634 6.22284C18.3518 3.66763 15.3706 2 12 2C6.47715 2 2 6.47715 2 12C2 17.5228 6.47715 22 12 22C16.4776 22 20.2679 19.0571 21.5422 15H19.4185Z" fill="#00BAFF"/>
<path d="M12 6.99997L12 12.4457L15.53 14.652L14.47 16.348L10 13.5542L10 6.99997L12 6.99997Z" fill="#00BAFF"/>
</svg>
