<svg width="24" height="24" viewBox="0 0 24 24" fill="none" xmlns="http://www.w3.org/2000/svg">
<path fill-rule="evenodd" clip-rule="evenodd" d="M15.574 17.464C17.9279 16.0325 19 14.1162 19 12.3456V6.73499C16.5692 6.6523 14.1867 5.96547 12.2649 4.7291L12.2305 4.70698L12.179 4.67076C12.1185 4.62823 12.0545 4.5833 11.9885 4.5365C10.013 5.89461 7.51384 6.62451 5 6.7133V12.3456C5 13.7156 5.63739 15.1483 6.98205 16.3856C7.43278 16.7803 7.90992 17.1447 8.43562 17.4699C8.43653 17.4704 8.43744 17.471 8.43835 17.4716L11.9906 19.6508L15.574 17.464ZM11.9881 22L11.8927 21.9372L7.38675 19.1728C6.74305 18.7749 6.17086 18.3351 5.64636 17.8743C3.95364 16.3246 3 14.377 3 12.3456V4.63874C3.50066 4.70157 3.97748 4.72251 4.47815 4.72251C4.65249 4.72251 4.82651 4.71896 5 4.7119C7.3886 4.6147 9.67575 3.85263 11.3205 2.5445L11.8927 2.08377L11.9881 2L12.0834 2.08377L12.6556 2.5445C12.8702 2.71204 13.1086 2.87958 13.347 3.04712C14.9153 4.05609 16.9134 4.65159 19 4.73367C19.1655 4.74018 19.3316 4.74346 19.498 4.74346C20.0225 4.72251 20.4993 4.70157 21 4.63874V12.3456C21 14.9843 19.4026 17.4764 16.6132 19.1728L12.0834 21.9372L11.9881 22Z" fill="#00B9FF"/>
</svg>
