<svg width="16" height="16" viewBox="0 0 16 16" fill="none" xmlns="http://www.w3.org/2000/svg">
<path fill-rule="evenodd" clip-rule="evenodd" d="M11.5881 13.7382C13.7577 12.3812 15.0001 10.3874 15.0001 8.27644V2.11099C14.6107 2.16126 14.2398 2.17801 13.8318 2.19476C13.6875 2.19476 13.5435 2.1915 13.4001 2.18503C11.7933 2.11254 10.2564 1.6375 9.04774 0.837696C8.86232 0.703668 8.67688 0.56963 8.50999 0.435602L8.06496 0.0670157L7.99079 0L7.91662 0.0670157L7.47158 0.435602C6.20252 1.47376 4.44177 2.082 2.60006 2.16756C2.45041 2.17451 2.30023 2.17801 2.14973 2.17801C1.76033 2.17801 1.38946 2.16126 1.00006 2.11099V8.27644C1.00006 9.90157 1.74178 11.4597 3.05834 12.6995C3.46629 13.0681 3.91132 13.4199 4.41198 13.7382L7.91662 15.9497L7.99079 16L8.06496 15.9497L11.5881 13.7382ZM7.99284 14.1059L10.7396 12.3817C12.5545 11.2465 13.4001 9.7148 13.4001 8.27644V3.78641C11.5086 3.71321 9.65799 3.1601 8.16479 2.17201L8.13723 2.15378L8.09613 2.12406C8.06216 2.09951 8.02677 2.07394 7.99035 2.0475C6.46229 3.11349 4.53893 3.69146 2.60006 3.769V8.27644C2.60006 9.38883 3.10324 10.5389 4.14352 11.5236C4.49304 11.8384 4.86227 12.1283 5.26829 12.3866C5.26901 12.3871 5.26973 12.3876 5.27045 12.388L7.99284 14.1059Z" fill="#00B9FF"/>
</svg>
