<svg width="16" height="16" viewBox="0 0 16 16" fill="none" xmlns="http://www.w3.org/2000/svg">
<path d="M8.8 12L8.8 7.6L7.2 7.60001L7.2 12L8.8 12Z" fill="#00BAFF"/>
<path d="M8 4C8.55229 4 9 4.44771 9 5C9 5.55229 8.55229 6 8 6C7.44772 6 7 5.55229 7 5C7 4.44771 7.44772 4 8 4Z" fill="#00BAFF"/>
<path fill-rule="evenodd" clip-rule="evenodd" d="M8 0C12.4183 0 16 3.58172 16 8C16 12.4183 12.4183 16 8 16C3.58172 16 0 12.4183 0 8C0 3.58172 3.58172 0 8 0ZM8 1.6C11.5346 1.6 14.4 4.46538 14.4 8C14.4 11.5346 11.5346 14.4 8 14.4C4.46538 14.4 1.6 11.5346 1.6 8C1.6 4.46538 4.46538 1.6 8 1.6Z" fill="#00BAFF"/>
</svg>
