<svg width="24" height="24" viewBox="0 0 24 24" fill="none" xmlns="http://www.w3.org/2000/svg">
<path d="M13.2 16C13.2 16.6627 12.6627 17.2 12 17.2C11.3372 17.2 10.8 16.6627 10.8 16C10.8 15.3372 11.3372 14.8 12 14.8C12.6627 14.8 13.2 15.3372 13.2 16Z" fill="#00BAFF"/>
<path d="M15.1962 8.23205C14.3677 6.79717 12.533 6.30554 11.0981 7.13397L8.50002 8.63397L9.50001 10.366L12.0981 8.86602C12.5764 8.58988 13.188 8.75376 13.4641 9.23205C13.7403 9.71034 13.5764 10.3219 13.0981 10.5981L10.5 12.0981L11.5 13.8301L14.0981 12.3301C15.533 11.5017 16.0246 9.66693 15.1962 8.23205Z" fill="#00BAFF"/>
<path fill-rule="evenodd" clip-rule="evenodd" d="M12 22C17.5228 22 22 17.5228 22 12C22 6.47715 17.5228 2 12 2C6.47715 2 2 6.47715 2 12C2 17.5228 6.47715 22 12 22ZM12 20C16.4183 20 20 16.4183 20 12C20 7.58172 16.4183 4 12 4C7.58172 4 4 7.58172 4 12C4 16.4183 7.58172 20 12 20Z" fill="#00BAFF"/>
</svg>
