<svg width="24" height="24" viewBox="0 0 24 24" fill="none" xmlns="http://www.w3.org/2000/svg">
<path d="M8 13.5C8 14.3284 7.32843 15 6.5 15C5.67157 15 5 14.3284 5 13.5C5 12.6716 5.67157 12 6.5 12C7.32843 12 8 12.6716 8 13.5Z" fill="#00BAFF"/>
<path d="M17.5 15C18.3284 15 19 14.3284 19 13.5C19 12.6716 18.3284 12 17.5 12C16.6716 12 16 12.6716 16 13.5C16 14.3284 16.6716 15 17.5 15Z" fill="#00BAFF"/>
<path fill-rule="evenodd" clip-rule="evenodd" d="M6.96859 2C6.07563 2 5.29085 2.59195 5.04554 3.45056L4.17427 6.5H3C2.17157 6.5 1.5 7.17157 1.5 8C1.5 8.72945 2.02068 9.33728 2.71066 9.47212L2.52569 9.6739C2.18757 10.0428 2 10.525 2 11.0253V20C2 21.1046 2.89543 22 4 22C5.10457 22 6 21.1046 6 20V18.5H18V20C18 21.1046 18.8954 22 20 22C21.1046 22 22 21.1046 22 20V11.0253C22 10.525 21.8124 10.0428 21.4743 9.6739L21.2893 9.47212C21.9793 9.33728 22.5 8.72945 22.5 8C22.5 7.17157 21.8284 6.5 21 6.5H19.8257L18.9545 3.45056C18.7091 2.59196 17.9244 2 17.0314 2H6.96859ZM6.96859 4L17.0314 4L18.46 9H5.54002L6.96859 4ZM4.02323 11L4 11.0253V16.5H20V11.0253L19.9768 11H4.02323Z" fill="#00BAFF"/>
</svg>
