<svg width="16" height="16" viewBox="0 0 16 16" fill="none" xmlns="http://www.w3.org/2000/svg">
<path d="M5 9.20007C5 9.75236 4.55228 10.2001 4 10.2001C3.44772 10.2001 3 9.75236 3 9.20007C3 8.64779 3.44772 8.20007 4 8.20007C4.55228 8.20007 5 8.64779 5 9.20007Z" fill="#00BAFF"/>
<path d="M12 10.2001C12.5523 10.2001 13 9.75236 13 9.20007C13 8.64779 12.5523 8.20007 12 8.20007C11.4477 8.20007 11 8.64779 11 9.20007C11 9.75236 11.4477 10.2001 12 10.2001Z" fill="#00BAFF"/>
<path fill-rule="evenodd" clip-rule="evenodd" d="M4.22071 0C3.44594 0 2.75809 0.495773 2.51308 1.23079L1.65666 3.80005H1C0.447715 3.80005 0 4.24776 0 4.80005C0 5.25868 0.308749 5.6452 0.729737 5.7631L0.502261 6.10432C0.30514 6.4 0.199951 6.74741 0.199951 7.10278V14.5C0.199951 15.3284 0.871524 16 1.69995 16C2.52838 16 3.19995 15.3284 3.19995 14.5V13.3H12.8V14.5C12.8 15.3284 13.4716 16 14.3 16C15.1285 16 15.8 15.3284 15.8 14.5L15.8 7.10278C15.8 6.74741 15.6948 6.4 15.4976 6.10432L15.2702 5.76312C15.6912 5.64525 16 5.25871 16 4.80005C16 4.24776 15.5523 3.80005 15 3.80005L14.3432 3.80005L13.4868 1.23079C13.2418 0.495774 12.554 0 11.7792 0H4.22071ZM4.03097 1.73675C4.0582 1.65509 4.13462 1.6 4.22071 1.6H11.7792C11.8653 1.6 11.9417 1.65509 11.9689 1.73675L13.2233 5.5H2.77656L4.03097 1.73675ZM1.79997 7.1L1.79995 7.10278V11.7H14.2V7.10278L14.1999 7.1H1.79997Z" fill="#00BAFF"/>
</svg>
