<svg width="24" height="24" viewBox="0 0 24 24" fill="none" xmlns="http://www.w3.org/2000/svg">
<path fill-rule="evenodd" clip-rule="evenodd" d="M18.5 2C16.567 2 15 3.567 15 5.5C15 5.70664 15.0179 5.9091 15.0523 6.10592L8.05285 9.60562C7.41432 8.92511 6.50681 8.5 5.5 8.5C3.567 8.5 2 10.067 2 12C2 13.933 3.567 15.5 5.5 15.5C6.50676 15.5 7.41424 15.0749 8.05276 14.3945L15.0522 17.8942C15.0179 18.091 15 18.2934 15 18.5C15 20.433 16.567 22 18.5 22C20.433 22 22 20.433 22 18.5C22 16.567 20.433 15 18.5 15C17.4932 15 16.5857 15.4251 15.9472 16.1056L8.94774 12.6059C8.98209 12.4091 9 12.2066 9 12C9 11.7934 8.9821 11.591 8.94777 11.3942L15.9473 7.89449C16.5858 8.57494 17.4932 9 18.5 9C20.433 9 22 7.433 22 5.5C22 3.567 20.433 2 18.5 2ZM17 5.5C17 4.67157 17.6716 4 18.5 4C19.3284 4 20 4.67157 20 5.5C20 6.32843 19.3284 7 18.5 7C17.6716 7 17 6.32843 17 5.5ZM4 12C4 11.1716 4.67157 10.5 5.5 10.5C6.32843 10.5 7 11.1716 7 12C7 12.8284 6.32843 13.5 5.5 13.5C4.67157 13.5 4 12.8284 4 12ZM17 18.5C17 17.6716 17.6716 17 18.5 17C19.3284 17 20 17.6716 20 18.5C20 19.3284 19.3284 20 18.5 20C17.6716 20 17 19.3284 17 18.5Z" fill="#37517E"/>
</svg>
