<svg width="16" height="16" viewBox="0 0 16 16" fill="none" xmlns="http://www.w3.org/2000/svg">
<path fill-rule="evenodd" clip-rule="evenodd" d="M9.50006 5C10.8808 5 12.0001 3.88071 12.0001 2.5C12.0001 1.11929 10.8808 0 9.50006 0C8.11935 0 7.00006 1.11929 7.00006 2.5C7.00006 3.88071 8.11935 5 9.50006 5ZM9.50006 3.4C9.99712 3.4 10.4001 2.99706 10.4001 2.5C10.4001 2.00294 9.99712 1.6 9.50006 1.6C9.00301 1.6 8.60006 2.00294 8.60006 2.5C8.60006 2.99706 9.00301 3.4 9.50006 3.4Z" fill="#00BAFF"/>
<path fill-rule="evenodd" clip-rule="evenodd" d="M13.5001 11C14.8808 11 16.0001 9.88071 16.0001 8.5C16.0001 7.11929 14.8808 6 13.5001 6C12.1193 6 11.0001 7.11929 11.0001 8.5C11.0001 9.88071 12.1193 11 13.5001 11ZM13.5001 9.4C13.9971 9.4 14.4001 8.99706 14.4001 8.5C14.4001 8.00294 13.9971 7.6 13.5001 7.6C13.003 7.6 12.6001 8.00294 12.6001 8.5C12.6001 8.99706 13.003 9.4 13.5001 9.4Z" fill="#00BAFF"/>
<path fill-rule="evenodd" clip-rule="evenodd" d="M3.50006 7C4.88077 7 6.00006 5.88071 6.00006 4.5C6.00006 3.11929 4.88077 2 3.50006 2C2.11935 2 1.00006 3.11929 1.00006 4.5C1.00006 5.88071 2.11935 7 3.50006 7ZM3.50006 5.4C3.99712 5.4 4.40006 4.99706 4.40006 4.5C4.40006 4.00294 3.99712 3.6 3.50006 3.6C3.003 3.6 2.60006 4.00294 2.60006 4.5C2.60006 4.99706 3.003 5.4 3.50006 5.4Z" fill="#00BAFF"/>
<path d="M7.81606 6.23926C8.29409 6.45487 8.82087 6.58152 9.37531 6.5981L7.27943 15.6799L5.72041 15.3201L7.81606 6.23926Z" fill="#00BAFF"/>
<path d="M11.8749 12.2653L11.2177 15.3324L12.7822 15.6676L13.4396 12.5995C12.8844 12.5915 12.3558 12.4731 11.8749 12.2653Z" fill="#00BAFF"/>
<path d="M3.38897 8.59848C2.83434 8.58372 2.30717 8.45883 1.82853 8.24486L0.21991 15.3228L1.78012 15.6774L3.38897 8.59848Z" fill="#00BAFF"/>
</svg>
