<svg width="16" height="16" viewBox="0 0 16 16" fill="none" xmlns="http://www.w3.org/2000/svg">
<path d="M13.6654 2.35862C10.8553 -0.480826 6.36824 -0.794973 3.18818 1.62509C0.00812322 4.04516 -0.874497 8.4457 1.12727 11.9003L0 16L4.22545 14.8971C5.38468 15.5242 6.68132 15.8557 7.99999 15.8621C10.1127 15.8737 12.1432 15.0465 13.6439 13.5628C15.1446 12.0791 15.9923 10.0609 16 7.95304C16.0044 5.85151 15.1634 3.83611 13.6654 2.35862ZM8.03636 14.5488C6.85249 14.5476 5.69028 14.2321 4.66909 13.6345L4.42909 13.4894L1.92 14.1424L2.58909 11.7189L2.42909 11.465C0.61882 8.61793 1.25208 4.86711 3.89728 2.76886C6.54247 0.670612 10.3479 0.900527 12.72 3.30191C13.9621 4.53191 14.6588 6.20698 14.6545 7.95304C14.6545 9.7036 13.957 11.3824 12.7157 12.6195C11.4743 13.8567 9.79094 14.5507 8.03636 14.5488ZM11.9127 9.74528L11.6364 9.60016L10.9527 9.26638C10.6545 9.12852 10.3709 8.99065 10.2764 8.96163C10.2014 8.92624 10.1192 8.90884 10.0364 8.91084C9.9485 8.92694 9.87175 8.97975 9.82544 9.05596C9.72717 9.20009 9.62031 9.3382 9.50544 9.46955L9.19999 9.83236C9.15204 9.8914 9.08534 9.93236 9.0109 9.94845C8.92398 9.95015 8.83832 9.92753 8.76363 9.88315C8.66908 9.83236 8.45817 9.7598 8.17454 9.60742C7.81067 9.40523 7.47144 9.16174 7.16363 8.88181C6.89715 8.63598 6.65371 8.36639 6.43636 8.07639C6.29981 7.89492 6.17355 7.70597 6.05818 7.51042C6.02163 7.43477 6.02163 7.34662 6.05818 7.27097C6.0841 7.20755 6.12684 7.15236 6.18181 7.11134L6.32727 6.94445L6.47999 6.76305C6.52411 6.71391 6.5631 6.66042 6.59636 6.60341C6.59636 6.55262 6.64727 6.49457 6.67636 6.42927C6.7085 6.37457 6.72131 6.31069 6.71272 6.24787C6.70795 6.19152 6.69056 6.13697 6.66181 6.08823C6.66181 6.03744 6.52363 5.76897 6.39999 5.46421C6.27636 5.15946 6.1309 4.81842 6.0509 4.61525C6.00987 4.49425 5.92749 4.39151 5.81818 4.32501C5.74893 4.30781 5.67651 4.30781 5.60727 4.32501H5.21454C5.13013 4.32417 5.04629 4.33893 4.96727 4.36855C4.85876 4.4144 4.76187 4.4838 4.68363 4.57172C4.51998 4.72872 4.37811 4.90687 4.26181 5.10141C4.07597 5.44439 3.98085 5.82898 3.98545 6.21884C4.01108 6.6771 4.14037 7.12363 4.36363 7.52493C4.488 7.78035 4.63655 8.02333 4.80727 8.25054C5.11386 8.68103 5.45174 9.08846 5.81818 9.46955C6.49399 10.2124 7.31264 10.812 8.22545 11.2328L8.86545 11.4867L9.35999 11.6464C9.57858 11.7177 9.80644 11.7568 10.0364 11.7625C10.231 11.7698 10.4259 11.7577 10.6182 11.7262C10.8788 11.667 11.1257 11.5587 11.3454 11.4069C11.6031 11.2698 11.8096 11.0535 11.9345 10.7902C12.0102 10.5919 12.0591 10.3845 12.08 10.1734C12.109 10.0665 12.109 9.95378 12.08 9.84687C12.0414 9.78659 11.9818 9.74266 11.9127 9.72351V9.74528Z" fill="#00BAFF"/>
</svg>
