<svg width="24" height="24" viewBox="0 0 24 24" fill="none" xmlns="http://www.w3.org/2000/svg">
<path fill-rule="evenodd" clip-rule="evenodd" d="M15 12C15 13.6569 13.6569 15 12 15C10.3431 15 9 13.6569 9 12C9 10.3431 10.3431 9 12 9C13.6569 9 15 10.3431 15 12ZM13 12C13 12.5523 12.5523 13 12 13C11.4477 13 11 12.5523 11 12C11 11.4477 11.4477 11 12 11C12.5523 11 13 11.4477 13 12Z" fill="#37517E"/>
<path fill-rule="evenodd" clip-rule="evenodd" d="M12 3.5C4 3.5 0 12 0 12C0 12 4 20.5 12 20.5C20 20.5 24 12 24 12C24 12 20 3.5 12 3.5ZM12 18.5C8.76325 18.5 6.25344 16.7886 4.4564 14.8793C3.5667 13.934 2.89377 12.9818 2.44413 12.2651C2.38585 12.1723 2.33155 12.0837 2.28122 12C2.33155 11.9163 2.38585 11.8277 2.44413 11.7349C2.89377 11.0182 3.5667 10.066 4.4564 9.12073C6.25344 7.21137 8.76325 5.5 12 5.5C15.2367 5.5 17.7466 7.21137 19.5436 9.12073C20.4333 10.066 21.1062 11.0182 21.5559 11.7349C21.6141 11.8277 21.6684 11.9163 21.7188 12C21.6684 12.0837 21.6141 12.1723 21.5559 12.2651C21.1062 12.9818 20.4333 13.934 19.5436 14.8793C17.7466 16.7886 15.2367 18.5 12 18.5Z" fill="#37517E"/>
</svg>
