<svg width="16" height="16" viewBox="0 0 16 16" fill="none" xmlns="http://www.w3.org/2000/svg">
<path d="M8 10C9.10457 10 10 9.10457 10 8C10 6.89543 9.10457 6 8 6C6.89543 6 6 6.89543 6 8C6 9.10457 6.89543 10 8 10Z" fill="#37517E"/>
<path fill-rule="evenodd" clip-rule="evenodd" d="M8 2C2 2 0 8 0 8C0 8 2 14 8 14C14 14 16 8 16 8C16 8 14 2 8 2ZM8 12.4C5.60975 12.4 4.02363 11.2291 2.97915 9.97571C2.45198 9.3431 2.07833 8.70396 1.83733 8.22196C1.79782 8.14294 1.76215 8.06869 1.7302 8C1.76215 7.93131 1.79782 7.85706 1.83733 7.77804C2.07833 7.29604 2.45198 6.6569 2.97915 6.0243C4.02363 4.77092 5.60975 3.6 8 3.6C10.3902 3.6 11.9764 4.77092 13.0208 6.0243C13.548 6.6569 13.9217 7.29604 14.1627 7.77804C14.2022 7.85706 14.2378 7.93131 14.2698 8C14.2378 8.06869 14.2022 8.14294 14.1627 8.22196C13.9217 8.70396 13.548 9.3431 13.0208 9.97571C11.9764 11.2291 10.3902 12.4 8 12.4Z" fill="#37517E"/>
</svg>
