<svg width="16" height="16" viewBox="0 0 16 16" fill="none" xmlns="http://www.w3.org/2000/svg">
<path fill-rule="evenodd" clip-rule="evenodd" d="M2.99995 1.19995C3.65677 1.19995 4.26076 1.4261 4.73831 1.80479C5.71234 1.29091 6.82224 1 8.00008 1C10.6918 1 13.0287 2.51932 14.2 4.74718V2.75732L15.8 2.75732L15.8 7.79997L10.7574 7.79996L10.7574 6.19996L13.0928 6.19996C12.3515 4.10264 10.3513 2.6 8.00008 2.6C7.16267 2.6 6.36979 2.79061 5.66244 3.13082C5.7517 3.40442 5.79995 3.69655 5.79995 3.99995C5.79995 5.54635 4.54635 6.79995 2.99995 6.79995C1.45355 6.79995 0.199951 5.54635 0.199951 3.99995C0.199951 2.45355 1.45355 1.19995 2.99995 1.19995ZM2.99995 2.79995C2.33721 2.79995 1.79995 3.33721 1.79995 3.99995C1.79995 4.66269 2.33721 5.19995 2.99995 5.19995C3.66269 5.19995 4.19995 4.66269 4.19995 3.99995C4.19995 3.33721 3.66269 2.79995 2.99995 2.79995Z" fill="#37517E"/>
<path fill-rule="evenodd" clip-rule="evenodd" d="M10.3375 12.8693C9.63023 13.2094 8.83741 13.4 8.00008 13.4C5.6489 13.4 3.64868 11.8974 2.90737 9.80004L5.24259 9.80004L5.24259 8.20004L0.199951 8.20003V13.2427L1.79995 13.2427L1.79995 11.2524C2.97115 13.4805 5.30817 15 8.00008 15C9.1779 15 10.2878 14.7091 11.2618 14.1953C11.7393 14.5739 12.3432 14.8 13 14.8C14.5463 14.8 15.8 13.5463 15.8 12C15.8 10.4536 14.5463 9.19995 13 9.19995C11.4536 9.19995 10.2 10.4536 10.2 12C10.2 12.3034 10.2482 12.5956 10.3375 12.8693ZM11.8 12C11.8 11.3372 12.3372 10.8 13 10.8C13.6627 10.8 14.2 11.3372 14.2 12C14.2 12.6627 13.6627 13.2 13 13.2C12.3372 13.2 11.8 12.6627 11.8 12Z" fill="#37517E"/>
</svg>
