<svg width="24" height="24" viewBox="0 0 24 24" fill="none" xmlns="http://www.w3.org/2000/svg">
<path fill-rule="evenodd" clip-rule="evenodd" d="M12 5C10.7671 5 9.60858 5.31875 8.60246 5.87835C8.85638 6.36314 9 6.9148 9 7.5C9 9.433 7.433 11 5.5 11C3.567 11 2 9.433 2 7.5C2 5.567 3.567 4 5.5 4C6.09827 4 6.66148 4.15011 7.15402 4.41471C8.55286 3.51918 10.2158 3 12 3C15.483 3 18.5039 4.9785 20.0001 7.87293L20.0002 4L22.0002 4.00008L21.9999 11H15V9.00002L18.3264 9.00002C17.2029 6.63506 14.7924 5 12 5ZM5.5 6C4.67157 6 4 6.67157 4 7.5C4 8.32843 4.67157 9 5.5 9C6.32843 9 7 8.32843 7 7.5C7 6.67157 6.32843 6 5.5 6Z" fill="#37517E"/>
<path fill-rule="evenodd" clip-rule="evenodd" d="M15.3975 18.1216C14.3914 18.6812 13.2329 19 12 19C9.20759 19 6.79708 17.3649 5.67362 15H9.00023V13H2.00028L2 19.9999L4 20L4.00016 16.1275C5.49644 19.0217 8.51719 21 12 21C13.7842 21 15.4471 20.4808 16.846 19.5853C17.3385 19.8499 17.9017 20 18.5 20C20.433 20 22 18.433 22 16.5C22 14.567 20.433 13 18.5 13C16.567 13 15 14.567 15 16.5C15 17.0852 15.1436 17.6369 15.3975 18.1216ZM17 16.5C17 15.6716 17.6716 15 18.5 15C19.3284 15 20 15.6716 20 16.5C20 17.3284 19.3284 18 18.5 18C17.6716 18 17 17.3284 17 16.5Z" fill="#37517E"/>
</svg>
