<svg width="16" height="16" viewBox="0 0 16 16" fill="none" xmlns="http://www.w3.org/2000/svg">
<path d="M13.189 9.5C12.539 11.7526 10.4619 13.4 8.00002 13.4C5.64884 13.4 3.64862 11.8974 2.90731 9.80004L5.24262 9.80004L5.24262 8.20004L0.199982 8.20003V13.2427L1.79998 13.2427L1.79998 11.2526C2.97121 13.4806 5.30818 15 8.00002 15C11.3511 15 14.1523 12.6452 14.8389 9.5H13.189Z" fill="#00BAFF"/>
<path d="M2.81108 6.5C3.46109 4.24743 5.53817 2.6 8.00002 2.6C10.3512 2.6 12.3514 4.10264 13.0927 6.19996L10.7573 6.19996L10.7573 7.79996L15.8 7.79997L15.8 2.75732L14.2 2.75732V4.74724C13.0287 2.51935 10.6918 1 8.00002 1C4.6489 1 1.84778 3.35482 1.16111 6.5H2.81108Z" fill="#00BAFF"/>
</svg>
