<svg width="16" height="16" viewBox="0 0 16 16" fill="none" xmlns="http://www.w3.org/2000/svg">
<path fill-rule="evenodd" clip-rule="evenodd" d="M7.9999 0C5.84741 0 4.10246 1.72285 4.10246 3.8481C4.10246 5.97335 5.84741 7.6962 7.9999 7.6962C10.1524 7.6962 11.8973 5.97335 11.8973 3.8481C11.8973 1.72285 10.1524 0 7.9999 0Z" fill="#00BAFF"/>
<path d="M8 9.12658C10.4874 9.12658 12.604 9.98501 13.9668 10.7217C15.358 11.4738 16 12.9421 16 14.3656V16C9.51643 16 3.16858 16 0 16V14.3656C0 12.9421 0.641971 11.4738 2.03316 10.7217C3.39605 9.98501 5.51259 9.12658 8 9.12658Z" fill="#00BAFF"/>
</svg>
