<svg width="16" height="16" viewBox="0 0 16 16" fill="none" xmlns="http://www.w3.org/2000/svg">
<path fill-rule="evenodd" clip-rule="evenodd" d="M7.9999 0C5.84741 0 4.10246 1.72285 4.10246 3.8481C4.10246 5.97335 5.84741 7.6962 7.9999 7.6962C10.1524 7.6962 11.8973 5.97335 11.8973 3.8481C11.8973 1.72285 10.1524 0 7.9999 0ZM5.74349 3.8481C5.74349 2.61769 6.75372 1.62025 7.9999 1.62025C9.24608 1.62025 10.2563 2.61769 10.2563 3.8481C10.2563 5.07851 9.24608 6.07595 7.9999 6.07595C6.75372 6.07595 5.74349 5.07851 5.74349 3.8481Z" fill="#37517E"/>
<path d="M8 9.12658C10.4874 9.12658 12.604 9.98501 13.9668 10.7217C15.358 11.4738 16 12.9421 16 14.3656V16H14.359V14.3656C14.359 13.3848 13.9235 12.5455 13.1788 12.1429C11.954 11.4809 10.1142 10.7468 8 10.7468C5.88584 10.7468 4.04597 11.4809 2.82124 12.1429C2.07649 12.5455 1.64103 13.3848 1.64103 14.3656V16H0V14.3656C0 12.9421 0.641971 11.4738 2.03316 10.7217C3.39605 9.98501 5.51259 9.12658 8 9.12658Z" fill="#37517E"/>
</svg>
