<svg width="24" height="24" viewBox="0 0 24 24" fill="none" xmlns="http://www.w3.org/2000/svg">
<path d="M13 7.00001L13 13H11L11 7.00001H13Z" fill="#00BAFF"/>
<path d="M12 17.2C12.6627 17.2 13.2 16.6627 13.2 16C13.2 15.3373 12.6627 14.8 12 14.8C11.3372 14.8 10.8 15.3373 10.8 16C10.8 16.6627 11.3372 17.2 12 17.2Z" fill="#00BAFF"/>
<path fill-rule="evenodd" clip-rule="evenodd" d="M12 22C17.5228 22 22 17.5228 22 12C22 6.47715 17.5228 2 12 2C6.47715 2 2 6.47715 2 12C2 17.5228 6.47715 22 12 22ZM12 20C16.4183 20 20 16.4183 20 12C20 7.58172 16.4183 4 12 4C7.58172 4 4 7.58172 4 12C4 16.4183 7.58172 20 12 20Z" fill="#00BAFF"/>
</svg>
