<svg width="24" height="24" viewBox="0 0 24 24" fill="none" xmlns="http://www.w3.org/2000/svg">
<path d="M6 5C6 6.10457 5.10457 7 4 7C2.89543 7 2 6.10457 2 5C2 3.89543 2.89543 3 4 3C5.10457 3 6 3.89543 6 5Z" fill="#37517E"/>
<path d="M4 14C5.10457 14 6 13.1046 6 12C6 10.8954 5.10457 10 4 10C2.89543 10 2 10.8954 2 12C2 13.1046 2.89543 14 4 14Z" fill="#37517E"/>
<path d="M4 21C5.10457 21 6 20.1046 6 19C6 17.8954 5.10457 17 4 17C2.89543 17 2 17.8954 2 19C2 20.1046 2.89543 21 4 21Z" fill="#37517E"/>
<path d="M9 13.6H22V10.4H9V13.6Z" fill="#37517E"/>
<path d="M22 6.6H9V3.4H22V6.6Z" fill="#37517E"/>
<path d="M9 20.6H22V17.4H9V20.6Z" fill="#37517E"/>
</svg>
