<svg width="16" height="16" viewBox="0 0 16 16" fill="none" xmlns="http://www.w3.org/2000/svg">
<path d="M0.0500488 2.00002C0.0500488 2.88368 0.766393 3.60002 1.65005 3.60002C2.5337 3.60002 3.25005 2.88368 3.25005 2.00002C3.25005 1.11637 2.5337 0.400024 1.65005 0.400024C0.766393 0.400024 0.0500489 1.11637 0.0500488 2.00002Z" fill="#00BAFF"/>
<path d="M0.0500488 8.00002C0.0500488 8.88368 0.766393 9.60002 1.65005 9.60002C2.5337 9.60002 3.25005 8.88368 3.25005 8.00002C3.25005 7.11637 2.5337 6.40002 1.65005 6.40002C0.766393 6.40002 0.0500489 7.11637 0.0500488 8.00002Z" fill="#00BAFF"/>
<path d="M1.6 15.6C0.716344 15.6 0 14.8837 0 14C0 13.1164 0.716345 12.4 1.6 12.4C2.48366 12.4 3.2 13.1164 3.2 14C3.2 14.8837 2.48366 15.6 1.6 15.6Z" fill="#00BAFF"/>
<path d="M6 3.20003H16V0.800026H6V3.20003Z" fill="#00BAFF"/>
<path d="M16 9.20003L6 9.20003V6.80003L16 6.80003V9.20003Z" fill="#00BAFF"/>
<path d="M6 15.2H16V12.8H6V15.2Z" fill="#00BAFF"/>
</svg>
