<svg width="16" height="16" viewBox="0 0 16 16" fill="none" xmlns="http://www.w3.org/2000/svg">
<path d="M0.0500488 1.9999C0.0500488 2.88356 0.766393 3.5999 1.65005 3.5999C2.5337 3.5999 3.25005 2.88356 3.25005 1.9999C3.25005 1.11625 2.5337 0.399902 1.65005 0.399902C0.766393 0.399902 0.0500489 1.11625 0.0500488 1.9999Z" fill="#37517E"/>
<path d="M0.0500488 7.9999C0.0500488 8.88356 0.766393 9.5999 1.65005 9.5999C2.5337 9.5999 3.25005 8.88356 3.25005 7.9999C3.25005 7.11625 2.5337 6.3999 1.65005 6.3999C0.766393 6.3999 0.0500489 7.11625 0.0500488 7.9999Z" fill="#37517E"/>
<path d="M1.6 15.5999C0.716344 15.5999 0 14.8836 0 13.9999C0 13.1162 0.716345 12.3999 1.6 12.3999C2.48366 12.3999 3.2 13.1162 3.2 13.9999C3.2 14.8836 2.48366 15.5999 1.6 15.5999Z" fill="#37517E"/>
<path d="M6 2.79991H16V1.19991H6V2.79991Z" fill="#37517E"/>
<path d="M16 8.79991L6 8.79991V7.19991L16 7.19991V8.79991Z" fill="#37517E"/>
<path d="M6 14.7999H16V13.1999H6V14.7999Z" fill="#37517E"/>
</svg>
