<svg width="24" height="24" viewBox="0 0 24 24" fill="none" xmlns="http://www.w3.org/2000/svg">
<path d="M4.5 2C3.11929 2 2 3.11929 2 4.5V5C2 6.10457 2.89543 7 4 7V4.5C4 4.22386 4.22386 4 4.5 4H19.5C19.7761 4 20 4.22385 20 4.49999L20 7C21.1046 7 22 6.10456 22 4.99998L22 4.49996C22 3.11926 20.8807 2 19.5 2H4.5Z" fill="#00BAFF"/>
<path fill-rule="evenodd" clip-rule="evenodd" d="M6 20C6 21.1046 6.89543 22 8 22H16C17.1046 22 18 21.1046 18 20V8C18 6.89543 17.1046 6 16 6H8C6.89543 6 6 6.89543 6 8V20ZM16 20H12.5V8H16V20ZM9.5 8V20H8V8H9.5Z" fill="#00BAFF"/>
</svg>
