<svg width="24" height="24" viewBox="0 0 24 24" fill="none" xmlns="http://www.w3.org/2000/svg">
<path fill-rule="evenodd" clip-rule="evenodd" d="M22 4H2V20H22V4ZM4 8.5V6H20V8.5H15.3832C15.235 8.18757 15.0198 7.84452 14.7076 7.52913C14.112 6.92734 13.2344 6.5 12.0251 6.5C10.8158 6.5 9.93821 6.92732 9.34252 7.52909C9.03031 7.84449 8.81514 8.18756 8.66689 8.5H4ZM8.59075 10.5H4V13.5H8.59075C8.77056 13.1288 9.00007 12.5326 9.00007 12C9.00007 11.4673 8.77056 10.8712 8.59075 10.5ZM8.66689 15.5H4V18H20V15.5H15.3832C15.235 15.8124 15.0198 16.1555 14.7076 16.4709C14.112 17.0727 13.2344 17.5 12.0251 17.5C10.8158 17.5 9.93821 17.0727 9.34252 16.4709C9.03031 16.1555 8.81514 15.8124 8.66689 15.5ZM15.4593 13.5H20V10.5H15.4593C15.2796 10.8712 15.0501 11.4673 15.0501 12C15.0501 12.5327 15.2796 13.1288 15.4593 13.5ZM11.0001 12C11.0001 10.9906 10.5958 10.0468 10.3781 9.60232C10.4421 9.39757 10.5596 9.14249 10.7639 8.9361C10.9702 8.72767 11.3299 8.5 12.0251 8.5C12.7202 8.5 13.0799 8.72768 13.2862 8.93611C13.4905 9.1425 13.608 9.39758 13.672 9.60233C13.4543 10.0468 13.0501 10.9906 13.0501 12C13.0501 13.0094 13.4543 13.9532 13.6719 14.3977C13.608 14.6024 13.4905 14.8575 13.2862 15.0639C13.0799 15.2723 12.7202 15.5 12.0251 15.5C11.3299 15.5 10.9702 15.2723 10.7639 15.0639C10.5596 14.8575 10.4421 14.6024 10.3781 14.3977C10.5958 13.9532 11.0001 13.0094 11.0001 12Z" fill="#37517E"/>
</svg>
