<svg width="16" height="16" viewBox="0 0 16 16" fill="none" xmlns="http://www.w3.org/2000/svg">
<path fill-rule="evenodd" clip-rule="evenodd" d="M15.8 1.69995H0.199951V14.3H15.8V1.69995ZM1.79995 5.19995V3.29995H14.2V5.19995H10.5868C10.5425 5.09766 10.4876 4.9958 10.4201 4.89558C9.99485 4.26418 9.23121 3.69995 8.00002 3.69995C6.76892 3.69995 6.00528 4.2641 5.58 4.89546C5.51246 4.99572 5.45752 5.09762 5.41327 5.19995H1.79995ZM5.35629 6.79995H1.79995V9.19995H5.35629C5.40289 9.00655 5.45766 8.82646 5.50374 8.67493L5.52029 8.62046C5.58508 8.40652 5.62502 8.19246 5.62502 7.99995C5.62502 7.80744 5.58508 7.59338 5.52029 7.37944L5.50374 7.32497C5.45766 7.17345 5.40289 6.99335 5.35629 6.79995ZM5.41327 10.8H1.79995V12.7H14.2V10.8H10.5868C10.5425 10.9022 10.4876 11.0041 10.4201 11.1043C9.99485 11.7357 9.23121 12.3 8.00002 12.3C6.76892 12.3 6.00528 11.7358 5.58 11.1044C5.51246 11.0042 5.45752 10.9023 5.41327 10.8ZM10.6437 9.19995H14.2V6.79995H10.6437C10.5971 6.99333 10.5424 7.1734 10.4963 7.32491L10.4798 7.37935C10.415 7.59332 10.375 7.80741 10.375 7.99995C10.375 8.19249 10.415 8.40658 10.4798 8.62055L10.4963 8.67499C10.5424 8.82649 10.5972 9.00658 10.6437 9.19995ZM6.90701 5.78934C6.99149 5.66394 7.1044 5.5482 7.26121 5.46162C7.41621 5.37603 7.64821 5.29995 8.00002 5.29995C8.35185 5.29995 8.58386 5.37604 8.73885 5.46163C8.89566 5.54822 9.00857 5.66397 9.09303 5.78938C9.13018 5.84453 9.16254 5.93375 9.14201 6.13219C9.11954 6.3494 9.04734 6.58908 8.94846 6.91558C8.85473 7.22505 8.77502 7.60173 8.77502 7.99995C8.77502 8.39818 8.85473 8.77485 8.94846 9.08432C9.04734 9.41082 9.11954 9.6505 9.14201 9.86771C9.16254 10.0662 9.13018 10.1554 9.09303 10.2105C9.00857 10.3359 8.89566 10.4517 8.73885 10.5383C8.58386 10.6239 8.35185 10.7 8.00002 10.7C7.64821 10.7 7.41621 10.6239 7.26121 10.5383C7.1044 10.4517 6.99149 10.336 6.90701 10.2106C6.86986 10.1554 6.83749 10.0662 6.85802 9.86772C6.8805 9.65048 6.9527 9.41078 7.0516 9.08423C7.14532 8.77478 7.22502 8.39814 7.22502 7.99995C7.22502 7.60176 7.14532 7.22512 7.0516 6.91567C6.9527 6.58913 6.88049 6.34942 6.85802 6.13219C6.83749 5.93372 6.86986 5.8445 6.90701 5.78934Z" fill="#37517E"/>
</svg>
