<svg width="24" height="24" viewBox="0 0 24 24" fill="none" xmlns="http://www.w3.org/2000/svg">
<path d="M9 18V16H15V18H9Z" fill="#37517E"/>
<path fill-rule="evenodd" clip-rule="evenodd" d="M12 6.5C10.067 6.5 8.5 8.067 8.5 10C8.5 11.933 10.067 13.5 12 13.5C13.933 13.5 15.5 11.933 15.5 10C15.5 8.067 13.933 6.5 12 6.5ZM10.5 10C10.5 9.17157 11.1716 8.5 12 8.5C12.8284 8.5 13.5 9.17157 13.5 10C13.5 10.8284 12.8284 11.5 12 11.5C11.1716 11.5 10.5 10.8284 10.5 10Z" fill="#37517E"/>
<path fill-rule="evenodd" clip-rule="evenodd" d="M20 22H4V2H20V22ZM18 20V4H6V20H18Z" fill="#37517E"/>
</svg>
