<svg width="16" height="16" viewBox="0 0 16 16" fill="none" xmlns="http://www.w3.org/2000/svg">
<path d="M6 12.3V10.7H10V12.3H6Z" fill="#00BAFF"/>
<path fill-rule="evenodd" clip-rule="evenodd" d="M11 6C11 7.65685 9.65685 9 8 9C6.34315 9 5 7.65685 5 6C5 4.34315 6.34315 3 8 3C9.65685 3 11 4.34315 11 6ZM9.4 6C9.4 6.7732 8.7732 7.4 8 7.4C7.2268 7.4 6.6 6.7732 6.6 6C6.6 5.2268 7.2268 4.6 8 4.6C8.7732 4.6 9.4 5.2268 9.4 6Z" fill="#00BAFF"/>
<path fill-rule="evenodd" clip-rule="evenodd" d="M1.69995 0.199951H14.3V15.8H1.69995V0.199951ZM3.29995 1.79995V14.2H12.7V1.79995H3.29995Z" fill="#00BAFF"/>
</svg>
