<svg width="24" height="24" viewBox="0 0 24 24" fill="none" xmlns="http://www.w3.org/2000/svg">
<path d="M12.9651 20.5973C15.0161 18.3175 16.2636 15.3041 16.2636 12C16.2636 8.69593 15.0161 5.68248 12.9651 3.40271L14.3715 2C16.781 4.63981 18.25 8.14881 18.25 12C18.25 15.8512 16.781 19.3602 14.3715 22L12.9651 20.5973Z" fill="#00BAFF"/>
<path d="M10.4385 5.92281C12.178 7.37653 13.2841 9.55943 13.2841 12C13.2841 14.4406 12.178 16.6235 10.4385 18.0772L9.02655 16.669C10.4098 15.5805 11.2977 13.8937 11.2977 12C11.2977 10.1063 10.4098 8.41947 9.02655 7.33105L10.4385 5.92281Z" fill="#00BAFF"/>
<path d="M7.15457 14.8018C7.8735 14.0848 8.31816 13.0942 8.31816 12C8.31816 10.9058 7.8735 9.91521 7.15457 9.19816L5.75 10.5991C6.10946 10.9576 6.33179 11.4529 6.33179 12C6.33179 12.5471 6.10946 13.0424 5.75 13.4009L7.15457 14.8018Z" fill="#00BAFF"/>
</svg>
