<svg width="24" height="24" viewBox="0 0 24 24" fill="none" xmlns="http://www.w3.org/2000/svg">
<path fill-rule="evenodd" clip-rule="evenodd" d="M22 7V9H2V7H6.33682C6.12085 6.54537 6 6.0368 6 5.5C6 3.567 7.567 2 9.5 2C10.4793 2 11.3647 2.40223 12 3.05051C12.6353 2.40223 13.5207 2 14.5 2C16.433 2 18 3.567 18 5.5C18 6.0368 17.8792 6.54537 17.6632 7H22ZM9.5 7C8.67157 7 8 6.32843 8 5.5C8 4.67157 8.67157 4 9.5 4C10.3284 4 11 4.67157 11 5.5V7H9.5ZM14.5 7C15.3284 7 16 6.32843 16 5.5C16 4.67157 15.3284 4 14.5 4C13.6716 4 13 4.67157 13 5.5V7H14.5Z" fill="#37517E"/>
<path d="M3 22V11H11V22H3Z" fill="#37517E"/>
<path d="M13 22H21V11H13V22Z" fill="#37517E"/>
</svg>
