<svg width="24" height="24" viewBox="0 0 24 24" fill="none" xmlns="http://www.w3.org/2000/svg">
<path fill-rule="evenodd" clip-rule="evenodd" d="M22 9V7H17.6632C17.8792 6.54537 18 6.0368 18 5.5C18 3.567 16.433 2 14.5 2C13.5207 2 12.6353 2.40223 12 3.05051C11.3647 2.40223 10.4793 2 9.5 2C7.567 2 6 3.567 6 5.5C6 6.0368 6.12085 6.54537 6.33682 7H2V9H22ZM8 5.5C8 6.32843 8.67157 7 9.5 7H11V5.5C11 4.67157 10.3284 4 9.5 4C8.67157 4 8 4.67157 8 5.5ZM16 5.5C16 6.32843 15.3284 7 14.5 7H13V5.5C13 4.67157 13.6716 4 14.5 4C15.3284 4 16 4.67157 16 5.5Z" fill="#00BAFF"/>
<path d="M5 20V11H3V22H21V11H19V20H13V11H11V20H5Z" fill="#00BAFF"/>
</svg>
