<svg width="24" height="24" viewBox="0 0 24 24" fill="none" xmlns="http://www.w3.org/2000/svg">
<path fill-rule="evenodd" clip-rule="evenodd" d="M12 2C9.23858 2 7 4.23858 7 7C7 9.76142 9.23858 12 12 12C14.7614 12 17 9.76142 17 7C17 4.23858 14.7614 2 12 2ZM9 7C9 5.34315 10.3431 4 12 4C13.6569 4 15 5.34315 15 7C15 8.65685 13.6569 10 12 10C10.3431 10 9 8.65685 9 7Z" fill="#00BAFF"/>
<path d="M22 22V19.4482C22 18.3036 21.5928 17.0156 20.4576 16.2436C19.0023 15.2538 16.3005 14 12 14C7.69948 14 4.99774 15.2538 3.54236 16.2436C2.4072 17.0156 2 18.3036 2 19.4482V22H4V19.4482C4 18.7213 4.25467 18.1778 4.66705 17.8974C5.80256 17.1252 8.11469 16 12 16C15.8853 16 18.1974 17.1252 19.3329 17.8974C19.7453 18.1778 20 18.7213 20 19.4482V22H22Z" fill="#00BAFF"/>
</svg>
