<svg width="24" height="24" viewBox="0 0 24 24" fill="none" xmlns="http://www.w3.org/2000/svg">
<path d="M12 3.83333H8C7 3.91667 6.41667 4.08333 6.08333 4.16667C5.66667 4.41667 5.33333 4.58333 4.91667 4.91667C4.58333 5.25 4.33333 5.58333 4.16667 6.08333C4.08333 6.41667 3.91667 7 3.91667 8C3.83333 9 3.83333 9.33333 3.83333 12C3.83333 14.6667 3.83333 14.9167 3.91667 16C3.91667 16.9167 4.08333 17.5 4.25 17.8333C4.41667 18.3333 4.66667 18.6667 5 19C5.33333 19.3333 5.66667 19.5833 6.16667 19.75C6.5 19.9167 7 20 8 20.0833C9 20.1667 9.33333 20.1667 12 20.1667C14.6667 20.1667 14.9167 20.1667 16 20.0833C16.9167 20.0833 17.5 19.9167 17.8333 19.75C18.3333 19.5833 18.6667 19.3333 19 19C19.3333 18.6667 19.5833 18.3333 19.75 17.8333C19.9167 17.5 20 17 20.0833 16C20.1667 15 20.1667 14.6667 20.1667 12C20.1667 9.33333 20.1667 9.08333 20.0833 8C20.0833 7.08333 19.9167 6.5 19.75 6.16667C19.5833 5.66667 19.3333 5.33333 19 5C18.6667 4.66667 18.3333 4.41667 17.8333 4.25C17.5 4.08333 17 4 16 3.91667C15 3.83333 14.6667 3.83333 12 3.83333ZM12 2H16.1667C17.25 2.08333 17.9167 2.25 18.5833 2.5C19.25 2.75 19.75 3.08333 20.3333 3.66667C20.9167 4.25 21.25 4.83333 21.4167 5.5C21.6667 6.16667 21.8333 6.83333 21.9167 7.91667C22 8.91667 22 9.25 22 12C22 14.75 22 15.0833 21.9167 16.0833C21.8333 17.1667 21.6667 17.8333 21.4167 18.5C21.1667 19.1667 20.8333 19.6667 20.25 20.25C19.75 20.8333 19.1667 21.1667 18.5 21.4167C17.8333 21.6667 17.1667 21.8333 16.0833 21.9167C15.0833 22 14.75 22 12 22H7.83333C6.75 21.9167 6.08333 21.75 5.41667 21.5C4.75 21.25 4.25 20.9167 3.66667 20.3333C3.08333 19.75 2.75 19.1667 2.58333 18.5C2.33333 17.8333 2.16667 17.1667 2.08333 16.0833C2 15.0833 2 14.75 2 12C2 9.25 2 8.91667 2.08333 7.91667C2.08333 6.83333 2.25 6.08333 2.5 5.41667C2.75 4.83333 3.08333 4.25 3.66667 3.66667C4.25 3.08333 4.83333 2.75 5.41667 2.5C6.08333 2.25 6.83333 2.08333 7.91667 2.08333C8.91667 2 9.25 2 12 2ZM12 6.83333C14.8333 6.83333 17.1667 9.16667 17.1667 12C17.1667 14.8333 14.8333 17.1667 12 17.1667C9.16667 17.1667 6.83333 14.8333 6.83333 12C6.83333 9.16667 9.16667 6.83333 12 6.83333ZM12 15.3333C13.8333 15.3333 15.3333 13.8333 15.3333 12C15.3333 10.1667 13.8333 8.66667 12 8.66667C10.1667 8.66667 8.66667 10.1667 8.66667 12C8.66667 13.8333 10.1667 15.3333 12 15.3333ZM17.3333 7.83333C16.689 7.83333 16.1667 7.311 16.1667 6.66667C16.1667 6.02233 16.689 5.5 17.3333 5.5C17.9777 5.5 18.5 6.02233 18.5 6.66667C18.5 7.311 17.9777 7.83333 17.3333 7.83333Z" fill="#00BAFF"/>
</svg>
