<svg width="16" height="16" viewBox="0 0 16 16" fill="none" xmlns="http://www.w3.org/2000/svg">
<path d="M2.5 6.79561C2.91234 7.03807 3.18915 7.48667 3.18915 8C3.18915 8.51333 2.91234 8.96193 2.5 9.20439L3.64392 10.3495C4.33744 9.80181 4.78263 8.95295 4.78263 8C4.78263 7.04705 4.33744 6.19819 3.64392 5.65048L2.5 6.79561Z" fill="#00BAFF"/>
<path d="M5.34058 12.048L6.46919 13.1778C7.87993 11.9007 8.76631 10.054 8.76631 8C8.76631 5.94601 7.87993 4.09926 6.46919 2.82218L5.34058 3.952C6.46378 4.93873 7.17284 6.38647 7.17284 8C7.17284 9.61353 6.46378 11.0613 5.34058 12.048Z" fill="#00BAFF"/>
<path d="M8.16092 14.8714L9.28836 16C11.419 13.9992 12.75 11.1552 12.75 8C12.75 4.84479 11.419 2.00079 9.28836 0L8.16092 1.12864C10.0035 2.84016 11.1565 5.28528 11.1565 8C11.1565 10.7147 10.0035 13.1598 8.16092 14.8714Z" fill="#00BAFF"/>
</svg>
