<svg width="16" height="16" viewBox="0 0 16 16" fill="none" xmlns="http://www.w3.org/2000/svg">
<path d="M11.9236 3.94512C9.42812 2.01647 5.80386 2.18316 3.50353 4.44519C1.21679 6.69385 1.03576 10.229 2.96042 12.6814L3.83015 11.8262L4.99053 12.9672L2.92334 15L2.34315 14.4295C-0.781049 11.3573 -0.781049 6.37631 2.34315 3.30413C5.46734 0.231956 10.5327 0.231956 13.6569 3.30413C16.781 6.37631 16.781 11.3573 13.6569 14.4295L13.0767 15L11.0096 12.9673L12.1699 11.8262L13.0396 12.6814C14.793 10.4473 14.7988 7.31452 13.057 5.07446L9.70623 8.42518C9.76701 8.60568 9.79995 8.79897 9.79995 8.99995C9.79995 9.99406 8.99406 10.8 7.99995 10.8C7.00584 10.8 6.19995 9.99406 6.19995 8.99995C6.19995 8.00584 7.00584 7.19995 7.99995 7.19995C8.20102 7.19995 8.39438 7.23292 8.57493 7.29374L11.9236 3.94512Z" fill="#37517E"/>
</svg>
