<svg width="16" height="16" viewBox="0 0 16 16" fill="none" xmlns="http://www.w3.org/2000/svg">
<path d="M11.9237 3.94512C9.42824 2.01647 5.80398 2.18316 3.50365 4.44519C1.21691 6.69385 1.03588 10.229 2.96054 12.6814L3.83027 11.8262L4.99065 12.9672L2.92346 15L2.34327 14.4295C-0.780926 11.3573 -0.780926 6.37631 2.34327 3.30413C5.46746 0.231956 10.5328 0.231956 13.657 3.30413C16.7812 6.37631 16.7812 11.3573 13.657 14.4295L13.0768 15L11.0097 12.9673L12.1701 11.8262L13.0397 12.6814C14.7931 10.4473 14.7989 7.31452 13.0571 5.07446L9.70636 8.42518C9.76713 8.60568 9.80007 8.79897 9.80007 8.99995C9.80007 9.99406 8.99419 10.8 8.00007 10.8C7.00596 10.8 6.20007 9.99406 6.20007 8.99995C6.20007 8.00584 7.00596 7.19995 8.00007 7.19995C8.20114 7.19995 8.3945 7.23292 8.57506 7.29374L11.9237 3.94512Z" fill="#00BAFF"/>
</svg>
