<svg width="24" height="24" viewBox="0 0 24 24" fill="none" xmlns="http://www.w3.org/2000/svg">
<path d="M11 2C8.79086 2 7 3.79086 7 6H9C9 4.89543 9.89543 4 11 4H13C14.1046 4 15 4.89543 15 6H17C17 3.79086 15.2091 2 13 2H11Z" fill="#00BAFF"/>
<path fill-rule="evenodd" clip-rule="evenodd" d="M22 8H2V22H22V8ZM4 20V15.7108C4.10835 15.8272 4.21897 15.9357 4.33129 16.0367C5.58658 17.1653 6.87038 17.1922 6.99996 17.1922H10V18H14V17.1922C17.0405 17.1922 16.9615 17.1929 17.0405 17.1916L17.0617 17.1908C17.0745 17.1903 17.0889 17.1896 17.1047 17.1887C17.1552 17.1856 17.2207 17.1801 17.2993 17.17C17.456 17.1499 17.6663 17.1114 17.9121 17.0377C18.4053 16.8899 19.0421 16.6 19.6686 16.0368C19.7809 15.9358 19.8916 15.8273 20 15.7108V20H4ZM14 15.1922H16.9857C16.9942 15.1917 17.0143 15.1902 17.0445 15.1863C17.1065 15.1783 17.2087 15.1606 17.3379 15.1219C17.5947 15.045 17.9579 14.8854 18.3314 14.5495C18.9808 13.9657 19.8067 12.7117 19.9709 10H4.02911C4.19329 12.7116 5.01914 13.9656 5.66847 14.5494C6.33039 15.1446 6.96985 15.1896 7.01294 15.1922H10V14H14V15.1922Z" fill="#00BAFF"/>
</svg>
