<svg width="16" height="16" viewBox="0 0 16 16" fill="none" xmlns="http://www.w3.org/2000/svg">
<path d="M7.49995 0.199951C5.95355 0.199951 4.69995 1.45355 4.69995 2.99995H6.29995C6.29995 2.33721 6.83721 1.79995 7.49995 1.79995H8.49995C9.16269 1.79995 9.69995 2.33721 9.69995 2.99995H11.3C11.3 1.45355 10.0463 0.199951 8.49995 0.199951H7.49995Z" fill="#37517E"/>
<path fill-rule="evenodd" clip-rule="evenodd" d="M15.8 4.19995H0.199951V15.8H15.8V4.19995ZM1.79995 14.2V10.6747C1.84423 10.7234 1.88896 10.7703 1.93407 10.8154C2.88695 11.7684 3.87636 11.7999 3.9999 11.7999H6.5V12.6H9.5V11.7999C10.3444 11.7999 11.1901 11.8199 12.0344 11.7993C12.0489 11.7989 12.0665 11.798 12.0869 11.7967C12.1276 11.794 12.1799 11.789 12.242 11.7802C12.3661 11.7624 12.5306 11.7288 12.7217 11.6651C13.1067 11.5368 13.5929 11.2883 14.0656 10.8156C14.1108 10.7704 14.1556 10.7235 14.2 10.6747V14.2H1.79995ZM9.5 10.1999H11.9844C11.9901 10.1994 12.0007 10.1984 12.0157 10.1962C12.0557 10.1905 12.1256 10.1773 12.2157 10.1472C12.3932 10.0881 12.657 9.96151 12.9343 9.68424C13.4277 9.19079 14.0607 8.11683 14.1801 5.79995H1.81982C1.93915 8.11665 2.5721 9.19063 3.06552 9.68413C3.52819 10.1469 3.96479 10.1958 4.01395 10.1999H6.5V9.39996H9.5V10.1999Z" fill="#37517E"/>
</svg>
