<svg width="16" height="16" viewBox="0 0 16 16" fill="none" xmlns="http://www.w3.org/2000/svg">
<path d="M7.49995 0.200012C5.95355 0.200012 4.69995 1.45361 4.69995 3.00001H6.29995C6.29995 2.33727 6.83721 1.80001 7.49995 1.80001H8.49995C9.16269 1.80001 9.69995 2.33727 9.69995 3.00001H11.3C11.3 1.45361 10.0463 0.200012 8.49995 0.200012H7.49995Z" fill="#00BAFF"/>
<path fill-rule="evenodd" clip-rule="evenodd" d="M15.8 4.20001H0.199951V15.8H15.8V4.20001ZM1.79995 14.2V10.6748C1.84423 10.7235 1.88896 10.7704 1.93407 10.8155C2.88695 11.7685 3.87636 11.8 3.9999 11.8H6.5V12.6H9.5V11.8C10.3444 11.8 11.1901 11.8199 12.0344 11.7994C12.0489 11.7989 12.0665 11.7981 12.0869 11.7968C12.1276 11.794 12.1799 11.7891 12.242 11.7802C12.3661 11.7625 12.5306 11.7289 12.7217 11.6652C13.1067 11.5368 13.5929 11.2884 14.0656 10.8157C14.1108 10.7705 14.1556 10.7235 14.2 10.6748V14.2H1.79995ZM9.5 10.2H11.9844C11.9901 10.1995 12.0007 10.1985 12.0157 10.1963C12.0557 10.1906 12.1256 10.1773 12.2157 10.1473C12.3932 10.0881 12.657 9.96157 12.9343 9.6843C13.4277 9.19086 14.0607 8.11689 14.1801 5.80001H1.81982C1.93915 8.11671 2.5721 9.19069 3.06552 9.68419C3.52819 10.1469 3.96479 10.1959 4.01395 10.2H6.5V9.40002H9.5V10.2Z" fill="#00BAFF"/>
</svg>
