<svg width="24" height="24" viewBox="0 0 24 24" fill="none" xmlns="http://www.w3.org/2000/svg">
<path d="M11 14.5V17.5H13V14.5H11Z" fill="#37517E"/>
<path fill-rule="evenodd" clip-rule="evenodd" d="M5.5 8.5C5.5 4.91015 8.41015 2 12 2C14.7039 2 17.0223 3.65105 18.0018 6H15.7422C14.935 4.79401 13.5602 4 12 4C9.51472 4 7.5 6.01472 7.5 8.5V10H21V19C21 20.6569 19.6569 22 18 22H6C4.34315 22 3 20.6569 3 19V10H5.5V8.5ZM5 19V12H19V19C19 19.5523 18.5523 20 18 20H6C5.44772 20 5 19.5523 5 19Z" fill="#37517E"/>
</svg>
