<svg width="16" height="16" viewBox="0 0 16 16" fill="none" xmlns="http://www.w3.org/2000/svg">
<path d="M7.20011 12L7.20011 10H8.80011V12H7.20011Z" fill="#00BAFF"/>
<path fill-rule="evenodd" clip-rule="evenodd" d="M3.20001 6.19995V4.99995C3.20001 2.62507 4.99408 0.199951 8.00001 0.199951C10.4964 0.199951 12.157 1.87263 12.6482 3.80005H10.9749C10.5389 2.67834 9.48924 1.79995 8.00001 1.79995C6.00594 1.79995 4.80001 3.37483 4.80001 4.99995V6.19995H14.8V13C14.8 14.5463 13.5464 15.8 12 15.8H4.00001C2.45362 15.8 1.20001 14.5463 1.20001 13V6.19995H3.20001ZM2.80001 13V7.79995H13.2V13C13.2 13.6627 12.6628 14.2 12 14.2H4.00001C3.33727 14.2 2.80001 13.6627 2.80001 13Z" fill="#00BAFF"/>
</svg>
