<svg width="16" height="16" viewBox="0 0 16 16" fill="none" xmlns="http://www.w3.org/2000/svg">
<path d="M12.4322 0H16V3.5679L12.4322 4.69923L8.0657 9.0657L6.93433 7.93433L11.3008 3.5679L12.4322 0Z" fill="#00BAFF"/>
<path d="M8.00001 0.200012C8.90795 0.200012 9.77965 0.35514 10.5901 0.640338L10.0839 2.15891C9.43261 1.92655 8.73109 1.80001 8.00001 1.80001C4.57585 1.80001 1.80001 4.57585 1.80001 8.00001C1.80001 11.4242 4.57585 14.2 8.00001 14.2C11.4242 14.2 14.2 11.4242 14.2 8.00001C14.2 7.26893 14.0735 6.5674 13.8411 5.91613L15.3597 5.40993C15.6449 6.22035 15.8 7.09207 15.8 8.00001C15.8 12.3078 12.3078 15.8 8.00001 15.8C3.69219 15.8 0.200012 12.3078 0.200012 8.00001C0.200012 3.69219 3.69219 0.200012 8.00001 0.200012Z" fill="#00BAFF"/>
<path d="M8.00001 3.20001C8.42999 3.20001 8.84676 3.25655 9.2433 3.36259L7.79972 4.80618C6.12571 4.90956 4.80001 6.29997 4.80001 8.00001C4.80001 9.76732 6.2327 11.2 8.00001 11.2C9.70006 11.2 11.0905 9.8743 11.1938 8.20027L12.6374 6.7567C12.7435 7.15324 12.8 7.57003 12.8 8.00001C12.8 10.651 10.651 12.8 8.00001 12.8C5.34905 12.8 3.20001 10.651 3.20001 8.00001C3.20001 5.34905 5.34905 3.20001 8.00001 3.20001Z" fill="#00BAFF"/>
</svg>
