<svg width="24" height="24" viewBox="0 0 24 24" fill="none" xmlns="http://www.w3.org/2000/svg">
<path d="M17.5 2L22 2.02852V6.52211L17.6985 7.77647L12.0844 13.3825L10.6298 11.9299L16.2439 6.32392L17.5 2Z" fill="#00BAFF"/>
<path d="M12 2.02852C13.1642 2.02852 14.2819 2.22718 15.321 2.5924L14.6721 4.53652C13.837 4.23893 12.9375 4.07688 12 4.07688C7.61004 4.07688 4.05128 7.63057 4.05128 12.0143C4.05128 16.398 7.61004 19.9516 12 19.9516C16.39 19.9516 19.9487 16.398 19.9487 12.0143C19.9487 11.0781 19.7864 10.1799 19.4884 9.34598L21.4353 8.69794C21.8011 9.73559 22 10.8517 22 12.0143C22 17.5292 17.5228 22 12 22C6.47715 22 2 17.5292 2 12.0143C2 6.49929 6.47715 2.02852 12 2.02852Z" fill="#00BAFF"/>
<path d="M12 5.8692C12.5477 5.8692 13.0787 5.94065 13.5842 6.07473L11.73 7.92629C9.59006 8.06514 7.89744 9.84232 7.89744 12.0143C7.89744 14.2768 9.73422 16.111 12 16.111C14.1751 16.111 15.9548 14.4208 16.0938 12.2839L17.948 10.4324C18.0823 10.9371 18.1539 11.4673 18.1539 12.0143C18.1539 15.4081 15.3987 18.1593 12 18.1593C8.60133 18.1593 5.84616 15.4081 5.84616 12.0143C5.84616 8.62044 8.60133 5.8692 12 5.8692Z" fill="#00BAFF"/>
</svg>
