<svg width="16" height="16" viewBox="0 0 16 16" fill="none" xmlns="http://www.w3.org/2000/svg">
<path fill-rule="evenodd" clip-rule="evenodd" d="M2.52541 0.67103C3.31951 -0.321606 4.86675 -0.191612 5.48409 0.919613L6.88426 3.43991C7.27188 4.13764 7.15002 5.00779 6.58562 5.57219L5.83129 6.32652C5.75372 6.40409 5.75372 6.52985 5.83129 6.60743L9.39257 10.1687C9.47014 10.2463 9.59591 10.2463 9.67348 10.1687L10.4278 9.41438C10.9922 8.84998 11.8624 8.72811 12.5601 9.11574L15.0804 10.5159C16.1916 11.1333 16.3216 12.6805 15.329 13.4746L13.6287 14.8348C12.1168 16.0443 9.98172 16.4643 8.19867 15.3576C7.03166 14.6333 5.56448 13.5537 4.00538 11.9946C2.44627 10.4355 1.36675 8.96834 0.642422 7.80133C-0.464268 6.01828 -0.044317 3.88318 1.16517 2.37133L2.52541 0.67103ZM4.095 1.69133C4.02641 1.56786 3.85449 1.55342 3.76626 1.66371L2.40602 3.36401C1.51095 4.48284 1.32265 5.884 1.99257 6.96334C2.65837 8.03605 3.66353 9.40549 5.12902 10.871C6.59451 12.3365 7.96395 13.3416 9.03666 14.0074C10.116 14.6773 11.5172 14.489 12.636 13.594L14.3363 12.2337C14.4466 12.1455 14.4321 11.9736 14.3087 11.905L11.7884 10.5048C11.7108 10.4618 11.6142 10.4753 11.5515 10.538L10.7971 11.2923C10.099 11.9905 8.96708 11.9905 8.26893 11.2923L4.70765 7.73107C4.00951 7.03293 4.00951 5.90102 4.70765 5.20288L5.46198 4.44855C5.52469 4.38584 5.53823 4.28915 5.49517 4.21163L4.095 1.69133Z" fill="#00BAFF"/>
</svg>
