<svg width="16" height="16" viewBox="0 0 16 16" fill="none" xmlns="http://www.w3.org/2000/svg">
<path d="M11 1.79995H14C14.1105 1.79995 14.2 1.88949 14.2 1.99995V4.99995H15.8V1.99995C15.8 1.00584 14.9941 0.199951 14 0.199951H11V1.79995Z" fill="#37517E"/>
<path d="M1.79995 2V5H0.199951V2C0.199951 1.00589 1.00584 0.2 1.99995 0.2H4.99995V1.8H1.99995C1.88949 1.8 1.79995 1.88954 1.79995 2Z" fill="#37517E"/>
<path d="M7.0001 6.2C7.0001 6.86274 6.46284 7.4 5.8001 7.4C5.13736 7.4 4.6001 6.86274 4.6001 6.2C4.6001 5.53726 5.13736 5 5.8001 5C6.46284 5 7.0001 5.53726 7.0001 6.2Z" fill="#37517E"/>
<path d="M5.21551 8.64221C6.42069 11.0526 9.57924 11.0526 10.7844 8.64221L12.2155 9.35775C10.4207 12.9474 5.57924 12.9474 3.78442 9.35775L5.21551 8.64221Z" fill="#37517E"/>
<path d="M10.2 7.4C10.8627 7.4 11.4 6.86274 11.4 6.2C11.4 5.53726 10.8627 5 10.2 5C9.53726 5 9 5.53726 9 6.2C9 6.86274 9.53726 7.4 10.2 7.4Z" fill="#37517E"/>
<path d="M14.2 14V11H15.8V14C15.8 14.9941 14.9942 15.8 14 15.8H11V14.2H14C14.1105 14.2 14.2 14.1105 14.2 14Z" fill="#37517E"/>
<path d="M5 14.2H2C1.88954 14.2 1.8 14.1105 1.8 14L1.8 11H0.2L0.2 14C0.2 14.9942 1.00589 15.8 2 15.8H5V14.2Z" fill="#37517E"/>
</svg>
