<svg width="24" height="24" viewBox="0 0 24 24" fill="none" xmlns="http://www.w3.org/2000/svg">
<path d="M4 4V8H2V4C2 2.89543 2.89543 2 4 2H8V4H4Z" fill="#00BAFF"/>
<path d="M10.7 9.40005C10.7 10.2837 9.98366 11 9.1 11C8.21634 11 7.5 10.2837 7.5 9.40005C7.5 8.51639 8.21634 7.80005 9.1 7.80005C9.98366 7.80005 10.7 8.51639 10.7 9.40005Z" fill="#00BAFF"/>
<path d="M16.7 9.40005C16.7 10.2837 15.9837 11 15.1 11C14.2163 11 13.5 10.2837 13.5 9.40005C13.5 8.51639 14.2163 7.80005 15.1 7.80005C15.9837 7.80005 16.7 8.51639 16.7 9.40005Z" fill="#00BAFF"/>
<path d="M15.6056 12.5527C14.7638 14.2363 13.3469 14.9999 12 14.9999C10.6531 14.9999 9.23623 14.2363 8.39445 12.5527L6.60559 13.4472C7.76381 15.7636 9.84689 16.9999 12 16.9999C14.1531 16.9999 16.2362 15.7636 17.3944 13.4472L15.6056 12.5527Z" fill="#00BAFF"/>
<path d="M16 4H20V8H22V4C22 2.89543 21.1046 2 20 2H16V4Z" fill="#00BAFF"/>
<path d="M20 20V16H22V20C22 21.1046 21.1046 22 20 22H16L16 20H20Z" fill="#00BAFF"/>
<path d="M8 20H4L4 16L2 16V20C2 21.1046 2.89543 22 4 22H8V20Z" fill="#00BAFF"/>
</svg>
