<svg width="24" height="24" viewBox="0 0 24 24" fill="none" xmlns="http://www.w3.org/2000/svg">
<path d="M3.61633 5.10576L6.8972 17.3504C7.58468 17.5097 8.32097 17.6553 9.07967 17.768L6.53922 8.28696C7.28461 7.77532 7.76233 6.9479 7.83274 6.04655L12.0262 4.92291C12.5379 5.66829 13.3653 6.14601 14.2666 6.21641L17.2413 17.3179C17.5385 17.2476 17.8262 17.1748 18.102 17.1013C18.4615 17.0054 18.8174 16.901 19.1703 16.7898L15.2074 2L3.61633 5.10576Z" fill="#00BAFF"/>
<path fill-rule="evenodd" clip-rule="evenodd" d="M9.10226 13.9886C9.53109 15.589 11.1761 16.5387 12.7765 16.1099C14.3769 15.6811 15.3266 14.0361 14.8978 12.4357C14.469 10.8353 12.824 9.88551 11.2236 10.3143C9.62319 10.7432 8.67344 12.3882 9.10226 13.9886ZM12.2589 14.178C11.7254 14.321 11.1771 14.0044 11.0341 13.4709C10.8912 12.9375 11.2078 12.3891 11.7412 12.2462C12.2747 12.1032 12.823 12.4198 12.966 12.9533C13.1089 13.4868 12.7923 14.0351 12.2589 14.178Z" fill="#00BAFF"/>
<path d="M2 17.923V20.0691C2.14164 20.121 2.32139 20.1852 2.53499 20.2585C3.09983 20.4521 3.90357 20.7093 4.86728 20.9663C6.78551 21.4778 9.37895 22 11.9999 22C14.6209 22 17.2144 21.4778 19.1326 20.9663C20.0963 20.7093 20.9001 20.4521 21.4649 20.2585C21.6786 20.1852 21.8583 20.1209 22 20.0691V17.923L21.6285 18.0716L21.6192 18.0753L21.5816 18.0899C21.5473 18.1032 21.4949 18.1232 21.4256 18.1491C21.2869 18.2009 21.0805 18.276 20.8162 18.3666C20.2873 18.5479 19.5286 18.7908 18.6173 19.0338C16.7855 19.5223 14.379 20 11.9999 20C9.62093 20 7.21437 19.5223 5.3826 19.0338C4.47131 18.7908 3.71255 18.5479 3.18364 18.3666C2.91938 18.276 2.71303 18.2009 2.5743 18.1491C2.50496 18.1232 2.45255 18.1032 2.41831 18.0899L2.38073 18.0753L2.37133 18.0716L2 17.923Z" fill="#00BAFF"/>
</svg>
