<svg width="16" height="16" viewBox="0 0 16 16" fill="none" xmlns="http://www.w3.org/2000/svg">
<path fill-rule="evenodd" clip-rule="evenodd" d="M13.5678 0.68441C12.712 -0.390866 11.0246 -0.160619 10.4849 1.10507L7.45708 8.20644L14.6837 6.13105C15.9291 5.77337 16.4107 4.2564 15.6015 3.23972L13.5678 0.68441ZM11.9665 1.74331C12.0265 1.60268 12.214 1.5771 12.3091 1.69657L14.3428 4.25188C14.4327 4.36485 14.3792 4.5334 14.2408 4.57314L10.2743 5.7123L11.9665 1.74331Z" fill="#00BAFF"/>
<path d="M9.00335 0.596049C9.04583 0.496425 9.09207 0.400196 9.1418 0.307402C8.72411 0.23842 8.29532 0.202544 7.8582 0.202544C3.51823 0.202544 0 3.73892 0 8.10127C0 12.4636 3.51823 16 7.8582 16C12.1982 16 15.7164 12.4636 15.7164 8.10127C15.7164 7.93201 15.7111 7.764 15.7007 7.59739C15.5204 7.68585 15.3288 7.76011 15.1265 7.8182L14.1044 8.11173C14.0988 11.5744 11.3044 14.3797 7.8582 14.3797C4.40848 14.3797 1.61194 11.5688 1.61194 8.10127C1.61194 4.63376 4.40848 1.8228 7.8582 1.8228C8.06384 1.8228 8.26717 1.83278 8.46772 1.85231L9.00335 0.596049Z" fill="#00BAFF"/>
</svg>
