<svg width="16" height="16" viewBox="0 0 16 16" fill="none" xmlns="http://www.w3.org/2000/svg">
<path d="M0.122829 4C0.122829 4 0.578634 5.38874 1.70953 6.82997L0 9.00021L1.23021 9.99972L2.80184 8.00455C3.43144 8.5718 4.18734 9.08487 5.08515 9.44869L4.28864 12.2802L5.80346 12.7197L6.60184 9.88158C7.04122 9.9582 7.50689 10 8 10C8.49314 10 8.95884 9.9582 9.39825 9.88156L10.1967 12.7198L11.7115 12.2802L10.9149 9.44866C11.8127 9.08484 12.5686 8.57178 13.1982 8.00455L14.7698 9.99972L16 9.00021L14.2905 6.82997C15.4214 5.38874 15.8772 4 15.8772 4H14.1735C14.1421 4.06869 14.107 4.14294 14.068 4.22196C13.8307 4.70396 13.4628 5.3431 12.9438 5.97571C11.9153 7.22908 10.3535 8.4 8 8.4C5.64645 8.4 4.08468 7.22908 3.05624 5.97571C2.53717 5.3431 2.16925 4.70396 1.93195 4.22196C1.89305 4.14294 1.85792 4.06869 1.82646 4H0.122829Z" fill="#00BAFF"/>
</svg>
