<svg width="24" height="24" viewBox="0 0 24 24" fill="none" xmlns="http://www.w3.org/2000/svg">
<path d="M4.20334 11.2221C2.39181 9.49053 1.32403 7.6154 1 7H3.33296C3.74447 7.64362 4.34916 8.48345 5.14101 9.31677C6.78708 11.049 9.06864 12.5833 12 12.5833C14.9314 12.5833 17.2129 11.049 18.859 9.31677C19.6508 8.48345 20.2555 7.64362 20.667 7H23C22.676 7.61543 21.6081 9.49071 19.7964 11.2223L21.8746 13.7953L20.2979 15.0447L18.2486 12.5076C17.4385 13.0851 16.5271 13.5937 15.5143 13.9629L16.6054 17.7453L14.6639 18.2948L13.5592 14.4653C13.0591 14.542 12.5394 14.5833 12 14.5833C11.4605 14.5833 10.9406 14.542 10.4404 14.4652L9.33585 18.2947L7.39428 17.7453L8.4853 13.9628C7.47256 13.5935 6.56114 13.0849 5.75107 12.5074L3.70167 15.0447L2.1249 13.7953L4.20334 11.2221Z" fill="#37517E"/>
</svg>
