<svg width="24" height="24" viewBox="0 0 24 24" fill="none" xmlns="http://www.w3.org/2000/svg">
<path fill-rule="evenodd" clip-rule="evenodd" d="M20.874 10.5536C18.9531 7.9245 17.0071 5.31282 15.0516 2.7091C14.7418 2.29609 14.2888 1.80167 13.7612 2.08221C13.4041 2.27122 13.0794 2.83345 13.043 3.25541C12.9228 4.63801 12.9325 6.03239 12.9183 7.42246C12.917 7.58014 13.0677 7.75141 13.1751 7.89632C13.9884 8.99756 14.8155 10.088 15.6236 11.1924C15.8486 11.4998 15.9753 11.749 16.0151 11.9889C15.9753 12.3228 15.8486 12.4908 15.6236 12.7984C14.8155 13.9028 13.9885 14.9994 13.1751 16.1004C13.0678 16.2455 12.917 16.4224 12.9183 16.5804C12.9325 17.9705 12.9228 19.364 13.043 20.7467C13.0794 21.1686 13.4041 21.7294 13.7612 21.9182C14.289 22.1986 14.7418 21.7012 15.0516 21.2882C17.0071 18.6844 18.9531 16.0663 20.874 13.4369C21.2154 12.97 21.397 12.6566 21.4303 11.9891C21.397 11.5035 21.2153 11.0208 20.874 10.5536Z" fill="#00BAFF"/>
<path fill-rule="evenodd" clip-rule="evenodd" d="M3.1258 10.5536C5.04692 7.9245 6.99275 5.31282 8.9482 2.7091C9.25825 2.29609 9.71105 1.80167 10.2388 2.08221C10.5958 2.27122 10.9204 2.83345 10.957 3.25541C11.0769 4.63801 11.0675 6.03239 11.0814 7.42246C11.0827 7.58014 10.9322 7.75141 10.8249 7.89632C10.0116 8.99756 9.1843 10.088 8.37636 11.1924C8.15136 11.4998 8.02453 11.749 7.9849 11.9889C8.02453 12.3228 8.15136 12.4908 8.37636 12.7984C9.1843 13.9028 10.0115 14.9994 10.8249 16.1004C10.932 16.2455 11.0827 16.4224 11.0814 16.5804C11.0675 17.9705 11.0769 19.364 10.957 20.7467C10.9204 21.1686 10.5958 21.7294 10.2388 21.9182C9.71088 22.1986 9.25825 21.7012 8.9482 21.2882C6.99275 18.6844 5.04692 16.0663 3.1258 13.4369C2.78425 12.97 2.60303 12.6566 2.5697 11.9891C2.60286 11.5035 2.78425 11.0208 3.1258 10.5536Z" fill="#00BAFF"/>
</svg>
