<svg width="16" height="16" viewBox="0 0 16 16" fill="none" xmlns="http://www.w3.org/2000/svg">
<path fill-rule="evenodd" clip-rule="evenodd" d="M15.0992 6.84288C13.5624 4.7396 12.0057 2.65026 10.4413 0.567277C10.1934 0.23687 9.83102 -0.158662 9.40896 0.0657648C9.12325 0.216974 8.86354 0.666756 8.83436 1.00433C8.73819 2.11041 8.74602 3.22591 8.73461 4.33797C8.73355 4.46411 8.85412 4.60113 8.94007 4.71705C9.59067 5.59805 10.2524 6.47042 10.8989 7.35394C11.0789 7.59985 11.1802 7.79921 11.2121 7.99114C11.1802 8.25828 11.0789 8.39264 10.8989 8.63869C10.2524 9.5222 9.59081 10.3995 8.94007 11.2803C8.85425 11.3964 8.73355 11.5379 8.73461 11.6643C8.74602 12.7764 8.73819 13.8912 8.83436 14.9973C8.86354 15.3349 9.12325 15.7835 9.40896 15.9346C9.83115 16.1589 10.1934 15.7609 10.4413 15.4305C12.0057 13.3475 13.5624 11.253 15.0992 9.14949C15.3723 8.77597 15.5176 8.52528 15.5442 7.99127C15.5176 7.60277 15.3722 7.21666 15.0992 6.84288Z" fill="#00BAFF"/>
<path fill-rule="evenodd" clip-rule="evenodd" d="M0.900625 6.84288C2.43753 4.7396 3.99419 2.65026 5.55855 0.567277C5.80658 0.23687 6.16882 -0.158662 6.59102 0.0657648C6.87659 0.216974 7.1363 0.666756 7.16561 1.00433C7.26151 2.11041 7.25395 3.22591 7.26509 4.33797C7.26616 4.46411 7.14572 4.60113 7.0599 4.71705C6.4093 5.59805 5.74743 6.47042 5.10107 7.35394C4.92108 7.59985 4.81961 7.79921 4.78791 7.99114C4.81961 8.25828 4.92108 8.39264 5.10107 8.63869C5.74743 9.5222 6.40917 10.3995 7.0599 11.2803C7.14558 11.3964 7.26616 11.5379 7.26509 11.6643C7.25395 12.7764 7.26151 13.8912 7.16561 14.9973C7.1363 15.3349 6.87659 15.7835 6.59102 15.9346C6.16869 16.1589 5.80658 15.7609 5.55855 15.4305C3.99419 13.3475 2.43753 11.253 0.900625 9.14949C0.627386 8.77597 0.48241 8.52528 0.45575 7.99127C0.482278 7.60277 0.627386 7.21666 0.900625 6.84288Z" fill="#00BAFF"/>
</svg>
