<svg width="16" height="16" viewBox="0 0 16 16" fill="none" xmlns="http://www.w3.org/2000/svg">
<path d="M5.06567 12.0657C6.75325 10.3781 9.24672 10.3781 10.9343 12.0657L12.0657 10.9343C9.75325 8.62188 6.24672 8.62188 3.9343 10.9343L5.06567 12.0657Z" fill="#37517E"/>
<path d="M6.99998 6.2C6.99998 6.86274 6.46272 7.4 5.79998 7.4C5.13723 7.4 4.59998 6.86274 4.59998 6.2C4.59998 5.53726 5.13723 5 5.79998 5C6.46272 5 6.99998 5.53726 6.99998 6.2Z" fill="#37517E"/>
<path d="M10.2 7.4C10.8627 7.4 11.4 6.86274 11.4 6.2C11.4 5.53726 10.8627 5 10.2 5C9.53726 5 9 5.53726 9 6.2C9 6.86274 9.53726 7.4 10.2 7.4Z" fill="#37517E"/>
<path fill-rule="evenodd" clip-rule="evenodd" d="M16 8C16 12.4183 12.4183 16 8 16C3.58172 16 0 12.4183 0 8C0 3.58172 3.58172 0 8 0C12.4183 0 16 3.58172 16 8ZM14.4 8C14.4 11.5346 11.5346 14.4 8 14.4C4.46538 14.4 1.6 11.5346 1.6 8C1.6 4.46538 4.46538 1.6 8 1.6C11.5346 1.6 14.4 4.46538 14.4 8Z" fill="#37517E"/>
</svg>
