<svg width="24" height="24" viewBox="0 0 24 24" fill="none" xmlns="http://www.w3.org/2000/svg">
<path fill-rule="evenodd" clip-rule="evenodd" d="M4.70885 11.4062C3.64096 7.42081 6.00609 3.3243 9.9915 2.25642C13.9769 1.18853 18.0734 3.55365 19.1413 7.53906L19.4001 8.50499L13.1971 10.1671L14.8115 16.019C15.2672 16.0953 15.7445 16.0041 16.1484 15.7456L16.2973 15.6503C17.4603 14.906 18.9161 14.7849 20.1861 15.3267L21.1926 15.7562C21.4478 15.8651 21.7225 15.9212 22 15.9212V17.9212C21.4527 17.9212 20.9111 17.8105 20.4077 17.5957L19.4013 17.1663C18.7397 16.884 17.9813 16.9471 17.3754 17.3349L17.2266 17.4301C16.6572 17.7946 16.0167 17.997 15.3683 18.0375L16.4614 22H14.3867L13.147 17.506C13.1054 17.4816 13.0643 17.4563 13.0234 17.4301C12.3996 17.0309 11.6004 17.0309 10.9766 17.4301C9.69547 18.25 8.05453 18.25 6.77345 17.4301L6.62456 17.3349C6.01871 16.9471 5.26034 16.884 4.59875 17.1663L3.5923 17.5957C3.08892 17.8105 2.54729 17.9212 2 17.9212V15.9212C2.27752 15.9212 2.55217 15.8651 2.80742 15.7562L3.81387 15.3267C5.08388 14.7849 6.53967 14.906 7.70266 15.6503L7.85155 15.7456C8.47544 16.1449 9.27456 16.1449 9.89845 15.7456C10.6856 15.2418 11.6087 15.0476 12.5006 15.1629L11.2652 10.6847L4.96767 12.3722L4.70885 11.4062ZM6.46996 9.89907L16.8626 7.11438C15.7503 4.77878 13.0977 3.49466 10.5091 4.18827C7.92056 4.88187 6.26543 7.32024 6.46996 9.89907Z" fill="#00BAFF"/>
</svg>
