<svg width="16" height="16" viewBox="0 0 16 16" fill="none" xmlns="http://www.w3.org/2000/svg">
<path fill-rule="evenodd" clip-rule="evenodd" d="M5.79319 0.47564C2.60486 1.32995 0.712758 4.60716 1.56707 7.79549L1.77412 8.56823L6.86887 7.2031L7.84159 10.6076C7.31979 10.6332 6.80281 10.7853 6.3384 11.064C5.82235 11.3736 5.17765 11.3736 4.6616 11.064L4.54302 10.9928C3.61579 10.4365 2.48179 10.3456 1.47781 10.7472L0.667126 11.0715C0.454947 11.1564 0.228523 11.2 0 11.2V12.8C0.432074 12.8 0.86018 12.7175 1.26135 12.5571L2.07203 12.2328C2.61175 12.0169 3.22137 12.0657 3.71982 12.3648L3.8384 12.436C4.86115 13.0496 6.13885 13.0496 7.1616 12.436C7.51071 12.2265 7.91869 12.1587 8.3059 12.2327L9.38227 16H11.0463L10.1542 12.8777C10.8417 12.9516 11.5476 12.8044 12.1616 12.436L12.2802 12.3648C12.7786 12.0657 13.3882 12.0169 13.928 12.2328L14.7386 12.5571C15.1398 12.7175 15.5679 12.8 16 12.8V11.2C15.7715 11.2 15.5451 11.1564 15.3329 11.0715L14.5222 10.7472C13.5182 10.3456 12.3842 10.4365 11.457 10.9928L11.3384 11.064C10.8223 11.3736 10.1777 11.3736 9.6616 11.064L9.63079 11.0457L8.41457 6.78893L13.3201 5.4745L13.113 4.70176C12.2587 1.51343 8.98152 -0.378671 5.79319 0.47564ZM11.29 4.36201L2.97596 6.58976C2.81233 4.5267 4.13644 2.57601 6.2073 2.02112C8.27816 1.46624 10.4002 2.49353 11.29 4.36201Z" fill="#00BAFF"/>
</svg>
