<svg width="16" height="16" viewBox="0 0 16 16" fill="none" xmlns="http://www.w3.org/2000/svg">
<path d="M10.5765 0L1.30363 2.48481L3.80275 11.8117C4.31893 11.9587 4.90711 12.0938 5.56191 12.195L3.61447 4.92705C4.15967 4.54024 4.51171 3.9305 4.57409 3.26494L8.13443 2.31095C8.52122 2.85605 9.13088 3.20804 9.79635 3.27044L12.0871 11.8196C12.4274 11.7234 12.7368 11.6218 13.0137 11.5211C13.2301 11.4424 13.4263 11.3644 13.6016 11.29L10.5765 0Z" fill="#00BAFF"/>
<path fill-rule="evenodd" clip-rule="evenodd" d="M5.73726 9.37197C6.06602 10.5989 7.3272 11.3271 8.55417 10.9983C9.78114 10.6695 10.5093 9.40837 10.1805 8.1814C9.85175 6.95443 8.59057 6.22629 7.3636 6.55506C6.13663 6.88382 5.40849 8.145 5.73726 9.37197ZM8.14006 9.45283C7.76663 9.55289 7.3828 9.33128 7.28274 8.95786C7.18268 8.58443 7.40429 8.2006 7.77771 8.10054C8.15114 8.00048 8.53498 8.22209 8.63503 8.59551C8.73509 8.96894 8.51349 9.35277 8.14006 9.45283Z" fill="#00BAFF"/>
<path d="M0.176848 14.0218C0.113129 13.9885 0.0541566 13.957 0 13.9274V12.0385L0.442282 12.3334L0.444404 12.3348L0.462132 12.3461C0.479613 12.3571 0.508364 12.375 0.548141 12.3987C0.627711 12.4461 0.751298 12.5168 0.916953 12.6032C1.24838 12.7762 1.74737 13.0114 2.39842 13.2482C3.70043 13.7216 5.60766 14.2 8.00003 14.2C10.3924 14.2 12.2996 13.7216 13.6016 13.2482C14.2527 13.0114 14.7517 12.7762 15.0831 12.6032C15.2488 12.5168 15.3723 12.4461 15.4519 12.3987C15.4917 12.375 15.5204 12.3571 15.5379 12.3461L15.5567 12.3341L15.5577 12.3334L16 12.0385V13.9274C15.9459 13.957 15.8869 13.9885 15.8232 14.0218C15.4359 14.2239 14.8724 14.4886 14.1484 14.7518C12.7004 15.2784 10.6077 15.8 8.00003 15.8C5.39239 15.8 3.29962 15.2784 1.85163 14.7518C1.12769 14.4886 0.564169 14.2239 0.176848 14.0218Z" fill="#00BAFF"/>
</svg>
