<svg width="24" height="24" viewBox="0 0 24 24" fill="none" xmlns="http://www.w3.org/2000/svg">
<path fill-rule="evenodd" clip-rule="evenodd" d="M9.0006 3.28559C8.32159 4.05411 8 5.04759 8 6H3V8H21V6H16C16 5.04759 15.6784 4.05411 14.9994 3.28559C14.3034 2.49787 13.2772 2 12 2C10.7228 2 9.69659 2.49787 9.0006 3.28559ZM10.4994 4.60984C10.1784 4.97313 10 5.47965 10 6H14C14 5.47965 13.8216 4.97313 13.5006 4.60984C13.1966 4.26575 12.7228 4 12 4C11.2772 4 10.8034 4.26575 10.4994 4.60984Z" fill="#00BAFF"/>
<path d="M6.10151 22L4.8158 10H6.82724L7.89867 20H16.1015L17.1729 10H19.1844L17.8987 22H6.10151Z" fill="#00BAFF"/>
</svg>
