<svg width="24" height="24" viewBox="0 0 24 24" fill="none" xmlns="http://www.w3.org/2000/svg">
<path fill-rule="evenodd" clip-rule="evenodd" d="M12 5C10.3431 5 9 6.34315 9 8C9 9.65685 10.3431 11 12 11C13.6569 11 15 9.65685 15 8C15 6.34315 13.6569 5 12 5ZM11 8C11 7.44772 11.4477 7 12 7C12.5523 7 13 7.44772 13 8C13 8.55228 12.5523 9 12 9C11.4477 9 11 8.55228 11 8Z" fill="#00BAFF"/>
<path fill-rule="evenodd" clip-rule="evenodd" d="M2 13.9999L21.9999 14L22 2.00006L2.00006 2L2 13.9999ZM20 10.1707V5.82931C19.1476 5.52802 18.472 4.85242 18.1707 4H5.82931C5.52802 4.85242 4.85242 5.52802 4 5.8293V10.1707C4.85242 10.472 5.52802 11.1476 5.8293 12H18.1707C18.472 11.1476 19.1476 10.472 20 10.1707Z" fill="#00BAFF"/>
<path d="M22 18V16H2V18H22Z" fill="#00BAFF"/>
<path d="M22 22V20H2V22H22Z" fill="#00BAFF"/>
</svg>
