<svg width="24" height="24" viewBox="0 0 24 24" fill="none" xmlns="http://www.w3.org/2000/svg">
<path d="M12.1015 4C8.17947 4 5 7.17947 5 11.1015V17H3V11.1015C3 6.0749 7.0749 2 12.1015 2H12.481C16.9136 2 21 5.38208 21 10H19C19 6.66748 15.999 4 12.481 4H12.1015Z" fill="#37517E"/>
<path d="M12 8C10.3431 8 9 9.34315 9 11V19H7V11C7 8.23858 9.23858 6 12 6C14.7614 6 17 8.23858 17 11V21H15V11C15 9.34315 13.6569 8 12 8Z" fill="#37517E"/>
<path d="M11 10V22H13V10H11Z" fill="#37517E"/>
<path d="M19 19V12H21V19H19Z" fill="#37517E"/>
<path d="M3 19V21H5V19H3Z" fill="#37517E"/>
</svg>
