<svg width="16" height="16" viewBox="0 0 16 16" fill="none" xmlns="http://www.w3.org/2000/svg">
<path d="M7.99995 1.79995C5.12807 1.79995 2.79995 4.12807 2.79995 6.99995V12H1.19995V6.99995C1.19995 3.24442 4.24442 0.199951 7.99995 0.199951C12.4418 0.199951 14.8 3.55812 14.8 5.99995H13.2C13.2 4.44178 11.5581 1.79995 7.99995 1.79995Z" fill="#37517E"/>
<path d="M7.99995 3.19995C5.90127 3.19995 4.19995 4.90127 4.19995 6.99995V14H5.79995V6.99995C5.79995 5.78492 6.78492 4.79995 7.99995 4.79995C9.21498 4.79995 10.2 5.78492 10.2 6.99995V15H11.8V6.99995C11.8 4.90127 10.0986 3.19995 7.99995 3.19995Z" fill="#37517E"/>
<path d="M8.79995 7V16H7.19995V7H8.79995Z" fill="#37517E"/>
<path d="M13.2 8V13H14.8V8H13.2Z" fill="#37517E"/>
<path d="M2.79995 15.5V13.5H1.19995V15.5H2.79995Z" fill="#37517E"/>
</svg>
