<svg width="16" height="16" viewBox="0 0 16 16" fill="none" xmlns="http://www.w3.org/2000/svg">
<path d="M4.17617 6.69316L6.93268 7.97856L4.23356 0.78091L5.73168 0.219113L8.44958 7.46684L9.75764 4.66171L11.2077 5.3379L8.75655 10.5945L3.49997 8.14325L4.17617 6.69316Z" fill="#37517E"/>
<path fill-rule="evenodd" clip-rule="evenodd" d="M7.48274 13.5C7.48274 14.8807 8.60203 16 9.98274 16C11.3635 16 12.4827 14.8807 12.4827 13.5C12.4827 12.1193 11.3635 11 9.98274 11C8.60203 11 7.48274 12.1193 7.48274 13.5ZM9.08274 13.5C9.08274 13.997 9.48569 14.4 9.98274 14.4C10.4798 14.4 10.8827 13.997 10.8827 13.5C10.8827 13.0029 10.4798 12.6 9.98274 12.6C9.48569 12.6 9.08274 13.0029 9.08274 13.5Z" fill="#37517E"/>
</svg>
