<svg width="16" height="16" viewBox="0 0 16 16" fill="none" xmlns="http://www.w3.org/2000/svg">
<path d="M4.1762 6.69313L6.93271 7.97853L4.23359 0.78088L5.73171 0.219083L8.44961 7.46681L9.75768 4.66168L11.2078 5.33787L8.75658 10.5944L3.5 8.14322L4.1762 6.69313Z" fill="#00BAFF"/>
<path fill-rule="evenodd" clip-rule="evenodd" d="M7.48277 13.4999C7.48277 14.8807 8.60206 15.9999 9.98277 15.9999C11.3635 15.9999 12.4828 14.8807 12.4828 13.4999C12.4828 12.1192 11.3635 10.9999 9.98277 10.9999C8.60206 10.9999 7.48277 12.1192 7.48277 13.4999ZM9.08277 13.4999C9.08277 13.997 9.48572 14.3999 9.98277 14.3999C10.4798 14.3999 10.8828 13.997 10.8828 13.4999C10.8828 13.0029 10.4798 12.5999 9.98277 12.5999C9.48572 12.5999 9.08277 13.0029 9.08277 13.4999Z" fill="#00BAFF"/>
</svg>
