<svg width="16" height="16" viewBox="0 0 16 16" fill="none" xmlns="http://www.w3.org/2000/svg">
<path fill-rule="evenodd" clip-rule="evenodd" d="M7.19995 2.20002H7.00001C5.04843 2.20002 3.16841 3.38508 2.20293 4.68379C1.72471 5.32706 1.36396 6.14374 1.50901 6.95947C1.66045 7.81109 2.30107 8.38136 3.19995 8.65876V11.1459C3.19995 12.5852 4.01316 13.901 5.30054 14.5447L7.99995 15.8944L10.6994 14.5447C11.9867 13.901 12.8 12.5852 12.8 11.1459V8.6588C13.6989 8.38141 14.3396 7.81112 14.491 6.95947C14.6361 6.14374 14.2753 5.32706 13.7971 4.68379C12.8316 3.38508 10.9516 2.20002 9.00001 2.20002H8.79995V0H7.19995V2.20002ZM11.2 8.80005H4.79995V11.1459C4.79995 11.9792 5.27076 12.741 6.01608 13.1137L7.99995 14.1056L9.98382 13.1137C10.7291 12.741 11.2 11.9792 11.2 11.1459V8.80005ZM3.97412 7.19686C3.99252 7.1989 4.00493 7.19974 4.01049 7.20005H11.9895C11.9951 7.19974 12.0075 7.1989 12.0259 7.19686C12.066 7.19243 12.1331 7.18249 12.219 7.16061C12.8286 7.00526 12.8992 6.77226 12.9157 6.67934C12.9489 6.49289 12.8761 6.12676 12.513 5.63837C11.7959 4.67374 10.3621 3.80002 9.00001 3.80002H7.00001C5.63788 3.80002 4.2041 4.67374 3.48698 5.63837C3.1239 6.12676 3.05115 6.49289 3.0843 6.67934C3.10082 6.77226 3.17142 7.00526 3.78104 7.16061C3.86689 7.18249 3.93401 7.19243 3.97412 7.19686Z" fill="#00BAFF"/>
</svg>
