<svg width="24" height="24" viewBox="0 0 24 24" fill="none" xmlns="http://www.w3.org/2000/svg">
<path fill-rule="evenodd" clip-rule="evenodd" d="M11 4.71428C8.40544 4.7143 5.93551 6.35619 4.69509 8.07579C4.08491 8.92169 3.62055 9.99839 3.84729 11.0423C4.06535 12.0464 4.82774 12.6805 5.85718 12.977V16.5744C5.85718 18.0895 6.71319 19.4746 8.06832 20.1521L12 22.118L15.9317 20.1521C17.2869 19.4746 18.1429 18.0895 18.1429 16.5744V12.977C19.1723 12.6805 19.9347 12.0464 20.1528 11.0423C20.3795 9.99839 19.9152 8.92168 19.305 8.07579C18.0646 6.35618 15.5946 4.71428 13 4.71428L13 2H11V4.71428ZM16.1429 13.1429V16.5744C16.1429 17.332 15.7149 18.0245 15.0373 18.3633L12 19.8819L8.96275 18.3633C8.28518 18.0245 7.85718 17.332 7.85718 16.5744V13.1429H16.1429ZM6.86022 11.1423L6.86989 11.1429H17.1302L17.1399 11.1423C17.1585 11.1409 17.195 11.1376 17.246 11.1297C18.107 10.9954 18.1816 10.695 18.1984 10.6179C18.2463 10.3974 18.1662 9.91574 17.683 9.24584C16.7366 7.93385 14.8237 6.71428 13 6.71428H11C9.17635 6.71428 7.26352 7.93385 6.31712 9.24584C5.83389 9.91574 5.75383 10.3974 5.80172 10.6179C5.81847 10.695 5.89305 10.9954 6.75406 11.1297C6.80509 11.1376 6.8416 11.1409 6.86022 11.1423Z" fill="#00BAFF"/>
</svg>
