<svg width="24" height="24" viewBox="0 0 24 24" fill="none" xmlns="http://www.w3.org/2000/svg">
<path d="M1 22H11V20H3V4H5.5V6H10.5V4H13V6H15V2H1V22Z" fill="#00BAFF"/>
<path d="M6.5 16H9.5V18H6.5V16Z" fill="#00BAFF"/>
<path fill-rule="evenodd" clip-rule="evenodd" d="M13 11.5C13 9.01472 15.0147 7 17.5 7C19.9853 7 22 9.01472 22 11.5V13H23V19C23 20.6569 21.6569 22 20 22H15C13.3431 22 12 20.6569 12 19V13H13V11.5ZM20 11.5V13H15V11.5C15 10.1193 16.1193 9 17.5 9C18.8807 9 20 10.1193 20 11.5ZM21 19V15H14V19C14 19.5523 14.4477 20 15 20H20C20.5523 20 21 19.5523 21 19Z" fill="#00BAFF"/>
</svg>
