<svg width="24" height="24" viewBox="0 0 24 24" fill="none" xmlns="http://www.w3.org/2000/svg">
<path fill-rule="evenodd" clip-rule="evenodd" d="M10 22H14L14.8396 19.4815C14.9893 19.4246 15.1369 19.3634 15.2822 19.2979L17.657 20.4853L20.4854 17.6569L19.298 15.2821C19.3635 15.1368 19.4247 14.9893 19.4815 14.8395L22.0001 14V10L19.4815 9.16048C19.4247 9.01075 19.3635 8.86317 19.298 8.7179L20.4854 6.34315L17.657 3.51472L15.2822 4.7021C15.1369 4.63665 14.9893 4.57541 14.8396 4.51854L14 2H10L9.16051 4.51861C9.01081 4.57546 8.86327 4.63667 8.71802 4.70209L6.34327 3.51472L3.51484 6.34315L4.70222 8.7179C4.63678 8.86317 4.57556 9.01075 4.5187 9.16047L2.00012 10V14L4.5187 14.8395C4.57556 14.9893 4.63678 15.1368 4.70222 15.2821L3.51484 17.6569L6.34327 20.4853L8.71802 19.2979C8.86326 19.3633 9.01081 19.4245 9.16051 19.4814L10 22ZM12 15C13.6569 15 15 13.6569 15 12C15 10.3431 13.6569 9 12 9C10.3431 9 9 10.3431 9 12C9 13.6569 10.3431 15 12 15Z" fill="#00BAFF"/>
</svg>
