<svg width="16" height="16" viewBox="0 0 16 16" fill="none" xmlns="http://www.w3.org/2000/svg">
<path fill-rule="evenodd" clip-rule="evenodd" d="M9.49982 0H6.49982L5.6088 2.22756L3.40362 1.28249L1.2823 3.40381L2.22738 5.60898L-0.000183105 6.5V9.5L2.22738 10.391L1.2823 12.5962L3.40362 14.7175L5.6088 13.7724L6.49982 16H9.49982L10.3908 13.7724L12.596 14.7175L14.7173 12.5962L13.7723 10.391L15.9998 9.5V6.5L13.7723 5.60898L14.7173 3.40381L12.596 1.28249L10.3908 2.22756L9.49982 0ZM7.99994 9.99997C9.10451 9.99997 9.99994 9.10454 9.99994 7.99997C9.99994 6.8954 9.10451 5.99997 7.99994 5.99997C6.89537 5.99997 5.99994 6.8954 5.99994 7.99997C5.99994 9.10454 6.89537 9.99997 7.99994 9.99997Z" fill="#00BAFF"/>
</svg>
