<svg width="16" height="16" viewBox="0 0 16 16" fill="none" xmlns="http://www.w3.org/2000/svg">
<path d="M8 9.5C8.82843 9.5 9.5 8.82843 9.5 8C9.5 7.17157 8.82843 6.5 8 6.5C7.17157 6.5 6.5 7.17157 6.5 8C6.5 8.82843 7.17157 9.5 8 9.5Z" fill="#37517E"/>
<path fill-rule="evenodd" clip-rule="evenodd" d="M6.49988 0H9.49988L10.3909 2.22756L12.5961 1.28249L14.7174 3.40381L13.7723 5.60898L15.9999 6.5V9.5L13.7723 10.391L14.7174 12.5962L12.5961 14.7175L10.3909 13.7724L9.49988 16H6.49988L5.60886 13.7724L3.40368 14.7175L1.28236 12.5962L2.22744 10.391L-0.00012207 9.5V6.5L2.22744 5.60898L1.28236 3.40381L3.40368 1.28249L5.60886 2.22756L6.49988 0ZM9.51424 4.34402L12.2307 3.17983L12.82 3.7692L11.6559 6.48565L14.3999 7.58325V8.41675L11.6559 9.51435L12.82 12.2308L12.2307 12.8202L9.51424 11.656L8.41663 14.4H7.58314L6.48553 11.656L3.76908 12.8202L3.17971 12.2308L4.3439 9.51436L1.59988 8.41675V7.58325L4.3439 6.48565L3.17971 3.7692L3.76908 3.17983L6.48553 4.34403L7.58314 1.6H8.41663L9.51424 4.34402Z" fill="#37517E"/>
</svg>
