<svg width="24" height="24" viewBox="0 0 24 24" fill="none" xmlns="http://www.w3.org/2000/svg">
<path fill-rule="evenodd" clip-rule="evenodd" d="M15 12C15 13.6569 13.6569 15 12 15C10.3431 15 9 13.6569 9 12C9 10.3431 10.3431 9 12 9C13.6569 9 15 10.3431 15 12ZM13 12C13 12.5523 12.5523 13 12 13C11.4477 13 11 12.5523 11 12C11 11.4477 11.4477 11 12 11C12.5523 11 13 11.4477 13 12Z" fill="#37517E"/>
<path fill-rule="evenodd" clip-rule="evenodd" d="M10 22L9.16051 19.4814C9.01081 19.4245 8.86326 19.3633 8.71802 19.2979L6.34327 20.4853L3.51484 17.6569L4.70222 15.2821C4.63678 15.1368 4.57556 14.9893 4.5187 14.8395L2.00012 14V10L4.5187 9.16047C4.57556 9.01075 4.63678 8.86317 4.70222 8.7179L3.51484 6.34315L6.34327 3.51472L8.71802 4.70209C8.86327 4.63667 9.01081 4.57546 9.16051 4.51861L10 2H14L14.8396 4.51854C14.9893 4.57541 15.1369 4.63665 15.2822 4.7021L17.657 3.51472L20.4854 6.34315L19.298 8.7179C19.3635 8.86317 19.4247 9.01075 19.4815 9.16048L22.0001 10V14L19.4815 14.8395C19.4247 14.9893 19.3635 15.1368 19.298 15.2821L20.4854 17.6569L17.657 20.4853L15.2822 19.2979C15.1369 19.3634 14.9893 19.4246 14.8396 19.4815L14 22H10ZM8.67325 17.0842L6.73817 18.0518L5.94836 17.2619L6.91591 15.3269L6.52576 14.4607C6.47678 14.352 6.43096 14.2415 6.38842 14.1295L6.05149 13.2423L4.00012 12.5585V11.4415L6.05149 10.7577L6.38842 9.87051C6.43096 9.75848 6.47678 9.64804 6.52577 9.53928L6.9159 8.67314L5.94836 6.73805L6.73817 5.94824L8.67326 6.91578L9.5394 6.52564C9.64814 6.47667 9.75856 6.43086 9.87056 6.38832L10.7578 6.05139L11.4416 4H12.5585L13.2423 6.05135L14.1296 6.38827C14.2416 6.43082 14.3521 6.47665 14.4608 6.52564L15.327 6.91578L17.2621 5.94824L18.0519 6.73805L17.0843 8.67315L17.4745 9.53929C17.5235 9.64804 17.5693 9.75848 17.6118 9.8705L17.9487 10.7577L20.0001 11.4415V12.5585L17.9488 13.2423L17.6118 14.1295C17.5693 14.2415 17.5235 14.352 17.4745 14.4607L17.0843 15.3269L18.0519 17.2619L17.2621 18.0518L15.327 17.0842L14.4608 17.4744C14.3521 17.5234 14.2416 17.5692 14.1296 17.6117L13.2423 17.9486L12.5585 20H11.4416L10.7578 17.9486L9.87057 17.6117C9.75857 17.5691 9.64814 17.5233 9.5394 17.4744L8.67325 17.0842Z" fill="#37517E"/>
</svg>
