<svg width="16" height="16" viewBox="0 0 16 16" fill="none" xmlns="http://www.w3.org/2000/svg">
<path d="M2.24995 0.200012C1.11777 0.200012 0.199951 1.11783 0.199951 2.25001V2.70001C0.199951 3.58367 0.916296 4.30001 1.79995 4.30001V2.25001C1.79995 2.00148 2.00142 1.80001 2.24995 1.80001H13.75C13.9985 1.80001 14.2 2.00148 14.2 2.25001V4.30001C15.0836 4.30001 15.8 3.58367 15.8 2.70001V2.25001C15.8 1.11783 14.8821 0.200012 13.75 0.200012H2.24995Z" fill="#00BAFF"/>
<path fill-rule="evenodd" clip-rule="evenodd" d="M3.19995 14C3.19995 14.9941 4.00584 15.8 4.99995 15.8H11C11.9941 15.8 12.8 14.9941 12.8 14V5.00002C12.8 4.00591 11.9941 3.20002 11 3.20002H4.99995C4.00584 3.20002 3.19995 4.00591 3.19995 5.00002V14ZM4.99995 14.2C4.88949 14.2 4.79995 14.1105 4.79995 14V5.00002C4.79995 4.88956 4.88949 4.80002 4.99995 4.80002H6V14.2H4.99995ZM7.99995 14.2L8 4.80002H11C11.1104 4.80002 11.2 4.88956 11.2 5.00002V14C11.2 14.1105 11.1104 14.2 11 14.2H7.99995Z" fill="#00BAFF"/>
</svg>
