<svg width="16" height="16" viewBox="0 0 16 16" fill="none" xmlns="http://www.w3.org/2000/svg">
<path d="M2.24995 0.199951C1.11777 0.199951 0.199951 1.11777 0.199951 2.24995V2.69995C0.199951 3.58361 0.916296 4.29995 1.79995 4.29995V2.24995C1.79995 2.00142 2.00142 1.79995 2.24995 1.79995H13.75C13.9985 1.79995 14.2 2.00142 14.2 2.24995V4.29995C15.0836 4.29995 15.8 3.58361 15.8 2.69995V2.24995C15.8 1.11777 14.8821 0.199951 13.75 0.199951H2.24995Z" fill="#37517E"/>
<path fill-rule="evenodd" clip-rule="evenodd" d="M3.19995 14C3.19995 14.9941 4.00584 15.8 4.99995 15.8H11C11.9941 15.8 12.8 14.9941 12.8 14V4.99996C12.8 4.00584 11.9941 3.19996 11 3.19996H4.99995C4.00584 3.19996 3.19995 4.00585 3.19995 4.99996V14ZM4.99995 14.2C4.88949 14.2 4.79995 14.1104 4.79995 14V4.99996C4.79995 4.8895 4.88949 4.79996 4.99995 4.79996H6V14.2H4.99995ZM7.99995 14.2L8 4.79996H11C11.1104 4.79996 11.2 4.8895 11.2 4.99996V14C11.2 14.1104 11.1104 14.2 11 14.2H7.99995Z" fill="#37517E"/>
</svg>
