<svg width="16" height="16" viewBox="0 0 16 16" fill="none" xmlns="http://www.w3.org/2000/svg">
<path d="M9.41621 16V8.67124H11.8752L11.9716 7.95604L12.06 7.24085L12.1484 6.52565L12.2449 5.81045H9.41621V3.9863C9.41284 3.79724 9.43172 3.60843 9.47246 3.42378C9.50558 3.26181 9.57724 3.1102 9.6814 2.98181C9.79415 2.84993 9.94175 2.75246 10.1073 2.70055C10.3402 2.62285 10.5852 2.58747 10.8305 2.59608H12.3413V0.0406598H12.0359L11.5377 0.000480001H10.8868H10.1394C9.63028 -0.0071938 9.12392 0.0772 8.64476 0.249594C8.20978 0.401047 7.81434 0.648199 7.48759 0.972827C7.15194 1.3062 6.89401 1.70956 6.73221 2.15411C6.5485 2.66969 6.45869 3.21402 6.46703 3.76129V5.81045H4V8.67124H6.46703V16H9.41621Z" fill="#00BAFF"/>
</svg>
