<svg width="24" height="24" viewBox="0 0 24 24" fill="none" xmlns="http://www.w3.org/2000/svg">
<path d="M13.7703 22V12.839H16.844L16.9645 11.9451L17.075 11.0511L17.1855 10.1571L17.3061 9.26306H13.7703V6.98287C13.766 6.74654 13.7896 6.51054 13.8406 6.27973C13.882 6.07726 13.9716 5.88775 14.1017 5.72726C14.2427 5.56242 14.4272 5.44058 14.6341 5.37569C14.9253 5.27856 15.2314 5.23433 15.5382 5.2451H17.4266V2.05082H17.0449L16.4221 2.0006H15.6085H14.6743C14.0378 1.99101 13.4049 2.0965 12.806 2.31199C12.2622 2.50131 11.7679 2.81025 11.3595 3.21603C10.9399 3.63275 10.6175 4.13695 10.4153 4.69263C10.1856 5.33711 10.0734 6.01753 10.0838 6.70161V9.26306H7V12.839H10.0838V22H13.7703Z" fill="#37517E"/>
</svg>
