<svg width="16" height="16" viewBox="0 0 16 16" fill="none" xmlns="http://www.w3.org/2000/svg">
<path d="M0.199951 0.199951H11.8V5H10.2V1.79995H8V3.30005H4V1.79995H1.79995V14.2H7V15.8H0.199951V0.199951Z" fill="#37517E"/>
<path d="M5 11.2H7V12.8H5V11.2Z" fill="#37517E"/>
<path fill-rule="evenodd" clip-rule="evenodd" d="M8.69995 9.66662V10.2H8.19995V14C8.19995 14.9941 9.00584 15.8 9.99995 15.8H14C14.9941 15.8 15.8 14.9941 15.8 14V10.2H15.3V9.66662C15.3 8.00952 14.1137 6.19995 12 6.19995C9.88616 6.19995 8.69995 8.00952 8.69995 9.66662ZM12 7.79995C10.9887 7.79995 10.3 8.65705 10.3 9.66662V10.2H13.7V9.66662C13.7 8.65705 13.0112 7.79995 12 7.79995ZM9.79995 11.8V14C9.79995 14.1104 9.88949 14.2 9.99995 14.2H14C14.1104 14.2 14.2 14.1104 14.2 14V11.8H9.79995Z" fill="#37517E"/>
</svg>
