<svg width="16" height="16" viewBox="0 0 16 16" fill="none" xmlns="http://www.w3.org/2000/svg">
<path d="M0.200012 0.199951H11.8V5H10.2V1.79995H8.00006V3.30005H4.00006V1.79995H1.80001V14.2H7.00006V15.8H0.200012V0.199951Z" fill="#00BAFF"/>
<path d="M5.00006 11.2H7.00006V12.8H5.00006V11.2Z" fill="#00BAFF"/>
<path fill-rule="evenodd" clip-rule="evenodd" d="M8.70001 9.66662V10.2H8.20001V14C8.20001 14.9941 9.0059 15.8 10 15.8H14C14.9941 15.8 15.8 14.9941 15.8 14V10.2H15.3V9.66662C15.3 8.00952 14.1138 6.19995 12 6.19995C9.88622 6.19995 8.70001 8.00952 8.70001 9.66662ZM12 7.79995C10.9888 7.79995 10.3 8.65705 10.3 9.66662V10.2H13.7V9.66662C13.7 8.65705 13.0112 7.79995 12 7.79995ZM9.80001 11.8V14C9.80001 14.1104 9.88955 14.2 10 14.2H14C14.1105 14.2 14.2 14.1104 14.2 14V11.8H9.80001Z" fill="#00BAFF"/>
</svg>
