<svg width="24" height="24" viewBox="0 0 24 24" fill="none" xmlns="http://www.w3.org/2000/svg">
<path d="M9.1 11C9.98366 11 10.7 10.2837 10.7 9.40005C10.7 8.51639 9.98366 7.80005 9.1 7.80005C8.21634 7.80005 7.5 8.51639 7.5 9.40005C7.5 10.2837 8.21634 11 9.1 11Z" fill="#00BAFF"/>
<path d="M16.7 9.40005C16.7 10.2837 15.9837 11 15.1 11C14.2163 11 13.5 10.2837 13.5 9.40005C13.5 8.51639 14.2163 7.80005 15.1 7.80005C15.9837 7.80005 16.7 8.51639 16.7 9.40005Z" fill="#00BAFF"/>
<path d="M16 14C16 16.2091 14.2091 18 12 18C9.79086 18 8 16.2091 8 14H16Z" fill="#00BAFF"/>
<path fill-rule="evenodd" clip-rule="evenodd" d="M22 12C22 17.5228 17.5228 22 12 22C6.47715 22 2 17.5228 2 12C2 6.47715 6.47715 2 12 2C17.5228 2 22 6.47715 22 12ZM20 12C20 16.4183 16.4183 20 12 20C7.58172 20 4 16.4183 4 12C4 7.58172 7.58172 4 12 4C16.4183 4 20 7.58172 20 12Z" fill="#00BAFF"/>
</svg>
