<svg width="24" height="24" viewBox="0 0 24 24" fill="none" xmlns="http://www.w3.org/2000/svg">
<path d="M12.3258 2C18.5324 2 20.6968 10.2422 15.2909 13.2916L12.9999 14.584L12.9999 16.5L10.9999 16.5L10.9999 13.4159L14.3083 11.5497C17.9227 9.51083 16.4755 4 12.3258 4C10.2128 4 8.49997 5.71287 8.49998 7.82579L8.49998 8.38849L6.50439 7.59683C6.62464 4.48546 9.18495 2 12.3258 2Z" fill="#00BAFF"/>
<path d="M12 22C12.8837 22 13.6 21.2837 13.6 20.4C13.6 19.5163 12.8837 18.8 12 18.8C11.1163 18.8 10.4 19.5163 10.4 20.4C10.4 21.2837 11.1163 22 12 22Z" fill="#00BAFF"/>
</svg>
