<svg width="16" height="16" viewBox="0 0 16 16" fill="none" xmlns="http://www.w3.org/2000/svg">
<path d="M9.83829 0.242892C13.7031 1.53116 14.1742 6.80753 10.5988 8.76014L8.72894 9.78132V11.6H7.12894L7.12894 8.83206L9.83193 7.3559C12.1807 6.0732 11.8712 2.60707 9.33233 1.76079C7.34857 1.09954 5.29997 2.57609 5.29997 4.66715L5.29996 4.9093L3.71545 4.28072C3.95537 1.30525 6.94222 -0.722458 9.83829 0.242892Z" fill="#37517E"/>
<path d="M7.99997 16.0001C8.66271 16.0001 9.19997 15.4628 9.19997 14.8001C9.19997 14.1373 8.66271 13.6001 7.99997 13.6001C7.33723 13.6001 6.79997 14.1373 6.79997 14.8001C6.79997 15.4628 7.33723 16.0001 7.99997 16.0001Z" fill="#37517E"/>
</svg>
