<svg width="24" height="24" viewBox="0 0 24 24" fill="none" xmlns="http://www.w3.org/2000/svg">
<path fill-rule="evenodd" clip-rule="evenodd" d="M0 6C0 4.89543 0.89543 4 2 4H22C23.1046 4 24 4.89543 24 6V9.53822C22.4425 9.77873 21.25 11.1251 21.25 12.75C21.25 14.3749 22.4425 15.7213 24 15.9618V18C24 19.1046 23.1046 20 22 20H2C0.895431 20 0 19.1046 0 18V6ZM16 16H4V14H16V16ZM5.5 9C4.67157 9 4 9.67157 4 10.5C4 11.3284 4.67157 12 5.5 12H6.5C7.32843 12 8 11.3284 8 10.5C8 9.67157 7.32843 9 6.5 9H5.5Z" fill="#00BAFF"/>
</svg>
